<svg xmlns="http://www.w3.org/2000/svg" width="59.997" height="60" viewBox="0 0 59.997 60">
  <g id="Page-1" transform="translate(0 -0.001)">
    <g id="_083---Money-Bag" data-name="083---Money-Bag" transform="translate(0 0.001)">
      <path id="Shape" d="M36.358,26H35a2.006,2.006,0,0,0-2,2V56.558c-3.36,1.78-7.51,2.44-12,2.44C9.95,59,1,55,1,41A23.891,23.891,0,0,1,5.36,27.25,47.527,47.527,0,0,1,10.629,21H31.5a2.546,2.546,0,0,0,.74-.11l-.18.17a49.277,49.277,0,0,1,4.3,4.94Z" transform="translate(0 -0.002)" fill="#a7cf45"/>
      <path id="Shape-2" data-name="Shape" d="M32.06,21.06,32,21" transform="translate(-0.002 -0.002)" fill="#ff9801"/>
      <path id="Shape-3" data-name="Shape" d="M34,18.5a2.509,2.509,0,0,1-1.76,2.39,2.546,2.546,0,0,1-.74.11h-21a2.5,2.5,0,1,1,0-5h21A2.492,2.492,0,0,1,34,18.5Z" transform="translate(0 -0.002)" fill="#c7c6c8"/>
      <rect id="Rectangle-path" width="25.999" height="32.998" rx="2" transform="translate(32.998 25.998)" fill="#fff"/>
      <rect id="Rectangle-path-2" data-name="Rectangle-path" width="15.999" height="6" rx="1" transform="translate(37.998 30.998)" fill="#23c2f2"/>
      <path id="Shape-4" data-name="Shape" d="M29,16H13S4.36,4.42,7,2C8.34.77,10.5,4,13.99,4s3.5-3,7-3,3.5,3,7.01,3,5.66-3.23,7-2C37.638,4.42,29,16,29,16Z" transform="translate(0 -0.001)" fill="#a7cf45"/>
      <path id="Shape-5" data-name="Shape" d="M10.99,4a4.685,4.685,0,0,0,1.45-.217C9.843,3.086,8.129.964,7,2a1.394,1.394,0,0,0-.348.518A8.664,8.664,0,0,0,10.99,4Z" transform="translate(0 -0.001)" fill="#f57c00"/>
      <g id="Group_28414" data-name="Group 28414">
        <path id="Shape-6" data-name="Shape" d="M3.6,30.173a1,1,0,0,0-1.328.486A24.4,24.4,0,0,0,0,41C0,53.606,7.065,60,21,60a32.335,32.335,0,0,0,8.357-.963,1,1,0,0,0-.514-1.933A30.83,30.83,0,0,1,21,58C8.215,58,2,52.438,2,41a22.113,22.113,0,0,1,2.087-9.5A1,1,0,0,0,3.6,30.173Z" transform="translate(0 -0.002)" fill="#221e26"/>
        <path id="Shape-7" data-name="Shape" d="M57,25H35a3,3,0,0,0-3,3V57a3,3,0,0,0,3,3H57a3,3,0,0,0,3-3V28A3,3,0,0,0,57,25Zm1,32a1,1,0,0,1-1,1H35a1,1,0,0,1-1-1V28a1,1,0,0,1,1-1H57a1,1,0,0,1,1,1Z" transform="translate(-0.002 -0.002)" fill="#221e26"/>
        <path id="Shape-8" data-name="Shape" d="M39,38H53a2,2,0,0,0,2-2V32a2,2,0,0,0-2-2H39a2,2,0,0,0-2,2v4A2,2,0,0,0,39,38Zm0-6H53v4H39Z" transform="translate(-0.002 -0.002)" fill="#221e26"/>
        <path id="Shape-9" data-name="Shape" d="M41,41H38a1,1,0,0,0,0,2h3a1,1,0,0,0,0-2Z" transform="translate(-0.002 -0.003)" fill="#221e26"/>
        <path id="Shape-10" data-name="Shape" d="M41,45H38a1,1,0,0,0,0,2h3a1,1,0,0,0,0-2Z" transform="translate(-0.002 -0.003)" fill="#221e26"/>
        <path id="Shape-11" data-name="Shape" d="M41,49H38a1,1,0,0,0,0,2h3a1,1,0,0,0,0-2Z" transform="translate(-0.002 -0.003)" fill="#221e26"/>
        <path id="Shape-12" data-name="Shape" d="M41,53H38a1,1,0,0,0,0,2h3a1,1,0,0,0,0-2Z" transform="translate(-0.002 -0.004)" fill="#221e26"/>
        <path id="Shape-13" data-name="Shape" d="M48,41H45a1,1,0,0,0,0,2h3a1,1,0,1,0,0-2Z" transform="translate(-0.002 -0.003)" fill="#221e26"/>
        <path id="Shape-14" data-name="Shape" d="M48,45H45a1,1,0,0,0,0,2h3a1,1,0,1,0,0-2Z" transform="translate(-0.002 -0.003)" fill="#221e26"/>
        <path id="Shape-15" data-name="Shape" d="M48,49H45a1,1,0,0,0,0,2h3a1,1,0,1,0,0-2Z" transform="translate(-0.002 -0.003)" fill="#221e26"/>
        <path id="Shape-16" data-name="Shape" d="M48,53H45a1,1,0,0,0,0,2h3a1,1,0,1,0,0-2Z" transform="translate(-0.002 -0.004)" fill="#221e26"/>
        <path id="Shape-17" data-name="Shape" d="M55,41H52a1,1,0,0,0,0,2h3a1,1,0,1,0,0-2Z" transform="translate(-0.003 -0.003)" fill="#221e26"/>
        <path id="Shape-18" data-name="Shape" d="M55,45H52a1,1,0,0,0,0,2h3a1,1,0,1,0,0-2Z" transform="translate(-0.003 -0.003)" fill="#221e26"/>
        <path id="Shape-19" data-name="Shape" d="M55,49H52a1,1,0,0,0,0,2h3a1,1,0,1,0,0-2Z" transform="translate(-0.003 -0.003)" fill="#221e26"/>
        <path id="Shape-20" data-name="Shape" d="M55,53H52a1,1,0,0,0,0,2h3a1,1,0,1,0,0-2Z" transform="translate(-0.003 -0.004)" fill="#221e26"/>
        <path id="Shape-21" data-name="Shape" d="M6.325,1.263C3.692,3.675,8.318,11.114,11.044,15H10.5a3.48,3.48,0,0,0-2.477,1.022A3.525,3.525,0,0,0,7,18.5a3.489,3.489,0,0,0,1.754,3.015A47.1,47.1,0,0,0,5.46,25.4a1,1,0,1,0,1.6,1.2,48.323,48.323,0,0,1,4-4.6H31.5a3.5,3.5,0,1,0,0-7h-.544c2.725-3.885,7.351-11.323,4.72-13.736-1.21-1.108-2.62-.3-3.863.407A7.713,7.713,0,0,1,28,3a3.874,3.874,0,0,1-2.851-1.26,5.821,5.821,0,0,0-8.3,0A3.874,3.874,0,0,1,13.993,3a7.681,7.681,0,0,1-3.81-1.33C8.941.961,7.532.156,6.325,1.263ZM32.562,17.437A1.5,1.5,0,0,1,31.5,20h-21a1.5,1.5,0,0,1,0-3h21a1.51,1.51,0,0,1,1.063.438ZM13.993,5a5.821,5.821,0,0,0,4.151-1.741,3.854,3.854,0,0,1,5.7,0A5.825,5.825,0,0,0,28,5a9.58,9.58,0,0,0,4.809-1.594,4.182,4.182,0,0,1,1.519-.669c1.026.94-1.686,6.609-5.832,12.262H26V10a1,1,0,1,0-2,0v5H18V10a1,1,0,0,0-2,0v5H13.508C9.362,9.346,6.65,3.677,7.69,2.722a4.964,4.964,0,0,1,1.5.684A9.561,9.561,0,0,0,13.993,5Z" transform="translate(0 -0.001)" fill="#221e26"/>
        <path id="Path_33850" data-name="Path 33850" d="M-6.578-17.3H1a4.16,4.16,0,0,0-.414-1.2,2.739,2.739,0,0,0-.812-.922,3.928,3.928,0,0,0-1.3-.594,7.035,7.035,0,0,0-1.836-.211H-6.578v-2.187H7.531v2.188H2.406a5.241,5.241,0,0,1,.742,1.3A6.082,6.082,0,0,1,3.531-17.3h4v2.188H3.453a6.2,6.2,0,0,1-1.539,3.2,6.274,6.274,0,0,1-3.07,1.82v.063a5.54,5.54,0,0,1,.969.578A6.678,6.678,0,0,1,.656-8.7a9.092,9.092,0,0,1,.8.992q.4.563.852,1.281L6.3,0H3.328L-.234-5.969q-.516-.859-.977-1.516A5.63,5.63,0,0,0-2.2-8.578a3.649,3.649,0,0,0-1.156-.656,4.52,4.52,0,0,0-1.477-.219h-1.75v-2.141h3.2a4.455,4.455,0,0,0,1.516-.258A4.393,4.393,0,0,0-.57-12.57,4.322,4.322,0,0,0,.4-13.68a4.594,4.594,0,0,0,.57-1.43H-6.578Z" transform="translate(21 51.5)" fill="#221e26"/>
      </g>
    </g>
  </g>
</svg>
