<svg xmlns="http://www.w3.org/2000/svg" width="59.579" height="60" viewBox="0 0 59.579 60">
  <g id="_24-hours_1_" data-name="24-hours (1)" transform="translate(-1.797)">
    <g id="Group_28462" data-name="Group 28462" transform="translate(2.676 0.879)">
      <path id="Path_33884" data-name="Path 33884" d="M59.306,11.162,55.595,13.1A29.122,29.122,0,1,0,38.422,65.742a3.579,3.579,0,1,0,0-7.158,21.963,21.963,0,1,1,9.791-41.628l-2.482,1.3a3.821,3.821,0,0,0-.279,6.612l12.927,8.209a3.821,3.821,0,0,0,5.866-3.064l.648-15.3a3.821,3.821,0,0,0-5.586-3.548Z" transform="translate(-9.301 -7.5)" fill="#a7cf45"/>
      <g id="Group_28459" data-name="Group 28459" transform="translate(13.676 21.428)">
        <g id="Group_28454" data-name="Group 28454" transform="translate(12.574)">
          <path id="Path_33888" data-name="Path 33888" d="M243.173,210.172h-.016a1.789,1.789,0,0,1-1.774-1.8c.008-.915.016-1.931.024-2.989h-6.321a1.789,1.789,0,0,1-1.567-2.654c1.285-2.329,5.55-10.018,6.471-11.148a2.838,2.838,0,0,1,3.052-1.114A2.945,2.945,0,0,1,245,193.117c.048.58.036,4.775.013,8.682h.276a1.789,1.789,0,1,1,0,3.579h-.3c-.01,1.36-.019,2.457-.024,3.02A1.789,1.789,0,0,1,243.173,210.172Zm-5.046-8.373h3.3c.013-2.178.021-4.278.021-5.839C240.568,197.467,239.362,199.589,238.127,201.8Z" transform="translate(-233.296 -190.35)" fill="#ff9595"/>
        </g>
        <g id="Group_28455" data-name="Group 28455" transform="translate(0 0.236)">
          <path id="Path_33889" data-name="Path 33889" d="M131.464,212.505c-3.116,0-3.349-.078-3.592-.159a1.865,1.865,0,0,1-1.213-1.228c-.306-1,.153-1.6,1.16-2.915.825-1.08,2.361-3.091,4.934-6.768a9.046,9.046,0,0,0,1.43-2.824l.051-.4a2.367,2.367,0,0,0-4.687-.363,1.789,1.789,0,1,1-3.512-.69,5.946,5.946,0,0,1,11.779,1.15,9.271,9.271,0,0,1-.127,1.032,12.292,12.292,0,0,1-2,4.148c-1.739,2.485-3.014,4.224-3.92,5.434,1.461,0,3.246-.016,4.927-.037a1.789,1.789,0,0,1,.045,3.579C134.4,212.493,132.7,212.505,131.464,212.505Z" transform="translate(-126.002 -192.362)" fill="#ff9595"/>
        </g>
      </g>
      <g id="Group_28460" data-name="Group 28460" transform="translate(45.499 38.632)">
        <path id="Path_33894" data-name="Path 33894" d="M401.084,356.679a1.763,1.763,0,0,1-1.612-2.471l5.943-13.52h-6.1a1.762,1.762,0,0,1,0-3.524h8.8a1.762,1.762,0,0,1,1.613,2.471L402.7,355.626A1.762,1.762,0,0,1,401.084,356.679Z" transform="translate(-397.556 -337.164)" fill="#23c2f2"/>
      </g>
    </g>
    <g id="Group_28463" data-name="Group 28463" transform="translate(1.797 0)">
      <path id="Path_33897" data-name="Path 33897" d="M31.8,51.084A21.084,21.084,0,1,1,39.571,10.4l-.872.455a4.7,4.7,0,0,0-.343,8.133l12.927,8.209A4.7,4.7,0,0,0,58.5,23.427l.648-15.3a4.7,4.7,0,0,0-6.871-4.365L49.043,5.45A29.766,29.766,0,0,0,31.8,0a30.134,30.134,0,0,0-8.741,1.287.879.879,0,0,0,.51,1.682A28.376,28.376,0,0,1,31.8,1.758,28.026,28.026,0,0,1,48.451,7.189a.878.878,0,0,0,.926.07L53.088,5.32a2.942,2.942,0,0,1,4.3,2.732l-.648,15.3a2.941,2.941,0,0,1-4.516,2.358L39.3,17.5a2.942,2.942,0,0,1,.214-5.091L42,11.115a.879.879,0,0,0-.015-1.566A22.844,22.844,0,1,0,31.8,52.842a2.7,2.7,0,0,1,0,5.4A28.259,28.259,0,0,1,20.376,4.153a.879.879,0,1,0-.711-1.608A30.009,30.009,0,0,0,31.8,60a4.458,4.458,0,0,0,0-8.916Z" transform="translate(-1.797 0)" fill="#221e26"/>
      <path id="Path_33898" data-name="Path 33898" d="M239.231,201.765c0-.446.01-1.228.018-2.21a2.669,2.669,0,0,0,.035-5.2c.039-7.225-.006-7.764-.021-7.946a3.817,3.817,0,0,0-2.57-3.422,3.686,3.686,0,0,0-3.993,1.4c-.941,1.155-4.9,8.272-6.559,11.279a2.668,2.668,0,0,0,2.336,3.957h5.435c-.006.738-.011,1.446-.017,2.1a2.668,2.668,0,0,0,2.643,2.691h.025a2.676,2.676,0,0,0,2.668-2.646Zm-3.318.615a.9.9,0,0,1-.261-.646c.008-.916.016-1.931.024-2.99a.879.879,0,0,0-.879-.885h-6.321a.911.911,0,0,1-.8-1.35c2.63-4.767,5.688-10.165,6.383-11.017a2.157,2.157,0,0,1,1.633-.9,1.611,1.611,0,0,1,.477.073,2.075,2.075,0,0,1,1.339,1.889c.021.255.051,1.712.01,8.6a.879.879,0,0,0,.879.884h.276a.911.911,0,0,1,0,1.821h-.3a.879.879,0,0,0-.879.872c-.01,1.36-.019,2.456-.024,3.019a.913.913,0,0,1-.91.9v.879l-.008-.879a.9.9,0,0,1-.642-.272Z" transform="translate(-199.558 -161.404)" fill="#221e26"/>
      <path id="Path_33899" data-name="Path 33899" d="M271.448,230.755a.879.879,0,0,0-.989.4c-.853,1.455-2.037,3.534-3.334,5.854a.879.879,0,0,0,.767,1.308h3.3a.879.879,0,0,0,.879-.874c.014-2.393.021-4.414.021-5.844A.879.879,0,0,0,271.448,230.755Zm-1.126,5.808h-.929c.324-.576.638-1.131.937-1.657C270.328,235.431,270.325,235.984,270.322,236.564Z" transform="translate(-235.934 -203.687)" fill="#221e26"/>
      <path id="Path_33900" data-name="Path 33900" d="M131.919,192.92a9.037,9.037,0,0,0,.15-1.232,6.825,6.825,0,0,0-13.521-1.32,2.668,2.668,0,0,0,5.237,1.028,1.488,1.488,0,0,1,2.942.164l-.034.265a8.356,8.356,0,0,1-1.286,2.487c-2.562,3.661-4.091,5.663-4.912,6.738-1.048,1.372-1.74,2.279-1.3,3.706a2.734,2.734,0,0,0,1.775,1.8c.355.118.612.2,3.87.2,1.322,0,3.05-.014,5.284-.042a2.668,2.668,0,1,0-.067-5.336c-1.054.013-2.147.024-3.166.03.9-1.232,1.858-2.568,2.891-4.044a13.147,13.147,0,0,0,2.14-4.452Zm-7.483,8.855a.879.879,0,0,0,.7,1.406h0c1.437,0,3.237-.016,4.934-.037a.911.911,0,1,1,.025,1.821c-2.227.028-3.948.042-5.262.042a15.634,15.634,0,0,1-3.314-.114.983.983,0,0,1-.651-.653c-.16-.521.007-.8,1.018-2.123.829-1.085,2.372-3.106,4.955-6.8a9.885,9.885,0,0,0,1.562-3.113,4.672,4.672,0,0,0,.077-.653,3.246,3.246,0,0,0-6.427-.5.911.911,0,1,1-1.787-.351,5.067,5.067,0,0,1,10.038.981c-.005.148-.078.686-.1.834a11.439,11.439,0,0,1-1.868,3.842c-1.429,2.042-2.706,3.812-3.9,5.411Z" transform="translate(-104.822 -163.199)" fill="#221e26"/>
      <path id="Path_33901" data-name="Path 33901" d="M403.705,330.857a2.634,2.634,0,0,0-2.211-1.2h-8.8a2.641,2.641,0,0,0,0,5.282h4.752l-2.475,5.63a.879.879,0,0,0,1.609.707l3.016-6.863a.879.879,0,0,0-.8-1.233h-6.1a.883.883,0,0,1,0-1.766h8.8a.883.883,0,0,1,.808,1.239l-7.029,15.99a.883.883,0,1,1-1.617-.709l1.513-3.441a.879.879,0,1,0-1.609-.708l-1.513,3.441a2.641,2.641,0,1,0,4.836,2.124l7.028-15.989A2.628,2.628,0,0,0,403.705,330.857Z" transform="translate(-344.558 -291.028)" fill="#221e26"/>
      <path id="Path_33902" data-name="Path 33902" d="M328.773,251.306a.879.879,0,0,0-1.176.4l-10.155,20.779a.879.879,0,1,0,1.579.772l10.155-20.779A.879.879,0,0,0,328.773,251.306Z" transform="translate(-280.374 -221.777)" fill="#221e26"/>
    </g>
  </g>
</svg>
