<svg xmlns="http://www.w3.org/2000/svg" width="63.997" height="60" viewBox="0 0 63.997 60">
  <g id="puzzle" transform="translate(0 0)">
    <path id="Path_33922" data-name="Path 33922" d="M323.269,246.074v26.24a1.873,1.873,0,0,1-1.607,2.056H297.391v-28.3Zm0,0" transform="translate(-260.219 -215.317)" fill="#ff9595"/>
    <path id="Path_33923" data-name="Path 33923" d="M321.661,118.6H297.39v6.78a4.062,4.062,0,1,1,0,6.16v9.174h10.133a4.062,4.062,0,1,1,5.613,0h10.132V120.2a1.606,1.606,0,0,0-1.607-1.607Zm0,0" transform="translate(-260.218 -103.774)" fill="#fcd770"/>
    <path id="Path_33926" data-name="Path 33926" d="M35.8,14.57a4.039,4.039,0,0,0-2.349.749V7.574H9.177A1.607,1.607,0,0,0,7.57,9.181V29.689h9.906a4.062,4.062,0,1,0,6.066,0h9.906V21.944A4.062,4.062,0,1,0,35.8,14.57Zm0,0" transform="translate(-6.624 -6.628)" fill="#a7cf45"/>
    <path id="Path_33927" data-name="Path 33927" d="M118.349,302.9a4.045,4.045,0,0,0-2.119.6v-7.97h-10.8a4.062,4.062,0,1,1-6.755,0H90.352v20.508a1.607,1.607,0,0,0,1.607,1.607H116.23v-7.214a4.062,4.062,0,1,0,2.119-7.527Zm0,0" transform="translate(-79.059 -258.586)" fill="#23c2f2"/>
    <path id="Path_33933" data-name="Path 33933" d="M18.894,25.761a5,5,0,0,0-.317-1.754h8.248a.947.947,0,0,0,.946-.947V16.813a5.008,5.008,0,1,0,0-9.618V.946A.946.946,0,0,0,26.824,0H2.553A2.557,2.557,0,0,0,0,2.553V23.061a.947.947,0,0,0,.946.947H9.194a5.008,5.008,0,1,0,9.7,1.754Zm-8.124,0a3.109,3.109,0,0,1,.789-2.071.946.946,0,0,0-.707-1.576H1.893V2.553a.661.661,0,0,1,.661-.661H25.878v6.8a.946.946,0,0,0,1.495.771,3.115,3.115,0,1,1,0,5.082.946.946,0,0,0-1.495.771v6.8h-8.96a.947.947,0,0,0-.707,1.576,3.115,3.115,0,1,1-5.442,2.071Zm0,0" fill="#221e26"/>
    <path id="Path_33934" data-name="Path 33934" d="M133.877,111.023H118.59a.946.946,0,1,0,0,1.893h15.287a.661.661,0,0,1,.661.661v19.562h-7.392a5.008,5.008,0,1,0-9.2,0h-7.393v-6.6a5.008,5.008,0,1,0,0-9.421v-4.2H114.8a.946.946,0,0,0,0-1.893h-5.2a.946.946,0,0,0-.946.946v6.78a.946.946,0,0,0,1.563.717,3.116,3.116,0,1,1,0,4.725.946.946,0,0,0-1.563.718v8.228h-9.85a.947.947,0,0,0-.787,1.473,3.115,3.115,0,1,1-5.182,0,.947.947,0,0,0-.787-1.473H83.727a.947.947,0,0,0-.946.947v8.846a.946.946,0,0,0,1.893,0v-7.9H90.6a5.008,5.008,0,1,0,9.67,0h8.392v7.024a.947.947,0,0,0,1.441.807,3.116,3.116,0,1,1,0,5.317.947.947,0,0,0-1.441.807v6.267H85.334a.662.662,0,0,1-.661-.661v-7.876a.946.946,0,0,0-1.893,0v7.876a2.557,2.557,0,0,0,2.554,2.554h48.542a2.557,2.557,0,0,0,2.554-2.554V113.576a2.556,2.556,0,0,0-2.554-2.554Zm0,44.23H110.552v-4.864a5.008,5.008,0,1,0,0-9.739v-5.62h9.187a.946.946,0,0,0,.654-1.63,3.087,3.087,0,0,1-.963-2.25A3.116,3.116,0,1,1,124.7,133.4a.946.946,0,0,0,.654,1.63h9.186v19.562a.661.661,0,0,1-.661.661Zm0,0" transform="translate(-72.434 -97.146)" fill="#221e26"/>
  </g>
</svg>
