<svg id="Group_26242" data-name="Group 26242" xmlns="http://www.w3.org/2000/svg" width="60" height="60" viewBox="0 0 60 60">
  <rect id="Rectangle_2755" data-name="Rectangle 2755" width="60" height="60" fill="none"/>
  <path id="Path_31428" data-name="Path 31428" d="M77,105.2c-3.422,11.953-19.266,16.125-22.078,16.781a1.711,1.711,0,0,1-.844,0C51.266,121.325,35.422,117.153,32,105.2V97.184A1.875,1.875,0,0,1,33.289,95.4l20.625-6.891a1.992,1.992,0,0,1,1.172,0L75.711,95.4A1.875,1.875,0,0,1,77,97.184Z" transform="translate(-24.5 -67.7)" fill="none" stroke="#221e26" stroke-linecap="round" stroke-linejoin="round" stroke-width="2"/>
  <line id="Line_259" data-name="Line 259" y1="18.656" transform="translate(30 20.719)" fill="none" stroke="#221e26" stroke-linecap="round" stroke-linejoin="round" stroke-width="2"/>
  <line id="Line_258" data-name="Line 258" y1="5.625" transform="translate(30 5.625)" fill="none" stroke="#ff2e17" stroke-linecap="round" stroke-linejoin="round" stroke-width="2"/>
  <path id="Path_31429" data-name="Path 31429" d="M56,63V49.875A1.875,1.875,0,0,1,57.875,48h30a1.875,1.875,0,0,1,1.875,1.875V63" transform="translate(-42.875 -36.75)" fill="none" stroke="#ff2e17" stroke-linecap="round" stroke-linejoin="round" stroke-width="2"/>
</svg>
