<svg id="Group_26243" data-name="Group 26243" xmlns="http://www.w3.org/2000/svg" width="60" height="60" viewBox="0 0 60 60">
  <rect id="Rectangle_2756" data-name="Rectangle 2756" width="60" height="60" fill="none"/>
  <path id="Path_31430" data-name="Path 31430" d="M77,57.751V34.642A1.9,1.9,0,0,0,76.039,33L55.414,21.4a1.828,1.828,0,0,0-1.828,0L32.961,33A1.9,1.9,0,0,0,32,34.642V57.751a1.9,1.9,0,0,0,.961,1.641l20.625,11.6a1.828,1.828,0,0,0,1.828,0l20.625-11.6A1.9,1.9,0,0,0,77,57.751Z" transform="translate(-24.5 -16.197)" fill="none" stroke="#221e26" stroke-linecap="round" stroke-linejoin="round" stroke-width="2"/>
  <path id="Path_31432" data-name="Path 31432" d="M77.584,74.6,55.553,87.116,33.1,74.6" transform="translate(-25.342 -57.116)" fill="none" stroke="#221e26" stroke-linecap="round" stroke-linejoin="round" stroke-width="2"/>
  <line id="Line_260" data-name="Line 260" x1="0.211" y2="25.031" transform="translate(30 30)" fill="none" stroke="#221e26" stroke-linecap="round" stroke-linejoin="round" stroke-width="2"/>
  <path id="Path_31431" data-name="Path 31431" d="M102.734,71.727V59.539L80,47" transform="translate(-61.25 -35.984)" fill="none" stroke="#ff2e17" stroke-linecap="round" stroke-linejoin="round" stroke-width="2"/>
</svg>
