<svg id="Group_25394" data-name="Group 25394" xmlns="http://www.w3.org/2000/svg" width="60" height="60" viewBox="0 0 60 60">
  <rect id="Rectangle_2737" data-name="Rectangle 2737" width="60" height="60" fill="none"/>
  <circle id="Ellipse_1264" data-name="Ellipse 1264" cx="7.5" cy="7.5" r="7.5" transform="translate(11.25 31.875)" fill="none" stroke="#221e26" stroke-linecap="round" stroke-linejoin="round" stroke-width="2"/>
  <path id="Path_31028" data-name="Path 31028" d="M32,205.625a14.062,14.062,0,0,1,22.5,0" transform="translate(-24.5 -153.125)" fill="none" stroke="#221e26" stroke-linecap="round" stroke-linejoin="round" stroke-width="2"/>
  <circle id="Ellipse_1265" data-name="Ellipse 1265" cx="7.5" cy="7.5" r="7.5" transform="translate(11.25 7.5)" fill="none" stroke="#221e26" stroke-linecap="round" stroke-linejoin="round" stroke-width="2"/>
  <path id="Path_31029" data-name="Path 31029" d="M32,101.625a14.062,14.062,0,0,1,22.5,0" transform="translate(-24.5 -73.5)" fill="none" stroke="#221e26" stroke-linecap="round" stroke-linejoin="round" stroke-width="2"/>
  <circle id="Ellipse_1266" data-name="Ellipse 1266" cx="7.5" cy="7.5" r="7.5" transform="translate(33.75 31.875)" fill="none" stroke="#221e26" stroke-linecap="round" stroke-linejoin="round" stroke-width="2"/>
  <path id="Path_31030" data-name="Path 31030" d="M128,205.625a14.063,14.063,0,0,1,22.5,0" transform="translate(-98 -153.125)" fill="none" stroke="#221e26" stroke-linecap="round" stroke-linejoin="round" stroke-width="2"/>
  <circle id="Ellipse_1267" data-name="Ellipse 1267" cx="7.5" cy="7.5" r="7.5" transform="translate(33.75 7.5)" fill="none" stroke="#23c2f2" stroke-linecap="round" stroke-linejoin="round" stroke-width="2"/>
  <path id="Path_31031" data-name="Path 31031" d="M128,101.625a14.063,14.063,0,0,1,22.5,0" transform="translate(-98 -73.5)" fill="none" stroke="#23c2f2" stroke-linecap="round" stroke-linejoin="round" stroke-width="2"/>
</svg>
