<svg id="counselling" xmlns="http://www.w3.org/2000/svg" width="79.979" height="80" viewBox="0 0 79.979 80">
  <path id="Path_30991" data-name="Path 30991" d="M27.33,55.253a11.005,11.005,0,0,0-1.32,5.773h-24c.08-3.787.947-5.467,2.013-6.747a9.787,9.787,0,0,1,5.56-3.12,7.957,7.957,0,0,0,11.493,0,9.787,9.787,0,0,1,5.56,3.12,7.888,7.888,0,0,1,.693.973Z" transform="translate(0.67 17.053)" fill="#fff"/>
  <path id="Path_30993" data-name="Path 30993" d="M22,43.667V49A7.987,7.987,0,0,1,8.253,54.547,7.888,7.888,0,0,1,6,49V43.667S14,45,16.667,41A5.777,5.777,0,0,0,22,43.667Z" transform="translate(2 13.667)" fill="#ffe0b2"/>
  <path id="Path_30995" data-name="Path 30995" d="M6.9,43.111C6.348,43.056,6,43,6,43v.183Q6.444,43.159,6.9,43.111Z" transform="translate(2 14.333)" fill="#dfc49c"/>
  <path id="Path_30996" data-name="Path 30996" d="M22,44v1.333a5.777,5.777,0,0,1-5.333-2.667C14,46.667,6,45.333,6,45.333V44a8,8,0,0,1,16,0Z" transform="translate(2 12)" fill="#221e26"/>
  <path id="Path_30998" data-name="Path 30998" d="M46.653,61.027H20.013a11.005,11.005,0,0,1,1.32-5.773,7.888,7.888,0,0,1,.693-.973,9.787,9.787,0,0,1,5.56-3.12,7.957,7.957,0,0,0,11.493,0,9.787,9.787,0,0,1,5.56,3.12,7.889,7.889,0,0,1,.693.973,11.005,11.005,0,0,1,1.32,5.773Z" transform="translate(6.667 17.053)" fill="#fff"/>
  <path id="Path_31000" data-name="Path 31000" d="M40,43.667V49a8,8,0,0,1-16,0V43.667S32,45,34.667,41A5.777,5.777,0,0,0,40,43.667Z" transform="translate(8 13.667)" fill="#ffe0b2"/>
  <path id="Path_31002" data-name="Path 31002" d="M24.9,43.111C24.348,43.056,24,43,24,43v.183Q24.444,43.159,24.9,43.111Z" transform="translate(8 14.333)" fill="#dfc49c"/>
  <path id="Path_31003" data-name="Path 31003" d="M40,44v1.333a5.777,5.777,0,0,1-5.333-2.667C32,46.667,24,45.333,24,45.333V44a8,8,0,0,1,16,0Z" transform="translate(8 12)" fill="#221e26"/>
  <path id="Path_31005" data-name="Path 31005" d="M64.32,61.027h-24A11.005,11.005,0,0,0,39,55.253a7.889,7.889,0,0,1,.693-.973,9.787,9.787,0,0,1,5.56-3.12,7.957,7.957,0,0,0,11.493,0,9.787,9.787,0,0,1,5.56,3.12c1.067,1.28,1.933,2.96,2.013,6.747Z" transform="translate(13 17.053)" fill="#fff"/>
  <path id="Path_31007" data-name="Path 31007" d="M58,43.667V49a8,8,0,0,1-16,0V43.667S50,45,52.667,41A5.777,5.777,0,0,0,58,43.667Z" transform="translate(14 13.667)" fill="#ffe0b2"/>
  <path id="Path_31008" data-name="Path 31008" d="M42.9,43.111C42.348,43.056,42,43,42,43v.183Q42.444,43.159,42.9,43.111Z" transform="translate(14 14.333)" fill="#dfc49c"/>
  <path id="Path_31010" data-name="Path 31010" d="M58,44v1.333a5.777,5.777,0,0,1-5.333-2.667C50,46.667,42,45.333,42,45.333V44a8,8,0,0,1,16,0Z" transform="translate(14 12)" fill="#221e26"/>
  <path id="Path_31012" data-name="Path 31012" d="M43.333,3.667V25.053a2.667,2.667,0,0,1-2.667,2.667H25.12a1.364,1.364,0,0,0-.813.28l-9.493,7.387a1.333,1.333,0,0,1-2.147-1.053v-5.28a1.333,1.333,0,0,0-1.333-1.333H8.667A2.667,2.667,0,0,1,6,25.053V3.667A2.675,2.675,0,0,1,8.667,1h32a2.675,2.675,0,0,1,2.667,2.667Z" transform="translate(2 0.333)" fill="#a4c400"/>
  <path id="Path_31013" data-name="Path 31013" d="M18.64,21.32,11,27.264v.389a1.333,1.333,0,0,0,2.147,1.053L22.64,21.32a1.364,1.364,0,0,1,.813-.28h-4A1.364,1.364,0,0,0,18.64,21.32Z" transform="translate(3.667 7.013)" fill="#90ac00"/>
  <path id="Path_31015" data-name="Path 31015" d="M63.333,8.667V30a2.675,2.675,0,0,1-2.667,2.667H58A1.333,1.333,0,0,0,56.667,34v5.28a1.324,1.324,0,0,1-2.147,1.04l-9.493-7.373a1.281,1.281,0,0,0-.813-.28H28.667A2.675,2.675,0,0,1,26,30V26.053h8a2.667,2.667,0,0,0,2.667-2.667V6h24a2.675,2.675,0,0,1,2.667,2.667Z" transform="translate(8.667 2)" fill="#23c2f2"/>
  <path id="Path_31017" data-name="Path 31017" d="M30,11.667v2.667a1.333,1.333,0,0,1-1.333,1.333h-4v4A1.333,1.333,0,0,1,23.333,21H20.667a1.333,1.333,0,0,1-1.333-1.333v-4h-4A1.333,1.333,0,0,1,14,14.333V11.667a1.333,1.333,0,0,1,1.333-1.333h4v-4A1.333,1.333,0,0,1,20.667,5h2.667a1.333,1.333,0,0,1,1.333,1.333v4h4A1.333,1.333,0,0,1,30,11.667Z" transform="translate(4.667 1.667)" fill="#f5f5f5"/>
  <path id="Path_31018" data-name="Path 31018" d="M78.625,65.667a9.877,9.877,0,0,0-6.648-9.848A9.261,9.261,0,0,0,73.333,51V44.333a9.333,9.333,0,1,0-18.667,0V51a9.257,9.257,0,0,0,1.356,4.819A10.643,10.643,0,0,0,52,58.485a10.627,10.627,0,0,0-4.024-2.667A9.261,9.261,0,0,0,49.333,51V44.333a9.333,9.333,0,1,0-18.667,0V51a9.261,9.261,0,0,0,1.356,4.819A10.639,10.639,0,0,0,28,58.485a10.608,10.608,0,0,0-4.023-2.667A9.261,9.261,0,0,0,25.333,51V44.333a9.333,9.333,0,0,0-18.667,0V51a9.261,9.261,0,0,0,1.356,4.819,10.533,10.533,0,0,0-4.355,2.995,10.533,10.533,0,0,0-2.293,6.853H1.333a1.333,1.333,0,0,0,0,2.667H78.667a1.333,1.333,0,1,0-.041-2.667ZM57.333,47.153c3.1.223,6.911-.123,9.28-2.119A7.333,7.333,0,0,0,70.667,46.9V51a6.667,6.667,0,1,1-13.333,0ZM64,37.667a6.667,6.667,0,0,1,6.652,6.516A4.2,4.2,0,0,1,67.867,42.4a1.333,1.333,0,0,0-2.3-.144c-1.521,2.281-5.763,2.431-8.224,2.223A6.675,6.675,0,0,1,64,37.667ZM57.884,58.033a9.281,9.281,0,0,0,12.232,0,8.229,8.229,0,0,1,4.167,2.487,7.784,7.784,0,0,1,1.68,5.147H54.629a12.965,12.965,0,0,0-1.059-4.933,7.973,7.973,0,0,1,4.313-2.7ZM33.333,47.153c3.1.223,6.911-.123,9.28-2.119A7.333,7.333,0,0,0,46.667,46.9V51a6.667,6.667,0,1,1-13.333,0ZM40,37.667a6.667,6.667,0,0,1,6.652,6.516A4.2,4.2,0,0,1,43.867,42.4a1.333,1.333,0,0,0-2.3-.144c-1.521,2.281-5.763,2.431-8.224,2.223A6.675,6.675,0,0,1,40,37.667ZM33.884,58.033a9.281,9.281,0,0,0,12.232,0,8.229,8.229,0,0,1,4.167,2.487,7.784,7.784,0,0,1,1.68,5.147H28.037a7.779,7.779,0,0,1,1.676-5.143,8.231,8.231,0,0,1,4.171-2.491ZM9.333,47.153c3.1.223,6.911-.123,9.28-2.119A7.333,7.333,0,0,0,22.667,46.9V51A6.667,6.667,0,1,1,9.333,51ZM16,37.667a6.667,6.667,0,0,1,6.652,6.516A4.2,4.2,0,0,1,19.867,42.4a1.333,1.333,0,0,0-2.3-.144c-1.528,2.281-5.769,2.431-8.231,2.223A6.675,6.675,0,0,1,16,37.667ZM5.713,60.524a8.231,8.231,0,0,1,4.171-2.491,9.281,9.281,0,0,0,12.232,0,7.945,7.945,0,0,1,4.316,2.7,12.98,12.98,0,0,0-1.057,4.933H4.041a7.779,7.779,0,0,1,1.672-5.143Z" transform="translate(0 11.667)" fill="#221e26"/>
  <path id="Path_31019" data-name="Path 31019" d="M35.667,36H51.208l9.48,7.361A2.657,2.657,0,0,0,65,41.28V36h2.667a4,4,0,0,0,4-4V10.667a4,4,0,0,0-4-4H45V4a4,4,0,0,0-4-4H9A4,4,0,0,0,5,4V25.391a4,4,0,0,0,4,4h2.667v5.276a2.667,2.667,0,0,0,4.305,2.105l9.485-7.379h6.209V32A4,4,0,0,0,35.667,36Zm32-26.667A1.333,1.333,0,0,1,69,10.667V32a1.333,1.333,0,0,1-1.333,1.333H65A2.667,2.667,0,0,0,62.333,36v5.268l-9.46-7.351a2.621,2.621,0,0,0-1.66-.584H35.667A1.333,1.333,0,0,1,34.333,32V29.391H41a4,4,0,0,0,4-4V9.333ZM23.82,27.285l-9.487,7.381V29.391a2.667,2.667,0,0,0-2.667-2.667H9a1.333,1.333,0,0,1-1.333-1.333V4A1.333,1.333,0,0,1,9,2.667H41A1.333,1.333,0,0,1,42.333,4V25.391A1.333,1.333,0,0,1,41,26.724H25.457a2.667,2.667,0,0,0-1.637.561Z" transform="translate(1.667)" fill="#221e26"/>
  <path id="Path_31020" data-name="Path 31020" d="M29,9.333H26.333V6.667A2.667,2.667,0,0,0,23.667,4H21a2.667,2.667,0,0,0-2.667,2.667V9.333H15.667A2.667,2.667,0,0,0,13,12v2.667a2.667,2.667,0,0,0,2.667,2.667h2.667V20A2.667,2.667,0,0,0,21,22.667h2.667A2.667,2.667,0,0,0,26.333,20V17.333H29a2.667,2.667,0,0,0,2.667-2.667V12A2.667,2.667,0,0,0,29,9.333Zm0,5.333H25A1.333,1.333,0,0,0,23.667,16v4H21V16a1.333,1.333,0,0,0-1.333-1.333h-4V12h4A1.333,1.333,0,0,0,21,10.667v-4h2.667v4A1.333,1.333,0,0,0,25,12h4Z" transform="translate(4.333 1.333)" fill="#221e26"/>
  <path id="Path_31021" data-name="Path 31021" d="M38.333,12.667h16a1.333,1.333,0,0,0,0-2.667h-16a1.333,1.333,0,0,0,0,2.667Z" transform="translate(12.333 3.333)" fill="#221e26"/>
  <path id="Path_31022" data-name="Path 31022" d="M38.333,17.667h16a1.333,1.333,0,0,0,0-2.667h-16a1.333,1.333,0,0,0,0,2.667Z" transform="translate(12.333 5)" fill="#221e26"/>
  <path id="Path_31023" data-name="Path 31023" d="M38.333,22.667h16a1.333,1.333,0,0,0,0-2.667h-16a1.333,1.333,0,0,0,0,2.667Z" transform="translate(12.333 6.667)" fill="#221e26"/>
</svg>
