<svg xmlns="http://www.w3.org/2000/svg" width="80" height="71.905" viewBox="0 0 80 71.905">
  <g id="healthcare" transform="translate(0 -25.905)">
    <g id="Group_23921" data-name="Group 23921" transform="translate(1.563 27.468)">
      <path id="Path_30084" data-name="Path 30084" d="M133.634,311.06v0l19.419-7.178a4.689,4.689,0,0,1,3.7,8.609c-.312.147-23.255,11.386-32.63,11.386-12.5,0-15.625-6.25-28.125-6.25v-18.75c3.762,0,8.75-6.016,16.742-1.52l7.544,4.244a3.118,3.118,0,0,0,1.533.4h10.119a4.687,4.687,0,0,1,1.7,9.056Z" transform="translate(-82.563 -255.099)" fill="#fff"/>
      <path id="Path_30085" data-name="Path 30085" d="M228.829,35.9c9.748,0,23.106,15.133-10.934,37.53C183.8,51,197.291,35.9,206.962,35.9c7.259,0,10.933,6.28,10.933,6.28S221.568,35.9,228.829,35.9Z" transform="translate(-166.938 -35.905)" fill="#23c2f2"/>
      <path id="Path_30086" data-name="Path 30086" d="M23.437,337.97H10V316.1H23.437Z" transform="translate(-10 -272.315)" fill="#a7cf45"/>
    </g>
    <g id="Group_23922" data-name="Group 23922" transform="translate(0 25.905)">
      <path id="Path_30087" data-name="Path 30087" d="M1.563,313.831H15a1.563,1.563,0,0,0,1.562-1.562v-1.527a33.355,33.355,0,0,1,11.92,2.978c3.978,1.591,8.092,3.237,14.643,3.237,2.878,0,7.149-.968,12.695-2.876a1.562,1.562,0,1,0-1.017-2.955c-5.218,1.8-9.147,2.706-11.678,2.706-5.949,0-9.608-1.464-13.482-3.013a36.287,36.287,0,0,0-13.08-3.2V291.739a19.244,19.244,0,0,0,3.058-1.2c3.08-1.406,6.571-3,11.356-.308l7.543,4.243a4.7,4.7,0,0,0,2.3.6H50.938a3.124,3.124,0,0,1,1.127,6.039,3.078,3.078,0,0,1-1.127.211H35.053a1.563,1.563,0,0,0,0,3.125H50.938a6.185,6.185,0,0,0,2.2-.4l.038-.012,19.443-7.187a3.126,3.126,0,0,1,2.47,5.739c-.267.129-.535.259-1.052.505l-.452-.9a1.563,1.563,0,0,0-2.8,1.4l.415.83c-1.023.469-2.185.994-3.457,1.554a1.563,1.563,0,0,0,1.259,2.86c3.074-1.353,5.108-2.312,7.417-3.417A6.251,6.251,0,0,0,71.5,293.937L57.1,299.261a6.151,6.151,0,0,0,.093-1.056,6.257,6.257,0,0,0-6.25-6.25H40.819a1.564,1.564,0,0,1-.767-.2l-7.544-4.244c-6.169-3.47-10.8-1.355-14.185.188A9.711,9.711,0,0,1,15,288.831H1.563A1.563,1.563,0,0,0,0,290.393v21.875a1.563,1.563,0,0,0,1.562,1.563Zm1.563-21.875H13.438v18.75H3.125Z" transform="translate(0 -245.051)" fill="#221e26"/>
      <path id="Path_30088" data-name="Path 30088" d="M208.618,66.3a1.563,1.563,0,0,0,1.718,0c22.92-15.08,23.675-26.238,22.085-31.547a12.756,12.756,0,0,0-12.009-8.851,14.448,14.448,0,0,0-10.934,5.232,14.446,14.446,0,0,0-10.933-5.232,12.758,12.758,0,0,0-12,8.866C184.951,40.076,185.707,51.227,208.618,66.3ZM189.534,35.668a9.7,9.7,0,0,1,9.01-6.637c6.232,0,9.445,5.272,9.586,5.51a1.563,1.563,0,0,0,2.7,0c.032-.055,3.294-5.506,9.586-5.506a9.7,9.7,0,0,1,9.016,6.622c1.065,3.557,1.208,13.29-19.95,27.47-21.15-14.174-21.007-23.9-19.943-27.454Z" transform="translate(-156.958 -25.905)" fill="#221e26"/>
      <path id="Path_30089" data-name="Path 30089" d="M287.563,115.47h4.688v4.688a1.563,1.563,0,1,0,3.125,0V115.47h4.688a1.562,1.562,0,0,0,0-3.125h-4.687v-4.687a1.563,1.563,0,0,0-3.125,0v4.688h-4.687a1.563,1.563,0,0,0,0,3.125Z" transform="translate(-241.313 -93.565)" fill="#221e26"/>
      <circle id="Ellipse_1238" data-name="Ellipse 1238" cx="1.563" cy="1.563" r="1.563" transform="translate(60.312 63.467)" fill="#221e26"/>
    </g>
  </g>
</svg>
