<svg xmlns="http://www.w3.org/2000/svg" width="91.5" height="64.819" viewBox="0 0 91.5 64.819">
  <g id="Group_26220" data-name="Group 26220" transform="translate(-959.25 -1671.769)">
    <g id="Group_26218" data-name="Group 26218" transform="translate(960 1672.411)">
      <path id="Path_31406" data-name="Path 31406" d="M8,119.442,35.15,73.275a3.008,3.008,0,0,1,5.126,0l27.15,46.167Z" transform="translate(-8 -56.015)" fill="none" stroke="#221e26" stroke-linecap="round" stroke-linejoin="round" stroke-width="1.5"/>
      <path id="Path_31407" data-name="Path 31407" d="M144.1,121.9l12.257-20.725a3.008,3.008,0,0,1,5.126,0l21.208,35.8H152.977" transform="translate(-93.55 -73.553)" fill="none" stroke="#221e26" stroke-linecap="round" stroke-linejoin="round" stroke-width="1.5"/>
      <g id="Group_26217" data-name="Group 26217" transform="translate(29.791 0)">
        <path id="Path_31408" data-name="Path 31408" d="M40,42.133c3.82-2.865,6.685,2.865,10.505,0V34.971c-3.82,2.865-6.685-2.865-10.505,0" transform="translate(-40 -34.144)" fill="#ff9595" stroke="#221e26" stroke-linecap="round" stroke-linejoin="round" stroke-width="1.5"/>
        <line id="Line_243" data-name="Line 243" y1="14.984" transform="translate(0 0.844)" fill="none" stroke="#221e26" stroke-linecap="round" stroke-linejoin="round" stroke-width="1.5"/>
      </g>
      <path id="Path_31409" data-name="Path 31409" d="M1323.74,1629.432l10.242-10.812,5.3,6.872,6.367-7.991,8.446,4.743" transform="translate(-1311.427 -1587.055)" fill="none" stroke="#221e26" stroke-linecap="round" stroke-linejoin="round" stroke-width="1.5"/>
    </g>
    <g id="Group_26219" data-name="Group 26219" transform="translate(1035.261 1687.584)">
      <path id="Path_31410" data-name="Path 31410" d="M0,5.272,8.78-1" transform="translate(3.763 6.958)" fill="none" stroke="#a7cf45" stroke-linecap="round" stroke-width="1.5"/>
      <path id="Path_31411" data-name="Path 31411" d="M0-1.756v-9.408" transform="translate(0 11.164)" fill="none" stroke="#a7cf45" stroke-linecap="round" stroke-width="1.5"/>
      <path id="Path_31412" data-name="Path 31412" d="M0,19H9.408" transform="translate(5.331 -1.909)" fill="none" stroke="#a7cf45" stroke-linecap="round" stroke-width="1.5"/>
    </g>
  </g>
</svg>
