<svg xmlns="http://www.w3.org/2000/svg" width="78.738" height="80" viewBox="0 0 78.738 80">
  <g id="save" transform="translate(0.001 -0.001)">
    <path id="Path_30113" data-name="Path 30113" d="M117.944,8.165a25.891,25.891,0,1,0,19.418,31.043A25.891,25.891,0,0,0,117.944,8.165Zm0,0" transform="translate(-72.761 -6.326)" fill="#23c2f2"/>
    <path id="Path_30115" data-name="Path 30115" d="M117.839,41.865c-2.988-.762-5.006-10.338-11.527-8.72-2.087.518-7.781-4.211-7.181-5.567,1.454-3.292-1.524-4.44.021-6.376.84-1.052,1.884-2.215,3.239-1.069s.856,3.528,2.07,3.759,2.04-2.587,2.769-4.178c2.622-5.733,10.016-3.874,12.423-6.163,1.83-1.741,2.576-3.848,2.281-5.4A25.889,25.889,0,0,0,91.055,27.229c2.316,3.818,7.709,7.017,9.447,8.2a1.308,1.308,0,0,1,.394,1.743c-.991,1.683-2.353,5.059.683,7.565,4.2,3.47,4.2,5.079,2.492,8.668-.432.907-.757,1.668-1,2.314A25.814,25.814,0,0,0,109.1,58.3a16.955,16.955,0,0,1,6.022-5.117c2.512-1.113,7.5-.786,8.731-6.108.582-2.529-3.022-4.448-6.011-5.21Zm0,0" transform="translate(-76.829 -6.332)" fill="#a7cf45"/>
    <path id="Path_30117" data-name="Path 30117" d="M339.537,58.169a25.9,25.9,0,0,0-12.207-28.2c-1.609,4.081,3.328,5.761,2.8,7.105a2.825,2.825,0,0,0,.146,1.891,2.325,2.325,0,0,1-.7,2.606c-1.328,1.077-3.129,2.833-3.479,4.66-.859,4.484.674,6.363,2.338,7.736,2.577,2.127,4.528,1.382,5.578,2.944,2.275,3.383-8.27,12.343-4.721,16.553a25.787,25.787,0,0,0,10.243-15.3Zm0,0" transform="translate(-274.938 -25.289)" fill="#a7cf45"/>
    <path id="Path_30119" data-name="Path 30119" d="M121.585,49.031a27.076,27.076,0,0,0-2.095-45.318,1.1,1.1,0,0,0-.165-.1A27.1,27.1,0,0,0,87.683,6.948,1.172,1.172,0,1,0,89.25,8.691a24.773,24.773,0,0,1,21.164-5.914,6.184,6.184,0,0,1-1.969,3.583c-1.909,1.815-9.812.249-12.683,6.525a32.556,32.556,0,0,1-1.451,3.209,5.779,5.779,0,0,0-1.566-3.2,2.8,2.8,0,0,0-2.114-.739,4.472,4.472,0,0,0-2.8,1.971,3.332,3.332,0,0,0-.268,3.719,3.224,3.224,0,0,1,.09,2.916c-.538,1.219.58,2.549.947,2.986,1.506,1.792,5.286,4.763,7.59,4.193,5.622-1.4,7.214,7.765,10.956,8.719,2.8.715,5.5,2.336,5.159,3.812-1.047,4.546-5.361,4.1-8.065,5.3a18.379,18.379,0,0,0-6,4.828,24.706,24.706,0,0,1-4.107-1.73q.266-.619.587-1.3c1.959-4.111,1.829-6.252-2.8-10.076-2.22-1.833-1.454-4.312-.419-6.068a2.486,2.486,0,0,0-.742-3.305c-1.671-1.143-6.565-4.073-8.848-7.444a24.469,24.469,0,0,1,4.257-8.664,1.172,1.172,0,1,0-1.859-1.428A27.062,27.062,0,0,0,121.32,49.217a1.079,1.079,0,0,0,.265-.187Zm-.34-2.681c-.2-1.81,1.44-4.525,2.92-6.974,1.94-3.21,3.773-6.243,2.316-8.41-1.381-2.054-3.42-1.225-5.806-3.194-1.4-1.154-2.7-2.615-1.934-6.613.217-1.133,1.306-2.543,3.067-3.972a3.5,3.5,0,0,0,1.067-3.915,1.844,1.844,0,0,1-.157-1.068c.841-2.159-2.721-3.321-3.03-5.609a24.73,24.73,0,0,1,1.556,39.754ZM81.307,23.685c2.672,2.958,6.341,5.152,8.132,6.378a.135.135,0,0,1,.045.18c-2.086,3.542-1.741,6.846.947,9.065,4.446,3.67,3.391,4.459,1.679,8.356a24.739,24.739,0,0,1-10.8-23.978Zm19.462,27.581a16.06,16.06,0,0,1,4.425-3.348c2.233-.989,8-.862,9.4-6.918.731-3.171-2.921-5.6-6.863-6.61-2.149-.548-4.777-10.541-12.1-8.723a4.3,4.3,0,0,1-2.228-.9,10.777,10.777,0,0,1-3.514-3.265,5.523,5.523,0,0,0-.14-4.521c-.358-.906-.366-1.036-.081-1.393.211-.264.853-1.068,1.194-1.1a.646.646,0,0,1,.372.2c.967.818.474,3.61,2.608,4.016,2.283.433,3.191-2.957,4.053-4.843,2.336-5.107,9.327-3.1,12.167-5.8a8.451,8.451,0,0,0,2.646-4.733,24.777,24.777,0,0,1,4.725,1.913c-.717,3.413,2.244,5.373,3.016,6.383a4.084,4.084,0,0,0,.224,2.448,1.159,1.159,0,0,1-.339,1.3c-1.549,1.256-3.481,3.2-3.893,5.351-.961,5.02.848,7.3,2.744,8.862,4.407,3.637,8.18-.027,2.976,8.583-1.952,3.23-4.131,6.838-2.953,9.653a24.648,24.648,0,0,1-18.437,3.45Zm0,0" transform="translate(-66.424 0)" fill="#221e26"/>
    <path id="Path_30120" data-name="Path 30120" d="M18.592,284.763a1.172,1.172,0,1,0,1.9-1.372c-1.539-2.132-8.355-5.694-11.993-9.282-1.411-1.392-3.884-6.2-4.533-8.226l-1.6-5.764a.588.588,0,0,1,1.122-.346c1.866,3.978,2.026,4.789,2.961,5.995a23.638,23.638,0,0,0,8.083,6.623l4.991,5.018a1.172,1.172,0,0,0,1.662-1.653l-5.037-5.065-1.985-3.085a.691.691,0,0,1,1.143-.753c6.813,7.163,6.487,6.947,6.839,7.118l7.313,3.552c3.992,1.939,3.706,6.167,3.8,6.468a1.172,1.172,0,0,0,2.335-.215l-.1-1.122a9.012,9.012,0,0,0-5.009-7.24l-7.12-3.459L17,265.233a3.079,3.079,0,0,0-3.823-.5,3.041,3.041,0,0,0-1.371,3.148,21.218,21.218,0,0,1-3.5-3.55c-.673-.867-.693-1.261-2.679-5.528a2.98,2.98,0,0,0-3.329-1.7,2.932,2.932,0,0,0-2.185,3.644c2.157,7.764,1.472,5.358,1.619,5.826.739,2.33,3.386,7.488,5.128,9.205a54.3,54.3,0,0,0,7.227,5.537c1.019.7,3.912,2.62,4.512,3.449Zm0,0" transform="translate(0 -216.871)" fill="#221e26"/>
    <path id="Path_30121" data-name="Path 30121" d="M309.744,257.166a2.925,2.925,0,0,0-3.6,1.564c-2.006,4.312-2.028,4.712-2.7,5.581a21.2,21.2,0,0,1-3.5,3.551,3.041,3.041,0,0,0-1.371-3.148,3.082,3.082,0,0,0-3.832.509l-6.353,6.714-7.12,3.459c-5.312,2.581-5.009,8.083-5.117,8.411a1.172,1.172,0,0,0,2.334.215c.095-.3-.193-4.575,3.807-6.517,7.653-3.746,7.375-3.509,7.651-3.8l6.491-6.86a.691.691,0,0,1,1.151.744l-1.985,3.085-5.037,5.065a1.173,1.173,0,0,0,.831,2c.89,0,.927-.608,5.822-5.364,4.556-2.272,8.048-6.025,9.038-8.2l2.031-4.468a.588.588,0,0,1,1.083.454l-1.586,5.709c-.649,2.027-3.122,6.835-4.532,8.226-3.629,3.58-10.433,7.136-11.983,9.268a1.172,1.172,0,1,0,1.9,1.379c1.179-1.619,8.008-5.3,11.733-8.978,1.741-1.718,4.388-6.876,5.128-9.206.148-.469-.458,1.649,1.6-5.771a2.959,2.959,0,0,0-1.872-3.616Zm0,0" transform="translate(-232.991 -216.853)" fill="#221e26"/>
    <path id="Path_30122" data-name="Path 30122" d="M133.316,451.727H118.963a2.72,2.72,0,0,0-2.717,2.717v3.984a2.72,2.72,0,0,0,2.717,2.717h14.353a2.72,2.72,0,0,0,2.717-2.717v-3.984A2.72,2.72,0,0,0,133.316,451.727Zm.373,6.7a.373.373,0,0,1-.373.373H118.963a.373.373,0,0,1-.373-.373v-3.984a.373.373,0,0,1,.373-.373h14.353a.373.373,0,0,1,.373.373Zm0,0" transform="translate(-98.083 -381.143)" fill="#221e26"/>
    <path id="Path_30123" data-name="Path 30123" d="M278.179,451.727H263.826a2.72,2.72,0,0,0-2.717,2.717v3.984a2.72,2.72,0,0,0,2.717,2.717h14.354a2.72,2.72,0,0,0,2.717-2.717v-3.984A2.72,2.72,0,0,0,278.179,451.727Zm.372,6.7a.373.373,0,0,1-.372.373H263.826a.373.373,0,0,1-.372-.373v-3.984a.373.373,0,0,1,.372-.373h14.354a.373.373,0,0,1,.372.373Zm0,0" transform="translate(-220.311 -381.143)" fill="#221e26"/>
  </g>
</svg>
