<svg xmlns="http://www.w3.org/2000/svg" width="90" height="90" viewBox="0 0 90 90">
  <g id="Group_26213" data-name="Group 26213" transform="translate(-1129.975 -3863.974)">
    <g id="Group_26208" data-name="Group 26208" transform="translate(1129.975 3863.974)">
      <g id="Path_31404" data-name="Path 31404" transform="translate(45.278 0) rotate(45)" fill="#fff" stroke-linecap="round">
        <path d="M 0.7597860097885132 63.27251434326172 C 0.8068629503250122 61.04015350341797 1.079617500305176 54.12789535522461 2.653725147247314 45.97332763671875 C 3.77348518371582 40.17242813110352 5.322995185852051 34.88724899291992 7.259185314178467 30.26458740234375 C 9.666345596313477 24.51751899719238 12.67951488494873 19.78849792480469 16.21498489379883 16.20887756347656 C 19.62544441223145 12.75583839416504 24.08644485473633 9.802078247070312 29.47407531738281 7.429668426513672 C 33.85659408569336 5.499838352203369 38.86718368530273 3.944898366928101 44.36665344238281 2.808028221130371 C 52.91291809082031 1.04131031036377 60.27457046508789 0.789976954460144 62.49612045288086 0.7553709149360657 C 62.48936080932617 2.959142208099365 62.33971405029297 9.841062545776367 60.88220596313477 17.97041893005371 C 59.84763336181641 23.7408390045166 58.36622619628906 29.00140762329102 56.4791259765625 33.60602951049805 C 54.13321685791016 39.3301887512207 51.15185546875 44.04682922363281 47.61787414550781 47.62492752075195 C 44.13132476806641 51.15500640869141 39.51892471313477 54.17181777954102 33.90877532958984 56.59155654907227 C 29.37598609924316 58.5466194152832 24.18361473083496 60.11904907226562 18.47588539123535 61.26516723632812 C 10.12737369537354 62.94155502319336 3.017229080200195 63.22481155395508 0.7597860097885132 63.27251434326172 Z" stroke="none"/>
        <path d="M 61.73906326293945 1.522037506103516 C 58.90148544311523 1.600639343261719 52.19436264038086 1.955699920654297 44.51849365234375 3.542488098144531 C 39.07061767578125 4.668697357177734 34.11063385009766 6.207469940185547 29.77632522583008 8.116058349609375 C 24.47554397583008 10.45023727416992 20.09237670898438 13.35037994384766 16.74859619140625 16.73590850830078 C 13.28387451171875 20.24388885498047 10.32600402832031 24.88810729980469 7.957145690917969 30.53956985473633 C 6.041133880615234 35.11064910888672 4.506423950195312 40.34156036376953 3.395626068115234 46.08699035644531 C 1.981487274169922 53.40142822265625 1.622150421142578 59.71284103393555 1.530963897705078 62.50134658813477 C 4.360988616943359 62.40819931030273 10.83893203735352 62.03369522094727 18.3282356262207 60.52983856201172 C 23.98477554321289 59.39399719238281 29.12689590454102 57.83725738525391 33.61174774169922 55.90287780761719 C 39.13296508789062 53.52149963378906 43.66577529907227 50.55907821655273 47.08426666259766 47.097900390625 C 50.54600524902344 43.59293746948242 53.4713134765625 38.96302795410156 55.77893447875977 33.33676910400391 C 57.64573669433594 28.7852783203125 59.11258697509766 23.5805778503418 60.13873672485352 17.86724853515625 C 61.44967269897461 10.5683479309082 61.6981315612793 4.278873443603516 61.73906326293945 1.522037506103516 M 63.09857559204102 -3.814697265625e-06 C 63.19349670410156 -3.814697265625e-06 63.2420654296875 0.000499725341796875 63.2420654296875 0.000499725341796875 C 63.2420654296875 0.000499725341796875 63.96199417114258 32.14408111572266 48.15148544311523 48.15195846557617 C 32.34095764160156 64.15989685058594 -0.000102996826171875 64.03209686279297 3.4332275390625e-05 64.03209686279297 C 3.4332275390625e-05 64.03209686279297 -0.1291236877441406 31.68973922729492 15.68137359619141 15.68184661865234 C 30.87138366699219 0.3021888732910156 60.77484130859375 -3.814697265625e-06 63.09857559204102 -3.814697265625e-06 Z" stroke="none" fill="#221e26"/>
      </g>
      <g id="Path_31405" data-name="Path 31405" transform="translate(45.195 13.215) rotate(45)" fill="#fff" stroke-linecap="round">
        <path d="M 0.8162798881530762 44.41059112548828 C 0.9755493402481079 42.63466644287109 1.462302446365356 38.29660415649414 2.73962664604187 33.19957733154297 C 3.715766668319702 29.30437660217285 4.95587682723999 25.73444747924805 6.425506591796875 22.58895683288574 C 8.250666618347168 18.68252754211426 10.43534660339355 15.4268274307251 12.91887664794922 12.91229724884033 C 15.40137672424316 10.39879703521729 18.6073169708252 8.195847511291504 22.44764709472656 6.364647388458252 C 25.53972625732422 4.890227317810059 29.04583740234375 3.653017282485962 32.86857604980469 2.68736720085144 C 37.87496185302734 1.422723174095154 42.13095092773438 0.9595723152160645 43.86957168579102 0.8109958171844482 C 43.74466323852539 2.566277980804443 43.33803939819336 6.885696887969971 42.13612747192383 11.96781730651855 C 41.22013854980469 15.84092712402344 40.0281867980957 19.39293670654297 38.59338760375977 22.52518653869629 C 36.8116569519043 26.4148063659668 34.64973831176758 29.66122817993164 32.16768646240234 32.17425537109375 C 29.68198585510254 34.69098663330078 26.4490966796875 36.90370559692383 22.55879592895508 38.75095748901367 C 19.42728614807129 40.23790740966797 15.86761665344238 41.4915771484375 11.97865676879883 42.47714614868164 C 6.902443408966064 43.76358795166016 2.586349248886108 44.25121688842773 0.8162798881530762 44.41059112548828 Z" stroke="none"/>
        <path d="M 43.05089950561523 1.641502380371094 C 40.99881362915039 1.852001190185547 37.28413391113281 2.343471527099609 33.02257537841797 3.422027587890625 C 29.25270652770996 4.376136779785156 25.79814720153809 5.596446990966797 22.75485610961914 7.049057006835938 C 19.00015640258789 8.841228485107422 15.87038612365723 10.99122619628906 13.45247650146484 13.43932723999023 C 11.03253555297852 15.88948631286621 8.899288177490234 19.06964683532715 7.111988067626953 22.89148712158203 C 5.663158416748047 25.98954772949219 4.439258575439453 29.50943756103516 3.474277496337891 33.35339736938477 C 2.384902954101562 37.69282913208008 1.874423980712891 41.4793701171875 1.651947021484375 43.57479095458984 C 3.732872009277344 43.35265731811523 7.482959747314453 42.8427619934082 11.79440689086914 41.75012588500977 C 15.63615608215332 40.77652740478516 19.14958763122559 39.53951644897461 22.23709678649902 38.07345581054688 C 26.04830741882324 36.26375579833984 29.20990753173828 34.10166931152344 31.63407707214355 31.6472282409668 C 34.05106735229492 29.20005798339844 36.16072845458984 26.03105735778809 37.90445709228516 22.22825813293457 C 39.3182258605957 19.1450366973877 40.49405670166016 15.64472770690918 41.39930725097656 11.82456588745117 C 42.42595672607422 7.492050170898438 42.86839294433594 3.717006683349609 43.05089950561523 1.641502380371094 M 44.66927719116211 -3.814697265625e-06 C 44.66927719116211 -3.814697265625e-06 43.86861801147461 21.39455795288086 32.70129776000977 32.70128631591797 C 21.53396606445312 44.00802612304688 -3.814697265625e-06 45.22697830200195 -3.814697265625e-06 45.22697830200195 C -3.814697265625e-06 45.22697830200195 1.217945098876953 23.69200706481934 12.38525772094727 12.3852653503418 C 23.55257606506348 1.078517913818359 44.66927719116211 -3.814697265625e-06 44.66927719116211 -3.814697265625e-06 Z" stroke="none" fill="#221e26"/>
      </g>
      <g id="Ellipse_1270" data-name="Ellipse 1270" transform="translate(34.049 34.45)" fill="#a7cf45" stroke="#221e26" stroke-linecap="round" stroke-width="1.5">
        <circle cx="10.669" cy="10.669" r="10.669" stroke="none"/>
        <circle cx="10.669" cy="10.669" r="9.919" fill="none"/>
      </g>
      <g id="Ellipse_1271" data-name="Ellipse 1271" transform="translate(40.109 40.51)" fill="#fff" stroke="#221e26" stroke-linecap="round" stroke-width="1.5">
        <circle cx="4.61" cy="4.61" r="4.61" stroke="none"/>
        <circle cx="4.61" cy="4.61" r="3.86" fill="none"/>
      </g>
    </g>
    <g id="Group_26209" data-name="Group 26209" transform="translate(1141.244 3875.243)">
      <line id="Line_235" data-name="Line 235" x1="15.202" transform="translate(0 0)" fill="none" stroke="#23c2f2" stroke-linecap="round" stroke-width="1.5"/>
      <line id="Line_236" data-name="Line 236" y1="15.202" transform="translate(0 0)" fill="none" stroke="#23c2f2" stroke-linecap="round" stroke-width="1.5"/>
    </g>
    <g id="Group_26210" data-name="Group 26210" transform="translate(1141.244 3927.5)">
      <line id="Line_237" data-name="Line 237" x1="15.202" transform="translate(0 15.202)" fill="none" stroke="#23c2f2" stroke-linecap="round" stroke-width="1.5"/>
      <line id="Line_238" data-name="Line 238" y2="15.202" fill="none" stroke="#23c2f2" stroke-linecap="round" stroke-width="1.5"/>
    </g>
    <g id="Group_26211" data-name="Group 26211" transform="translate(1193.547 3875.243)">
      <line id="Line_239" data-name="Line 239" x2="15.202" fill="none" stroke="#23c2f2" stroke-linecap="round" stroke-width="1.5"/>
      <line id="Line_240" data-name="Line 240" y1="15.202" transform="translate(15.202)" fill="none" stroke="#23c2f2" stroke-linecap="round" stroke-width="1.5"/>
    </g>
    <g id="Group_26212" data-name="Group 26212" transform="translate(1193.547 3927.5)">
      <line id="Line_241" data-name="Line 241" x2="15.202" transform="translate(0 15.202)" fill="none" stroke="#23c2f2" stroke-linecap="round" stroke-width="1.5"/>
      <line id="Line_242" data-name="Line 242" y2="15.202" transform="translate(15.202)" fill="none" stroke="#23c2f2" stroke-linecap="round" stroke-width="1.5"/>
    </g>
  </g>
</svg>
