<svg xmlns="http://www.w3.org/2000/svg" xmlns:xlink="http://www.w3.org/1999/xlink" width="536" height="430" viewBox="0 0 536 430">
  <defs>
    <clipPath id="clip-path">
      <rect id="Rectangle_2768" data-name="Rectangle 2768" width="536" height="430" transform="translate(1217.467 84.034)" fill="#fff" stroke="#707070" stroke-width="1"/>
    </clipPath>
    <clipPath id="clip-path-2">
      <path id="Path_33252" data-name="Path 33252" d="M374.305,276.48a138.748,138.748,0,1,1-277.5,0Z" transform="translate(-96.81 -276.48)"/>
    </clipPath>
  </defs>
  <g id="Mask_Group_31" data-name="Mask Group 31" transform="translate(-1217.467 -84.034)" clip-path="url(#clip-path)">
    <circle id="Ellipse_1293" data-name="Ellipse 1293" cx="266.5" cy="266.5" r="266.5" transform="translate(1219.468 109.034)" fill="rgba(255,255,255,0.5)"/>
    <g id="feminine" transform="translate(1330.677 122.166)">
      <g id="XMLID_1_" transform="translate(101.656 57.734)">
        <g id="XMLID_3507_" transform="translate(5 5)">
          <path id="XMLID_826_" d="M212.465,13.592V5h-5.413L206.02,6.5,205.333,5H201.38l-1.2,1.6L199.318,5H195.28L193.9,8.128l-4.76.894L186,14.417V27.856l3.093,5.671L186,91.268h23.2l-2.921-40.3V33.527l10.311-7.389V14.8Z" transform="translate(-154.896 -5)" fill="#f2be97"/>
          <g id="XMLID_825_" transform="translate(44.677 7.785)">
            <path id="XMLID_2100_" d="M271.067,60.164a6.137,6.137,0,0,1-1.839-.292,7.87,7.87,0,0,1-4.159-3.66.872.872,0,0,1-.034-.687.911.911,0,0,1,.481-.5L277.545,50.3l.636,1.6-11.05,4.348a5.672,5.672,0,0,0,2.646,1.993,5.083,5.083,0,0,0,3.918-.516c.017,0,.034-.017.052-.017l3.781-1.667.687,1.581-3.763,1.65a7.336,7.336,0,0,1-3.385.894Z" transform="translate(-264.98 -50.3)" fill="#d29568"/>
          </g>
          <g id="XMLID_824_" transform="translate(43.838 15.655)">
            <path id="XMLID_2099_" d="M261.784,104.28,260.1,103.9l.859-3.9a.862.862,0,0,1,.7-.67l8.042-1.34-.464-1.306,1.615-.584.825,2.286a.824.824,0,0,1-.069.722.834.834,0,0,1-.6.412l-8.489,1.409Z" transform="translate(-260.1 -96.1)" fill="#d29568"/>
          </g>
          <g id="XMLID_823_" transform="translate(34.095 8.644)">
            <path id="XMLID_2098_" d="M210.033,62.81h-3.952a.866.866,0,0,1-.825-.619l-1.856-6.41,1.65-.481,1.684,5.791h2.681l.43-1.306a.847.847,0,0,1,.791-.584l4.176-.086.034,1.718-3.574.069-.447,1.323A.8.8,0,0,1,210.033,62.81Z" transform="translate(-203.4 -55.3)" fill="#d29568"/>
          </g>
          <g id="XMLID_822_" transform="translate(38.168 2.935)">
            <path id="XMLID_2097_" d="M0,0H10.551V1.718H0Z" transform="translate(1.676 0) rotate(77.173)" fill="#d29568"/>
          </g>
          <g id="XMLID_821_" transform="translate(44.424 1.602)">
            <path id="XMLID_2096_" d="M0,0H11.72V1.718H0Z" transform="matrix(0.022, 1, -1, 0.022, 1.718, 0)" fill="#d29568"/>
          </g>
          <g id="XMLID_820_" transform="translate(50.015 1.477)">
            <path id="XMLID_2095_" d="M0,0H1.718V9.744H0Z" transform="translate(0.263 0) rotate(1.547)" fill="#d29568"/>
          </g>
          <g id="XMLID_819_" transform="translate(33.167 11.17)">
            <path id="XMLID_2094_" d="M198,70h2.75v1.718H198Z" transform="translate(-198 -70)" fill="#d29568"/>
          </g>
          <path id="XMLID_817_" d="M186,191h23.028v3.437H186Z" transform="translate(-154.896 -159.036)" fill="#d84861"/>
          <path id="XMLID_816_" d="M31.465,174.592V166H26.051l-1.031,1.5-.687-1.5H20.38l-1.2,1.6-.859-1.6H14.28L12.9,169.128l-4.76.894L5,175.417v13.439l3.093,5.671L7.75,224.6H26.12l-.842-12.631V194.527l10.311-7.389V175.8Z" transform="translate(-5 -138.333)" fill="#f2be97"/>
          <g id="XMLID_814_" transform="translate(13.573 35.452)">
            <path id="XMLID_2133_" d="M90.067,221.164a6.137,6.137,0,0,1-1.839-.292,7.87,7.87,0,0,1-4.159-3.66.872.872,0,0,1-.034-.687.911.911,0,0,1,.481-.5L96.545,211.3l.636,1.6-11.05,4.348a5.672,5.672,0,0,0,2.646,1.993,5.082,5.082,0,0,0,3.918-.516c.017,0,.034-.017.052-.017l3.781-1.667.687,1.581-3.763,1.65A7.336,7.336,0,0,1,90.067,221.164Z" transform="translate(-83.98 -211.3)" fill="#d29568"/>
          </g>
          <g id="XMLID_813_" transform="translate(12.734 43.323)">
            <path id="XMLID_2132_" d="M80.784,265.28,79.1,264.9l.859-3.9a.862.862,0,0,1,.7-.67l8.042-1.34-.464-1.306,1.615-.584.825,2.286a.824.824,0,0,1-.069.722.834.834,0,0,1-.6.412l-8.489,1.409Z" transform="translate(-79.1 -257.1)" fill="#d29568"/>
          </g>
          <g id="XMLID_812_" transform="translate(2.99 36.311)">
            <path id="XMLID_2131_" d="M29.033,223.81H25.081a.866.866,0,0,1-.825-.619l-1.856-6.41,1.65-.481,1.684,5.791h2.681l.43-1.306a.847.847,0,0,1,.791-.584l4.176-.086.034,1.718-3.574.069-.447,1.323A.8.8,0,0,1,29.033,223.81Z" transform="translate(-22.4 -216.3)" fill="#d29568"/>
          </g>
          <g id="XMLID_811_" transform="translate(7.07 30.598)">
            <path id="XMLID_2130_" d="M0,0H10.551V1.718H0Z" transform="translate(1.676 0) rotate(77.173)" fill="#d29568"/>
          </g>
          <g id="XMLID_810_" transform="translate(13.312 29.262)">
            <path id="XMLID_2128_" d="M0,0H11.72V1.718H0Z" transform="matrix(0.022, 1, -1, 0.022, 1.718, 0)" fill="#d29568"/>
          </g>
          <g id="XMLID_809_" transform="translate(18.898 29.153)">
            <path id="XMLID_2127_" d="M0,0H1.718V9.744H0Z" transform="translate(0.263 0) rotate(1.547)" fill="#d29568"/>
          </g>
          <g id="XMLID_808_" transform="translate(2.062 38.838)">
            <path id="XMLID_2126_" d="M17,231h2.75v1.718H17Z" transform="translate(-17 -231)" fill="#d29568"/>
          </g>
          <g id="XMLID_794_" transform="translate(10.311 55.335)">
            <path id="XMLID_675_" d="M65,327h9.967v1.718H65Z" transform="translate(-65 -327)" fill="#d29568"/>
          </g>
          <path id="XMLID_793_" d="M5,352H28.028v3.437H5Z" transform="translate(-5 -292.369)" fill="#d84861"/>
          <path id="XMLID_792_" d="M355.465,174.592V166h-5.413l-1.031,1.5-.687-1.5H344.38l-1.2,1.6-.859-1.6H338.28l-1.375,3.128-4.76.894-3.145,5.4v13.439l3.093,5.671L331.75,224.6H350.12l-.842-12.631V194.527l10.311-7.389V175.8Z" transform="translate(-273.321 -138.333)" fill="#f2be97"/>
          <g id="XMLID_791_" transform="translate(69.251 35.452)">
            <path id="XMLID_926_" d="M414.067,221.164a6.137,6.137,0,0,1-1.839-.292,7.87,7.87,0,0,1-4.159-3.66.872.872,0,0,1-.034-.687.911.911,0,0,1,.481-.5l12.029-4.726.636,1.6-11.05,4.348a5.672,5.672,0,0,0,2.646,1.993,5.082,5.082,0,0,0,3.918-.516c.017,0,.034-.017.052-.017l3.781-1.667.687,1.581-3.763,1.65a7.336,7.336,0,0,1-3.385.894Z" transform="translate(-407.98 -211.3)" fill="#d29568"/>
          </g>
          <g id="XMLID_790_" transform="translate(68.413 43.323)">
            <path id="XMLID_919_" d="M404.784,265.28,403.1,264.9l.859-3.9a.862.862,0,0,1,.7-.67l8.042-1.34-.464-1.306,1.615-.584.825,2.286a.824.824,0,0,1-.069.722.834.834,0,0,1-.6.412l-8.489,1.409Z" transform="translate(-403.1 -257.1)" fill="#d29568"/>
          </g>
          <g id="XMLID_789_" transform="translate(58.669 36.311)">
            <path id="XMLID_912_" d="M353.033,223.81h-3.952a.866.866,0,0,1-.825-.619l-1.856-6.41,1.65-.481,1.684,5.791h2.681l.43-1.306a.847.847,0,0,1,.79-.584l4.176-.086.034,1.718-3.574.069-.447,1.323A.8.8,0,0,1,353.033,223.81Z" transform="translate(-346.4 -216.3)" fill="#d29568"/>
          </g>
          <g id="XMLID_788_" transform="translate(62.738 30.598)">
            <path id="XMLID_904_" d="M0,0H10.551V1.718H0Z" transform="translate(1.676 0) rotate(77.173)" fill="#d29568"/>
          </g>
          <g id="XMLID_784_" transform="translate(68.991 29.275)">
            <path id="XMLID_902_" d="M0,0H11.72V1.718H0Z" transform="matrix(0.022, 1, -1, 0.022, 1.718, 0)" fill="#d29568"/>
          </g>
          <g id="XMLID_783_" transform="translate(74.597 29.155)">
            <path id="XMLID_900_" d="M0,0H1.718V9.744H0Z" transform="translate(0.263 0) rotate(1.547)" fill="#d29568"/>
          </g>
          <g id="XMLID_782_" transform="translate(57.741 38.838)">
            <path id="XMLID_898_" d="M341,231h2.75v1.718H341Z" transform="translate(-341 -231)" fill="#d29568"/>
          </g>
          <g id="XMLID_781_" transform="translate(65.99 55.335)">
            <path id="XMLID_897_" d="M389,327h9.967v1.718H389Z" transform="translate(-389 -327)" fill="#d29568"/>
          </g>
          <path id="XMLID_780_" d="M329,352h23.028v3.437H329Z" transform="translate(-273.321 -292.369)" fill="#1f3e75"/>
          <path id="XMLID_779_" d="M352.028,375.437,329,378.874v-3.437L352.028,372Z" transform="translate(-273.321 -308.932)" fill="#d84861"/>
          <g id="XMLID_618_" transform="translate(41.415 27.667)">
            <path id="XMLID_641_" d="M246,166h9.967v1.718H246Z" transform="translate(-246 -166)" fill="#d29568"/>
          </g>
          <g id="XMLID_1410_" transform="translate(2.406 64.615)">
            <path id="XMLID_1412_" d="M19,381H37.216v1.718H19Z" transform="translate(-19 -381)" fill="#d7d5c1"/>
          </g>
          <g id="XMLID_754_" transform="translate(0.343 62.776)">
            <ellipse id="XMLID_1584_" cx="2" cy="2.5" rx="2" ry="2.5" transform="translate(-0.209 0.358)" fill="#ebeae0"/>
            <circle id="XMLID_1583_" cx="2.406" cy="2.406" r="2.406" transform="translate(5.723 0.293)" fill="#ebeae0"/>
            <circle id="XMLID_1582_" cx="2.406" cy="2.406" r="2.406" transform="translate(11.806 0.293)" fill="#ebeae0"/>
            <circle id="XMLID_1581_" cx="2.5" cy="2.5" r="2.5" transform="translate(17.791 0.358)" fill="#ebeae0"/>
          </g>
        </g>
      </g>
      <path id="Path_33704" data-name="Path 33704" d="M219.59,93.8a69.8,69.8,0,1,0-79.316,69.149v16.512H124.411v15.863h15.863v12.691H159.31V195.326h15.863V179.462H159.31V162.95A69.809,69.809,0,0,0,219.59,93.8Zm-69.8,53.935A53.935,53.935,0,1,1,203.727,93.8,54,54,0,0,1,149.792,147.736Z" fill="#fff" stroke="#221e26" stroke-width="1"/>
    </g>
    <g id="Group_28096" data-name="Group 28096" transform="translate(-949.532 16078.416)">
      <path id="Path_33233" data-name="Path 33233" d="M435.072,195.059a4.057,4.057,0,0,0-3.944-3.081,3.983,3.983,0,0,0-1.4.254A7.3,7.3,0,0,0,418.8,189.48a9.254,9.254,0,0,0-15.5,1.863,4.753,4.753,0,0,0-7.343,3.717Z" transform="translate(2183.008 -16006.71)" fill="#fff"/>
      <path id="Path_33234" data-name="Path 33234" d="M124.018,146.221a4.81,4.81,0,0,0-6.343-3.362,8.655,8.655,0,0,0-7.824-4.962,8.562,8.562,0,0,0-5.144,1.7A10.983,10.983,0,0,0,86.3,141.8a5.651,5.651,0,0,0-8.715,4.417Z" transform="translate(2212.059 -16002.1)" fill="#fff"/>
      <path id="Path_33236" data-name="Path 33236" d="M326.83,184.83l-2.717,3.317s-1.818,2.508-2.8,2.672-5.062-.136-4.725,1.827c.145.836,1.309,2.826.273,4.489s2.317,4.635,4.762,4.217,4.044-5.734,5.343-6.97,2.826-2.844,2.826-2.844Z" transform="translate(2190.252 -16006.595)" fill="#e2af8d"/>
      <path id="Path_33237" data-name="Path 33237" d="M374.3,276.48a138.746,138.746,0,0,1-277.492,0Z" transform="translate(2210.305 -16014.957)" fill="#fff" stroke="#221e26" stroke-width="1"/>
      <g id="Group_28057" data-name="Group 28057" transform="translate(2307.115 -15738.479)" clip-path="url(#clip-path-2)">
        <path id="Path_33238" data-name="Path 33238" d="M169.667,187.012c-.736.491.345,1.027.527,1.808.291,1.336-.227,3.362-1.272,3.59-1.3.291-2.817-.891-3.535-1.608a11.192,11.192,0,0,1-4.1-1.281c-.482-.327-.627-1.054-1.081-1.381-1.481-1.072-4.271.554-5.825-.918-1.945,1.472-3.953-.291-6.716.318-1.281.282-2.544,1.309-4.716.963-.536-.082-1.481-.518-1.654-1.163-.118-.409.173-.8.082-1.118-.354-1.154-3.844-1.836-1.972-3.48-2.363.027-3.817-.945-4.271-2.9-.082-.354.064-.8-.036-1.118s-.609-.763-.618-.991c-.009-.6,2.435-2.336,3.281-2.535.454-.118,1.027.036,1.5-.045,1.927-.363,3.181-2.072,4.671-2.39s3.553.209,4.644.055a13.078,13.078,0,0,0,3.308-1.436c.473-.3.718-.863,1.236-1.154,1.7-.954,4.862-.918,6.816-.836a1.864,1.864,0,0,1-.373,2.654,15.477,15.477,0,0,1,.545,2.417c.827.427,1.672.2,2.445.427.872.245,1.436,1.227,2.581,1.027a7.008,7.008,0,0,1,.981-1.863c-.382-.518-1.018-.7-.972-1.281.073-.9,1.409-.7,2.045-1.29-.345-1.19-.554-3.208.927-3.571,1.6-.391,2.226.545,2.935,1.318.373.409,1.1.736,1.309,1.081.736,1.163.363,2.817,1.272,3.4a1.519,1.519,0,0,1,2.79.409c2.454.2,3.335-.882,4.344-1.854-1.763-2.226,1.608-4.335,1.527-6.443.173-.382.754-.427,1.009-.745a9.768,9.768,0,0,1-.336-3.126c1.563-3.281,5.607-4.7,11.914-4.453a18.41,18.41,0,0,0,4.053.073c1.372-.282,2.554-1.336,4.117-1.554,1.245-.173,2.717.009,3.935-.227a10.38,10.38,0,0,1,1.372-.445c.8-.027,1.4.536,1.99.536.636,0,1.045-.454,1.718-.563a8.979,8.979,0,0,1,2.908.209c.4.1.727.473,1.181.563,1.136.254,2.363.027,3.253.309.672.2,1.645.891,2.481,1.236a20.47,20.47,0,0,1,2.245,1.354c.945.473,2.063.363,1.917,1.763,4.226.327,8.724.409,9.96,3.517,3.008.691,4.407-1.99,7.243-1.763,1.2-1.1,3.39-2.59,5.616-1.908,2.217-1.027,5.489-2.7,9.324-1.927,1.027.2,2.172.682,3.271.9,2.1.427,3.181.682,3.78,2.1,1.672.327,2.054,1.554,3.217,2.635s2.963,1.39,2.9,3.553c1.49.763,3.789.772,4.035,2.708,1.409.236,3.744.936,3.68,2.617-.045.981-1.509,1.5-2.472,2.308-.336.282-.545.736-.891,1.036-.445.391-1.009.563-1.245.854s-.236.754-.427,1.036c-.363.518-1.018.782-1.345,1.254-.209.309-.218.718-.436,1.036-1.09,1.6-2.608,2.581-2.853,4.862a22.922,22.922,0,0,1-.254,2.844c-.064.336-.4.763-.427,1.136-.118,1.927,2.063,2.272,1.19,4.417,1.109,1.954.182,4.453.336,6.688-1.29,1.281-1.69,3.281-3.217,4.362-.545,2.136-1.3,4.126-1.872,6.352-.7,2.681-.836,5.1-2.563,6.888-1.054,1.1-2.808,1.836-4.307,2.872-1.681,1.172-3.344,1.445-5.262,1.99-.663.2-1.2.636-1.827.772-.945.209-2.027.118-3.008.409a6.038,6.038,0,0,0-2.272,1.3c-1.009.918-1.563,2.408-2.672,3.226a20.807,20.807,0,0,1-4.789,2.281c-1.1.236-2.163.027-2.89.3a5.126,5.126,0,0,0-2.563,3.126c-.136.427-.027.872-.191,1.318-.418,1.109-2.245,2.345-3,3.853-.209.409-.127.854-.309,1.236-.236.482-.818.854-1,1.345-.5,1.363-.418,3.462-2.081,3.817a4.531,4.531,0,0,1-2.808-.718c-.718-.591-.545-1.49-1.445-1.681-.636-.136-1.227.3-1.854.164a10.477,10.477,0,0,1-2.272-2.254c-.463-.9-.582-2.772-.936-3.617-.191-.463-.636-.809-.854-1.29a18.419,18.419,0,0,1-.845-4.535c-.218-1.4-1.118-2.563-1.163-3.717a9.033,9.033,0,0,1,2.445-6.67c-.8-.754.127-1.708-.2-2.726-.2-.636-1.072-.954-1.327-1.581-.745-1.881.018-3.617.636-5.389a5.441,5.441,0,0,1-.945-3.926c.164-.8.963-1.472,1.2-2.372.118-.482-.018-1,.064-1.527.073-.445.363-.791.427-1.227A24,24,0,0,0,216.34,200c-.073-1.418.3-2.69-.127-3.953-.654-1.872-2.7-2.363-4.407-3.608-.563-.009-.809.282-1.381.336-.891.1-1.99-.354-2.8-.309-.491.027-.927.463-1.381.445-1.063-.027-3.035-1.818-2.19-3.272-.182-.682-.954-.818-1.445-1.472-.554-.763-.491-1.908-1.69-1.972-1.327-.073-3.281,1.481-5.5,1.908-.609.127-1.09.027-1.5.154-.727.227-1.145.981-1.827.872-.536.382-.663,1.1-1.109,1.554-.318.391-.491-.018-.927-.064a3.028,3.028,0,0,1-1.472,1.054c.981,2.254-1.009,4.6-4.371,4.407-.482-.027-1.09-.391-1.872-.554-1.808-.373-4.607-.254-6.043-.709-.645-.209-1.072-.7-1.545-.872-1.3-.463-2.863-.582-3.181-1.608-.582-1.908,1.081-3.008,1.954-4.217.818-2.9-3.153-2.863-3.862-1.2.391-.055.663.018.591.382-.118,0-.227.009-.345.009C169.585,187.34,169.5,187.167,169.667,187.012Z" transform="translate(-100.248 -265.419)" fill="#6b9e1b"/>
        <path id="Path_33239" data-name="Path 33239" d="M455.68,178.8c3.435-.055,7.361-1.072,9.842.073.6.273.882.881,1.436,1.072a6.778,6.778,0,0,0,2.317.227c.563-.164.945-1.19,1.336-1.572a6.774,6.774,0,0,1,1.936-1.281,13.61,13.61,0,0,1,5.562.018c1.336.354,2.59,1.472,4.126,1.89.627.173,1.481.073,2.208.236a8.163,8.163,0,0,0,4.417.463,8.776,8.776,0,0,0,1.708-.972c.3-.264.363-.736.663-1.027,1.463-1.445,4.307-2.508,5.889-4.053,4.925-.818,9.86-2.317,15.594-1.836,1.127.1,2.363.945,3.744,1.09a14.429,14.429,0,0,0,3.008-.1c3.908-.463,8.533-1.19,11.7-.082.754.264,1.381.936,2.126,1.045,3.717.545,5.107-1.336,7.334-2.472a13.114,13.114,0,0,1,6.343-1.218c.527.009.427-.5.9-.536,2.463.309,4.526-1.454,7.134-1.654a32.212,32.212,0,0,1,3.244-.009c1.327.045,2.635.554,3.953.582a21.917,21.917,0,0,0,4.971-.463c.554-.127,1.091-.554,1.708-.672a13.532,13.532,0,0,1,5.225.136c.6.154,1.018.591,1.645.654,1.418.145,2.363-.691,3.562-.727a9.808,9.808,0,0,1,3.853.991c1.79.863,2.79,2.654,3.063,4.971a5.263,5.263,0,0,1,1.254,2.9c-.009.391-.491.727-.536,1.236-.036.418.445.809.273,1.209-.336.8-1.608.545-2.644.691-2.181.318-4.78,1.89-6.534,2.254a5.963,5.963,0,0,1,.273,4.753c-.291.691-1.345,1.172-.636,1.854,1.554.445,2.308,1.727,3.571,2.717,1.427,1.127,4.307,1.681,3.744,4.544-2.708.154-3.971.763-5.016,2.7a16.179,16.179,0,0,0-1.908,5.343c-.264,1.427-.654,2.354-.218,3.753a1.261,1.261,0,0,1-1.263.354c-1.118,1.454-4.008,1.327-4.889,2.99-.309.6.064,1.381-.627,1.954.745.482,0,.936.055,1.627.073,1.045,1.672,2.072.582,3.426.454.981,1.545,1.627,2.4,2.554a7.112,7.112,0,0,1,2.3,6.116c-.082.891-.618,1.927-.836,3.072-.491,2.808.154,5.934-.554,7.615-.354.827-1.463,1.109-2.026,1.79-.6.745-.391,1.49-1.1,1.954.045,1.245-.263,2.644-1.418,2.59-.645-1.045.273-2.372,1.063-2.881-.291-.573-.463-1.209-.972-1.481-.491-.264-1.127-.073-1.636-.354-1.59-.918-1.19-2.517-1.645-4-.2-.7-1.3-1.536-1.936-2.381a25.276,25.276,0,0,1-4.217-8.37c-.454-1.427-1.718-2.835-1.327-5.016.273-1.454,1.945-3.026,1.718-4.417-.136-.763-1.445-1.472-1.808-2.272-.263-.573,0-.872-.4-1.409-3.2.273-4.444,2.145-5.771,3.953.354.609,1.036.436,1.072,1.072.045.754-1.072,1.136-1.936,1.381a13.683,13.683,0,0,1-3.753,2.054,10.762,10.762,0,0,1-1.363.645,27.119,27.119,0,0,1-6.025.2,23.479,23.479,0,0,0-3.371-.291c-1.1.136-2.963.9-3.3,1.736-.154.391.027.863-.073,1.418-.1.636-.591,1.254-.636,1.654-.045.309.154.627.145,1-.045,1.336-1.227,2.654-1.59,4.217-.136.563-.055,1.2-.182,1.718a11.579,11.579,0,0,1-1.081,2.372c-.327.563-1.372,1.5-.164,2.027,1.154-.409,1.418-2.036,3.308-1.536.845.6.409,2.408,1.372,2.9.854-.145.845-.872,1.581-1.072,1.6-.409,2.9.7,3.871,1.19.609-.118,1.218-.682,1.954-.363.164-.927-1.054-1.381-.182-2.017.872-.1,1.218.654,1.663,1.163.709.8,1.645,1.372,2.045,2.563.382.318,1.245.463,1.781.954.3.273.382.818.736,1.19.6.627,1.627.963,2.026,1.563.591.891.682,1.927,1.363,2.69.345.391.909.445,1.29.772.791.645,1.654,2.345,1.39,3.2-.309.954-1.763,1.018-2.136,1.99.682,1.518,3.344,2.19,3.38,4.153.018,1.754-2.5,2.036-4.462,1.972-.9-.4-.545-1.436-.891-2.3-.336-.891-1.718-1.608-2.063-2.781a14.441,14.441,0,0,1-.191-2.117c-.336-2.126-1.209-3.244-2.017-4.9-.418-.881-.582-2.072-1.927-2.172-.736.891-.4,2.181-.127,3.044.254.782,1.045,1.381,1.345,2.181a8.781,8.781,0,0,1,.7,3.526c-.036.409-.436.945-.536,1.445-.291,1.518-.173,3.817-.745,5.289-.273.654-.827,1.309-1.1,2.072-.927,2.563-1.581,6.189-4.762,6.652a12.014,12.014,0,0,0-.745,5.489c.9.545.981,1.554,1.49,2.8.463,1.163,1.745,1.972,1.945,2.772.364,1.454.327,5.643-.127,6.607-.591,1.227-2.617,2.081-4.671,2.172-1.172.045-1.881-.709-3.135.009-.545-.045-.627-.518-.836-.891-2.3-.545-3.808-2.463-5.116-4.18-.781-1.018-1.945-1.79-2.535-2.863-.4-.718-.327-1.654-1.345-1.981-1.009.218-.909,1.345-2.154,1.39-.545-.264-.318-1.018-.282-1.608-1.227.336-2.426-.609-3.253-.3-.663.236-.336.963-.872,1.454-.609.318-1.572.354-1.827.963.573,1.481,2.435,1.763,3.453,2.826.981-.1,1.254-1.281,2.39-1.4.5-.055.872.282,1.527.354,1.336.145,2.472-.154,2.572.827s-1.118.991-2.045,1.381c-.963.427-2.826,2.317-2.663,3.535.127.981,1.336.963,2.254,1.763.727.609.927,1.7,1.836,2.672.654.709,1.763,1.154,2.017,1.663a4.455,4.455,0,0,1-.009,3.144c.136.709,1.3.454,1.536,1.063-.318,1.227-.173,2.126-.473,3.062-.164.518-.745.882-.991,1.354-.191.336-.2.791-.427,1.227-.318.627-.909,1.118-.991,1.645-.064.445.282,1.018.173,1.518-.127.6-1.154,1.463-1.663,2.081a12.383,12.383,0,0,1-4.3,3.6c-1.309.527-2.826.6-4.017,1.045-.518.191-1.072.8-1.936,1.181-1.045.454-2.8.791-2.826,1.917-.018.745.891.954.981,1.69a2.989,2.989,0,0,1-2.345,2.717,1.738,1.738,0,0,1-2.036-1.863c.145-1.127,1.372-1.136,1.445-1.972.245-2.581-3.789-1.663-5-.454a5.182,5.182,0,0,0-1.418,2.79c.027.627,1.336,2.145,1.836,2.681,1.081,1.181,2.935,1.563,4.026,2.7a11.193,11.193,0,0,1,2.263,5.4c.154,2.708-2.072,3.662-3.9,4.689-1.536.872-1.936,2.3-3.853,2.663-.509-.236-.364-1.054-.4-1.718-.482-.627-1.181-.682-1.772-.954-2.054-.963-2.644-3.344-5.452-3.571a4.552,4.552,0,0,0-1.309-.972c-.709.245-.463,1.036-.636,1.745-.509,2.108-1.845,3.989.627,4.853a19.182,19.182,0,0,0,1.49,2.881c1.181,1.608,4.716,1.927,5.353,4.089.291.972.018,1.854.327,2.617a12.847,12.847,0,0,0,1.327,1.99c.382.582.972,1.29.772,2.1-1.4.209-2.081-1.1-3.635-1.09.627,1.045,2.426,1.9,2.563,3.762.954.136.736-1.145,1.6-.763.154.772-1.063,2.136.318,2.626.8.055.763-.482,1.381-.454a2.352,2.352,0,0,1,1.79,1.863c0,.518-.8.836-1.109,1.563a5.525,5.525,0,0,0-.009,3.053c1.281.836,2.681.336,3.844.772,1.036.4,1.354,1.309,3.162,1.018.736-.127,1.045-.7,1.827-.772,1.381-.127,2.853,1.1,4.544.663.809,1.118,1.163,1.4,2.953,1.827a9.667,9.667,0,0,0,3.608.391c.591-.064,1.136-.436,1.727-.463.781-.036,1.536.427,2.326.436.627.009,1.354-.327,2.072-.373.963-.073,1.927.282,2.663.218.582-.055,1.154-.509,1.727-.573.545-.045,1.091.236,1.745.254.491.018,1.063-.191,1.5-.154.654.055,1.127.591,1.754.645.972.082,1.908-.636,2.663-.191.2,1.172-1.5,1.227-2.372,1.6-1.654.709-3.126,2.345-4.916,2.4-.082-1.49,1.708-2.29,2.563-3.335a3.965,3.965,0,0,0-2.326-.227c-1.754.2-3.671,1.036-5.407.882-.5.8,1.309.845.854,1.6-1.081,1.218-3.3-.373-3.526-1.608-.963-.118-1.818.354-2.772.391-1.336.045-2.763-.636-4.307-.682-.491-.009-1.027.182-1.508.154-.573-.036-1.218-.373-1.863-.445-1.427-.173-2.99.145-4.289-.064-.7-.109-1.245-.545-1.872-.645-.863-.155-1.754.055-2.663-.018a8.415,8.415,0,0,1-4.689-1.672c-.345-.391.427-.8.073-1.227-.082-.264-1.336-.118-1.863-.245a13.921,13.921,0,0,1-3.544-2.108,17.146,17.146,0,0,1-3.59-3.235c-.609-.872-.845-2-1.49-2.89-.536-.754-1.418-1.272-1.8-1.872-.173-.254-.364-.891-.627-1.29a20.389,20.389,0,0,0-1.908-1.963,15.633,15.633,0,0,0-1.917-1.863,17.417,17.417,0,0,1-2.017-1.254c-.363-.327-1.518-1.3-.754-1.99.454-.436,1.318.073,2.208.218a17.3,17.3,0,0,1,1.854.145c.954.3,1.418,1.372,2.272,1.963.509.345,1.2.454,1.654.745,1.19.754,1.936,2.045,3.544,2.008.264-1.227-1.254-1.663-1.845-2.772-.127-.245-.109-.754-.254-1.209-.145-.382-.545-.763-.627-1.1-.064-.273.091-.609-.027-.909a13.489,13.489,0,0,0-2.054-2.572c-.691-.591-1.754-.554-2.008-1.354-.209-.627.245-1.454.273-2.036.027-.454-.173-1.018-.164-1.509.027-1.19.473-2.6-.136-4.062-.154-.382-.736-.927-.972-1.381-.818-1.572-1.045-4.562-2.481-4.7-1.7-.154-2.654,1.9-4.362,1.463-.3-.164-.509-.418-.827-.582-.055-1.418.436-2.49-.218-3.444-.491-.682-1.363-.645-2.008-1.254.236-1.772-.972-1.718-2.063-2.563-.972-.772-1.3-2.763-2.181-2.963-.963-.236-1.881.627-2.644.9-1.163.4-3.362.245-4.253.745-.727.4-.636,1.581-1.209,2.272-.536.645-1.554.918-2.263,1.49-.654.527-1.1,1.409-1.79,2.081-.654.654-1.509,1.109-2.145,1.7-.409.391-.591.991-1,1.354-1.063.918-2.435,1.172-3.062,2.126-.373,1.572.418,2.681.473,3.844.064,1.263-1.081,2.508-.436,4.162-.636.663-.945,1.418-1.663,2.19-.536.582-1.8,1.954-2.6,2.017-2.172.164-2.726-3.535-3.644-4.953-.482-.745-1.3-1.29-1.681-1.863-.554-.854-.845-2.172-1.49-3.3-.573-1-1.49-1.863-1.945-2.781-.209-.409-.218-.945-.4-1.4a34.032,34.032,0,0,1-1.908-5.007c-.2-1.063.182-2.208-.763-2.308-.863.109-1.5.981-2.517,1a6.3,6.3,0,0,1-3.789-2.408c-.2-.327-.109-.736-.273-1.009-.636-1.081-1.845-1.136-2.963-1.927-1.127-.809-1.536-2.245-2.744-2.454-1.009-.164-1.854.327-2.89.4-.454.036-1.009-.064-1.49-.055-1.3.045-2.554.518-3.7.527-2.508.009-4.862-.8-7.8-.863-.836-.309-.918-1.99-2.036-2.163-1.045-.164-1.99,1.009-2.863,1.009a9.2,9.2,0,0,1-2.917-.609c-.7-.3-1.236-.927-2.017-1.263-.509-.209-1.372-.236-1.745-.445-.936-.527-1.654-2.926-3.017-3.353-.4-.127-2.154-.254-2.517.591-.745,1.736,2.972,3.744,3.635,4.753.354.554.245,1.145.863,1.59.745.145.954-.663,1.481-.363,1.236.454.327,2.917,1.736,3.2,1.163-.291,2.272.009,3.126-.209,2.017-.518,2.19-3.172,4.162-3.69.782.7.518,1.6.763,2.208a3.1,3.1,0,0,0,1.908,1.763c.554.145,1.209-.027,1.854.145.745.191,2.635,1.736,2.763,2.535.3,1.881-2.6,2.844-2.99,4.262-.145.536.209.863.036,1.209-.173.373-.618.345-1.363.863-.536.363-.836,1.009-1.236,1.254-.3.191-.763.155-1.027.336-.473.327-.945,1.309-1.218,1.454-.872.482-2.472.5-3.453.936-.863.373-1.336,1.509-2.136,1.99-1.009.609-2.544.772-3.9,1.345-.636.254-1.109.8-1.7,1.063-.354.164-.836.2-1.272.354-.563.2-1.072.618-1.6.754-.672.182-1.454-.009-2.19.173-.291.064-.809.609-1.708.972-1.081.418-2.544.436-2.626,1.4a3.186,3.186,0,0,0,2.4,2.363c.7.027,1.345-.609,2.181-.791.418-.091.945.027,1.381-.045.518-.082.972-.445,1.49-.554,1.2-.245,2.454-.264,3.58-.527,1.163-.254,2.063-.845,2.99-.709,1.227,1.354.591,3.4-.073,4.771-.318.654-1.018,1.254-1.445,1.963-1.39,2.454-2.454,5.271-4.507,7.252a23.412,23.412,0,0,1-3.971,2.763,24.62,24.62,0,0,0-3.49,3.062c-1.181,1.091-2.045,2.345-3.144,3.335-.509.473-1.281.736-1.7,1.172s-.554,1.263-.981,1.963c-1.009,1.672-2.708,3.017-.663,4.58a7.056,7.056,0,0,0,.491,4.353c.427.691,1.372,1.045,1.563,1.672s-.164,1.2-.173,1.727c-.018.981-.055,2.181-.009,3.244a12.59,12.59,0,0,1,.291,1.908c-.291,2.481-2.835,3.417-5.171,4.635a20.116,20.116,0,0,0-3.062,2.236c-.918.709-2.59,1.7-2.7,2.526-.145,1.081.872,2.281,1.036,3.308a6.559,6.559,0,0,1-.582,3.771c-.836.981-3.735.772-4.326,2.272-.127.318.082.845.045,1.309a7.771,7.771,0,0,1-1.154,3.59c-.491.663-1.409,1.127-2.027,1.79-.836.9-1.372,2.072-2.108,2.908a17.479,17.479,0,0,1-5.88,4.653c-.591.236-1.345.273-1.954.473a9.891,9.891,0,0,1-2.29.781c-1,.073-2.381-.264-3.6-.082-.545.082-1.036.427-1.6.554-.491.118-1.027.045-1.49.155a9.938,9.938,0,0,1-1.836.554,4.445,4.445,0,0,1-2.826-1.118,5.311,5.311,0,0,1-.772-2.308c-.009-.427.445-.772.427-1.318a8.781,8.781,0,0,0-1-2.2,23.91,23.91,0,0,0-1.245-2.9c-1.263-1.845-3.09-3-3.562-5.97a33.817,33.817,0,0,0-.991-5.343,17.133,17.133,0,0,0-1.463-2.381c-.509-.882-.791-1.881-1.245-2.59-.518-.8-1.69-1.472-1.936-2.381-.627-2.217.463-3.953.863-5.4.136-.5.045-1.136.182-1.527.573-1.681,2.7-2.363,2.763-3.844.064-1.418-1.409-2.581-1.518-3.7-.091-1.018.164-1.972-.327-3.035-.3-.636-1-1.172-1.336-1.881a15.242,15.242,0,0,0-.772-1.99c-1.172-1.827-3.49-2.5-4.535-4.017a4.2,4.2,0,0,1-.882-1.99c-.018-.591.463-1.054.636-1.745.145-.563.018-1.309.173-1.927.282-1.236,1.536-2.526.1-3.753-.627-.336-.927.827-1.608.454-.327-.518.354-.754.309-1.327-1.19-.945-3.453.672-5.325.073-1.463-.454-1.527-3.135-3.935-3.317-3.444-.264-6.134,2.226-9.406,2.853-1.054.191-2.217-.363-3.262-.409a18.6,18.6,0,0,0-3.58.218c-1.127.191-1.818,1.109-3.317,1.236-2.608.209-5.062-2.581-7.306-3.617-.954-.436-2.063-.518-2.581-1.136-.7-.8-.863-2.217-1.372-2.99a14.461,14.461,0,0,0-2.263-1.863c-.772-.645-1.509-1.427-2.145-1.854-.836-.554-1.927-.918-2.145-1.763-.136-.5.145-1.045.064-1.518-.109-.682-.954-1.072-.981-1.79-.045-.763,1.045-1.527,1.209-1.972.2-.536.2-1.2.4-1.836a6.57,6.57,0,0,0,.518-1.745c0-.663-.545-1.336-.645-2-.055-.427.145-.891.082-1.218-.227-1.109-1.645-1.5-.918-3.217a23.838,23.838,0,0,1,2.072-3.726c.391-.554.991-1.018,1.336-1.554a15.779,15.779,0,0,1,1.209-2.181c.391-.427,1.027-.636,1.354-.954.582-.573.891-1.472,1.563-1.881,1-.609,2.272-.845,3.19-1.527a5.152,5.152,0,0,0,1.881-2.49c.091-.609-.227-1.236-.173-1.727a6.231,6.231,0,0,1,.763-1.545c.236-.5.2-1,.418-1.327.672-1,2.263-1.236,3.408-2.245-.636-1.527-.936-3.453-1.908-4.9-.745-1.118-2.208-1.6-2.644-2.863a4.255,4.255,0,0,1,1.472-4.607c.245-1.8-.336-3.344-.627-4.953,1.672-2.136,6.579-1.654,9.3-2.944.672-1.036,1.854-2.663,1.136-4.089-1.318-2.626-5.852-1.672-6.089-5.589a9.739,9.739,0,0,1,.709-2.853c.227-.881.082-1.781.273-2.445.109-.391.563-.754.663-1.136.373-1.472-.345-2.808-.036-4.562a4.473,4.473,0,0,0-.991,1.554c-.245,1.2.518,2.744-.809,3.571a10.443,10.443,0,0,1-1.372.354c-.927.345-1.936,1.39-3.435,1.227-.7-.082-1.618-.772-1.663-1.263-.091-.882,1.281-1.227,1.318-2.181.036-1.072-1.172-1.218-.554-2.608a2.462,2.462,0,0,1,1.6-.672,3.985,3.985,0,0,1,4.108-1.954c.363-.618-.409-1.109-.636-1.7-.382-1-.282-2.19-.918-3.017.545-1.736,1.509-3.426,3.58-3.871s4.735.164,5.371,1.245c.918,1.581.036,3.735.654,5.961a16.133,16.133,0,0,0,1.136,2.608c.818,1.481,1.936,2.126,2.544,3.362.872,0,1.245.491,1.881.736,1.608-.818,3.48-1.427,5.016-2.29.309-1.954,1.5-3.181,2.635-4.444-.109-2.853,2.045-3.844,4.489-4.607.127-.818-.118-1.345.045-2.136-2.3-.663-2.145,1.781-4.807,1.681a4.265,4.265,0,0,1-2.953-1.727c-.164-.345-.109-.936-.282-1.409-.245-.691-1.054-1.127-1.336-1.781-.164-.373-.027-.836-.164-1.309-.491-1.672-1.409-2.426-.609-4.344.145-.354.618-.682.891-1.145a8.64,8.64,0,0,1,1.881-2.69c.881-.627,1.872-.609,2.863-1.318.391-2.017,1.672-3.135,2.717-5.162.954-1.854,2.608-3.426,2.826-5.671.182-1.854-.1-3.753,1.1-5.307a17.776,17.776,0,0,1,2.145-1.69,24.211,24.211,0,0,1,1.8-1.99c.491-.373,1.045-.627,1.581-1.072,1.954-1.608,4.017-3.508,8.242-3.117,1.536.154,3.471.854,5.38,1.245a37.317,37.317,0,0,1,5.143,1.454,12.015,12.015,0,0,1,3.417,1.817,3.291,3.291,0,0,1,.518,1.5c1.708.309,3.09-.036,4.653.463,1.427.445,2.563,1.545,3.889,2,.482.164,1.054.091,1.509.254.918.327,3.426,2.09,3.58,3.217a3.389,3.389,0,0,1-1.181,2.672c-1.618,1.39-4.507.963-7.052.754.254,2.408,3.244,2.263,4.98,3.281.691-.327,1.218-.782,1.936-1.081a2.248,2.248,0,0,1-.155-1.009c1.036-2.4,5.716-3.58,4.616-7.443-.191-.691-.891-.918-1.209-1.69a4.461,4.461,0,0,1,2.09-3.408,20.992,20.992,0,0,1,2.417-.591,19.479,19.479,0,0,1,2.3-.691c2.445-.282,4.971.927,6.77,1.39,1.009-.354,1.3-1.29,2.381-1.6.154-.718.173-1.581.627-2.045.491-.518,1.672-.5,2.39-.991.409-.282.591-.945,1.127-1.045,1.127-.218,2.463,1.245,3.408,1.309a4.265,4.265,0,0,0,1.836-.573,7.436,7.436,0,0,0,3.317-4.671c.663-3.09-1.054-5.643,1.236-8.251.136-.154.573-.209.8-.427.245-.245.209-.545.436-.736a6.6,6.6,0,0,1,1.818-.963c1.39-.309,2.908.055,4.062-.136,1.636-.282,3.353-1.49,5.153-1.8.409-.073.909.091,1.272-.045.827-.291.509-.881,1.572-1.472-.245-1.1.527-1.472.972-2.263.273-.482.309-1.054.527-1.336.336-.436.981-.463,1.481-.854.445-.363.809-1.263,1.436-1.872.427-.418,1.027-.682,1.354-1.063.818-.936,1.081-2.017,2.581-2.417.981-2.39,3.353-3.562,5.034-5.534a9.617,9.617,0,0,0,1.654-2.481c.173-.463.009-1.045.182-1.527.282-.754,1.145-1.172,1.672-1.881-.418-2.517,2.944-2.708,4.471-1.572,2.89-.164,3.762,1.572,6.425,1.618.609-.091,1.2-.727,1.945-.782.818-.045,1.936.718,2.808.827,1.572.182,3.035-.218,4.289.164a6.657,6.657,0,0,1,3.962,4.026C455.816,176.584,455.489,177.683,455.68,178.8ZM340.214,230.473c-1.345.763-.573,2.054-.818,3.471-.482,2.753-4.944,3.726-5.225,6.361a12.1,12.1,0,0,0,.091,2.635c.336,1.19,2.272,1.572,2.744,2.644,1.027,2.308-1.79,2.7-2.308,3.826-.872,1.917.863,3.6.064,5.68a9.454,9.454,0,0,0,4.2.672c.473-.409.563-1.009.872-1.554s.836-.927,1-1.454c.227-.718-.136-1.381-.064-2.017a3.6,3.6,0,0,1,1.427-2.681c.545-.309,1.245-.473,1.827-.772,1.145-.6,2.072-1.109,3.308-1.627a1.667,1.667,0,0,0-.036-1.009c-1.718-.427-1.817.927-3.453.818-.736-.036-3.181-1.272-3.553-2.217-.218-.563.018-1.081-.064-1.817-.173-1.627-1.49-3.553-.963-4.535.273-.491.881-.309,1.49-.754a11.293,11.293,0,0,0,1.89-2.49,6.489,6.489,0,0,0,1.409-2.89C343.586,229.955,341.232,229.891,340.214,230.473ZM391.486,273.7c-1.09.736-2.472,1.345-2.236,2.608.145.781,1.236,1.227,1.572,1.872.318.6.236,1.118.518,1.618.582,1.036,1.663,1.263,2.617,2.245a16.819,16.819,0,0,0,2.517,2.563c-.836,1.281-2.345,4.362-.627,5.489.327.227,1,.173,1.518.354,1.172.418,2.217,1.236,3.4,1.218,1.018-.027,2.572-.245,3.217-1.027.073-.691-.609-1.59-.427-2.717-.527-1.045-2.49-1.9-2.9-3.353-.118-.427.091-.945-.045-1.418-.1-.391-.745-.909-.981-1.59-.145-.436-.136-.963-.282-1.318-.209-.545-1.445-.736-2-1.154a13.343,13.343,0,0,1-1.091-1.281c-1.227-1.3-1.181-1.027-.318-2.426.545-.863.772-1.518,2.154-1.49a1.608,1.608,0,0,0,.155-2.435C394.657,270.648,393.6,272.239,391.486,273.7Zm-19.047-1.2c-.7.918-4.344,1.172-3.971,2.663.173.7,2.417.727,3.262.5,1.336-.354,1.209-1.963,1.172-3.081C372.684,272.62,372.648,272.484,372.439,272.5Zm-10.832,1.972c-1.29.236-1.427,1.827-2.108,2.908-.318.536-1.227,1.136-1.336,1.463a4.268,4.268,0,0,0,.036,1.118c-.173.891-1.109,1.545-1.081,2.272a3.009,3.009,0,0,0,2.508,2.554,11.621,11.621,0,0,0,3.017-.1c.754-.154,1.281-.845,2.036-1.181a9,9,0,0,1,4.389-.763c2.19.209,4.135,1.781,6.661,1.718a29.322,29.322,0,0,0,3-.2c2.59-.436,1.972-2.708.7-3.571-.354-.227-1.354-.482-2.354-1.045-.745-.4-1.372-1.109-2.017-1.454a15.817,15.817,0,0,0-1.99-.645,9.438,9.438,0,0,0-1.763-.745c-1.845-.173-3.208,1.663-4.825,1.381-.491-.091-.454-.463-.954-.991-.672-.682-1.318-.9-.981-1.781C363.506,275.247,362.724,274.274,361.606,274.474Zm-37.122,16.448c-1.509-.182-.7-2.663-1.518-3.708.591-.772,1.19-1.581.491-2.663a6.819,6.819,0,0,0-3.49-.382c-1.354.636-2.027,1.963-3.035,2.735-.254.2-.672.236-.909.436a20.463,20.463,0,0,0-2.454,2.817c-.809,1.054-1.127,2.336-1.863,3.408-.791,1.145-2.417,1.781-2.8,3.026,1.154.463,2.072-.6,3.217-.909.645-.173,1.381-.136,2.19-.273.663-.118,1.4-.409,2.072-.482.936-.091,1.936.127,2.9.009.373-.045.763-.291,1.145-.336,1.254-.2,2.481.136,3.59-.018.818-.118,1.554-.691,2.3-.691a3.273,3.273,0,0,1,2.363,1.136c-.745,1.118.618,1.945.545,2.817-.055.818-.963.836-1.091,1.763,1.009.554,1.672,1.718,3.426,1.927,1.718.191,3.562-.164,4.88.536.936.5,1.081,1.681,1.917,1.972.291.1,1.145.055,1.627.145,1.518.282,3.008,1.708,3.989,1.6,1.89-.209.691-2.217,1.054-3.281.354-1.018,2.5-1.645,3.662-1.645,1.463-.009,2.017.836,3.408,1.209.418.109,1.063.118,1.627.254,1.527.327,3.1.563,4.9.836a13.063,13.063,0,0,0,3.371.4c1.127-.182,2.317-1.091,4.026-.945,1.436.118,2.245.618,3.49.391,1.663-.309,1.972-2.7,2.535-4.035a7.9,7.9,0,0,0,.727-2.354c.045-1.69-.591-3.2-1.727-3.19-.727.018-1.272.791-2.163,1.09-2.272.754-3.135-1.027-4.671-.863-.872.091-1.5,1.19-2.626,1.19-.682.009-1.163-.5-1.763-.445-.627.073-.618.672-1.372.654-.909-.427-.954-1.372-1.69-2.081-.827-.782-1.917-1.19-2.272-2.254a10.16,10.16,0,0,1-.091-2.735c-.4-.427-1.036-.009-1.409-.463.254-.445.654-.945.073-1.327-1.372.009-1.481,1.018-2.272,1.5-.409.218-1.118.191-1.372.545,1.036,1.754,3.072,2.554,3.971,4.435-.991.164-1.4-.373-2.09-.236-1.318.264-.782,1.654-1.536,2.49-1.69-.018-2.145-1.345-3.2-2.027-.927-.609-1.59-.563-1.781-1.354-.1-.418.209-.891.064-1.327-.173-.582-1.281-.927-1.663-1.472-.918-1.3-.536-2.69-1.309-4.307-1.218-.227-2.544-1.145-3.517-1.409-2.726-.727-1.718,1.227-.518,1.836.809.427,2.463.391,3.271.909,2.463,1.554.463,5.207-1.436,5.725-.809,1.409-1.236,3.2-3.235,3.553-2.481.454-5.216-1.036-5.761-2.345-.5-1.218-.218-2.5-1.054-3.717-1.772-.463-3.108-1.908-4.144-2.7C326.492,287.569,326.7,291.2,324.484,290.922Zm33.106-4.544a.8.8,0,0,0,.818-.027C358.616,285.588,357.308,285.57,357.59,286.379Zm30.979,42.984c-.045-.409.155-.809.073-1.227-.254-1.181-2.09-2.245-3.017-3.544a14.477,14.477,0,0,0-1.345-2.081c-1.081-.991-2.163-1.136-2.726-1.845-.6-.745-.4-1.39-.791-2.817a5.341,5.341,0,0,0-1.345-2.181c-.563-.473-1.59-.691-2.008-1.254-.954-1.227-1.4-2.345-2.435-3.562-.718-.845-1.527-2-2.5-1.945-2.463.145-.391,3,.363,4.035.654.9,1.827,1.836,2.054,2.681.2.691-.127.954.045,1.318.345.727,1.954,1.145,2.5,1.845a5.714,5.714,0,0,1,.881,2.1,12.258,12.258,0,0,0,.445,2.517c.482,1.045,2.281,1.563,2.981,2.544.682.954.727,2.263,1.49,3.1.745.809,1.854,1,2.835,1.536,1.372.745,2.036,2.126,3.444,2.517C390.123,331.925,388.732,330.726,388.569,329.362Z" transform="translate(-113.518 -266.523)" fill="#c7c6c8"/>
        <path id="Path_33240" data-name="Path 33240" d="M83.231,201.859c1.8.254,4.144-.445,5.661-.491a21.452,21.452,0,0,0,3.49.191,9.338,9.338,0,0,0,.918-.336c2.644-.627,6.37-.127,7.788.763a7.3,7.3,0,0,1,1.936,2.272c2.081-.218,2.708,1.518,3.789,2.617.409.409,1.045.545,1.309.863s.273.791.5,1.109a10.653,10.653,0,0,0,4.044,2.808,16.206,16.206,0,0,1,1.972.236c.891.345,2.036,2.054,1.136,2.9-.482.463-2.19.291-2.29.991-.164,1.1,2.572,1.627,4.453,1.472s2.635-1.1,3.6.082c.527-.391,1.318-.563,1.581-1.163-1.172-.536-3.317-.164-3.753-1.4-2.435.527-3.244-1.318-2.29-2.753-.345-.954-1.509-.518-2.472-1.245-2.036-1.545-.618-4.889,2.772-3.844.018-1.9-3.68-1.3-2.445-3.653-1.536-1.045-3.789-.609-5.38-1.354a7.552,7.552,0,0,1-2.381-1.836c-1.354-2.963,2.208-3.789,3.989-5.507.354-.345.791-1.136,1.109-1.454.791-.791,2.217-1.427,2.6-2.217.436-.909.036-1.545.627-1.954s1.463-.118,2.544-.182c.691-.045,1.263-.282,1.618-.264,1.227.091,1.727,1.345,2.953,1.727.436.136,1.118.1,1.518.254,1.7.654,1.19,2.217,1.509,3.708.218,1.045.9,1.79,1.018,2.6,1.645.336,3.644.336,4.671,1.254.891-.463,2.036-.654,3.09-1.218.554-.291,1.118-.945,1.7-1.063,1.463-.318,4.371-.073,4.671.954.509,1.736-2.608,2.644-3.353,3.762-.618.927-1.7,3.562-1.472,4.616.164.718,1.254,1.345,1.563,1.981a13.716,13.716,0,0,1,.827,3.726,10.881,10.881,0,0,1-.2,4.371c2.926.018,4.18-2.644,4.335-5.516a20.576,20.576,0,0,0-.055-5.271c-.209-.727-1.136-1.136-1.336-1.681-.436-1.236.182-2.872,1.418-2.881,1.063-.009.863.918,1.89,1.045.954-.5.009-1.263.055-1.927.145-2.117,3.335-2.635,6.3-2.345a1.194,1.194,0,0,1,.5,1.1c1.663.454,2.935-.391,4.28-.445,1.29-.055,2.072.627,3.162,1.018.782.273,1.563.164,2.108.736-2.181,3.09-5.407,5.307-8.788,7.4.282,2.9-.454,4.916.354,7.288,1.09-.018,1.318-.754,1.817-1.272.027-1.454-.282-2.59-.254-4.044.145-.6.818-.863,1.109-1.445.182-.391.027-.863.3-1.236.309-.4.918-.418,1.363-.745,1.381-1.009,2.681-3.117,4.753-3.308.672-.827,5.016-2.063,5.771-.691.382.691-.391.745-.191,1.427,1.572.336,2.245-.554,3.571-.627a16.139,16.139,0,0,1,4.435.872c.963.273,1.836.2,2.345.845a4.692,4.692,0,0,1,.772,2.4c0,.391-.373.754-.309,1.227.064.491.554.709.854,1.29.354.672.382,1.436.645,1.8.445.627,1.463.654,2.245,1.145.881.563,1.009,1.7,1.7,2.581.682.863,1.772.9,2.372,1.654a6.793,6.793,0,0,1,1.009,2.5c.336,2.054-.109,3.653.436,6.27.6.727,1.654,1.027,1.808,2.172,1.1.836,3.117,1.39,3.108,2.844-.009.791-.927,1.227-1.672,1.881-1.245,1.09-2.517,1.581-3.153,3.053a1.481,1.481,0,0,1-.936-.173c-.154,2.008.663,3.717.055,5.162-.245.591-1.1,1.09-1.563,1.781-.554.818-.554,1.854-2.017,1.89.854.936-1.436,1.9-.927.227-3-.527-4.471-2.508-7.515-2.99-1.127-.872-1.045-1.854-1.49-2.99a4.6,4.6,0,0,0-1.581-2.181c-2.19-1.009-6.734,1.009-6.888-1.5-.045-.736,1.581-2.572,2.708-2.317,1.172-1.563,3.262-2.39,3.789-4.48-1.145-.809-2.417-.863-2.853-2.036-.482-1.272.672-2.953.227-3.862-.454-.881-1.763-.591-2.935-.918-.527.136-.382.8-.772,1.036-.654.264-1.536.663-1.69,1.272-.209.827.418,1.636.309,2.326-.145.981-2.79,2.644-3.726,3.162a7.09,7.09,0,0,1-1.254.454c-.409.227-.209.936-.545,1.236-.827.073-.809-.636-1.527-.663-.809,1.281,1.027,1.9,1.836,2.872a10.061,10.061,0,0,1,1,2.2c.391.809,2.535,2.335.318,2.826-.491.109-.845-.291-1.518-.254-.772.036-1.727.709-2.544.082-1.9.691-5.689,1.5-5.607-1.236-1.1.554-4.307,1.881-5.552.391-.3.3-.5,1.218-1.109,1.554-.282.154-.809.082-1.263.245-.527.191-.909.872-1.581,1.372-.5.382-1.081.563-1.49.863a13.248,13.248,0,0,0-2.126,2.2c-.763.891-1.763,1.554-2.136,2.1-.509.791-1.509,3.053-1.254,3.889.209.691,1.09.573,1.654,1.063.772.918-.027,3.3.945,4.017.473.209.791-.082,1.4-.045,1.163.609,2.472.827,3.644,1.718.627.473.936,1.236,1.572,1.763a19.327,19.327,0,0,0,2.117,1.154c.772.482,1.236,1.118,1.89,1.254,1.236.282,3.135-.136,3.617.691.518.909-1.018,2.835-.682,3.88.254.809,1.181.427,1.781,1.263-.055.582-.863.545-1.245.845-.3.854.936,2.726,1.6,2.781.682.064,2.1-1.209,2.254-1.79a10.967,10.967,0,0,0-.064-1.927c.027-.7.3-1.481.291-2.045-.045-1.509-1.372-2.526-.963-4.426.309-1.481,1.781-1.718,2.472-2.517.909-1.063.782-2.09,1.872-2.9-1.063-2.726.827-5.207,1.736-7.261-.791-.991-.454-2.181-.463-3.535,0-.418-.227-.8-.154-1.109.627-2.572,8.106-3.244,10.723-1.681.309.182.591.545.945.782a4.924,4.924,0,0,1,2.681,3.871c.391.5,1.254.563,1.881.845.373.972,1.063,1.736,1.027,2.8-.036.872-.854,1.754-.264,2.635,1.527.145,1.936-.354,2.863-1,.527-.363,1.154-.691,1.481-.954.918-.791,1.281-1.827,3.062-1.927,2.236-.136,4.644,1.845,4.98,3.471a17.036,17.036,0,0,1-.264,6.1c-.173.791-.618,1.5-.391,2.145.254.727,2.172,1.218,1.59,2.581,1.045.9,1.981,1.636,3.108,2.735a17.983,17.983,0,0,1,1.554,1.463c1.372,2,1.145,5.543.609,8,1.172.754,3.208.727,4.008,2.09.863,1.463.909,4.571-.282,5.6-1.718,1.481-9.342.245-10.105-.881a2.289,2.289,0,0,1-.273-1.209,3.09,3.09,0,0,1-2.463-1.045c-.927-2.408,1.254-4.18,2.236-5.952-2.263.182-2.944,2.517-5.707,2.626-.382.154-.354.627-.782.736a14.244,14.244,0,0,0-5.007-.545c2.226.682,3.3,2.408,4.2,4.317,2.426.073,4.862.218,4.707,2.281-.154,2.1-2.663,2.817-4.971,3.617-.863.291-1.8.736-2.526.891-.809.173-1.736.027-2.426.182-.636.155-1.29.691-1.718.663-.718-.045-.963-.827-1.318-1.063a13.082,13.082,0,0,0-5.507,1.6c-.4,1.827-.109,3.09-.9,4.189-1.19,1.645-4.235,2.463-6.488,3.562a20.566,20.566,0,0,0-3.635,2.045,16.086,16.086,0,0,0-1.1,1.863,6.071,6.071,0,0,0-1.109,1.763c-.127.682.264,1.509.073,2.226-.273,1.118-1.79,1.854-2.926,2.435a20.276,20.276,0,0,0-2.608,1.708c-.691.5-1.045,1.2-1.69,1.572-.491.291-1.081.373-1.59.663a3.9,3.9,0,0,0-2.3,4.326c.1,1.018.836,2.072,1.027,3.108.064.354-.036.718.036,1.018.127.545.582,1.19.636,1.7.136,1.309-.636,3.108-1.636,3.2-1.372.136-3.535-3.59-3.635-4.944-.045-.627.282-1.018.182-1.527-.173-.809-1.109-1.163-1.445-1.672-.954.927-1.772.164-2.9-.018a12.169,12.169,0,0,0-5.189.881c-1.145.436-2.026,1.336-4.026,1.054-.954-.136-1.563-.963-2.463-1.136a8.984,8.984,0,0,0-1.272.045c-.618-.027-1.29-.282-1.754-.245-1.409.118-2.526,1.345-3.762,1.845-.445.182-1.036.182-1.381.345a4.406,4.406,0,0,0-1.9,2.09c-.327.909.1,1.808-.018,2.844-.091.8-1.009,1.663-1.072,2.672a16.063,16.063,0,0,0,.427,2.317c.3,2.59.091,5.525,2.417,6.407a11.318,11.318,0,0,0,4.871.245c.736-.154.591-.518,1.718-.763,1.145-1.854,5.207-5.98,8.76-4.953a3.716,3.716,0,0,1,1.972,3.69c-.2.891-1.263,1.427-2.136,2-.254.981-.909,1.618-.591,3.063,3.181-.254,5.934.327,7.588,1.563,2.654,2-.182,6.261,1.463,9.3.336.609,1.063.981,1.672,1.554,2.408.055,3.453-.654,5.307-.582.691-.509,1.072-1.309,2.154-1.49s2,.364,3.026.509c.563-.363.845-.945,1.345-1.363,2.581-.918,4.735-2.8,7.779-3.2a20.482,20.482,0,0,1,4.862-.164c.554.082,1.036.618,1.763.654,2.208.127,5.243-2.317,8.17-1.69a25.648,25.648,0,0,1,3.162,1.218c2.581.909,5.4,1.808,7.188,3.508,1.536,1.454,2.027,3.762,3.88,5.044,2.308.436,4.5,1.045,5.871,2.345a14.951,14.951,0,0,1,1.218,1.772c1.145,1.554,2.581,2.6,3.062,4.562q2.181,1.3,4.253,2.7c1.227.364,2.535.491,3.853.891.7.218,1.3.809,2,.945,1.509.327,3.062-.082,4.526.055,3.58.336,5.425,1.8,7.988,3.29a13.5,13.5,0,0,1,3.153.6c.881,1.645,2.554,1.672,2.345,4.289a10.842,10.842,0,0,1-.7,3.271c-.254.527-.8.891-1.009,1.354-.227.518-.164,1.272-.4,1.936-.545,1.463-2.145,3.144-2.508,4.744-.336,1.463-.264,2.972-.672,4.38-.363,1.263-1.1,2.463-1.381,3.689a22.231,22.231,0,0,1-.282,2.245,13.7,13.7,0,0,1-2.635,4.144,9.011,9.011,0,0,1-1.372.445c-.473.209-.845.618-1.254.754s-1.109.1-1.618.254a14.172,14.172,0,0,0-3.753,2.254c-.918.963-1.2,2.372-1.854,3.6-.736,1.418-1.681,2.772-2.29,4.235-.7,1.663-.927,3.353-1.818,4.644a15.01,15.01,0,0,0-1.572,1.563c-.427.082-.718.263-1.136.345-.727.563-.881,1.436-1.327,2.172-.609,1-1.954,1.536-2.817,2.517a36.822,36.822,0,0,0-2.326,3.226c-.227.318-.173,1.163-.409,1.736-.245.609-.918,1.136-1.327,1.872-.573.991-.691,2.145-1.409,2.981a15.47,15.47,0,0,1-1.808,1.381c-1.7,1.39-3.671,2.781-5.425,4.126-.818,3.408-2.963,5.734-4.117,8.86,2.89,2.463,3.135,7.452,2.708,11.977,1,1.163,2.5,1.836,2.9,3.553.091.373-.091.809.036,1.218.282.836,1.381,1.545,1.472,2.59.191,1.981-2.236,3.326-5.116,3a46.762,46.762,0,0,1-8.4-1.745c-2.517-.927-4.062-2.345-6.052-4.362a28.032,28.032,0,0,1-3.526-4.853c-1.018-1.581-2.445-2.272-2.7-4.371-.191-1.636.663-2.8.545-4.58-.209-3.062-.509-4.871,1.409-6.525a24.85,24.85,0,0,1-1.936-5.925c-.373-1.69-.591-3.344.318-4.271-.136-3.244-.027-6.189.027-9.624.045-2.735,1.081-5.271,1.254-7.752.264-4.035-.427-8.215-.863-12.141-.091-.827.2-1.727.036-2.535-.182-.872-1.627-2.49-2.2-3.471-1.081-1.836-1.509-3.626-3.281-4.562-.7-.373-1.636-.645-2.463-1.036s-1.836-.554-2.463-.936a14.041,14.041,0,0,1-2.508-2.254c-.627-1-.672-2.363-1.272-3.4-.482-.836-1.29-1.636-1.827-2.581a18.122,18.122,0,0,0-1.7-2.581c-1.181-1.427-2.944-2.563-3.726-3.944-.154-.273-.082-.709-.264-1.1-.418-.891-1.172-1.472-1.136-3.008.045-2.2,1.436-2.981,2.272-4.735.863-1.827,1.754-4.153,3.062-5.58.718-.781,1.69-1.127,1.9-2.29.345-2.017-.482-2.79-1.181-4.117-1.5.145-1.963-.373-2.926-.818-.409-.191-.963-.2-1.29-.364-.809-.418-1.272-1.172-2.008-1.254-.627-.064-1.336.336-1.963.164-.836-.218-1.281-1.554-2.145-1.954-1.1-.491-1.772-.118-2.472-.927.018-1.545-.991-2.136-1.963-3.09-1.336-1.318-1.418-1.354-3.535-1.808-.736-.154-1.454-.454-2.226-.636-.791-.173-1.681-.118-2.445-.318-2.054-.536-3.78-3.644-5.916-3.662-1.054,0-1.9.854-2.981.909-2.363.127-6.225-1.481-8.188-2.263-.809-.327-1.472-.882-2.236-1.145-.427-.145-1.363-.236-1.872-.445-.473-.191-1.081-.909-1.9-1.354-.963-.545-2.59-1.309-2.626-2.454-.018-.609.736-1.172.745-1.845a6.383,6.383,0,0,0-.636-1.908,9.834,9.834,0,0,0-1.463-2.081c-.536-.618-1.363-1.063-1.908-1.654-.245-.273-.273-.663-.491-.909-.518-.554-1.645-.891-2.145-1.645.118-1.845-1.118-2.154-2.081-3.381-1.427-1.79-2.29-2.363-3.19-5.171-.309-.963-.845-2.345-2.036-2.063-.791.182-.791,1.481-.382,2.445.454,1.091,1.581,2.1,2.308,3.272.336.527.609,1.2.991,1.79s1.009,1.136,1.209,1.572a13,13,0,0,1,.282,1.418c.164.464.545.827.736,1.3.154.354.109.8.273,1.1.236.436.972.827,1.318,1.381.291.454.727,1.463-.291,1.627-.518.082-1.6-1.036-2.372-1.645a8.64,8.64,0,0,1-1.917-1.963c-.109-.4.136-1.154.073-1.427-.2-.836-1.209-1.39-2.036-1.863-.745-.418-2.072-.863-2.136-1.654-.055-.645,1.063-1.09,1.1-1.663.082-1.445-3.035-2.417-2.817-4.571a5,5,0,0,1-2.4-2.563,7.013,7.013,0,0,1-2.236-.936c-.8-.627-.945-1.608-1.581-2.381-.463-.545-1.218-.645-1.663-1.063a10.909,10.909,0,0,1-2.226-4.289c-.872-2.744-1.972-5.034-1.554-8.57.2-1.7,1.354-3.144,1.69-4.835a17.984,17.984,0,0,1,.264-2.435c.273-.781.981-1.418,1.318-2.172.945-2.1,1.218-4.307,2.117-6.161-1.863-3.244-7.043-8.388-4.026-12.941-.463-1.508-2.027-1.99-2.99-3.044-.318-.164-.582.155-.927-.064-.145-.7-1.118-1.29-1.336-2.09-.591-2.1.427-4.626,1.2-5.925-.927-.972-.5-2.081-.8-3.208-.191-.709-.854-1.309-1-2.108-.091-.491.073-1.018-.055-1.518a10.787,10.787,0,0,0-1.472-2.481c-1.109-1.554-2.872-2.926-3.962-4.335-.318-.409-.427-.854-.736-1.19a14.629,14.629,0,0,0-3.789-2.617,7.357,7.357,0,0,0-3.126.009c-1.708.409-2.69,1.79-4.835,1.181-.354-.109-.663-.754-1.3-.881-1.418-.264-2.6,1.263-3.48-.082-2.181.745-4.3,1.536-5.462,3.117-3.317.173-4.644,2.981-7.052,3.989-.454.191-1.009.191-1.381.336-.654.282-.909.8-1.581,1.172a19.816,19.816,0,0,1-3.553,1.336c-.609.191-.418,1.036-.891,1.354-2.554-1.745-4.989,1.545-8.424.872a2.357,2.357,0,0,1,1.727-3.8c1.2-2.027,3.6-2.617,5.771-4.344,1.209-.972,2.835-2.117,3.244-3.353.545-1.636-.018-3.835.627-5.8a3.288,3.288,0,0,1-1.845-2.99c.018-.518.691-1.09.754-1.745.082-.772-.454-1.645-.309-2.326.136-.582.963-.9,1.463-1.563,1.036-1.409,1.608-3.6,2.844-5.071a6.855,6.855,0,0,1,5.253-2.2c.209-.254.055-.809.2-1.127-1.645.336-2.917-.218-3.172-1.209-.218-.863.663-1.963.6-3.053-.045-.682-.518-.945-.409-1.618.763-1.09,2.8-1.3,4.462-1.772,1.109-.318,2.654-1.409,4.271-.545.363.563-.136,1-.064,1.627,1.272,2.017,3.662.4,3.053-2.236-.154-.672-.8-.954-.863-1.49-.036-.391.509-1.081.518-1.945.018-1.527-1.309-2.89-1.172-3.917a4.463,4.463,0,0,1,2.463-2.417c.782-.127,1.681.536,2.454.536a6.175,6.175,0,0,0,2.408-.791c2-1.027,4.044-3.408,6.134-3.753.836-.136,1.754.091,2.317-.073.945-.282,1.49-1.363,2.381-1.49.609-.1,1.636.482,2.672.409.963-.073,1.927-1.09,2.754-1.109,1.39-.018,1.954,1.536,2.4,2.463a4.049,4.049,0,0,1,2.853,2.326c1.009.536,2.735.418,3.962,1,.536.236.991.745,1.545,1.054,1.509.863,3.871,1.309,5.516,2.054.309.136.627.536,1.063.772C81.077,199.124,83.013,199.6,83.231,201.859Zm45.9,14.2c-.2,1.227,1.009,1.627,1.808,2.181.981.672,1.572,1.59,2.6,1.636,1.09.036,1.972-.609,3.135,0,.818-.981,2.136-1.545,2.808-2.635a4.009,4.009,0,0,0-1.772-1.163c-1.536,1.3-3.662-.745-4.4.354C132.339,215.454,129.368,214.555,129.132,216.063Z" transform="translate(-88.983 -268.452)" fill="#c7c6c8"/>
        <path id="Path_33241" data-name="Path 33241" d="M275.539,238.255c.718-.036.536-.8,1.127-.954,1.372-.427,2.763-.145,4.044-.336,1.381-.2,2.617-1.354,3.935-.327.627,1.581,2.326,2.626.963,4.635-.482.709-2.172,1.372-3.408,2.045-2.154,1.163-3.253,1.781-5.97,1.618-.563-.145-.791-.709-1.536-.872-1.045-.209-2.045.273-2.335-.527-.191-.554.527-.863.418-1.436-.154-.836-1.254-.582-1.9-1.254-.073-.818,1.29-.454,1.236-1.263-.336-.582-1.49.091-1.763-.645.418-1.245,1.463-2.763,2.935-2.626C274.512,236.411,274.6,237.647,275.539,238.255Z" transform="translate(-112.646 -272.806)" fill="#6b9e1b"/>
        <path id="Path_33242" data-name="Path 33242" d="M588.314,269.645c.145.645-.391.963-.418,1.536-.009.454.327.791.273,1.209-.164,1.327-2.026,1.181-2.826,2.217-.227.672-.145,1.354-.763,1.545-1.118.345-2.754-1.8-3.608-.282.6,2.154,3.235,3.935,4.026,5.943a6.547,6.547,0,0,1,.336,3.044c-.1.463-.609.763-.654,1.245s.409,1.027.518,1.7c.1.636-.136,1.29-.045,1.827.209,1.372,1.7,2.554-.236,3.553-.345.009-.7.027-1.036.036-1.063.927-2.772.809-3.889,1.545-.945.618-1.018,1.527-1.9,2.19a5.364,5.364,0,0,0-4.816,1.781c-.482,0-.718.2-1.263.136-.736,1.236-.109,3.59-1,4.7-1.481-.573-1.99-1.708-2.881-3.044a5.361,5.361,0,0,1-.991-1.89c.027-.745,1-1.109,1.454-1.772.236-.354.191-.772.409-1.136a14.674,14.674,0,0,1,2.926-2.826c1.381-.609,3.19-.318,4.244-1.054,1.254-.881.318-2.781,1.272-3.69.554-.209.963.536,1.536.654,1.063-.227,1.209-1.336.627-2.145.254-.454,1.036-.463,1.354-.863a6.727,6.727,0,0,0,.255-2.635c-.118-.536-.818-.981-.972-1.5-.309-1.027.454-2,.245-2.844-.064-.282-.354-.427-.718-.782a14.556,14.556,0,0,0-1.917-1.763c.563-.882.491-1.645.863-2.263.3-.5.963-.709,1.109-1.245a4.555,4.555,0,0,0-.064-2.027c-.118-.6-1.763-2.372-.191-2.626.9-.155,2.19,1.245,2.6,1.527.809.573,1.854,1.381,2.826,1.336C586.36,270.9,586.733,269.409,588.314,269.645Z" transform="translate(-139.729 -275.716)" fill="#6b9e1b"/>
        <path id="Path_33243" data-name="Path 33243" d="M558.712,333.643c.845,1.708,1.281,3.853-.173,5.162.573,2.054,3.135,2.226,5.189,2.872.127.582-.263.7-.309,1.127.836,1.209,3.126.591,3.217,2.735.018.327-.273.709-.191,1.127.127.654,1.054.954,1.445,1.672a17.489,17.489,0,0,1,1.3,4.526c-.1,1.2-1.681,2.054-2.1,2.8-3.081.836-2.408-3.871-5.307-2.554-.682.3-.318.981-1.236,1.254-.682-.527-.364-1.636-.073-2.126.445-.718,1.754-1.009,1.908-1.681-.182-.727-1.009-.854-1.427-1.372a2.735,2.735,0,0,0-1.227-1.99c.227-1.136-.972-2.217-.1-2.944.818-.073.881.563,1.19.972.936.164,1.263.918,2.008,1.263a1.255,1.255,0,0,0,1.018-.736c-.118-.591-.972-.482-1.527-.672-.872-.591-.972-2.6-2.735-2.136-.745.2-.554,1.708-1.454,1.772-.518.036-1.963-1.572-2.172-2.254-.091-.345.154-.754.091-1.127-.164-.945-1.5-1.754-1.5-3.09,0-.536.445-.945.636-1.745.327-1.4-.036-2.517.945-2.881A5.878,5.878,0,0,1,558.712,333.643Zm4.726,16.466c.954,1.209,2.081-.563,2.508-1.3C565.11,348.219,563.619,349.228,563.438,350.11Z" transform="translate(-138.58 -281.681)" fill="#6b9e1b"/>
        <path id="Path_33244" data-name="Path 33244" d="M553.67,358.792c-.391,1.19-2.372,1.672-2.445,3.226-.027.482.382.727.618,1.4.127.354.036.782.145,1.009.318.609,1.49,1.118,1.218,1.69-.182.373-1,.482-1.372.554a18.412,18.412,0,0,0-3.117,7.506,7.08,7.08,0,0,1-2.417.491c-1.091-.1-1.636-.972-2.7-1.018-.663-.036-1.136.363-1.845.363-.582,0-.891-.463-1.763-.654-1.009-.218-1.5.036-1.981-.336-.345-.273-.473-1.081-.745-1.59-.436-.818-1.781-2.226-1.981-3.789-.173-1.254.291-2.472,1.3-2.681.654-.136,1.2.427,1.863.354,1.081-.109,1.254-1.518,2.017-2,.345-.218.9-.254,1.263-.445,1.2-.636,1.645-1.945,2.8-2.935.827-.709,2.372-1.154,3.062-2.027.736-.909.891-2.172,2.017-2.19C550.753,356.42,552.2,358.092,553.67,358.792Z" transform="translate(-136.819 -283.711)" fill="#6b9e1b"/>
        <path id="Path_33245" data-name="Path 33245" d="M567.04,365.9c-.409,1.8-2.136,1.963-4.462,1.872-1.881-.064-4.5.018-4.716.963a1.118,1.118,0,0,0,1.091,1.381c.727.045.781-.391,1.372-.554,1.081-.3,2.272-.309,3.226-.509.672.273.909,1.645.064,1.927-1,.064-2.29.073-2.517,1a21.7,21.7,0,0,1,1.109,2c.318.463,1.227.727,1.436,1.372.736,2.245-1.663,2.49-2.717,1.917-.609-.336-1.018-2.526-1.936-2.372-1.318.218-.164,2.754-.473,3.362-.8-.036-2.136-.436-2.345-1.145-.145-.436.3-1.163.173-1.727-.2-.863-1.254-1.109-1.345-1.772-.064-.563.573-1.091.754-1.754.127-.509-.036-1.027.073-1.427.127-.473.618-.881.763-1.336.136-.409.009-.863.182-1.227a4.5,4.5,0,0,1,2.617-1.708c1.39-.173,3.081.682,4.653.454C565.414,366.412,565.7,364.831,567.04,365.9Z" transform="translate(-138.621 -284.606)" fill="#6b9e1b"/>
        <path id="Path_33246" data-name="Path 33246" d="M581.168,368.769c1.19-.881,4.544-.4,5.016.945.173.5-.091,1.072.055,1.527.254.836,1.072,1,1.672,1.463a1.936,1.936,0,0,0,1.554-2.281c.491-.364.718.145,1.272.064.582-.082.981-.618,1.609-.663a18.592,18.592,0,0,1,3.271.809c1.127.3,2.19.5,3.153.809,2.29.718,4.625,1.19,6.207,1.827,1.218.5,2.726,1.218,2.981,2.435a4.247,4.247,0,0,0,2.1.745c.482-.027.972-.609,1.727-.772,1.372-.291,2.735.045,3.326-.809.563.064.854.391,1.418.463,1.127-.591,1.618-1.7,2.581-2.417-.263-.945-1.936-.554-2.026-1.663,1.609-.036,3.853,1.154,3.789,2.408-.027.645-.672.781-1.236,1.254-.791.682-1.736,2.045-3.044,2.326-1.745.391-3.29-.236-4.662-.554-.863.7-1.5,1.49-1.445,2.19.055.582,2.99,3.4,3.953,3.508.491.073.727-.264,1.263-.236,1.854.082,1.718,2.236-.154,2.435-.491.055-1.463-.545-2.681-.627a9.557,9.557,0,0,1-2.09-.127c-2.3-.772-2.717-4.089-5.807-3.771-1.927.209-1.7,2.4-3.035,2.735a13.546,13.546,0,0,1-3.708-.273c-1.036-.318-1.654-1.372-2.372-1.445-.382-.045-2.881.945-3.253-.1-.273-.772,1.172-1.554,1.209-2.072a4.448,4.448,0,0,0-1.118-2.181c-1.036-1.027-3.372-.945-5.262-1.654-.609-.227-1.3-.845-1.881-.863-.836-.018-.991.491-1.609.464-.6-.027-1.472-.981-1.681-1.772-.1-.336.091-.709-.036-1.009-.464-1.163-1.681-1.236-2.608-1.745-.055-.645-.591-1.781.055-2.136C580.286,367.751,580.5,368.7,581.168,368.769Z" transform="translate(-140.843 -284.828)" fill="#6b9e1b"/>
        <path id="Path_33247" data-name="Path 33247" d="M589.759,368.909c.4-.091.427.336.245.491C589.6,369.49,589.577,369.063,589.759,368.909Z" transform="translate(-141.783 -284.913)" fill="#6b9e1b"/>
        <path id="Path_33248" data-name="Path 33248" d="M615.11,412.981c-.245,1.536-.836,2.781-.791,4.28.018.8.463,1.572.427,2.417-.045,1.036-.845,2.1-1.281,3.181-1.009,2.454-1.072,4.371-2.7,6.179-.6.654-1.472,1.027-2.026,1.681-1.209,1.418-1.781,3.117-2.972,4.662a8.013,8.013,0,0,0-1.309,2.472,10.831,10.831,0,0,1-.827,2.781c-.672.927-2.6.672-3.908,1.127-1.5.536-2.408,2.354-3.753,2.363-1.154.009-1.508-1.463-2.481-1.536-1.163-.1-1.4.827-2.526.791-.845-.027-1.4-.8-2-1.054a15.255,15.255,0,0,1-2.226-.727,3.966,3.966,0,0,1-1.708-2.581c-.036-.554.454-1.19.409-1.745a1.829,1.829,0,0,0-1.327-1.572c-1.227-.136-2.635,1.581-3.471.209.118-1.218,3.1-.091,2.963-1.518-.6-.545-1.727.682-2.317-.118.145-.991,1.917-1.827.954-2.763-1.654.218-1.6,1.836-3.181,2.126-1.036-.718-.527-1.808-.791-2.608-.154-.509-.691-.9-.972-1.39-.364-.645-.245-1.054-.854-1.481s-1.5-.3-2.454-.645c-.518-.173-1.072-.754-1.527-.854-3.226-.663-5.534,1.29-8.306,1.39a4.925,4.925,0,0,0-2.872.709c-.582.291-1.263.5-1.718.754-.781.445-1.327,1.518-2.145,1.8-1.1.382-2.508-.091-4.053-.064-2.608.036-4.562,2.1-6.3,2.435-2.481.491-5.025-1-5.071-2.363-.027-.872,1.236-1.309,1.554-2.29.473-1.4.245-4.317-.091-6.488-.191-1.154-.727-2.181-.945-3.817-.127-1.018-1.645-2.345-1.6-2.99.036-.7,1.054-.881,1.336-1.572-.7-1.445.491-2.717.682-3.771.182-.936-.2-1.49.273-2.145.5-.654,1.836-.809,2.853-1.309a10.1,10.1,0,0,1,3.9-1.445c1.036-.164,2.326-1.027,3.662-1.345a19.062,19.062,0,0,0,2.772-.491,5.091,5.091,0,0,0,2.754-4.253c.691-1.663,2.963-1.018,4.1-2.254.273-.3.182-.763.427-1.127.945-1.427,3.4-3.108,5.125-2.9,1.19.127,1.818,1.736,3.181,1.509.845-.145.718-.8,1.109-1.454.654-1.118,1.954-2.09,2.572-3.026,0-.691-.963-.818-.636-1.5.191-.418,1.281-.173,2.317-.282.554-.064,1.218-.363,1.608-.354,1.036.027,2.726,1.309,4.335,1.372,1.545.064,3.517-.772,3.944.273s-.836,1.536-.972,2.272c-.018.582.591.554.509,1.19-2.944.509-1.663,1.963.327,3.035,1.345.718,2.445,1.981,4.1,1.281.736.563.418,1.754,1.572,1.772.981.009,1.581-1.19,1.89-2.19a11.692,11.692,0,0,0,.682-4.18,11.916,11.916,0,0,1,.591-3.153c.291-.936.9-2.017,1.072-2.481a.807.807,0,0,1,.345-.2c.1-.027.109.027.118.091.972.545,1.1,1.481,1.472,2.381.354.882.373,2.136.9,2.817.745.936,2.226.545,2.617,1.836.282.936-.055,1.908.2,2.735.154.509.672.954.863,1.49.336.927.127,2.017.554,2.826.518,1,2.953,1.5,3.8,2.717.509.727.618,1.936,1.245,2.79.482.654,1.718,1.027,2.026,1.554a8.735,8.735,0,0,1,.264,1.1A6.308,6.308,0,0,0,615.11,412.981Zm-37.649-23.8c-.082.354.145.418.245.6.473.018.736-.136.682-.536C578.215,388.9,577.751,388.954,577.461,389.181Z" transform="translate(-137.336 -286.565)" fill="#6b9e1b"/>
        <path id="Path_33249" data-name="Path 33249" d="M413.077,394.688c1.4-.282,1.718,1.9,1.981,3.68a7.177,7.177,0,0,1,.291,1.618c-.073.563-.654.909-.872,1.445-.563,1.281-.7,2.654-1.145,4-.818,2.472-1.981,4.689-3,7.406-.527,1.4-1.045,3.044-1.736,3.5a14.685,14.685,0,0,1-3.562,1.036,3.491,3.491,0,0,1-2.726-1.736,8.441,8.441,0,0,1-.164-1.718,12.937,12.937,0,0,1-.545-2.408c.109-2.072,2.3-2.835,2.39-4.453.064-1.027-1-1.89-.809-3.317a4.472,4.472,0,0,1,1.89-2.6c.827-.373,1.663-.4,2.417-.682a7.173,7.173,0,0,0,2.717-1.808c.991-1.19,1.363-3.026,2.663-3.853A.308.308,0,0,1,413.077,394.688Z" transform="translate(-124.623 -287.264)" fill="#6b9e1b"/>
        <path id="Path_33250" data-name="Path 33250" d="M660.355,448.472c.809-.055,1.054-.582,1.954-.563,1.281,1.454-.845,3.081-1.609,4.108a9.688,9.688,0,0,1-1.254.345,10.325,10.325,0,0,1-2.763,3.944c-1.1,1.118-2.072,2.417-3.9,1.445-.845.264-.573.863-.891,1.345-.9,1.436-2.935,2.4-3.7,3.762-.227.436,0,1.036-.536,1.345-3.453.282-4.008,3.235-5.743,5.162a32.624,32.624,0,0,1-2.708,1.917c-.927.763-1.381,2.117-3.889,1.654-.709-.5-1.527-.672-1.9-1.363-.318-.591.091-.918.055-1.718-.027-.909-.582-1.518.036-2.644.7-1.3,2.853-2.572,4.516-3.6,3.344-2.072,6.816-3.153,9.424-5.78.727-.727,1.309-2.2,2.008-2.308.636-.091.827.382,1.4.563a14.244,14.244,0,0,0,2.108.436,2.146,2.146,0,0,0,1.554-1.872c-.064-1.072-1.863-1.318-1.708-2.581.118-.909,1.5-.891,2.036-1.59a7.89,7.89,0,0,0,1.027-3.78,28.2,28.2,0,0,0-.682-3.326c-.318-1.109-.945-2.381-.591-3.735.018-.118.227-.082.227-.209,1.091.818,2.417,1.463,2.644,2.844.082.482-.291,1.018-.182,1.527.127.6,1.045.954,1.327,1.481C659.246,446.446,658.774,448.29,660.355,448.472Z" transform="translate(-145.759 -291.35)" fill="#6b9e1b"/>
        <path id="Path_33251" data-name="Path 33251" d="M603.034,455.006a9.885,9.885,0,0,1-1.8,5.216,8.311,8.311,0,0,1-2.953,1.618c-2.29.109-2.036-2.89-1.9-4.7.136-1.608-.509-2.972.582-3.571,1.227.173,1.245,1.372,2.49,1.545C600.671,455.278,601.916,454.288,603.034,455.006Z" transform="translate(-142.39 -292.64)" fill="#6b9e1b"/>
      </g>
      <g id="Group_28063" data-name="Group 28063" transform="translate(2300.518 -15829.689)">
        <rect id="Rectangle_2929" data-name="Rectangle 2929" width="1.945" height="55.461" transform="translate(25.566 88.149) rotate(180)" fill="#fff" stroke="#221e26" stroke-width="1"/>
        <g id="Group_28062" data-name="Group 28062" transform="translate(0 0)">
          <g id="Group_28059" data-name="Group 28059" transform="translate(17.166)">
            <path id="Path_33255" data-name="Path 33255" d="M115.637,207.88l-4.671-5.752-2.045-23.846-.482-2.108.382,1.018-.091-1.081.482,2.1,8.451,22.392-1.736,7.215.136.582-.209-.254-.082.327Z" transform="translate(-108.44 -176.11)" fill="#fff" stroke="#221e26" stroke-width="1"/>
          </g>
          <g id="Group_28060" data-name="Group 28060" transform="translate(24.409 31.37)">
            <path id="Path_33257" data-name="Path 33257" d="M117.082,211.793l7.315-1.163,21.674,10.142,2.063.645-1.072-.182.981.463-2.054-.636-23.618-3.88-5.38-5.1-.582-.182.336-.055-.245-.227Z" transform="translate(-116.41 -210.63)" fill="#fff" stroke="#221e26" stroke-width="1"/>
          </g>
          <g id="Group_28061" data-name="Group 28061" transform="translate(0 32.142)">
            <path id="Path_33259" data-name="Path 33259" d="M113.6,212.107l-2.644,6.925L91.331,232.727,89.75,234.19l.691-.836-.891.618,1.581-1.463L106.3,214l7.106-2.108.445-.409-.118.309.318-.091Z" transform="translate(-89.55 -211.48)" fill="#fff" stroke="#221e26" stroke-width="1"/>
          </g>
          <path id="Path_33261" data-name="Path 33261" d="M114.535,212.231A1.943,1.943,0,1,0,116,209.9,1.939,1.939,0,0,0,114.535,212.231Z" transform="translate(-91.826 -179.189)" fill="#fff" stroke="#221e26" stroke-width="1"/>
        </g>
      </g>
      <g id="Group_28073" data-name="Group 28073" transform="translate(2310.023 -15873.438)">
        <rect id="Rectangle_2931" data-name="Rectangle 2931" width="2.629" height="74.904" transform="translate(40.311 120.004) rotate(180)" fill="#fff" stroke="#221e26" stroke-width="1"/>
        <g id="Group_28072" data-name="Group 28072" transform="translate(0 0)">
          <g id="Group_28069" data-name="Group 28069" transform="translate(34.501)">
            <path id="Path_33269" data-name="Path 33269" d="M152.2,137.814l-4.428-8.979L152.2,96.811V93.9l.2,1.459.2-1.459v2.911l4.435,32.023-4.435,8.979v.816l-.2-.412-.2.412Z" transform="translate(-147.77 -93.9)" fill="#fff" stroke="#221e26" stroke-width="1"/>
          </g>
          <g id="Group_28070" data-name="Group 28070" transform="translate(38.727 44.73)">
            <path id="Path_33271" data-name="Path 33271" d="M154.53,156.225l9.991.65,25.515,19.851,2.521,1.452-1.358-.549,1.156.9-2.521-1.459L159.89,164.9l-5.562-8.322-.708-.412.455.029-.253-.376Z" transform="translate(-153.62 -155.82)" fill="#fff" stroke="#221e26" stroke-width="1"/>
          </g>
          <g id="Group_28071" data-name="Group 28071" transform="translate(0 44.376)">
            <path id="Path_33273" data-name="Path 33273" d="M138.231,156.089l-5.555,8.329L102.733,176.59l-2.521,1.452,1.156-.9-1.358.556,2.521-1.452,25.515-19.851,9.991-.65.7-.412-.253.383.455-.029Z" transform="translate(-100.01 -155.33)" fill="#fff" stroke="#221e26" stroke-width="1"/>
          </g>
          <path id="Path_33275" data-name="Path 33275" d="M150.35,155.319a2.629,2.629,0,1,0,2.629-2.629A2.63,2.63,0,0,0,150.35,155.319Z" transform="translate(-113.985 -110.221)" fill="#fff" stroke="#221e26" stroke-width="1"/>
        </g>
      </g>
      <g id="Group_28078" data-name="Group 28078" transform="translate(2435.348 -15821.765)">
        <path id="Path_33276" data-name="Path 33276" d="M246.759,232.923s5.948-12.434,1.082-18.919-6.568-12.51-3.284-19.23,2.2-8.34-.5-13.744" transform="translate(-222.592 -153.925)" fill="none" stroke="#a7cf45" stroke-miterlimit="10" stroke-width="0.91"/>
        <g id="Group_28074" data-name="Group 28074" transform="translate(10.857 0)">
          <path id="Path_33277" data-name="Path 33277" d="M240.991,170.6s5.372-9.491,1.449-16.072-12.155-9.384-13.661-15.231-.835,13.117,1.721,19.331S239.612,166.21,240.991,170.6Z" transform="translate(-227.985 -138.194)" fill="#a7cf45"/>
          <path id="Path_33278" data-name="Path 33278" d="M228.206,138.78a22.848,22.848,0,0,0,6.359,13.668A23.92,23.92,0,0,1,241,170.817c-1.379-4.391-7.941-5.752-10.491-11.972C228.832,154.776,227.491,142.779,228.206,138.78Z" transform="translate(-227.994 -138.409)" fill="#a7cf45" opacity="0.43"/>
        </g>
        <path id="Path_33279" data-name="Path 33279" d="M239.63,227.16l2.8,6.707s.278,8.042,5.227,10.124" transform="translate(-221.404 -170.866)" fill="none" stroke="#a7cf45" stroke-miterlimit="10" stroke-width="0.91"/>
        <g id="Group_28075" data-name="Group 28075" transform="translate(13.601 48.946)">
          <path id="Path_33280" data-name="Path 33280" d="M239.737,230.5s2.189-4.739.057-7.72-6.169-4-7.112-6.726.12,6.29,1.582,9.15S238.908,228.464,239.737,230.5Z" transform="translate(-232.322 -215.548)" fill="#a7cf45"/>
          <path id="Path_33281" data-name="Path 33281" d="M232.4,215.83a10.9,10.9,0,0,0,3.575,6.271,11.437,11.437,0,0,1,3.79,8.511c-.835-2.037-4.012-2.43-5.473-5.3A27.727,27.727,0,0,1,232.4,215.83Z" transform="translate(-232.342 -215.651)" fill="#a7cf45" opacity="0.43"/>
        </g>
        <path id="Path_33282" data-name="Path 33282" d="M251.989,204.95l-2.822,7.96s-2.158,1.772-2.367,6.093" transform="translate(-224.038 -162.709)" fill="none" stroke="#a7cf45" stroke-miterlimit="10" stroke-width="0.91"/>
        <g id="Group_28076" data-name="Group 28076" transform="translate(24.973 31.279)">
          <path id="Path_33283" data-name="Path 33283" d="M250.45,206.548s-1.221-7.9,3.176-11.39,10.77-3.284,13.313-6.9-2.828,9.207-6.188,12.807S252.538,203.9,250.45,206.548Z" transform="translate(-250.294 -187.626)" fill="#a7cf45"/>
          <path id="Path_33284" data-name="Path 33284" d="M267.628,188.06a16.747,16.747,0,0,1-7.9,7.72,17.546,17.546,0,0,0-9.175,10.928c2.088-2.651,6.935-1.886,10.3-5.486C263.047,198.861,267.078,190.99,267.628,188.06Z" transform="translate(-250.388 -187.785)" fill="#a7cf45" opacity="0.43"/>
        </g>
        <path id="Path_33285" data-name="Path 33285" d="M229.38,192.99l4.347,6.22s3.765,5.961,4.575,10.137" transform="translate(-217.64 -158.317)" fill="none" stroke="#a7cf45" stroke-miterlimit="10" stroke-width="0.91"/>
        <g id="Group_28077" data-name="Group 28077" transform="translate(0 21.046)">
          <path id="Path_33286" data-name="Path 33286" d="M226.914,191.3s1.658-7.821-2.537-11.554-10.567-3.872-12.915-7.625,2.316,9.352,5.473,13.13S224.977,188.542,226.914,191.3Z" transform="translate(-210.827 -171.454)" fill="#a7cf45"/>
          <path id="Path_33287" data-name="Path 33287" d="M210.93,171.91a16.683,16.683,0,0,0,7.467,8.144,17.519,17.519,0,0,1,8.555,11.415c-1.936-2.765-6.821-2.265-9.979-6.049C214.9,182.945,211.316,174.859,210.93,171.91Z" transform="translate(-210.865 -171.621)" fill="#a7cf45" opacity="0.43"/>
        </g>
      </g>
      <g id="Group_28088" data-name="Group 28088" transform="translate(2454.078 -15851.504)">
        <g id="Group_28080" data-name="Group 28080" transform="translate(47.904 0)">
          <g id="Group_28079" data-name="Group 28079" transform="translate(2.807 1.837)">
            <path id="Path_33288" data-name="Path 33288" d="M336.63,119.673s3.032.071,3,6.473,6.389.052,6.389.052l.63-2.74s-1.818-.941-3.1-7.817-4.311-7.921-4.311-7.921Z" transform="translate(-328.082 -105.952)" fill="#f2be97"/>
            <path id="Path_33289" data-name="Path 33289" d="M342.582,122.98l-1.792,5.4.26,1.824A10.46,10.46,0,0,0,342.582,122.98Z" transform="translate(-329.541 -111.305)" fill="#f2be97"/>
            <path id="Path_33290" data-name="Path 33290" d="M323.468,114.556c.13,5.181,3.408,9.3,7.33,9.2s6.986-4.376,6.856-9.557-3.409-9.3-7.33-9.2S323.338,109.381,323.468,114.556Z" transform="translate(-323.464 -104.997)" fill="#f2be97"/>
          </g>
          <path id="Path_33291" data-name="Path 33291" d="M332.2,110.441s-1.753-2.974-4.46-2.019c-1.461.513-7.694,1.857-8.6-1.8a3.01,3.01,0,0,0,3.694-.526c1.669-1.753,7.272-4.908,10.492-3.623s3.545,2.188,5.285,5.921c1.227,2.636-.974,7.323-.162,9.492s-4.337-.695-3.772-4.843C335.15,109.629,332.2,110.441,332.2,110.441Z" transform="translate(-319.14 -102.168)" fill="#221e26"/>
          <path id="Path_33292" data-name="Path 33292" d="M339.98,116.607l.169-1.987a1.381,1.381,0,0,1,2.013-1.409c2.117.656.584,5.765-1.091,5.09" transform="translate(-326.45 -105.997)" fill="#f2be97"/>
        </g>
        <g id="Group_28082" data-name="Group 28082" transform="translate(68.894 50.136)">
          <path id="Path_33295" data-name="Path 33295" d="M381.134,256.03l2.253,1.5s2.629,1.5,3,3-8.635,8.635-8.635,8.635h-9.33a2.345,2.345,0,0,1,2.253-2.98,25.4,25.4,0,0,0,4.071-.773l2.058-4.61Z" transform="translate(-357.391 -206.272)" fill="#908e92"/>
          <path id="Path_33296" data-name="Path 33296" d="M355.32,185.233l6.765-5.843,1.552,25.781a28.071,28.071,0,0,1,7.83,10.842c2.629,6.759,5.252,13.511,5.252,13.511l-6.006,4.506-17.263-22.9-1.98-18.361Z" transform="translate(-351.47 -179.39)" fill="#fff" stroke="#221e26" stroke-width="1"/>
        </g>
        <path id="Path_33298" data-name="Path 33298" d="M340.187,264.99l1.6,1.675s1.448,2.642.045,4.142-4.778,1.123-7.408,1.123-9.81,1.961-11.849.039.591-1.545,3.967-2.668a32.983,32.983,0,0,0,5.908-2.642Z" transform="translate(-272.189 -159.279)" fill="#908e92"/>
        <path id="Path_33299" data-name="Path 33299" d="M352.7,171.04l2.772,5.915a31.1,31.1,0,0,1-2.772,10.816c-2.629,5.785-6.1,11.979-6.1,11.979s-.1,14.777,0,22.685-.045,11.271-.045,11.271-5.311,2.616-9.336,0l-1.779-33.391,5.246-23.678Z" transform="translate(-276.953 -126.325)" fill="#fff" stroke="#221e26" stroke-width="1"/>
        <g id="Group_28083" data-name="Group 28083" transform="translate(0 63.561)">
          <path id="Path_33300" data-name="Path 33300" d="M273.825,206.9s-2.571.461-3.181,1.409S273.825,206.9,273.825,206.9Z" transform="translate(-254.202 -202.464)" fill="#f2f2f2"/>
          <path id="Path_33301" data-name="Path 33301" d="M270.289,211.73s-2.467.857-2.922,1.883S270.289,211.73,270.289,211.73Z" transform="translate(-253.061 -204.159)" fill="#f2f2f2"/>
          <path id="Path_33302" data-name="Path 33302" d="M262.779,216.35s-2.467.857-2.922,1.883S262.779,216.35,262.779,216.35Z" transform="translate(-250.427 -205.779)" fill="#f2f2f2"/>
          <path id="Path_33303" data-name="Path 33303" d="M248.319,221.55s-2.467.857-2.922,1.883S248.319,221.55,248.319,221.55Z" transform="translate(-245.355 -207.603)" fill="#f2f2f2"/>
          <path id="Path_33304" data-name="Path 33304" d="M256.419,225.6s-2.467.857-2.922,1.883S256.419,225.6,256.419,225.6Z" transform="translate(-248.196 -209.024)" fill="#f2f2f2"/>
          <path id="Path_33305" data-name="Path 33305" d="M265.735,210.37s-2.571.461-3.181,1.409S265.735,210.37,265.735,210.37Z" transform="translate(-251.364 -203.682)" fill="#f2f2f2"/>
          <path id="Path_33306" data-name="Path 33306" d="M258.216,211.53s-2.571.461-3.181,1.409S258.216,211.53,258.216,211.53Z" transform="translate(-248.727 -204.088)" fill="#f2f2f2"/>
          <path id="Path_33307" data-name="Path 33307" d="M256.485,217.89s-2.571.461-3.181,1.409S256.485,217.89,256.485,217.89Z" transform="translate(-248.12 -206.319)" fill="#f2f2f2"/>
          <path id="Path_33308" data-name="Path 33308" d="M249.545,213.84s-2.571.461-3.181,1.409S249.545,213.84,249.545,213.84Z" transform="translate(-245.686 -204.899)" fill="#f2f2f2"/>
          <path id="Path_33309" data-name="Path 33309" d="M275.06,203.323s-2.513-.721-3.473-.136S275.06,203.323,275.06,203.323Z" transform="translate(-254.508 -201.082)" fill="#f2f2f2"/>
          <path id="Path_33310" data-name="Path 33310" d="M282,205.053s-2.513-.721-3.473-.136S282,205.053,282,205.053Z" transform="translate(-256.942 -201.689)" fill="#f2f2f2"/>
          <path id="Path_33311" data-name="Path 33311" d="M282.538,203.091s-2.227-1.37-3.311-1.065S282.538,203.091,282.538,203.091Z" transform="translate(-257.176 -200.739)" fill="#f2f2f2"/>
          <path id="Path_33312" data-name="Path 33312" d="M276.219,200.433s-2.513-.721-3.473-.136S276.219,200.433,276.219,200.433Z" transform="translate(-254.914 -200.068)" fill="#f2f2f2"/>
          <path id="Path_33313" data-name="Path 33313" d="M265.792,201.659s-2.61-.065-3.4.74S265.792,201.659,265.792,201.659Z" transform="translate(-251.297 -200.626)" fill="#f2f2f2"/>
          <path id="Path_33314" data-name="Path 33314" d="M261.728,206.14s-2.61.065-3.357.915S261.728,206.14,261.728,206.14Z" transform="translate(-249.889 -202.198)" fill="#f2f2f2"/>
          <path id="Path_33315" data-name="Path 33315" d="M252.474,207.8s-2.61.136-3.331,1.006S252.474,207.8,252.474,207.8Z" transform="translate(-246.654 -202.78)" fill="#f2f2f2"/>
          <path id="Path_33316" data-name="Path 33316" d="M268.668,205.56s-2.61.065-3.357.915S268.668,205.56,268.668,205.56Z" transform="translate(-252.324 -201.994)" fill="#f2f2f2"/>
        </g>
        <path id="Path_33317" data-name="Path 33317" d="M352.93,136.756s-4.512-8.174-6.8-6.525c0,0-2.136,5.233-6.343,3.441,0,0-3.045,3.837-2.876,8.343s0,26.9,0,26.9,5.051,2.376,12.556.87,9.817-3.967,9.817-3.967Z" transform="translate(-277.465 -111.934)" fill="#23c2f2"/>
        <path id="Path_33318" data-name="Path 33318" d="M366.29,148.5" transform="translate(-287.774 -118.419)" fill="#cf6257"/>
        <path id="Path_33319" data-name="Path 33319" d="M342.985,165.733l7.882-10.3-.961,11.706a8.1,8.1,0,0,1-3.357,5.921L340.6,178.5c-.357.253-1.961-.474-1.811-.889Z" transform="translate(-278.123 -120.85)" fill="#221e26" opacity="0.2"/>
        <path id="Path_33320" data-name="Path 33320" d="M343.672,157.684l-1.727-6.194-2.993,11.569-2.052,2.694.39,5.181Z" transform="translate(-277.465 -119.468)" fill="rgba(34,30,38,0.2)"/>
        <g id="Group_28086" data-name="Group 28086" transform="translate(22.227 57.845)">
          <g id="Group_28085" data-name="Group 28085" transform="translate(1.48)">
            <g id="Group_28084" data-name="Group 28084" transform="translate(15.88)">
              <path id="Path_33321" data-name="Path 33321" d="M314.718,208.6a12.081,12.081,0,0,0,4.694-7.849,9.2,9.2,0,0,0-2.681-7.551,5.076,5.076,0,0,0-4.382-1.909c-3.428.39-5.915,4.681-6.018,4.863l1.3.747c.02-.039,2.22-3.818,4.889-4.116a3.626,3.626,0,0,1,3.1,1.441,7.758,7.758,0,0,1,2.292,6.356,10.594,10.594,0,0,1-4.032,6.772Z" transform="translate(-306.33 -191.264)" fill="#ffc84d"/>
            </g>
            <path id="Path_33322" data-name="Path 33322" d="M301.878,193.18l-7.278,2.967,5.48,20.081a2.107,2.107,0,0,0,2.214,1.669,18.669,18.669,0,0,0,9.868-3.538,2.1,2.1,0,0,0,.591-2.59Z" transform="translate(-286.335 -191.936)" fill="#ffc84d"/>
            <path id="Path_33323" data-name="Path 33323" d="M295.679,210.321,283.22,205.77l-1.35,2.331,14.608,11.31Z" transform="translate(-281.87 -196.352)" fill="#ffc84d"/>
            <path id="Path_33324" data-name="Path 33324" d="M310.868,213.446a2.117,2.117,0,0,0,.909-2.5L304.252,193.4l.513-.208,10.875,18.581a2.11,2.11,0,0,1-.591,2.59,18.669,18.669,0,0,1-9.868,3.538,2.113,2.113,0,0,1-2.214-1.669l-.136-.5A17.831,17.831,0,0,0,310.868,213.446Z" transform="translate(-289.222 -191.939)" fill="#ffc84d" opacity="0.56"/>
            <path id="Path_33325" data-name="Path 33325" d="M293.492,209.254l.935,3.435-9.667-6.629Z" transform="translate(-282.884 -196.454)" fill="#ffc84d" opacity="0.56"/>
          </g>
          <path id="Path_33326" data-name="Path 33326" d="M285.135,208.546l-2.714-3.506v-1.35l-2.831,4.48,1.48-.8Z" transform="translate(-279.59 -195.622)" fill="#ffc84d"/>
        </g>
        <g id="Group_28087" data-name="Group 28087" transform="translate(46.218 27.744)">
          <path id="Path_33327" data-name="Path 33327" d="M325.806,183.76l-2.454,2.123s-1.675,1.63-2.428,1.63-3.753-.753-3.753.753c0,.643.61,2.279-.377,3.376s1.123,3.753,3,3.753,3.753-3.753,4.882-4.506,2.467-1.753,2.467-1.753Z" transform="translate(-316.543 -158.531)" fill="#f2be97"/>
          <path id="Path_33328" data-name="Path 33328" d="M346.919,147.238l-2.35,16.491A6.683,6.683,0,0,1,342,168.1l-12.965,9.907a6.283,6.283,0,0,0-3.259-6.259l9.459-9.128a3.177,3.177,0,0,0,.935-1.824l2.253-15.816S341.524,144.232,346.919,147.238Z" transform="translate(-319.783 -144.901)" fill="#23c2f2"/>
        </g>
      </g>
      <path id="Path_33329" data-name="Path 33329" d="M265.5,273.959s-19.847-20.292-45.456-21.356c-21.955-.918-32.615,11.623-41.166,10.06-10.06-1.827-24.527-14.976-42.084-13.722-25.618,1.827-34.133,25.018-34.133,25.018Z" transform="translate(2209.771 -16012.438)" fill="#c7c6c8"/>
      <path id="Path_33330" data-name="Path 33330" d="M258.53,357.14" transform="translate(2195.548 -16022.318)" fill="#6b9e1b"/>
      <g id="Group_28089" data-name="Group 28089" transform="translate(2313.786 -15659.424)">
        <path id="Path_33331" data-name="Path 33331" d="M137.683,389.58s-12.132-14.594-26.744-15.894-2.117,6.852,4.707,13.6,23.755,24.218,26.763,30.688S137.683,389.58,137.683,389.58Z" transform="translate(-104.15 -364.392)" fill="#f2be97"/>
        <path id="Path_33332" data-name="Path 33332" d="M137.683,389.58s-12.132-14.594-26.744-15.894-2.117,6.852,4.707,13.6,23.755,24.218,26.763,30.688S137.683,389.58,137.683,389.58Z" transform="translate(-104.15 -364.392)" fill="#f2be97" opacity="0.18"/>
        <path id="Path_33333" data-name="Path 33333" d="M121.755,376.076l-7.115-1.936L137.4,409.227Z" transform="translate(-105.107 -364.446)" fill="#f2be97" opacity="0.42"/>
        <path id="Path_33334" data-name="Path 33334" d="M198.531,432.824c-7.852-9.033-34.632-27.072-33.306-33.66,1.772-8.8,11.823,5.771,41.239,21.91,33.033,18.12,20.683,41.875,22.819,59.677l-27.1-4.307C202.193,476.453,198.558,432.851,198.531,432.824Z" transform="translate(-109.719 -366.487)" fill="#f2be97"/>
        <path id="Path_33335" data-name="Path 33335" d="M113.98,366.36s5.271-7.343,14.476,1.39,30.925,43.22,41.4,48.227,49.672,17.5,53.943,29.916,2.4,47.209,2.4,47.209l-39.358-3.78s10.423-28.507,2.281-34.75S152.711,435.8,152.711,435.8Z" transform="translate(-105.047 -363.473)" fill="#f2be97"/>
        <path id="Path_33336" data-name="Path 33336" d="M183.865,424.706c-1.127-.8,4.344,1.827,8.706,6.179a111.773,111.773,0,0,1,8.624,9.76s-2-9.287-8.088-12.059Z" transform="translate(-111.411 -369.047)" fill="#f2be97" opacity="0.42"/>
      </g>
      <g id="Group_28090" data-name="Group 28090" transform="translate(2462.088 -15662.008)">
        <path id="Path_33337" data-name="Path 33337" d="M363.946,386.68s12.186-14.549,26.8-15.8,2.1,6.861-4.753,13.595-23.836,24.136-26.872,30.6C356.094,421.512,363.946,386.68,363.946,386.68Z" transform="translate(-275.656 -361.552)" fill="#f2be97"/>
        <path id="Path_33338" data-name="Path 33338" d="M363.946,386.68s12.186-14.549,26.8-15.8,2.1,6.861-4.753,13.595-23.836,24.136-26.872,30.6C356.094,421.512,363.946,386.68,363.946,386.68Z" transform="translate(-275.656 -361.552)" fill="#f2be97" opacity="0.18"/>
        <path id="Path_33339" data-name="Path 33339" d="M381.548,373.237l7.125-1.917-22.882,35Z" transform="translate(-276.328 -361.605)" fill="#f2be97" opacity="0.42"/>
        <path id="Path_33340" data-name="Path 33340" d="M300.367,429.7c7.888-9.006,34.723-26.944,33.424-33.542-1.745-8.806-11.841,5.734-41.321,21.764-33.1,18-20.828,41.8-23.028,59.6l27.117-4.207C296.55,473.324,300.339,429.732,300.367,429.7Z" transform="translate(-267.492 -363.629)" fill="#f2be97"/>
        <path id="Path_33341" data-name="Path 33341" d="M380.325,363.538s-5.243-7.361-14.476,1.336-31.079,43.111-41.575,48.082-49.736,17.33-54.043,29.734-2.517,51.581-2.517,51.581l38.5-2.763s-9.487-33.8-1.336-40.012,36.477-18.647,36.477-18.647Z" transform="translate(-267.344 -360.629)" fill="#f2be97"/>
        <path id="Path_33342" data-name="Path 33342" d="M319.815,421.636c1.136-.791-4.353,1.808-8.724,6.152a110.367,110.367,0,0,0-8.651,9.733s2.036-9.278,8.133-12.032Z" transform="translate(-270.547 -366.183)" fill="#f2be97" opacity="0.42"/>
      </g>
      <g id="Group_28092" data-name="Group 28092" transform="translate(2285.963 -15926.244)">
        <circle id="Ellipse_1383" data-name="Ellipse 1383" cx="21.955" cy="21.955" r="21.955" transform="translate(0 31.049) rotate(-45)" fill="#fff" stroke="#221e26" stroke-width="1"/>
        <g id="Group_28091" data-name="Group 28091" transform="translate(18.234 17.026)">
          <path id="Path_33343" data-name="Path 33343" d="M217.635,122.754l-5.571-9.478a1.1,1.1,0,1,0-1.9,1.118l4.735,8.088h-5.97v-1.645l-3.49,2.59,3.49,2.59v-1.327h7.6a1.283,1.283,0,0,0,1.109-1.936Z" transform="translate(-191.805 -102.643)" fill="#a7cf45"/>
          <path id="Path_33344" data-name="Path 33344" d="M201.763,122.528H193.4l3.6-5.68,1.281.6-.909-4.2-3.808,1.981,1.427.663-4.353,6.852a1.28,1.28,0,0,0,1.081,1.972h10.033a1.1,1.1,0,1,0,.009-2.19Z" transform="translate(-190.435 -102.69)" fill="#a7cf45"/>
          <path id="Path_33345" data-name="Path 33345" d="M205.505,109.954l3.862,1.309.8-4-1.309.754-3.58-5.78a1.28,1.28,0,0,0-1.1-.609h-.018a1.3,1.3,0,0,0-1.1.645l-4.326,7.488a1.078,1.078,0,0,0-.109.836,1.1,1.1,0,0,0,.518.672,1.076,1.076,0,0,0,.554.145,1.092,1.092,0,0,0,.954-.554l3.553-6.152,2.726,4.407Z" transform="translate(-191.179 -101.63)" fill="#a7cf45"/>
        </g>
      </g>
      <path id="Path_33350" data-name="Path 33350" d="M423.414,290.092a10.235,10.235,0,0,0-9.924-7.761,10.057,10.057,0,0,0-3.517.636,18.351,18.351,0,0,0-27.508-6.916,23.293,23.293,0,0,0-39.031,4.68,11.968,11.968,0,0,0-18.475,9.36h98.454Z" transform="translate(2189.486 -16014.14)" fill="#fff"/>
      <path id="Path_33351" data-name="Path 33351" d="M134.514,330.385a10.216,10.216,0,0,0-9.914-7.752,10.057,10.057,0,0,0-3.517.636A18.327,18.327,0,0,0,93.6,316.363a23.263,23.263,0,0,0-38.985,4.68,11.965,11.965,0,0,0-18.457,9.351h98.354Z" transform="translate(2215.84 -16017.819)" fill="#fff"/>
    </g>
  </g>
</svg>
