<svg xmlns="http://www.w3.org/2000/svg" xmlns:xlink="http://www.w3.org/1999/xlink" width="536" height="430" viewBox="0 0 536 430">
  <defs>
    <clipPath id="clip-path">
      <rect id="Rectangle_2768" data-name="Rectangle 2768" width="536" height="430" transform="translate(1217.467 84.034)" fill="#fff" stroke="#707070" stroke-width="1"/>
    </clipPath>
  </defs>
  <g id="Mask_Group_31" data-name="Mask Group 31" transform="translate(-1217.467 -84.034)" clip-path="url(#clip-path)">
    <circle id="Ellipse_1293" data-name="Ellipse 1293" cx="266.5" cy="266.5" r="266.5" transform="translate(1219.467 109.034)" fill="rgba(255,255,255,0.5)"/>
    <g id="Agreement-pana" transform="translate(1098.067 41.352)">
      <g id="freepik--speech-bubble--inject-2" transform="translate(515.734 153.163)">
        <path id="Path_31460" data-name="Path 31460" d="M481.054,128.712a4.543,4.543,0,0,1,.5,0h1.471a16.815,16.815,0,0,1,2.367.238,8.787,8.787,0,0,1,1.513.224l1.681.42a28.263,28.263,0,0,1,3.278,53.386,27.89,27.89,0,0,1-9.442,2.087,27.107,27.107,0,0,1-9.876-1.233l-.294-.1h.238l-16.5,5.715-.672.238.21-.686c1.485-4.735,2.914-9.33,4.287-13.742l.07.336a28.255,28.255,0,0,1-6.626-24.445,27.862,27.862,0,0,1,4.2-10.17,28.479,28.479,0,0,1,6.542-6.808,30.124,30.124,0,0,1,3.418-2.227,31.386,31.386,0,0,1,3.348-1.429,23.284,23.284,0,0,1,2.97-.953,20.826,20.826,0,0,1,2.55-.532c.77-.1,1.4-.21,2.045-.266h2.409l-.911.07-1.485.1a17.09,17.09,0,0,0-2.031.322,18.719,18.719,0,0,0-2.508.588,21.764,21.764,0,0,0-2.928.981,32.717,32.717,0,0,0-3.222,1.513,30.149,30.149,0,0,0-3.348,2.227,28.227,28.227,0,0,0-6.36,6.766,27.657,27.657,0,0,0,2.452,33.817l.126.14v.2l-4.2,13.756-.462-.448,16.5-5.729h.238l.28.084a26.267,26.267,0,0,0,9.624,1.2,27.218,27.218,0,0,0,9.2-2.017,27.817,27.817,0,0,0-3.166-52.434l-1.667-.448c-.518-.126-1.023-.182-1.485-.266a15.747,15.747,0,0,0-2.354-.294l-1.4-.112a2.032,2.032,0,0,1-.588-.07Z" transform="translate(-452.698 -128.705)" fill="#221e26"/>
        <path id="Path_31461" data-name="Path 31461" d="M461.1,153.836l4.343-4.343,8.377,7.453,16.432-15.816,4.034,4.329-21.1,19.85Z" transform="translate(-449.329 -123.724)" fill="#a7cf45"/>
      </g>
      <g id="freepik--character-2--inject-2" transform="translate(375.708 186.014)">
        <path id="Path_31462" data-name="Path 31462" d="M380.854,361.682c2.648.925,7-9.9,7.495-10.787s1.737-.294,1.289.49c-.63,1.121-7,13.084-4.4,14.009,1.4.518,2.129-2.143,2.129-2.143s5.127-11.627,6.332-11.207-1.555,7.424-2.648,9.694-.462,3.67.925,3.334c.953-.238,4.483-7.116,5.519-9.386s3.768-8.545,4.945-4.357,3.656,7,4.847,7.256a1.4,1.4,0,0,0,1.149-2.3,16.111,16.111,0,0,1-1.961-3.936,7.733,7.733,0,0,1-.672-3.446c0-.644.1-1.233.14-1.793h0l.07-1.849c.14-2.241.14-3.46.14-3.46h0l3.572-92.708-20.312-22.6-.42,112.586h.084a124.036,124.036,0,0,0-7.859,10.52c-3.376,5.533-2.872,5.842-2.171,6.136,1.919.756,6.3-9.512,6.64-6.752S378.836,360.954,380.854,361.682Z" transform="translate(-342.4 -122.354)" fill="#ffbe9d"/>
        <path id="Path_31463" data-name="Path 31463" d="M353.16,327.51h86.082v57.253h-86.5Z" transform="translate(-352.74 -81.864)" fill="#bbb"/>
        <path id="Path_31464" data-name="Path 31464" d="M360.3,327.51h86.082v57.253h-86.5Z" transform="translate(-349.878 -81.864)" fill="#908e92"/>
        <path id="Path_31465" data-name="Path 31465" d="M373.8,331.378s.42-13.518,15.732-13.518,23.815.126,23.815.126v3.726H389.49s-10.492-.6-10.282,9.666Z" transform="translate(-344.298 -85.733)" fill="#908e92"/>
        <path id="Path_31466" data-name="Path 31466" d="M357.793,327.78a13.383,13.383,0,0,1,.14,2.325c0,1.625.07,3.754.112,6.332.07,5.351.112,12.734.112,20.887,0,9.19,0,17.385-.14,22.694v.112l-.07.07-3.8,3.32a10.553,10.553,0,0,1-1.4,1.135A9.231,9.231,0,0,1,354,383.338l3.656-3.488-.084.168c-.07-5.309-.126-13.5-.126-22.694,0-8.153,0-15.535.112-20.887,0-2.578.084-4.707.112-6.332A13.378,13.378,0,0,1,357.793,327.78Z" transform="translate(-352.736 -81.756)" fill="#908e92"/>
        <path id="Path_31467" data-name="Path 31467" d="M356.354,365.074c.14-.14,1.4.77,2.718,2.059s2.367,2.424,2.227,2.578-1.4-.77-2.718-2.045S356.214,365.228,356.354,365.074Z" transform="translate(-351.297 -66.813)" fill="#908e92"/>
        <path id="Path_31468" data-name="Path 31468" d="M404.771,359.405a2.946,2.946,0,0,1-.588.07,16.927,16.927,0,0,1-1.709,0,38.271,38.271,0,0,1-6.234-.462,44.113,44.113,0,0,1-32.584-23.044,38.512,38.512,0,0,1-2.494-5.73,16.936,16.936,0,0,1-.5-1.625c-.112-.364-.154-.574-.126-.574a16.808,16.808,0,0,1,.883,2.1,52.446,52.446,0,0,0,2.7,5.6,45.5,45.5,0,0,0,32.22,22.778,49.659,49.659,0,0,0,6.164.686A13.1,13.1,0,0,1,404.771,359.405Z" transform="translate(-349.62 -81.652)" fill="#221e26"/>
        <path id="Path_31469" data-name="Path 31469" d="M440.85,288.952v-.476A1.885,1.885,0,0,1,440.85,288.952Z" transform="translate(-317.421 -97.52)" fill="#b78876"/>
        <path id="Path_31470" data-name="Path 31470" d="M440.82,289.244v-.434A3.536,3.536,0,0,1,440.82,289.244Z" transform="translate(-317.433 -97.377)" fill="#b78876"/>
        <path id="Path_31471" data-name="Path 31471" d="M477.781,512.626s-33.494-115.85-34.139-119.493c-.574-3.292,15.087-83.267,17.357-104.013l-47.545.448v.336l-22.974.644,11.935,230.944,25.355.364-1.079-77.705c12.468,36.562,28.241,77.859,28.241,77.859Z" transform="translate(-337.612 -97.253)" fill="#ffbe9d"/>
        <path id="Path_31472" data-name="Path 31472" d="M440.89,288.44Z" transform="translate(-317.405 -97.526)" fill="#b78876"/>
        <path id="Path_31473" data-name="Path 31473" d="M440.89,288.47Z" transform="translate(-317.405 -97.514)" fill="#b78876"/>
        <path id="Path_31474" data-name="Path 31474" d="M405.74,359.71c.07,0-.07.883-.14,2.479a47.5,47.5,0,0,0,.112,6.766,61.876,61.876,0,0,0,1.7,9.876,99.319,99.319,0,0,0,4.02,11.613c3.138,8.181,5.926,15.606,7.929,21.013.939,2.62,1.723,4.777,2.311,6.4a15.157,15.157,0,0,1,.756,2.367,16.109,16.109,0,0,1-1.023-2.269l-2.466-6.346c-2.115-5.337-4.987-12.72-8.111-20.9l-2.269-5.982A53.763,53.763,0,0,1,406.818,379a58.824,58.824,0,0,1-1.541-10,41.535,41.535,0,0,1,.1-6.836c.084-.8.2-1.4.28-1.835S405.712,359.7,405.74,359.71Z" transform="translate(-331.719 -68.957)" fill="#a36957"/>
        <path id="Path_31475" data-name="Path 31475" d="M418.776,432.781c0-.686.434-25.383.434-25.383s-8.279-22.9-8.489-22.2S418.776,432.781,418.776,432.781Z" transform="translate(-329.5 -58.748)" fill="#a36957"/>
        <path id="Path_31476" data-name="Path 31476" d="M478.48,246.713s-1.4-3.32-4.034-24.277c-1.135-9.12-7.341-14.765-14.009-18.211V204.1l-.588-.168a54.718,54.718,0,0,0-17.413-5.057l-23.506-.392s-16.306-1.233-28.2,9.806c-3.894,3.614-7.9,35.974-7.9,35.974l11.767,4.2-.1-4.777s-.49,9.694,2.718,15.325,7.565,13.336,7.565,13.336l-5.015,23.506c-3.11,8.965-13.364,41.7-9.344,74.119,4.987,40.162,5.771,51.831,5.771,51.831l56.791,7.775s22.708-85.032,14.933-118.82c-5.351-23.2-9.428-22.119-10.731-27.149l1.471-36.142Z" transform="translate(-340.678 -133.602)" fill="#fff" stroke="#221e26" stroke-width="1"/>
        <path id="Path_31477" data-name="Path 31477" d="M444.062,256.718a7.782,7.782,0,0,1-1.807.364c-1.163.2-2.872.406-4.987.63a142.377,142.377,0,0,1-16.572.672,140.177,140.177,0,0,1-16.544-1.261c-2.1-.294-3.8-.574-4.959-.812a9.528,9.528,0,0,1-1.793-.42,8.185,8.185,0,0,1,1.835.14l4.987.574c4.2.462,10.03.939,16.488,1.051s12.3-.154,16.516-.462l5-.392A10.054,10.054,0,0,1,444.062,256.718Z" transform="translate(-334.838 -110.575)" fill="#263238"/>
        <path id="Path_31478" data-name="Path 31478" d="M465.176,301.91a6.4,6.4,0,0,1-.224,1.121l-.771,3.18c-.168.7-.364,1.4-.574,2.3s-.546,1.723-.854,2.676a64.491,64.491,0,0,1-2.311,6.458q-.714,1.793-1.513,3.7c-.532,1.289-1.219,2.564-1.863,3.908-1.233,2.732-2.886,5.463-4.567,8.405a110.023,110.023,0,0,1-29.418,32.009c-2.8,1.905-5.379,3.782-7.985,5.253-1.3.742-2.508,1.541-3.74,2.171l-3.558,1.821c-2.241,1.2-4.4,2.017-6.248,2.8-.939.378-1.793.77-2.606,1.079l-2.241.756-3.11,1.023a7.012,7.012,0,0,1-1.093.322,7.45,7.45,0,0,1,1.051-.462l3.054-1.149,2.213-.826c.8-.308,1.639-.714,2.564-1.121,1.835-.84,3.964-1.681,6.178-2.914l3.516-1.849c1.219-.644,2.424-1.4,3.7-2.2,2.592-1.485,5.155-3.362,7.9-5.267a112.894,112.894,0,0,0,29.306-31.827c1.667-2.9,3.334-5.6,4.595-8.307.644-1.4,1.4-2.606,1.891-3.866l1.541-3.656c1.051-2.311,1.709-4.511,2.4-6.4.336-.953.658-1.821.911-2.648l.644-2.269c.364-1.317.672-2.367.9-3.138a5.867,5.867,0,0,1,.322-1.079Z" transform="translate(-336.802 -92.126)" fill="#221e26"/>
        <path id="Path_31484" data-name="Path 31484" d="M433.154,258.47a7.006,7.006,0,0,1-.182-1.667c0-1.233-.14-2.8-.224-4.553-.2-4.006-.448-9.246-.728-15.031s-.462-11.207-.518-15.045v-4.567a8.41,8.41,0,0,1,.112-1.667,7.009,7.009,0,0,1,.182,1.667c0,1.233.126,2.8.224,4.553.2,4.006.448,9.246.728,15.031s.462,11.207.518,15.045V256.8a8.3,8.3,0,0,1-.112,1.667Z" transform="translate(-321.17 -126.587)" fill="#263238"/>
        <path id="Path_31485" data-name="Path 31485" d="M454.625,234.409s0,25.089-6.276,27.471c-17.09,6.458-37.529,4.973-44.715,4.3-.869-.6-1.863-1.331-2.984-2.255a10.844,10.844,0,0,1-2.466-2.8,17.512,17.512,0,0,1-2.045-4.2,1.4,1.4,0,0,0-2.648-.518c-.518,1.2-.35,5.6,2.409,9.316a1.877,1.877,0,0,1-1.037,2.662c-2.872,1.4-13.056,5.715-14.667,6.682s-2.8,2.3-1.163,2.4,10.17-2.017,10.17-2.017-11.207,2.55-10.815,4.2c.308,1.121,3.432,1.4,10.716-1.065,0,0-9.274,2.157-10.156,3.25-1.989,2.437,9.19,0,9.19,0-7.817,1.821-7.775,1.4-7.747,2.479,0,.826,1.835.981,6.192.588,3.53-.308,7.242.084,12.608-.1h0s69.776,12.44,76.122-18.365c3.432-16.6,2.8-22.736,3.544-33.452" transform="translate(-342.514 -119.757)" fill="#ffbe9d"/>
        <path id="Path_31486" data-name="Path 31486" d="M391.755,267.06a20.714,20.714,0,0,1-5.3,1.471,21.084,21.084,0,0,1-5.449.756,21.185,21.185,0,0,1,5.3-1.4A22.419,22.419,0,0,1,391.755,267.06Z" transform="translate(-341.408 -106.096)" fill="#a36957"/>
        <path id="Path_31487" data-name="Path 31487" d="M391.661,264.87a23.587,23.587,0,0,1-5.6,1.877,23.17,23.17,0,0,1-5.758,1.177,47.42,47.42,0,0,1,11.319-3.054Z" transform="translate(-341.693 -106.974)" fill="#a36957"/>
        <path id="Path_31488" data-name="Path 31488" d="M391.16,262.59a21.094,21.094,0,0,1-5.225,1.877,21.728,21.728,0,0,1-5.435,1.163,20.728,20.728,0,0,1,5.239-1.863,22.265,22.265,0,0,1,5.421-1.177Z" transform="translate(-341.612 -107.888)" fill="#a36957"/>
        <path id="Path_31489" data-name="Path 31489" d="M408.152,158.59a15.984,15.984,0,0,0-1.681,9.022c.224,2.031.77,4.2-.35,5.954-1.4,2.059-4.567,2.227-5.912,4.3-1.933,3,1.471,7.214-.084,10.422-1.023,2.129-3.712,2.8-5.533,4.2a7.466,7.466,0,0,0-1.709,8.979c1.317,2.564,3.922,4.2,6.388,5.673l5.673,3.418a5.282,5.282,0,0,0,3.306,1.079c2.073-.294,3.054-2.8,4.931-3.768,2.325-1.163,5.043.448,7.635.616a6.794,6.794,0,0,0,7.228-7.228" transform="translate(-336.974 -149.576)" fill="#221e26"/>
        <path id="Path_31490" data-name="Path 31490" d="M410.344,218.982c.63-6.528,1.163-13.42,1.163-13.42s-8.307-2.227-8.937-13.294c-.63-10.618,3.474-34.615,3.474-34.615h0a31.7,31.7,0,0,1,34.279,11.487h0L434.4,222.078a11.445,11.445,0,0,1-13.1,9.666h0C414.658,230.875,409.755,225.2,410.344,218.982Z" transform="translate(-332.792 -150.46)" fill="#ffbe9d"/>
        <path id="Path_31496" data-name="Path 31496" d="M408.962,192.2a28.017,28.017,0,0,0,15.073-2.465s-4.3,7.186-15.185,5.071Z" transform="translate(-330.248 -137.094)" fill="#a36957"/>
        <path id="Path_31499" data-name="Path 31499" d="M426.175,173.812a6.724,6.724,0,0,1,3.516.56,4.664,4.664,0,0,1,2.353,2.606,4.861,4.861,0,0,1-.322,3.516,8.139,8.139,0,0,1-2.283,2.8,5.6,5.6,0,0,1-2.269,1.2,2.62,2.62,0,0,1-2.409-.616" transform="translate(-323.871 -143.491)" fill="#ffbe9d"/>
        <path id="Path_31500" data-name="Path 31500" d="M425.737,180.5c-.14,0,.308.784,1.4.6a2.339,2.339,0,0,0,1.4-1.023,5.336,5.336,0,0,0,.785-1.891,3.11,3.11,0,0,0-.294-2.115,2.087,2.087,0,0,0-1.4-1.065c-1.093-.126-1.513.6-1.4.63a2.076,2.076,0,0,1,1.247,0,1.989,1.989,0,0,1,.995,2.381c-.252,1.191-.812,2.255-1.485,2.466S425.821,180.4,425.737,180.5Z" transform="translate(-323.489 -143.002)" fill="#eb996e"/>
        <path id="Path_31501" data-name="Path 31501" d="M407.216,156.56a8.013,8.013,0,0,0,2.69,9.218c2.8,2.031,6.57,1.947,9.988,2.536s7.228,2.648,7.466,6.108c.14,2.1-1.121,4.2-.364,6.234.883,2.3,4.02,2.97,5.127,5.169,1.779,3.53-2.8,7.4-2.2,11.291.392,2.311,2.564,3.992,3.04,6.29.686,3.264-2.171,7.13,0,9.708,1.611,1.989,4.8,1.4,7,.126s4.693-2.8,7.172-2.129a21.013,21.013,0,0,1,3.992,2.269,7.116,7.116,0,0,0,10.1-8.405,19.821,19.821,0,0,0-3.208-5.253,7.929,7.929,0,0,1-1.877-5.758,13.728,13.728,0,0,1,2.143-4.2,4.651,4.651,0,0,0,.574-4.483c-1.4-2.437-5.379-1.765-7.116-3.922-2.381-2.984,1.863-7.579.266-11.039-1.821-3.922-8.951-2.4-10.787-6.3-.658-1.4-.322-3.11-.644-4.651-.756-3.516-4.735-5.379-8.321-5.6s-7.214.644-10.759.112c-1.947-.294-3.81-.995-5.743-1.4a8.756,8.756,0,0,0-5.772.392,4.329,4.329,0,0,0-2.437,4.847" transform="translate(-331.108 -152.156)" fill="#221e26"/>
        <path id="Path_31502" data-name="Path 31502" d="M411.473,163.485a13.406,13.406,0,0,1-9.049,7.621,32.227,32.227,0,0,1,0-8.125,12.79,12.79,0,0,1,3.488-7.228,8.125,8.125,0,0,1,7.48-2.2" transform="translate(-332.927 -151.67)" fill="#221e26"/>
        <path id="Path_31506" data-name="Path 31506" d="M401.662,199.005c-.911.154.2,30.651,20.172,31.813,18.911,1.079,20.452-30.09,20.452-30.09S419.411,195.923,401.662,199.005Z" transform="translate(-333.217 -133.789)" fill="#ffbe9d"/>
        <path id="Path_31507" data-name="Path 31507" d="M403.9,457.484v-2.7h25.481l.07,8.923-1.569.112c-7,.406-35.624,1.6-40.3.2C382.346,462.4,403.9,457.484,403.9,457.484Z" transform="translate(-339.101 -30.848)" fill="#908e92"/>
        <path id="Path_31524" data-name="Path 31524" d="M440.92,461l-1.149-2.451,23.03-10.9,3.866,8.041-1.4.757c-6.15,3.362-31.519,16.656-36.352,17.4C423.549,474.658,440.92,461,440.92,461Z" transform="translate(-322.618 -33.706)" fill="#908e92"/>
      </g>
      <g id="freepik--character-1--inject-2" transform="translate(221.544 168.852)">
        <path id="Path_31541" data-name="Path 31541" d="M295.645,461.082l-.294-12.9-24.151.406.238,18.855,1.5.07c6.668.266,33.929.854,38.355-.56C316.237,465.354,295.645,461.082,295.645,461.082Z" transform="translate(-231.262 -16.333)" fill="#908e92"/>
        <path id="Path_31559" data-name="Path 31559" d="M332.681,461.058l-.35-12.888-24.151.518.322,18.87H310c6.682.224,33.943.686,38.369-.756C353.3,465.232,332.681,461.058,332.681,461.058Z" transform="translate(-216.438 -16.337)" fill="#908e92"/>
        <path id="Path_31577" data-name="Path 31577" d="M267.94,274.63V527.792l37.6-1.457L308.775,305.2l12.762,222.035,38.327,1.863L340.98,276.843Z" transform="translate(-232.568 -85.9)" fill="#fff" stroke="#221e26" stroke-width="1"/>
        <path id="Path_31578" data-name="Path 31578" d="M300.35,276.23a24.886,24.886,0,0,1,.322,4.315c.1,2.648.2,6.332.252,10.38v5.729a11.207,11.207,0,0,1-.77,4.693,5.253,5.253,0,0,1-2.143,2.424,1.933,1.933,0,0,1-1.121.35,6.659,6.659,0,0,0,.981-.588,5.3,5.3,0,0,0,1.807-2.381,11.461,11.461,0,0,0,.588-4.5c0-1.779-.07-3.7-.112-5.716V280.545a26.915,26.915,0,0,1,.2-4.315Z" transform="translate(-220.964 -85.259)" fill="#455a64"/>
        <path id="Path_31579" data-name="Path 31579" d="M295.557,278.354c.07.084-.49.42-.5,1.289a1.4,1.4,0,0,0,.532,1.191,1.3,1.3,0,0,0,1.5-.112,1.135,1.135,0,0,0,.084-1.877,1.569,1.569,0,0,0-1.513-.364v-.28c.308.154.462.266.434.322s-.2,0-.546,0l-.294-.07.28-.21a1.765,1.765,0,0,1,2.031.154,1.8,1.8,0,0,1-.042,2.984,1.961,1.961,0,0,1-2.325,0,1.891,1.891,0,0,1-.644-1.779,1.7,1.7,0,0,1,.6-1.079C295.375,278.326,295.543,278.326,295.557,278.354Z" transform="translate(-221.914 -84.553)" fill="#455a64"/>
        <path id="Path_31582" data-name="Path 31582" d="M281.732,171.487a2.255,2.255,0,0,1-3.18,2.662c-1.485-.756-1.667-2.8-1.4-4.441s.841-3.39.154-4.9a11.024,11.024,0,0,0-2.549-2.8,7.159,7.159,0,0,1-2-6.094,6.024,6.024,0,0,1,4.2-4.749c2.185-.616,4.875,0,6.5-1.527,1.177-1.149,1.247-3.026,2.157-4.385,1.4-2.129,4.413-2.465,7-2.115s5.1,1.149,7.579.532c2.059-.5,3.754-1.947,5.7-2.8a11.207,11.207,0,0,1,14.527,15.325,7.1,7.1,0,0,1-3.46,3.432" transform="translate(-230.67 -139.905)" fill="#221e26"/>
        <path id="Path_31583" data-name="Path 31583" d="M291.926,221.567h0a12.608,12.608,0,0,0,12.538-12.748l-.154-11.977s10.058-1.009,10.731-10.983.182-32.976.182-32.976h0a34.769,34.769,0,0,0-35.091,2.479l-1.541,1.065.756,52.756a12.608,12.608,0,0,0,12.58,12.384Z" transform="translate(-228.299 -136.15)" fill="#ffbe9d"/>
        <path id="Path_31590" data-name="Path 31590" d="M300.664,184.393a23.212,23.212,0,0,1-12.8-4.413s2.69,7.354,12.692,7Z" transform="translate(-224.583 -123.841)" fill="#eb996e"/>
        <path id="Path_31591" data-name="Path 31591" d="M316.017,156.155s-6.024,3.068-14.009-.728c-5.253-2.494-11.319-3.642-12.608-2.578s-1.5,6.43-6.612,8.1c0,0,.56,10.2-3.516,9.9s-1.849-16.138-1.849-16.138l9.806-5.057,10.857-2.255,10.268,1.233,7.957,2.017Z" transform="translate(-229.01 -136.901)" fill="#221e26"/>
        <path id="Path_31592" data-name="Path 31592" d="M281.057,161.925c-.168-.07-6.752-2.4-6.906,4.441s6.738,5.6,6.766,5.379S281.057,161.925,281.057,161.925Z" transform="translate(-230.08 -131.253)" fill="#ffbe9d"/>
        <path id="Path_31594" data-name="Path 31594" d="M276.59,146.583a3.25,3.25,0,0,1,2.381.084,3.138,3.138,0,0,1,1.849,1.5,11.206,11.206,0,0,0-1.975-1.177,11.877,11.877,0,0,0-2.255-.406Z" transform="translate(-229.101 -137.303)" fill="#263238"/>
        <path id="Path_31595" data-name="Path 31595" d="M279.609,143.61c.112,0,0,1.4.168,3.152a14.014,14.014,0,0,0,.953,2.97,3.062,3.062,0,0,1-.574-.742,6.683,6.683,0,0,1-.714-2.171A7.172,7.172,0,0,1,279.609,143.61Z" transform="translate(-228.002 -138.42)" fill="#263238"/>
        <path id="Path_31602" data-name="Path 31602" d="M335.338,225.422s4.455,26.616,7.523,27.849c16.978,6.71,37.333,6.206,44.547,5.757.869-.56,1.891-1.261,3.054-2.143a11.067,11.067,0,0,0,2.55-2.8,17.606,17.606,0,0,0,2.185-4.2,1.4,1.4,0,0,1,2.662-.42c.476,1.219-.644,4.455-2.7,8.839,0,0-1.135,2.353.939,3.082s15.283,5.6,16.362,6.85.77,2.7-.841,2.8-10.1-2.353-10.1-2.353,11.067,2.522,11.207,3.754c.168,1.863-3.978,2.017-11.207-.644,0,0,11.571,1.093,10.885,3.866-.336,1.4-10.7-1.009-10.7-1.009-.9,1.289,10.7,1.107,10.66,2.872,0,.812-1.625,1.331-7,1.009-3.278-.21-8.7-.616-14.093-.981v.084s-69.132,10.282-74.693-20.663c-3.754-21.013-2.549-20.424-3.866-31.589" transform="translate(-214.626 -105.642)" fill="#ffbe9d"/>
        <path id="Path_31603" data-name="Path 31603" d="M373.463,261.766c-.084,0-.476-.49-1.261-1.191a8.645,8.645,0,0,0-3.572-1.947l-.77-.21.686-.462c.154-.1.322-.2.49-.322a10.578,10.578,0,0,0,3-3.348c.588-1.023.813-1.723.925-1.7a3.585,3.585,0,0,1-.462,1.933,8.924,8.924,0,0,1-3.04,3.7c-.182.14-.364.252-.532.364l-.1-.658a7.7,7.7,0,0,1,3.726,2.3C373.3,261.079,373.533,261.724,373.463,261.766Z" transform="translate(-192.515 -94.735)" fill="#eb996e"/>
        <path id="Path_31604" data-name="Path 31604" d="M385.754,259.024a30.234,30.234,0,0,1-5.225-1.5,31.694,31.694,0,0,1-5.169-1.695A24.3,24.3,0,0,1,385.754,259.024Z" transform="translate(-189.509 -93.436)" fill="#eb996e"/>
        <path id="Path_31605" data-name="Path 31605" d="M385.386,260.589A81.722,81.722,0,0,1,376,258.32a20.005,20.005,0,0,1,9.386,2.269Z" transform="translate(-189.253 -92.438)" fill="#eb996e"/>
        <path id="Path_31606" data-name="Path 31606" d="M307.612,329.158a16.292,16.292,0,0,1-4.413.252,10.578,10.578,0,0,1-3.474-.757l-1.4-.6a12.384,12.384,0,0,1-5.211-4.343c-5.715-8.405-22.918-33.69-25.3-39.224-2.8-6.654,7.873-57.561,7.873-57.561l-21.153-6.864s-10.254,44.827-9.708,66.807c.35,14.009,38.79,52.728,38.818,52.77a135.318,135.318,0,0,0,7,12.117c3.782,5.323,4.273,5,4.819,4.455,1.4-1.471-6.3-9.638-3.614-8.853s8.335,11.095,9.806,9.5c1.905-2.087-6.374-10.478-7-11.207s.42-1.737.967-1.009c.8,1.037,9.344,11.683,11.207,9.666,1.051-1.121-1.135-2.8-1.135-2.8s-8.741-9.386-7.817-10.31,6.262,4.4,7.929,6.318,3.222,1.905,3.46.476c.154-.981-4.8-7-6.5-8.867s-6.416-6.906-2.059-6.318,7.915-.6,8.657-1.6S308.915,328.752,307.612,329.158Z" transform="translate(-241.842 -107.775)" fill="#ffbe9d"/>
        <path id="Path_31607" data-name="Path 31607" d="M276.688,243.571l-.238,31.1-1.653,35.75,73.685,1.905-4.749-38.369-1.891-36.31s5.757-24.025,4.343-27.695a15.073,15.073,0,0,0-8.937-9.148c-.953-.546-14.527-4.889-19.612-5.169V186.15c-8.405.827-12.818,10.815-12.818,10.815-3.5-8.405-16.656-9.68-16.656-9.68l.238,8.727a61.932,61.932,0,0,0-13.784,2.522c-7.34,2.648-11.389,4.553-16.81,10.016-3.782,3.782-7,17.553-7.985,23.927" transform="translate(-239.832 -121.368)" fill="#23c2f2"/>
        <path id="Path_31608" data-name="Path 31608" d="M291.331,191.616a3.446,3.446,0,0,0-2.466.322,4.119,4.119,0,0,0-1.751,2.031,9.813,9.813,0,0,0-.546,1.569c-.084.28-.154.574-.238.868a2.031,2.031,0,0,1-.462,1.009,1.092,1.092,0,0,1-.644.322,1.4,1.4,0,0,1-.616-.126l-.854-.392-1.541-.77-2.549-1.317a10.771,10.771,0,0,1-2.311-1.4,9.807,9.807,0,0,1,2.536.911l2.676,1.191,1.555.728.812.364c.252.1.35.084.476,0a6.556,6.556,0,0,0,.532-1.569,9.107,9.107,0,0,1,.63-1.667,4.441,4.441,0,0,1,2.115-2.2,3.1,3.1,0,0,1,2.045-.238C291.148,191.378,291.344,191.588,291.331,191.616Z" transform="translate(-228.796 -119.353)" fill="#263238"/>
        <path id="Path_31609" data-name="Path 31609" d="M301.366,193.262a41.726,41.726,0,0,1-5.7,4.735l-.476.35-.1-.588a4.926,4.926,0,0,0-.14-.742,8.616,8.616,0,0,0-2.143-5.029,7.537,7.537,0,0,0-1.947-1.233,2.8,2.8,0,0,1,2.3.841,5.968,5.968,0,0,1,1.625,2.171,13.094,13.094,0,0,1,.883,3.124l.14.756-.574-.238a39.943,39.943,0,0,1,6.136-4.147Z" transform="translate(-223.381 -119.528)" fill="#263238"/>
        <path id="Path_31610" data-name="Path 31610" d="M314.266,197.12s12.1,4.119,17.371,20.466a254.4,254.4,0,0,1,7.845,31.869l-20.621,7-7.691-46.9Z" transform="translate(-215.24 -116.97)" fill="#23c2f2"/>
        <path id="Path_31611" data-name="Path 31611" d="M337.589,234.48s2.157,9.6,3.4,11.361.868,3.138,10.576,5.407,21.909,3.572,26.224,3.026l3.026.112,2.017,21.279s-24.333,3.446-40.723-.714-23.576-9.806-24.459-13.49-1.765-21.671-1.765-21.671Z" transform="translate(-213.348 -101.995)" fill="#23c2f2"/>
        <path id="Path_31612" data-name="Path 31612" d="M294.018,206.637c0-.084.56-.336,1.233.238a1.667,1.667,0,0,1,.56,1.4,1.611,1.611,0,0,1-1.289,1.4,1.583,1.583,0,0,1-1.737-.644,1.667,1.667,0,0,1-.1-1.485c.364-.812,1.023-.841,1.009-.756a2.032,2.032,0,0,0-.518.925,1.191,1.191,0,0,0,.168.939.967.967,0,0,0,1.023.308.925.925,0,0,0,.771-.714,1.191,1.191,0,0,0-.252-.925C294.494,206.735,294.018,206.749,294.018,206.637Z" transform="translate(-222.701 -113.207)" fill="#263238"/>
        <path id="Path_31613" data-name="Path 31613" d="M295.938,225.227a1.062,1.062,0,0,1,1.233.252,1.611,1.611,0,1,1-2.466,2.059,1.667,1.667,0,0,1-.1-1.485c.364-.812,1.023-.841,1.009-.742a2.193,2.193,0,0,0-.518.911,1.233,1.233,0,0,0,.168.953,1.023,1.023,0,0,0,1.023.308.981.981,0,0,0,.784-.728,1.247,1.247,0,0,0-.266-.925C296.414,225.339,295.952,225.339,295.938,225.227Z" transform="translate(-221.931 -105.742)" fill="#263238"/>
        <path id="Path_31614" data-name="Path 31614" d="M297.131,243.395c0-.07.546-.336,1.233.252a1.619,1.619,0,1,1-2.563.574c.35-.812,1.009-.841.995-.742a2.081,2.081,0,0,0-.5.911,1.176,1.176,0,0,0,.168.953,1.065,1.065,0,0,0,1.793-.42,1.191,1.191,0,0,0-.266-.925C297.607,243.507,297.131,243.507,297.131,243.395Z" transform="translate(-221.457 -98.47)" fill="#263238"/>
        <path id="Path_31615" data-name="Path 31615" d="M298.318,263.167c0-.084.56-.336,1.233.238a1.541,1.541,0,0,1-.728,2.718,1.611,1.611,0,0,1-1.737-.644,1.667,1.667,0,0,1-.1-1.485c.364-.812,1.023-.854,1.009-.756a2.037,2.037,0,0,0-.518.911,1.219,1.219,0,0,0,.168.953.967.967,0,0,0,1.023.308.953.953,0,0,0,.77-.714,1.219,1.219,0,0,0-.252-.939C298.794,263.265,298.318,263.265,298.318,263.167Z" transform="translate(-220.977 -90.547)" fill="#263238"/>
        <path id="Path_31616" data-name="Path 31616" d="M273.766,236.368a9.8,9.8,0,0,1,.14-1.877c.14-1.4.336-3.068.56-5.113s.49-4.721.728-7.579c.1-1.4.21-2.928.336-4.483a30.005,30.005,0,0,0,0-4.763,10.311,10.311,0,0,0-1.4-4.427,9.6,9.6,0,0,0-3.026-3.068,15.592,15.592,0,0,0-7-2.227,43.426,43.426,0,0,0-5.113-.07,11.447,11.447,0,0,1-1.877,0,8.125,8.125,0,0,1,1.863-.28,34.813,34.813,0,0,1,5.169-.14,15.409,15.409,0,0,1,7.382,2.171,10.352,10.352,0,0,1,3.278,3.25,10.968,10.968,0,0,1,1.4,4.735,29.911,29.911,0,0,1,0,4.889c-.126,1.555-.252,3.054-.392,4.483-.266,2.872-.574,5.435-.868,7.593s-.588,3.88-.8,5.085a8.656,8.656,0,0,1-.378,1.821Z" transform="translate(-236.91 -114.893)" fill="#263238"/>
        <g id="Group_26306" data-name="Group 26306" transform="translate(48.498 72.127)" opacity="0.3">
          <path id="Path_31617" data-name="Path 31617" d="M277.31,193.644s8.909,9.176,10.142,7.817,1.793-10.184,5.407-8.405a3.46,3.46,0,0,0-2.241-1.611c-1.4-.14-3.6-.35-4.707,4.693,0,0,0,1.569-1.191,1.107S277.31,193.644,277.31,193.644Z" transform="translate(-277.31 -191.393)"/>
        </g>
        <g id="Group_26307" data-name="Group 26307" transform="translate(66.358 71.226)" opacity="0.3">
          <path id="Path_31618" data-name="Path 31618" d="M290.06,192.669a2.465,2.465,0,0,1,2.353,1.947,58.84,58.84,0,0,1,.588,7.256l7.9-7.8-5.183,3.6s-.7-6.136-4.539-6.92Z" transform="translate(-290.06 -190.75)"/>
        </g>
        <g id="Group_26308" data-name="Group 26308" transform="translate(34.909 110.114)" opacity="0.3">
          <path id="Path_31619" data-name="Path 31619" d="M271.028,218.51l6.584,78.938h-10l1.485-32.584.406-34.923Z" transform="translate(-267.61 -218.51)"/>
        </g>
        <path id="Path_31628" data-name="Path 31628" d="M322.345,289.329a2.8,2.8,0,0,1-.182-.714l-.378-2.059c-.308-1.807-.714-4.413-1.2-7.635-.953-6.458-2.115-15.409-3.334-25.215s-2.353-18.813-3.292-25.215l-1.121-7.649c-.126-.827-.224-1.513-.308-2.073a4.044,4.044,0,0,1,0-.728,2.412,2.412,0,0,1,.21.7c.112.546.252,1.233.434,2.059.35,1.793.827,4.385,1.4,7.607,1.065,6.444,2.283,15.409,3.5,25.215s2.311,18.715,3.124,25.215c.392,3.152.728,5.743.967,7.663.1.841.182,1.527.252,2.087a2.61,2.61,0,0,1-.07.743Z" transform="translate(-214.703 -108.585)" fill="#263238"/>
        <g id="Group_26309" data-name="Group 26309" transform="translate(99.348 116.502)" opacity="0.3">
          <path id="Path_31629" data-name="Path 31629" d="M313.61,223.07c4.2,14.513,5.6,27.233,13.49,39.224a36.884,36.884,0,0,0,10.969,10.773c8.517,5.421,18.813,7.214,28.872,8.153h6.808s-15.3,1.3-27.667-.967c0,0-19.024-3.39-26.462-12.131Z" transform="translate(-313.61 -223.07)"/>
        </g>
        <path id="Path_31630" data-name="Path 31630" d="M297.133,304.743a7.337,7.337,0,0,1-.112-1.135c0-.8-.1-1.877-.182-3.236-.14-2.872-.336-6.92-.588-11.893-.518-10.03-1.4-23.9-2.536-39.224s-2.4-29.138-3.292-39.224c-.42-4.959-.77-8.993-1.023-11.865q-.168-2.017-.252-3.236a5.6,5.6,0,0,1,0-1.121,6.147,6.147,0,0,1,.182,1.107c.1.813.224,1.877.392,3.222.308,2.8.728,6.892,1.261,11.837,1.023,10.016,2.325,23.814,3.5,39.224s1.933,29.18,2.325,39.224c.2,5.029.308,9.092.364,11.907v3.236A5.908,5.908,0,0,1,297.133,304.743Z" transform="translate(-224.078 -118.297)" fill="#263238"/>
        <path id="Path_31631" data-name="Path 31631" d="M280.275,338.367l16.558-15.549S272,289.744,271.141,283.72s8.7-55.81,8.7-55.81l-26.8-10.17s-10.366,49.17-10.352,70.5C242.7,298.177,280.275,338.367,280.275,338.367Z" transform="translate(-242.69 -108.705)" fill="#23c2f2"/>
      </g>
      <g id="freepik--Agreement--inject-2" transform="translate(309.871 100.783)">
        <rect id="Rectangle_2765" data-name="Rectangle 2765" width="85.382" height="117.633" transform="translate(0 21.655) rotate(-13.29)" fill="#f5f5f5"/>
        <rect id="Rectangle_2766" data-name="Rectangle 2766" width="85.382" height="117.633" transform="translate(0.404 17.763) rotate(-10.74)" fill="#e0e0e0"/>
        <rect id="Rectangle_2767" data-name="Rectangle 2767" width="85.382" height="117.633" transform="translate(3.523 10.291) rotate(-6.76)" fill="#fafafa"/>
        <path id="Path_31650" data-name="Path 31650" d="M308.65,78s.5-.085,1.5-.206l4.45-.558,17.059-2.085,61.751-7.457h.255v.267c3.9,32.737,8.706,73.148,13.907,116.8h0v.315h-.315l-84.8,10.015h-.279v-.291c-4.037-34.592-7.457-63.824-9.857-84.436-1.212-10.257-2.122-18.369-2.764-23.934-.315-2.752-.546-4.85-.715-6.317-.073-.7-.133-1.212-.17-1.625a1.746,1.746,0,0,1,0-.533,2.911,2.911,0,0,0,.085.57c.085.376.121.921.206,1.637.182,1.467.449,3.637.788,6.378.679,5.577,1.673,13.7,2.922,23.983,2.425,20.612,5.977,49.711,10.124,84.218l-.315-.255,84.8-10.015-.279.352h0c-5.153-43.649-9.918-84.072-13.786-116.809l.291.218-61.666,7.117L314.724,77.3l-4.51.509Z" transform="translate(-305.124 -67.69)" fill="#263238"/>
        <path id="Path_31651" data-name="Path 31651" d="M322.8,92.782a3.94,3.94,0,0,1,6.5-3.225l-.934,1.1a2.328,2.328,0,0,0-1.891-.618,2.29,2.29,0,1,0,2.231,3.492l1.212.849a3.871,3.871,0,0,1-7.117-1.6Z" transform="translate(-302.119 -63.246)" fill="#263238"/>
        <path id="Path_31652" data-name="Path 31652" d="M328.83,92.147a3.928,3.928,0,1,1,4.328,3.225,3.71,3.71,0,0,1-4.328-3.225Zm6.123-.727a2.243,2.243,0,1,0-1.964,2.546,2.195,2.195,0,0,0,1.964-2.546Z" transform="translate(-300.849 -63.472)" fill="#263238"/>
        <path id="Path_31653" data-name="Path 31653" d="M342.443,86.89,343.292,94l-1.358.158-4.05-3.892.509,4.316-1.625.194-.849-7.117,1.358-.158,4.05,3.9-.461-4.316Z" transform="translate(-299.33 -63.611)" fill="#263238"/>
        <path id="Path_31654" data-name="Path 31654" d="M344.425,88l-2.267.279L342,86.93l6.2-.74.158,1.346-2.279.267.691,5.771-1.649.194Z" transform="translate(-298.038 -63.759)" fill="#263238"/>
        <path id="Path_31655" data-name="Path 31655" d="M353.249,92.76l-1.588-1.855h-.085l-1.431.17.23,1.976-1.637.194-.849-7.105,3.08-.364c1.9-.23,3.2.618,3.395,2.207a2.34,2.34,0,0,1-1.212,2.425l1.867,2.1Zm-2.219-5.589-1.346.158.291,2.425,1.346-.158c1.006-.121,1.455-.655,1.37-1.419S352.037,87.05,351.03,87.171Z" transform="translate(-296.787 -63.855)" fill="#263238"/>
        <path id="Path_31656" data-name="Path 31656" d="M359.414,90.492l-3.31.388-.449,1.6-1.685.194,2.328-7.481L357.923,85l4.025,6.729-1.734.206Zm-.667-1.212-1.455-2.595-.8,2.861Z" transform="translate(-295.495 -64.012)" fill="#263238"/>
        <path id="Path_31657" data-name="Path 31657" d="M360.376,88.333A3.637,3.637,0,0,1,363.8,84.2a3.734,3.734,0,0,1,3.08.909l-.946,1.1a2.328,2.328,0,0,0-1.891-.618,2.292,2.292,0,1,0,.546,4.547,2.267,2.267,0,0,0,1.685-1.055l1.212.849a3.928,3.928,0,0,1-7.069-1.6Z" transform="translate(-294.142 -64.192)" fill="#263238"/>
        <path id="Path_31658" data-name="Path 31658" d="M368.247,85.182l-2.279.267-.158-1.322,6.2-.727.17,1.334L369.9,85l.679,5.771-1.637.206Z" transform="translate(-292.98 -64.352)" fill="#263238"/>
        <path id="Path_31659" data-name="Path 31659" d="M386.879,95.482c0,.17-14.744,2.061-32.979,4.231s-33.015,3.771-33.04,3.637,14.731-2.061,32.967-4.219S386.854,95.312,386.879,95.482Z" transform="translate(-302.53 -61.788)" fill="#263238"/>
        <path id="Path_31660" data-name="Path 31660" d="M387.379,99.752c0,.182-14.744,2.073-32.967,4.232s-33.027,3.771-33.052,3.637,14.744-2.073,32.979-4.231S387.366,99.582,387.379,99.752Z" transform="translate(-302.424 -60.881)" fill="#263238"/>
        <path id="Path_31661" data-name="Path 31661" d="M387.889,104c0,.182-14.743,2.073-32.967,4.231S321.894,112,321.87,111.87s14.744-2.073,32.979-4.231S387.864,103.856,387.889,104Z" transform="translate(-302.315 -59.977)" fill="#263238"/>
        <path id="Path_31662" data-name="Path 31662" d="M388.4,108.3c0,.17-14.744,2.061-32.979,4.219s-33.027,3.771-33.04,3.637,14.731-2.061,32.967-4.231S388.374,108.121,388.4,108.3Z" transform="translate(-302.207 -59.064)" fill="#263238"/>
        <path id="Path_31663" data-name="Path 31663" d="M388.9,112.572c0,.17-14.744,2.061-32.967,4.219s-33.027,3.771-33.052,3.637,14.744-2.061,32.979-4.219S388.887,112.4,388.9,112.572Z" transform="translate(-302.101 -58.157)" fill="#263238"/>
        <path id="Path_31664" data-name="Path 31664" d="M389.409,116.842c0,.17-14.743,2.061-32.967,4.219s-33.028,3.771-33.052,3.637,14.744-2.061,32.967-4.219S389.384,116.672,389.409,116.842Z" transform="translate(-301.992 -57.249)" fill="#263238"/>
        <path id="Path_31665" data-name="Path 31665" d="M389.907,121.111c0,.17-14.731,2.061-32.967,4.232s-33.027,3.771-33.04,3.637,14.731-2.061,32.967-4.219S389.894,120.978,389.907,121.111Z" transform="translate(-301.884 -56.342)" fill="#263238"/>
        <path id="Path_31666" data-name="Path 31666" d="M390.419,125.382c0,.182-14.744,2.073-32.967,4.231s-33.027,3.771-33.052,3.637,14.744-2.073,32.979-4.232S390.394,125.212,390.419,125.382Z" transform="translate(-301.778 -55.435)" fill="#263238"/>
        <path id="Path_31667" data-name="Path 31667" d="M390.929,129.662c0,.17-14.743,2.061-32.979,4.219s-33.028,3.771-33.04,3.637,14.731-2.073,32.967-4.232S390.9,129.481,390.929,129.662Z" transform="translate(-301.669 -54.526)" fill="#263238"/>
        <path id="Path_31668" data-name="Path 31668" d="M391.429,133.932c0,.17-14.744,2.061-32.967,4.219s-33.027,3.771-33.052,3.637,14.744-2.061,32.979-4.232S391.417,133.751,391.429,133.932Z" transform="translate(-301.563 -53.619)" fill="#263238"/>
        <path id="Path_31669" data-name="Path 31669" d="M348.864,155.093c-.085,0-.145-1.018-.812-2.728a11.7,11.7,0,0,0-4.959-5.723,11.422,11.422,0,0,0-10.912-.3,10.186,10.186,0,0,0-2.655,1.879,10.525,10.525,0,0,0-2.1,2.667A11.3,11.3,0,0,0,329,164.223a11.456,11.456,0,0,0,19.678-6.244c.255-1.819.073-2.837.158-2.849a9.07,9.07,0,0,1,.085,2.886,11.7,11.7,0,0,1-8.087,9.833,11.9,11.9,0,0,1-6.208.279,11.07,11.07,0,0,1-3.189-1.212,11.19,11.19,0,0,1-2.874-2.3,11.834,11.834,0,0,1-1.661-14.028,11.447,11.447,0,0,1,2.207-2.813,11.326,11.326,0,0,1,2.825-1.952,11.87,11.87,0,0,1,6.159-1.212,11.713,11.713,0,0,1,10.173,7.663A9.121,9.121,0,0,1,348.864,155.093Z" transform="translate(-301.58 -51.355)" fill="#ff725e"/>
        <path id="Path_31670" data-name="Path 31670" d="M346.683,152.7a10.15,10.15,0,0,1-.715-1.091l-1.794-2.971.255.073c-3.783,2.231-9.991,5.8-17.035,9.785,0-.194-.121.424.121-.436h0v.061l.073.133.146.267.3.533.594,1.043,1.212,2.049-.424-.121c4.85-2.7,9.094-5.044,12.185-6.717l3.637-1.976c.873-.461,1.37-.7,1.406-.7a9.4,9.4,0,0,1-1.212.776l-3.516,2.085c-3.019,1.782-7.275,4.28-12.234,7.081l-.267.145-.158-.267-1.152-2.037-.594-1.055-.3-.521-.145-.267-.085-.133v-.073h0c.243-.861.073-.242.121-.436,7.044-3.977,13.337-7.457,17.168-9.554l.17-.085.085.158c.74,1.37,1.3,2.425,1.661,3.165a6.38,6.38,0,0,1,.5,1.091Z" transform="translate(-301.23 -50.565)" fill="#ff725e"/>
        <path id="Path_31671" data-name="Path 31671" d="M346.158,154.31a1.915,1.915,0,0,1,.073.837,8.91,8.91,0,0,1-.352,2.243,10.16,10.16,0,0,1-11.8,7.19,8.705,8.705,0,0,1-2.158-.715c-.485-.242-.715-.412-.7-.449a15.943,15.943,0,0,0,2.934.715,10.209,10.209,0,0,0,11.288-6.887C346.061,155.5,346.036,154.31,346.158,154.31Z" transform="translate(-300.329 -49.286)" fill="#ff725e"/>
        <path id="Path_31672" data-name="Path 31672" d="M333.38,146.73a14.475,14.475,0,0,1-1.6,1.091,10.754,10.754,0,0,0-4.5,7.614,15.12,15.12,0,0,1-.17,1.928,3.941,3.941,0,0,1-.267-1.952,9.591,9.591,0,0,1,4.692-7.966,3.9,3.9,0,0,1,1.843-.715Z" transform="translate(-301.264 -50.897)" fill="#ff725e"/>
        <path id="Path_31673" data-name="Path 31673" d="M335.312,146.327c0,.17-.243.364-.606.424s-.679,0-.715-.194.243-.364.606-.424S335.276,146.158,335.312,146.327Z" transform="translate(-299.741 -51.028)" fill="#ff725e"/>
        <path id="Path_31674" data-name="Path 31674" d="M339.254,146.993c0,.17-.606.194-1.273.061s-1.212-.388-1.14-.558.606-.194,1.273-.061S339.29,146.823,339.254,146.993Z" transform="translate(-299.136 -50.978)" fill="#ff725e"/>
        <path id="Path_31675" data-name="Path 31675" d="M343.75,150.53a52.218,52.218,0,0,1-6.935,4.292,54.726,54.726,0,0,1-7.275,3.734,52.219,52.219,0,0,1,6.935-4.292A53.894,53.894,0,0,1,343.75,150.53Z" transform="translate(-300.686 -50.089)" fill="#ff725e"/>
        <path id="Path_31676" data-name="Path 31676" d="M381.7,151.958a2.508,2.508,0,0,1-.509.327,3.8,3.8,0,0,1-1.722.364,3.637,3.637,0,0,1-2.595-1.1,3.965,3.965,0,0,1-1.019-3.637l.1-.461.206.437a6.425,6.425,0,0,1,.812,2.789,2.813,2.813,0,0,1-.5,1.564,2.1,2.1,0,0,1-1.552.824,3.177,3.177,0,0,1-2.958-1.988,8.658,8.658,0,0,1-.424-3.868v-.315l.3.085a3.831,3.831,0,0,1,2.51,3.189,3.553,3.553,0,0,1-.388,2.182,3.8,3.8,0,0,1-1.685,1.552,4.025,4.025,0,0,1-4.5-.618,4.474,4.474,0,0,1-.994-4.692,3.726,3.726,0,0,1,.291-.582.946.946,0,0,1,.279-.315.594.594,0,0,1,.57-.073,1.213,1.213,0,0,1,.558.546,4.451,4.451,0,0,1,.315.582,4.619,4.619,0,0,1,.34,2.595,4.426,4.426,0,0,1-1.14,2.425,4.268,4.268,0,0,1-2.425,1.213,4.547,4.547,0,0,1-2.74-.291,3.5,3.5,0,0,1-1.964-2,2.766,2.766,0,0,1-.17-1.479,1.94,1.94,0,0,1,.824-1.309,2.352,2.352,0,0,1,2.886.412,2.861,2.861,0,0,1,.206,3.407,4.232,4.232,0,0,1-2.8,1.867c-1.1.267-2.207.1-3.164.255a1.831,1.831,0,0,0-1.782,1.685,3,3,0,0,0,1.152,2.425,10.488,10.488,0,0,0,2.425,1.564,4.462,4.462,0,0,0,2.631.5,2.425,2.425,0,0,0,1.819-1.613,7.517,7.517,0,0,0-.473-5.1c-.606-1.637-1.382-3.152-2.061-4.656-1.37-2.946-2.195-6.171-1.212-8.9l.17-.5.23.473a16.307,16.307,0,0,1,1.625,6.693,16.743,16.743,0,0,1-.655,5.129,16.437,16.437,0,0,1-1.212,3.007c-.182.315-.339.558-.436.715s-.158.242-.17.23a7.67,7.67,0,0,1,.5-1.006,17.753,17.753,0,0,0,1.1-3.007,16.757,16.757,0,0,0,.546-5.056,16.088,16.088,0,0,0-1.673-6.511h.388c-.837,2.57,0,5.65,1.334,8.56.679,1.479,1.479,2.995,2.11,4.668a8.1,8.1,0,0,1,.5,5.5,3.08,3.08,0,0,1-2.255,1.988,5,5,0,0,1-2.995-.533,11.945,11.945,0,0,1-2.583-1.649,3.637,3.637,0,0,1-1.346-2.91,2.267,2.267,0,0,1,.715-1.576,2.873,2.873,0,0,1,1.576-.679c1.1-.158,2.146,0,3.116-.243a3.637,3.637,0,0,0,2.425-1.576,2.243,2.243,0,0,0-.109-2.643,1.758,1.758,0,0,0-2.085-.34,1.661,1.661,0,0,0-.424,2.037,3.5,3.5,0,0,0,4.013,1.916,3.7,3.7,0,0,0,3.043-3.177,4.086,4.086,0,0,0-.279-2.255,4,4,0,0,0-.279-.5.837.837,0,0,0-.255-.315l-.133.145a3.637,3.637,0,0,0-.242.485,3.856,3.856,0,0,0,.837,4.062,3.455,3.455,0,0,0,3.868.534,3.019,3.019,0,0,0,1.782-3.177,3.31,3.31,0,0,0-2.134-2.777l.315-.218a8.244,8.244,0,0,0,.352,3.637,2.74,2.74,0,0,0,2.522,1.746,1.613,1.613,0,0,0,1.212-.63,2.34,2.34,0,0,0,.388-1.346,6.328,6.328,0,0,0-.739-2.643h.315A3.734,3.734,0,0,0,377,151.4a3.541,3.541,0,0,0,2.425,1.091,4.232,4.232,0,0,0,2.267-.534Z" transform="translate(-294.996 -52.063)" fill="#455a64"/>
        <path id="Path_31677" data-name="Path 31677" d="M384.608,151.835c0,.17-6.2,1.055-13.883,1.964s-13.931,1.5-13.956,1.334,6.2-1.055,13.883-1.964S384.584,151.665,384.608,151.835Z" transform="translate(-294.9 -49.818)" fill="#263238"/>
        <path id="Path_31678" data-name="Path 31678" d="M380.85,141.436l18.114-2.146.812,6.863L381.662,148.3l-5.092-2.874Z" transform="translate(-290.693 -52.478)" fill="#a7cf45"/>
      </g>
    </g>
  </g>
</svg>
