<svg xmlns="http://www.w3.org/2000/svg" xmlns:xlink="http://www.w3.org/1999/xlink" width="536" height="430" viewBox="0 0 536 430">
  <defs>
    <clipPath id="clip-path">
      <rect id="Rectangle_5377" data-name="Rectangle 5377" width="536" height="430" transform="translate(1217.467 84.034)" fill="#fff" stroke="#707070" stroke-width="1"/>
    </clipPath>
  </defs>
  <g id="Mask_Group_38" data-name="Mask Group 38" transform="translate(-1217.467 -84.034)" clip-path="url(#clip-path)">
    <circle id="Ellipse_1434" data-name="Ellipse 1434" cx="266.5" cy="266.5" r="266.5" transform="translate(1219.469 109.034)" fill="rgba(255,255,255,0.5)"/>
    <g id="abstract_528_Converted_" data-name="abstract_528 [Converted]" transform="translate(373.078 -375.09)">
      <g id="character_2_" transform="translate(1215.99 616.027)">
        <g id="Group_28460" data-name="Group 28460" transform="translate(44.659 51.325)">
          <g id="Group_28459" data-name="Group 28459">
            <rect id="Rectangle_5372" data-name="Rectangle 5372" width="21.74" height="25.849" fill="#ffbe9d"/>
            <path id="Path_33884" data-name="Path 33884" d="M2772.54,1013.5v7.958c-5.405,4.368-12.705,7.32-21.74,7.958v-15.9h21.74Z" transform="translate(-2750.8 -1013.5)" fill="rgba(0,0,0,0.1)"/>
          </g>
        </g>
        <path id="Path_33885" data-name="Path 33885" d="M2792.392,1551.4c5.7,34.964.758,99.426-.718,108.9-1.5,9.594-21.3-6.243-21.94-15.916-.239-3.47.678-6.941.7-10.411,0-3.072-1.237-6.043-1.4-9.115-1.1-22.458-6.981-30.895-10.83-47.529L2753.2,1551.4Z" transform="translate(-2708.062 -1392.791)" fill="#908e92"/>
        <g id="Group_28461" data-name="Group 28461" transform="translate(0 330.15)">
          <path id="Path_33886" data-name="Path 33886" d="M2580.788,2441.175c4.208-2.014,7.938-4.149,8.975-6.3l.459-19.147c.159-1.416.479-3.171-.917-3.351l-6.323-.878a2.469,2.469,0,0,0-2.732,1.835c-.7,2.633-3.191,11.369-3.191,11.369q-6.163,6.1-12.346,12.186c-1.256,1.236-2.593,2.493-2.712,4.308C2562,2441.235,2580.788,2441.175,2580.788,2441.175Z" transform="translate(-2554.997 -2411.471)" fill="#b3b3b3"/>
          <path id="Path_33887" data-name="Path 33887" d="M2562,2458.2c-.4-.06,1.037,10.232-3.67,11.01a6.839,6.839,0,0,1-.917.08l-.379-4.348s-6.662-3.072-11.668-2.693l-1.157,2.374-14.2,7.819c-1.177,1.157-2.952,2.912-3.111,5.325a1.919,1.919,0,0,0,.4,1.137h35.9C2563.212,2478.882,2562.394,2458.259,2562,2458.2Z" transform="translate(-2526.89 -2448.879)" fill="#1a1a1a"/>
        </g>
        <g id="Group_28462" data-name="Group 28462" transform="translate(69.67 330.794)">
          <path id="Path_33888" data-name="Path 33888" d="M2921.455,2443.7a17.41,17.41,0,0,0-1.815-4.288l-9.374-12.286s-1.177-7.958-1.5-10.352a2.248,2.248,0,0,0-2.174-1.975l-5.6-.1a2.239,2.239,0,0,0-2.254,2.254l-.638,17.313a92.934,92.934,0,0,0,3.79,9.374Z" transform="translate(-2893.732 -2414.699)" fill="#b3b3b3"/>
          <path id="Path_33889" data-name="Path 33889" d="M2903.046,2475.5l-6.343-8.317-.877-2.633c-4.308-1.017-10.431.758-10.431.758l-.8,3.75a3.716,3.716,0,0,1-.778-.2c-3.989-1.3-2.713-8.157-3.072-8.157s-4.547,20.184-4.547,20.184h28.94c.02-.1.02-.219.04-.319C2905.28,2478.431,2903.944,2476.656,2903.046,2475.5Z" transform="translate(-2876.2 -2451.525)" fill="#1a1a1a"/>
        </g>
        <path id="Path_33890" data-name="Path 33890" d="M2649.869,1541.4c-5.824,34.964-2.952,99.426-1.436,108.9,1.535,9.594,21.76-6.243,22.418-15.916.24-3.47-.7-6.941-.7-10.411a40.532,40.532,0,0,1,1.416-9.115c3.929-16.634,12.246-33.248,16.2-49.882V1541.4Z" transform="translate(-2622.542 -1384.785)" fill="#908e92"/>
        <path id="Path_33891" data-name="Path 33891" d="M2638.085,2050.516c-.239-13.782-.02-27.544.219-41.326q.179-10.381.359-20.763c.16-9.753.738-19.626,4.328-28.82,1.077-2.752,18.329-9.833,20.444-6.941,0,0,1.436,13.563,2.333,19.706.6,4.049-.219,8.138-1.017,12.146-4.348,21.82-6.622,44.178-10.99,66Z" transform="translate(-2615.824 -1713.478)" fill="#908e92"/>
        <path id="Path_33892" data-name="Path 33892" d="M2854.819,2059.638c.239-13.782-.339-26.667-.559-40.448q-.179-10.382-.339-20.763c-.159-9.753-.718-19.626-4.228-28.821-1.057-2.752-17.931-9.833-20.005-6.941,0,0-1.4,13.563-2.294,19.706-.578,4.049.2,8.138,1,12.146,4.268,21.82,6.283,43.36,10.551,65.161Z" transform="translate(-2767.299 -1721.484)" fill="#908e92"/>
        <path id="Path_33893" data-name="Path 33893" d="M2645.417,1201.076h-1.257c-3.231-.04-12.865-2.832-14.261-5.026,3.59-18.549,1.4-29.718-.7-40.528-1.2-6.083-2.533-19.267-2.533-19.267-1.3-2.433-2.792-20.623-1.7-28.142l23.834-10.012,11.03,3.311h2.234l11.03-3.311,23.834,10.012c1.1,7.5-.4,25.709-1.7,28.142,0,0-1.675,13.5-3.191,19.626-2.573,10.391-5.226,21.122-1.635,39.491l.02.08c-.718,1.077-6.083,3.849-8.7,4.268C2673.379,1201.056,2646.553,1201.076,2645.417,1201.076Z" transform="translate(-2605.106 -1029.902)" fill="#fff" stroke="#000" stroke-width="1"/>
        <g id="Group_28467" data-name="Group 28467" transform="translate(37.12 62.734)">
          <path id="Path_33894" data-name="Path 33894" d="M2768.119,1120.329l4.148-4.049-2.473-6.761-5.884-.519-5.884.519-2.473,6.761,4.168,4.049-6.522,63.465,10.71,12.526,10.73-12.526Z" transform="translate(-2745.182 -1101.361)" fill="#23c2f2"/>
          <g id="Group_28464" data-name="Group 28464" transform="translate(18.728)">
            <g id="Group_28463" data-name="Group 28463">
              <path id="Path_33895" data-name="Path 33895" d="M2818.368,1070.7l-11.469,7.639,4.208.858,3.351,17.392L2825.648,1079Z" transform="translate(-2806.9 -1070.7)" fill="#fff" stroke="#000" stroke-width="1"/>
            </g>
          </g>
          <g id="Group_28466" data-name="Group 28466">
            <g id="Group_28465" data-name="Group 28465">
              <path id="Path_33896" data-name="Path 33896" d="M2720.28,1070.7l11.448,7.639-4.188.858-3.371,17.392L2713,1079Z" transform="translate(-2713 -1070.7)" fill="#fff" stroke="#000" stroke-width="1"/>
            </g>
          </g>
        </g>
        <g id="Group_28472" data-name="Group 28472" transform="translate(2.675 183.482)">
          <g id="Group_28469" data-name="Group 28469" transform="translate(0.439)">
            <g id="Group_28468" data-name="Group 28468">
              <path id="Path_33897" data-name="Path 33897" d="M2542.5,1691.884s.02-9.095.08-10.351,3.63-5.146,4.488-5.345c1.217-.3,6.6.359,6.6.359a56.9,56.9,0,0,1,2.872,7.26c.778,2.812-4.827,7.779-4.827,7.779Z" transform="translate(-2542.5 -1676.109)" fill="#ffbe9d"/>
              <path id="Path_33898" data-name="Path 33898" d="M2586.8,1703.452c1.875,2.134,3.231,3.49,3.051,4.847a27.3,27.3,0,0,0-.359,4.368c.08.918-.3,2.673.6,3.072,1.775.778,3.371-3.67,4.208-6.4.678-2.174.9-3.729.1-4.687s-4.029-4.049-4.029-4.049Z" transform="translate(-2577.965 -1695.715)" fill="#ffbe9d"/>
            </g>
          </g>
          <g id="Group_28470" data-name="Group 28470" transform="translate(0.748 8.634)">
            <path id="Path_33899" data-name="Path 33899" d="M2565.785,1785.319l-7.759-.419s-5.126,62.807-5.126,67.195,17.372,4.169,17.372-.439C2570.272,1847.029,2565.785,1785.319,2565.785,1785.319Z" transform="translate(-2551.135 -1771.836)" fill="#1a1a1a"/>
            <path id="Path_33900" data-name="Path 33900" d="M2567.839,1873.576c-.977,2.374-9.294.638-10.431-2.294-2.094-5.585-.778-10.531-.7-16.056.02-.937,1.755-.2,2.034-1.316-.738-14.36.658-25.629-.4-37.736a7.486,7.486,0,0,0-.7-2.074c-1.276,15.7-4.647,57.781-4.647,61.351,0,4.368,17.372,4.168,17.372-.439,0-1.336-.379-7.5-.917-15.577C2569.435,1859.455,2569.534,1869.328,2567.839,1873.576Z" transform="translate(-2551.215 -1795.212)"/>
            <path id="Path_33901" data-name="Path 33901" d="M2552.239,1785.482c-1.157-1.157-2.972-.6-4.009.738a13.11,13.11,0,0,0-1.935,4.946c-1.3,5.385-2.832,37-2.014,38.713.718,1.5,4.288,0,4.288,0Z" transform="translate(-2544.051 -1771.8)" fill="#1a1a1a"/>
            <path id="Path_33902" data-name="Path 33902" d="M2548.291,2001.188a4.837,4.837,0,0,0,1.995,5.485.626.626,0,1,0,.638-1.077,1.409,1.409,0,0,1-.279-.2c.119.08,0,0-.02-.02-.04-.04-.1-.08-.14-.12a1.885,1.885,0,0,1-.2-.2l-.12-.12c-.02-.02-.14-.16-.04-.04a3.537,3.537,0,0,1-.339-.538c-.06-.1-.1-.2-.159-.3-.06-.14.04.12-.02-.02-.02-.06-.04-.1-.06-.16a3.358,3.358,0,0,1-.179-.638c0-.04-.02-.1-.02-.14-.02-.14,0,.1,0-.02s-.02-.219-.02-.339v-.339a.335.335,0,0,1,.02-.14v-.02a2.445,2.445,0,0,1,.159-.658.642.642,0,0,0-.439-.778.573.573,0,0,0-.778.379Z" transform="translate(-2547.264 -1944.644)" fill="#ccc"/>
            <path id="Path_33903" data-name="Path 33903" d="M2573.554,1734.738v-11.349a2.034,2.034,0,0,1,4.069,0v11.349h1.955v-11.349a4,4,0,0,0-3.989-3.989h0a4,4,0,0,0-3.989,3.989v11.349Z" transform="translate(-2566.105 -1719.4)" fill="#ccc"/>
          </g>
          <g id="Group_28471" data-name="Group 28471" transform="translate(0 5.623)">
            <path id="Path_33904" data-name="Path 33904" d="M2582.462,1716.979a81.213,81.213,0,0,0-.678,10.97,1.865,1.865,0,0,0,.319,1.276,2.129,2.129,0,0,0,1.456.518,2.335,2.335,0,0,0,2.553-1.376,12.89,12.89,0,0,0,.139-3.311,71.632,71.632,0,0,1,.24-8.257Z" transform="translate(-2573.507 -1714.307)" fill="#ffbe9d"/>
            <path id="Path_33905" data-name="Path 33905" d="M2566.119,1716.1a74.1,74.1,0,0,0-.638,10.471,1.866,1.866,0,0,0,.319,1.276,2.132,2.132,0,0,0,1.456.518,4.231,4.231,0,0,0,2.473-.459c.938-.419.239-3.55.219-4.228a59.261,59.261,0,0,1,.179-7.519Z" transform="translate(-2560.455 -1713.746)" fill="#ffbe9d"/>
            <path id="Path_33906" data-name="Path 33906" d="M2551.258,1708.6a84.166,84.166,0,0,0-.658,10.471,2.235,2.235,0,0,0,.259,1.276,1.586,1.586,0,0,0,1.257.519,3.207,3.207,0,0,0,2.134-.439c.818-.419.24-3.55.24-4.228a67.727,67.727,0,0,1,.239-7.519Z" transform="translate(-2548.545 -1707.742)" fill="#ffbe9d"/>
            <path id="Path_33907" data-name="Path 33907" d="M2540.938,1704.3a87.261,87.261,0,0,0-.638,10.172,2.195,2.195,0,0,0,.239,1.256,1.4,1.4,0,0,0,1.157.5c2.154.12,2.214-3.889,2.194-4.548-.04-2.413.04-4.866.239-7.3Z" transform="translate(-2540.3 -1704.3)" fill="#ffbe9d"/>
          </g>
        </g>
        <path id="Path_33908" data-name="Path 33908" d="M2548.9,1142.173c-2.374,1.855-6.462,5.664-6.7,7.7s-5.465,82.034-6.821,93.881c-.837,11.428,16.435,7.439,17.751,4.288,1.336-3.151,8.936-81.216,8.936-81.216L2557.2,1140.3C2557.221,1140.3,2551.417,1140.218,2548.9,1142.173Z" transform="translate(-2533.664 -1063.683)" fill="#fff" stroke="#221e26" stroke-width="1"/>
        <path id="Path_33909" data-name="Path 33909" d="M2643.169,1153.438,2635.59,1102l-21.281,8.4c-1.3,7.12,2.932,29.519,2.932,29.519s7.4,30.815,2.653,59.735c-.2,2.533-3.151,18.29-1.935,20.045s19.506,5.784,26.946.858Z" transform="translate(-2596.676 -1033.024)" fill="#fff" stroke="#221e26" stroke-width="1"/>
        <g id="Group_28476" data-name="Group 28476" transform="translate(28.438 0)">
          <g id="Group_28475" data-name="Group 28475" transform="translate(5.344 8.876)">
            <g id="Group_28474" data-name="Group 28474">
              <g id="Group_28473" data-name="Group 28473" transform="translate(0 27.077)">
                <path id="Path_33910" data-name="Path 33910" d="M2866.4,948.73a4.341,4.341,0,0,0,3.072-.4,10.356,10.356,0,0,0,2.493-1.875c1.974-1.895,3.809-4.308,3.67-6.981a3.3,3.3,0,0,0-1.057-2.413,3.229,3.229,0,0,0-3.151-.4,5.273,5.273,0,0,0-2.453,2.114Z" transform="translate(-2832.466 -936.43)" fill="#d1785e"/>
                <path id="Path_33911" data-name="Path 33911" d="M2705.5,948.73a4.341,4.341,0,0,1-3.072-.4,10.354,10.354,0,0,1-2.493-1.875c-1.975-1.895-3.81-4.308-3.67-6.981a3.3,3.3,0,0,1,1.057-2.413,3.229,3.229,0,0,1,3.151-.4,5.273,5.273,0,0,1,2.453,2.114Z" transform="translate(-2696.263 -936.43)" fill="#d1785e"/>
              </g>
              <path id="Path_33912" data-name="Path 33912" d="M2741.137,841.365c.778-8.4,2.972-13.3,4.328-18.17.977-3.63,1.954-9.853-2.274-15.338-4.188-5.684-14.68-8.935-24.273-6.2-9.674,2.732-15.039,8.377-13.862,14.819.6,3.849,1.137,9.195,1.8,13.164.539,3.311-.479,6.622.758,9.833,2.273,5.545,11.069,15.258,18.01,15.258C2731.264,854.748,2740.6,845.014,2741.137,841.365Z" transform="translate(-2703.174 -800.671)" fill="#ffbe9d"/>
            </g>
          </g>
          <path id="Path_33913" data-name="Path 33913" d="M2723.368,787.169a4.459,4.459,0,0,0,.5-1.815,4.329,4.329,0,0,0-.02-.718,1.966,1.966,0,0,0,.459-1.476,2.084,2.084,0,0,0-.838-1.416,4.065,4.065,0,0,0-.518-4.428,1.938,1.938,0,0,0,.139-.957,2.055,2.055,0,0,0-1.516-1.735,3.538,3.538,0,0,0-.957-3.032,3.719,3.719,0,0,0-.519-.459,1.982,1.982,0,0,0-2.174-3.071,3.753,3.753,0,0,0-.339-.618c.279-.239.558-.5.857-.738a1.9,1.9,0,1,0-2.234-3.071c-.458.4-.917.8-1.376,1.217a.979.979,0,0,0-.08-.219l-.12-.239c.08-.12.179-.259.259-.379a1.9,1.9,0,1,0-2.971-2.373c-.04.04-.06.1-.1.14-.02-.08-.02-.16-.04-.219a1.493,1.493,0,0,0-.5-.758,1.786,1.786,0,0,0-.7-1.476,1.939,1.939,0,0,0-2.673.3c-.06.08-.139.18-.2.259a2.15,2.15,0,0,0-.618-.937,1.941,1.941,0,0,0-2.613.239,1.974,1.974,0,0,0-1.576-1.615,1.845,1.845,0,0,0-1.376.339,1.969,1.969,0,0,0-1.615-1.715,1.934,1.934,0,0,0-2.174,1.576c-.06.279-.14.539-.2.818-.02-.06-.04-.14-.06-.2a1.921,1.921,0,0,0-2.453-1.117,1.881,1.881,0,0,0-1.2,1.875l-.179-.419a1.946,1.946,0,0,0-2.453-1.117,2.487,2.487,0,0,1-3.251.259,1.93,1.93,0,0,0-.419,2.653c.06.1.14.179.2.279a2,2,0,0,0-.479.439c-.02.04-.04.06-.06.1a1.886,1.886,0,0,0-3.75-.259,4.062,4.062,0,0,0,0,.7,1.753,1.753,0,0,0-1.257-.339,1.909,1.909,0,0,0-1.7,2.074,7.021,7.021,0,0,0,.3,1.276,1.828,1.828,0,0,0-.4.917,2.065,2.065,0,0,0,.08.917l-1.675-.3a11.816,11.816,0,0,1-4.248,4.388,3.349,3.349,0,0,0,.02.638,2.225,2.225,0,0,0-1.256,1,1.9,1.9,0,0,0-2.274,3.032,6.367,6.367,0,0,0,.838.6,1.971,1.971,0,0,0-1.615,1.177,2.116,2.116,0,0,0,.06,1.675,2,2,0,0,0-.818,1.336,2.047,2.047,0,0,0,1.616,2.294c.08.02.159.06.259.08a5.2,5.2,0,0,0,.319,3.849,1.786,1.786,0,0,0-.738,1.755,5.45,5.45,0,0,0,6.023,4.827,2.059,2.059,0,0,0,1.057,2.374,1.937,1.937,0,0,0,2.573-1.037,12.051,12.051,0,0,0,.539-3.849,4.148,4.148,0,0,0,2.074-3.43,3.91,3.91,0,0,0-1.1-2.932,4.566,4.566,0,0,0,.419-3.052,3.626,3.626,0,0,0,1.456-2.553,3.794,3.794,0,0,0-.1-1.257,5.277,5.277,0,0,0,1.855-2.354,4.584,4.584,0,0,0,5.106-2.354,5.408,5.408,0,0,0,4.268-.578c1.615.957,3.809.6,5.724-.2a11.377,11.377,0,0,1,7.24,3.63,5.154,5.154,0,0,0,3.75,4.627,4.4,4.4,0,0,0,1.177,2.912,3.638,3.638,0,0,0-1.655,3.052,3.977,3.977,0,0,0,.937,2.633,3.832,3.832,0,0,0,.638,4.069,3.5,3.5,0,0,0,3.092,3.251,1.9,1.9,0,0,0,2.154.6,1.937,1.937,0,0,0,1.156-2.254c1.955-.638,3.75-1.915,3.929-4.168a1.423,1.423,0,0,0,.239-.259,2.026,2.026,0,0,0,.419-1.456A2.217,2.217,0,0,0,2723.368,787.169Z" transform="translate(-2669.471 -756.168)"/>
        </g>
        <path id="Path_33914" data-name="Path 33914" d="M2883.359,1110.855l-21.88-8.855-6.721,51.877-.858,64.5c8.4,5.724,23.874,3.75,25.57,1.6s-1.077-16.594-1.436-19.367c-3.81-29.359,1.795-60.693,1.795-60.693S2884.655,1117.956,2883.359,1110.855Z" transform="translate(-2788.678 -1033.024)" fill="#fff" stroke="#221e26" stroke-width="1"/>
        <g id="Group_28478" data-name="Group 28478" transform="translate(70.165 134.739)">
          <g id="Group_28477" data-name="Group 28477" transform="translate(4.691 7.431)">
            <path id="Path_33915" data-name="Path 33915" d="M2945.062,1469.1c-1.316-.459-15.976.239-19.406,3.989s-23.455,42.164-23.455,42.164,3.789,3.012,7.559,3.052c0,0,23.814-26.467,26.806-30C2939.577,1484.777,2946.378,1469.559,2945.062,1469.1Z" transform="translate(-2902.2 -1468.976)" fill="#ffbe9d"/>
          </g>
          <path id="Path_33916" data-name="Path 33916" d="M2885.108,1684.5s-7.28,3.151-6.343,4.747c.917,1.6,12.765,5.884,12.765,5.884l.219-6.163Z" transform="translate(-2878.682 -1634.083)" fill="#ffbe9d"/>
        </g>
        <path id="Union_12" data-name="Union 12" d="M18823.4,15039.185s17.768-34.624,22.438-40.89c.023-.032.049-.063.072-.1-2.744-6.479-8.2-18.645-8.2-18.645,1.764-21.356,5.2-44.17,5.018-44.364,2.672,1.378,5.52,3.012,6.141,4.967.578,1.834,16.135,47.584,19.006,56.054,1.938,3.388,1.094,8.974-4.287,16.827-7,10.21-25.352,34.283-25.352,34.283Zm19.326-104h0Z" transform="translate(-18748.285 -14857.418)" fill="#fff" stroke="#221e26" stroke-width="1"/>
      </g>
      <g id="character" transform="translate(889.391 618.52)">
        <g id="Group_28480" data-name="Group 28480" transform="translate(44.659 48.253)">
          <g id="Group_28479" data-name="Group 28479">
            <rect id="Rectangle_5373" data-name="Rectangle 5373" width="21.74" height="25.849" fill="#ffbe9d"/>
            <path id="Path_33919" data-name="Path 33919" d="M1135.04,1010.6v7.958c-5.4,4.368-12.7,7.32-21.74,7.958v-15.9h21.74Z" transform="translate(-1113.3 -1010.6)" fill="rgba(0,0,0,0.1)"/>
          </g>
        </g>
        <path id="Path_33920" data-name="Path 33920" d="M1303.972,1140.695c2.374,1.855,6.462,5.664,6.7,7.7s8.018,56.3,8.5,59.815c.977,7.041-21.481-.179-22.338-4.787-.858-4.587-10.232-38.055-10.232-38.055l9.055-26.567C1295.675,1138.82,1301.479,1138.74,1303.972,1140.695Z" transform="translate(-1207.376 -1064.977)" fill="#fff" stroke="#221e26" stroke-width="1"/>
        <path id="Path_33921" data-name="Path 33921" d="M1154.812,1548.5c5.7,34.964.758,99.426-.718,108.9-1.5,9.594-21.3-6.243-21.94-15.916-.239-3.47.678-6.941.7-10.411,0-3.072-1.336-6.043-1.4-9.115-.439-26.966-5.764-30.735-9.614-47.369l-6.243-26.068h39.212Z" transform="translate(-1070.483 -1392.962)" fill="#908e92"/>
        <g id="Group_28481" data-name="Group 28481" transform="translate(0 327.079)">
          <path id="Path_33922" data-name="Path 33922" d="M943.288,2438.275c4.208-2.014,7.938-4.149,8.975-6.3l.459-19.147c.16-1.416.479-3.171-.917-3.351l-6.323-.878a2.469,2.469,0,0,0-2.732,1.835c-.7,2.633-3.191,11.369-3.191,11.369q-6.163,6.1-12.346,12.186c-1.257,1.236-2.593,2.493-2.713,4.308C924.5,2438.335,943.288,2438.275,943.288,2438.275Z" transform="translate(-917.497 -2408.571)" fill="#b3b3b3"/>
          <path id="Path_33923" data-name="Path 33923" d="M924.5,2455.2c-.4-.06,1.037,10.231-3.67,11.009a6.8,6.8,0,0,1-.918.08l-.379-4.348s-6.662-3.072-11.668-2.693l-1.157,2.374-14.2,7.819c-1.177,1.157-2.952,2.912-3.111,5.325a1.918,1.918,0,0,0,.4,1.137h35.9C925.712,2475.9,924.895,2455.259,924.5,2455.2Z" transform="translate(-889.391 -2445.899)" fill="#1a1a1a"/>
        </g>
        <g id="Group_28482" data-name="Group 28482" transform="translate(69.67 327.723)">
          <path id="Path_33924" data-name="Path 33924" d="M1283.956,2440.8a17.407,17.407,0,0,0-1.815-4.288l-9.374-12.286s-1.177-7.958-1.5-10.351a2.248,2.248,0,0,0-2.174-1.975l-5.6-.1a2.239,2.239,0,0,0-2.254,2.254l-.638,17.313a92.99,92.99,0,0,0,3.789,9.374Z" transform="translate(-1256.232 -2411.799)" fill="#b3b3b3"/>
          <path id="Path_33925" data-name="Path 33925" d="M1265.546,2472.5l-6.343-8.317-.878-2.633c-4.308-1.017-10.431.758-10.431.758l-.8,3.75a3.735,3.735,0,0,1-.778-.2c-3.989-1.3-2.713-8.157-3.072-8.157s-4.547,20.184-4.547,20.184h28.94c.02-.1.02-.219.04-.319C1267.78,2475.431,1266.443,2473.676,1265.546,2472.5Z" transform="translate(-1238.7 -2448.545)" fill="#1a1a1a"/>
        </g>
        <path id="Path_33926" data-name="Path 33926" d="M1012.369,1538.5c-5.824,34.964-2.952,99.426-1.436,108.9,1.536,9.594,21.76-6.243,22.418-15.916.239-3.47-.7-6.941-.7-10.411a40.534,40.534,0,0,1,1.416-9.115c3.929-16.634,12.246-33.248,16.2-49.882V1538.5Z" transform="translate(-985.042 -1384.957)" fill="#908e92"/>
        <path id="Path_33927" data-name="Path 33927" d="M1000.585,2047.616c-.239-13.782-.02-27.544.219-41.326q.179-10.381.359-20.763c.16-9.753.738-19.626,4.328-28.821,1.077-2.752,18.329-9.833,20.444-6.941,0,0,1.436,13.563,2.333,19.706.6,4.049-.219,8.137-1.017,12.146-4.348,21.82-6.622,44.178-10.99,66Z" transform="translate(-978.324 -1713.65)" fill="#908e92"/>
        <path id="Path_33928" data-name="Path 33928" d="M1217.319,2056.738c.239-13.782-.339-26.666-.559-40.448q-.179-10.382-.339-20.763c-.159-9.753-.718-19.626-4.228-28.82-1.057-2.752-17.931-9.833-20-6.941,0,0-1.4,13.563-2.294,19.706-.578,4.049.2,8.138,1,12.146,4.268,21.82,6.283,43.36,10.551,65.16Z" transform="translate(-1129.799 -1721.655)" fill="#908e92"/>
        <path id="Path_33929" data-name="Path 33929" d="M1007.917,1198.076h-1.257c-3.231-.04-12.865-2.832-14.261-5.026,3.59-18.549,1.4-29.718-.7-40.528-1.2-6.083-2.533-19.267-2.533-19.267-1.3-2.433-2.792-20.623-1.7-28.142l23.834-10.012,11.03,3.311h2.234l11.03-3.311,23.834,10.012c1.1,7.5-.4,25.709-1.7,28.142,0,0-1.675,13.5-3.191,19.626-2.573,10.391-5.226,21.122-1.635,39.491l.02.08c-.718,1.077-6.083,3.849-8.7,4.268C1035.879,1198.076,1009.053,1198.076,1007.917,1198.076Z" transform="translate(-967.606 -1029.993)" fill="#fff" stroke="#000" stroke-width="1"/>
        <g id="Group_28487" data-name="Group 28487" transform="translate(37.12 59.662)">
          <path id="Path_33930" data-name="Path 33930" d="M1130.619,1117.329l4.149-4.029-2.473-6.781-5.884-.519-5.884.519-2.473,6.781,4.168,4.029-6.522,63.465,10.711,12.546,10.73-12.546Z" transform="translate(-1107.682 -1098.381)" fill="#23c2f2"/>
          <g id="Group_28484" data-name="Group 28484" transform="translate(18.728)">
            <g id="Group_28483" data-name="Group 28483">
              <path id="Path_33931" data-name="Path 33931" d="M1180.868,1067.8l-11.468,7.619,4.208.858,3.351,17.412,11.189-17.612Z" transform="translate(-1169.4 -1067.8)" fill="#fff" stroke="#000" stroke-width="1"/>
            </g>
          </g>
          <g id="Group_28486" data-name="Group 28486">
            <g id="Group_28485" data-name="Group 28485">
              <path id="Path_33932" data-name="Path 33932" d="M1082.78,1067.8l11.448,7.619-4.188.858-3.371,17.412-11.169-17.612Z" transform="translate(-1075.5 -1067.8)" fill="#fff" stroke="#000" stroke-width="1"/>
            </g>
          </g>
        </g>
        <path id="Path_33933" data-name="Path 33933" d="M1245.859,1107.855l-21.88-8.855-6.722,51.877-.858,64.5c8.4,5.724,23.874,3.75,25.569,1.6s-1.077-16.594-1.436-19.367c-3.809-29.359,1.8-60.693,1.8-60.693S1247.155,1114.976,1245.859,1107.855Z" transform="translate(-1151.178 -1033.115)" fill="#fff" stroke="#221e26" stroke-width="1"/>
        <path id="Path_33934" data-name="Path 33934" d="M1005.669,1150.538,998.09,1099.1l-21.281,8.4c-1.3,7.12,2.932,29.519,2.932,29.519s7.4,30.815,2.653,59.735c-.2,2.533-3.151,18.29-1.935,20.045s19.506,5.784,26.946.858Z" transform="translate(-959.175 -1033.195)" fill="#fff" stroke="#221e26" stroke-width="1"/>
        <g id="Group_28489" data-name="Group 28489" transform="translate(26.21 118.041)">
          <g id="Group_28488" data-name="Group 28488" transform="translate(7.253 4.029)">
            <path id="Path_33935" data-name="Path 33935" d="M1129.473,1405.591c.219-1.436-4.587-15.3-10.292-17.272s-59.975-7.619-59.975-7.619-2.812,4.707-1.835,8.357c0,0,40.069,13.543,45.375,15.178C1108.032,1405.871,1129.254,1407.027,1129.473,1405.591Z" transform="translate(-1057.166 -1380.7)" fill="#ffbe9d"/>
          </g>
          <path id="Path_33936" data-name="Path 33936" d="M1032.428,1365.267s-10.93-4.408-11.628-4.767v15.9l10.072-3.391Z" transform="translate(-1020.8 -1360.5)" fill="#ffbe9d"/>
          <path id="Path_33937" data-name="Path 33937" d="M1096.47,1370l-3.47,16.076s36.22,11.209,51.1,14.321,21.162-2.473,19.885-7.559a20.357,20.357,0,0,0-14.779-14.859C1139.99,1375.744,1096.47,1370,1096.47,1370Z" transform="translate(-1078.6 -1368.105)" fill="#fff" stroke="#221e26" stroke-width="1"/>
        </g>
        <g id="Group_28494" data-name="Group 28494" transform="translate(9.456 125.809)">
          <g id="Group_28490" data-name="Group 28490" transform="translate(0 2.962)">
            <path id="Path_33938" data-name="Path 33938" d="M936.8,1433.086c.06-1.456,4.707-17.851,10.691-18.728,5.964-.878,66.876,8.118,66.876,8.118s-2.712,8.377-4.946,9.274c0,0-30.536,1.157-41.386,2.493C962.529,1434.9,936.74,1434.522,936.8,1433.086Z" transform="translate(-936.799 -1414.298)" fill="#ffa58f"/>
          </g>
          <g id="Group_28493" data-name="Group 28493" transform="translate(66.663)">
            <g id="Group_28492" data-name="Group 28492">
              <g id="Group_28491" data-name="Group 28491">
                <path id="Path_33939" data-name="Path 33939" d="M1272.345,1430.724c3.311,1.795,7.08,2.254,10.631,3.251,1.456.419,3.191.738,4.208-.259a4.334,4.334,0,0,0,.937-2.234c.539-2.613-1.735-6.382-1.2-9.813.379-2.413.5-7.519-.718-7.38-3.251.379-8.556,5.625-11.967,7.34a2.931,2.931,0,0,0-1.2,1.117C1271.926,1424.6,1269.553,1429.188,1272.345,1430.724Z" transform="translate(-1271.036 -1411.326)" fill="#ffbe9d"/>
                <path id="Path_33940" data-name="Path 33940" d="M1339.315,1431.437a31.424,31.424,0,0,0,8.517-.718c1.715-.4,3.59-1.895,8.736-4.966,1.915-1.137-.678-2.553-2.712-1.635a33.839,33.839,0,0,1-6.223,2.513c-3.052,1-5.864-.279-8.875.18C1336.723,1427.109,1337.261,1431.377,1339.315,1431.437Z" transform="translate(-1324.224 -1418.961)" fill="#ffbe9d"/>
                <path id="Path_33941" data-name="Path 33941" d="M1334.752,1454.575c4.847-.339,6.522.179,9.613-.618,2.354-.618,3.49-1.576,7.28-3.012,2.593-.977,1-3.829-1.576-2.852-3.869,1.476-5.226,2.034-5.226,2.034-3.949,1.1-8.058.14-12.067.758C1330.065,1451.285,1332.02,1454.775,1334.752,1454.575Z" transform="translate(-1319.422 -1438.23)" fill="#ffbe9d"/>
                <path id="Path_33942" data-name="Path 33942" d="M1334.8,1477.137c4.129.778,8.038,1.117,9.993.8.9-.16,4.707-1.7,5.764-2.054a9.492,9.492,0,0,0,2.892-1.735c.718-.818-.219-2.174-1.336-1.895-1.316.3-5.525,1.815-8.377,2.294-4.049.678-6.4-1.5-10.431-1.3C1330.607,1473.387,1332.1,1476.638,1334.8,1477.137Z" transform="translate(-1319.745 -1457.7)" fill="#ffa58f"/>
                <path id="Path_33943" data-name="Path 33943" d="M1331.1,1497.552a34.22,34.22,0,0,0,6.522.4c.738.02,3.431-.459,5.106-.518a34.014,34.014,0,0,0,3.391-.5,1.019,1.019,0,0,0-.8-1.715c-1.077.04-3.091.2-5.405.14-3.291-.08-6.362-1.616-9.594-2.134C1328.105,1492.885,1328.9,1497.193,1331.1,1497.552Z" transform="translate(-1317.442 -1474.505)" fill="#ffa58f"/>
                <path id="Path_33944" data-name="Path 33944" d="M1313.461,1410.906c1.5-2.972,2.374-4.986,3.77-5.5a30.748,30.748,0,0,0,4.428-1.875,4.52,4.52,0,0,0,1.895-2.932c.2-2.154-3.77-.718-6.741-.16a8.325,8.325,0,0,0-4.647,2.294c-1.276,1.237-5.664,5.625-5.664,5.625Z" transform="translate(-1299.427 -1399.446)" fill="#ffbe9d"/>
              </g>
            </g>
          </g>
        </g>
        <path id="Union_13" data-name="Union 13" d="M19150.023,14997.259c1.357-11.846,6.582-55.026,6.824-57.062s6.219-6.722,8.594-8.575c2.508-1.954,6.707,47.973,6.707,47.973s.09,1.563.2,3.932c14.115,1.591,54.043,5.955,54.043,5.955l-3.488,16.613s-38.635,1.5-55.314,1.232c-.676.063-1.4.1-2.158.1C19158.707,15007.422,19149.471,15004.806,19150.023,14997.259Z" transform="translate(-19148.307 -14857.08)" fill="#fff" stroke="#221e26" stroke-width="1"/>
        <g id="Group_28497" data-name="Group 28497" transform="translate(34.957 8.805)">
          <g id="Group_28496" data-name="Group 28496">
            <g id="Group_28495" data-name="Group 28495" transform="translate(0 25.16)">
              <path id="Path_33947" data-name="Path 33947" d="M1222.9,950.418a4.176,4.176,0,0,0,2.852-.359,9.448,9.448,0,0,0,2.314-1.755c1.835-1.775,3.55-4.009,3.411-6.5a3.092,3.092,0,0,0-.977-2.254,2.963,2.963,0,0,0-2.932-.359,4.928,4.928,0,0,0-2.274,1.955Z" transform="translate(-1191.339 -938.962)" fill="#ffa58f"/>
              <path id="Path_33948" data-name="Path 33948" d="M1073.244,950.418a4.176,4.176,0,0,1-2.852-.359,9.452,9.452,0,0,1-2.313-1.755c-1.835-1.775-3.55-4.009-3.411-6.5a3.092,3.092,0,0,1,.977-2.254,2.963,2.963,0,0,1,2.932-.359,5.044,5.044,0,0,1,2.274,1.955Z" transform="translate(-1064.66 -938.962)" fill="#ffa58f"/>
            </g>
            <path id="Path_33949" data-name="Path 33949" d="M1106.308,850.649c.718-7.818,2.772-12.386,4.029-16.893.9-3.391,1.815-9.175-2.134-14.261-3.889-5.305-13.642-8.3-22.6-5.764-9,2.533-14,7.8-12.9,13.782.558,3.59,1.057,8.556,1.675,12.246.5,3.072-.439,6.163.7,9.155,2.114,5.166,10.312,14.2,16.754,14.2C1097.093,863.115,1105.809,854.059,1106.308,850.649Z" transform="translate(-1070.977 -812.817)" fill="#ffbe9d"/>
          </g>
        </g>
        <g id="Group_28498" data-name="Group 28498" transform="translate(34.754 0)">
          <path id="Path_33950" data-name="Path 33950" d="M1104.359,794.882a18.957,18.957,0,0,0,.219-6.7c-.578-3.47-2.752-6.881-6.123-8,1.835-1.217,2.015-4.009.878-5.884s-3.211-2.992-5.285-3.79c-6.981-2.693-15.258-2.573-21.64,1.3-6.342,3.869-9.913,13-8.437,18.868,1.456,5.864,2.114,8.915,6.163,8.7,3.59-.2,6.761-2.314,9.494-4.607s6.821-6.442,10.052-7.978a10.675,10.675,0,0,1,8.257-.618c2.972,6.462,2.214,13.862,2.533,21.481.917-2.772,2.274-6.163,3.031-9.055C1103.82,797.355,1104.12,796.119,1104.359,794.882Z" transform="translate(-1063.639 -768.668)"/>
          <path id="Path_33951" data-name="Path 33951" d="M1071.68,878.406l1.755-19.327s-2.772-2.473-4.149-1.316C1067.911,858.9,1071.68,878.406,1071.68,878.406Z" transform="translate(-1067.918 -839.746)"/>
        </g>
      </g>
      <g id="character_3_" transform="translate(982.77 608.664)">
        <path id="Path_33952" data-name="Path 33952" d="M1370.126,1303.125a4.3,4.3,0,0,1-5.026-.519s.16-39.77,1-43.4,6.482-7.739,9.115-5.385c2.314,2.074,4.168,4.468,3.929,9.693C1378.942,1268.759,1370.126,1303.125,1370.126,1303.125Z" transform="translate(-1363.6 -1146.647)" fill="#ffbe9d"/>
        <g id="Group_28502" data-name="Group 28502" transform="translate(0 146.383)">
          <g id="Group_28501" data-name="Group 28501">
            <g id="Group_28500" data-name="Group 28500">
              <g id="Group_28499" data-name="Group 28499">
                <path id="Path_33953" data-name="Path 33953" d="M1387.62,1490.006s-1.137,7.519-.9,8.576,2.732,8.536,2.154,9.793-2.314.239-2.992-1.955c-.7-2.194-2.314-7.659-2.214-8.6s-.459-4.547-.339-5.585C1383.452,1491.223,1386.025,1486.516,1387.62,1490.006Z" transform="translate(-1378.182 -1481.646)" fill="#ffbe9d"/>
                <path id="Path_33954" data-name="Path 33954" d="M1369.425,1504.636c1.1,1.276.539,6.043.8,6.442s3.231,5.305,4.049,7.061-.977,1.995-2.573.16a37.127,37.127,0,0,1-4.009-6.123,80.319,80.319,0,0,1-2.653-7.679C1364.778,1503.02,1367.83,1502.8,1369.425,1504.636Z" transform="translate(-1363.537 -1493.324)" fill="#ffbe9d"/>
                <path id="Path_33955" data-name="Path 33955" d="M1361.7,1502.313c1.1,1.277,1,6.183,1.257,6.562s4.069,4.109,4.887,5.864-.977,1.995-2.573.16c-1.576-1.835-5.186-4.687-5.465-5.385-.279-.678-1.336-5.844-1.6-7.3C1357.955,1500.738,1360.109,1500.479,1361.7,1502.313Z" transform="translate(-1358.07 -1491.481)" fill="#ffbe9d"/>
                <path id="Path_33956" data-name="Path 33956" d="M1367.813,1461.726a9.338,9.338,0,0,1-1.376,3.65c-.518-.1-1.057-.2-1.576-.279-1.955-.3-3.889-.459-5.844-.8-.439-.08-.878-.16-1.3-.259-.578-3.809.439-12.585,5.664-10.551C1363.385,1453.488,1367.733,1460.13,1367.813,1461.726Z" transform="translate(-1357.576 -1453.186)" fill="#ffbe9d"/>
              </g>
              <path id="Path_33957" data-name="Path 33957" d="M1380.062,1454.5s3.59,2.852,4.807,3.989c.858.818,3.111,3.75,3.411,4.009s-.858,5.405-1.2,6.083-1.556.459-2.433-1.236-.06-4.268-.06-4.268-4.647-2.473-5.744-4.408C1377.768,1456.754,1380.062,1454.5,1380.062,1454.5Z" transform="translate(-1374.372 -1454.238)" fill="#ffbe9d"/>
            </g>
          </g>
        </g>
        <g id="Group_28503" data-name="Group 28503" transform="translate(17.954 7.326)">
          <path id="Path_33958" data-name="Path 33958" d="M1652.1,783.5c3.849,9.115,4.228,27.883,6.343,47.549l-4.468-.12-3.072-44.737Z" transform="translate(-1610.351 -778.011)"/>
          <path id="Path_33959" data-name="Path 33959" d="M1449.051,762.786c-2.513,18.629-1.017,39.212-1,59.775a147.4,147.4,0,0,0,45.1,1.077,394.315,394.315,0,0,0-4.308-54.191s-4.747-14.121-16.554-13.443C1460.48,756.7,1449.051,762.786,1449.051,762.786Z" transform="translate(-1447.594 -755.981)"/>
        </g>
        <path id="Path_33960" data-name="Path 33960" d="M1702.621,1143.132c1.217-1.4,3.191-5.944,3.072-8.537s-11.109-30.6-11.109-30.6-12.825,4.069-13.283,9.554c0,0,11.907,27.584,12.9,28.461C1696.418,1143.99,1701.325,1144.608,1702.621,1143.132Z" transform="translate(-1616.733 -1027.262)" fill="#f2ae83"/>
        <path id="Path_33961" data-name="Path 33961" d="M1655.759,996.554c2.453,1.1,6.821,3.53,7.479,5.266.638,1.715,9.275,22.278,13,32.291-3.032,6-9.693,6.941-16.275,8.457-5.026-7.26-7.16-14.779-9.993-23.136L1648,996.674S1653.166,995.4,1655.759,996.554Z" transform="translate(-1590.075 -940.858)" fill="#a7cf45"/>
        <g id="Group_28505" data-name="Group 28505" transform="translate(4.567 150.198)">
          <path id="Path_33962" data-name="Path 33962" d="M1419.765,1755.915c.977-9.394,1.057-16.335,10.292-16.654,6.243-.219,9.893.459,10.312,6.2,0,0-4.368,29.938-6.3,46.392-1.755,14.879-4.248,42.842-5.525,62.827l-7.759-.339c-.4-6.183-4.867-49.643-5.9-60.753C1412.425,1767.4,1418.867,1764.71,1419.765,1755.915Z" transform="translate(-1407.573 -1685.99)" fill="#f2ae83"/>
          <path id="Path_33963" data-name="Path 33963" d="M1466.265,1539.345l11.169-62.089s-11.588-2.932-17.452-4.627c-18.589-5.345-9.733,58.638-9.713,64.083C1450.309,1545.129,1463.672,1546.784,1466.265,1539.345Z" transform="translate(-1434.647 -1472.312)" fill="#f8a588"/>
          <g id="Group_28504" data-name="Group 28504" transform="translate(0 158.878)">
            <path id="Path_33964" data-name="Path 33964" d="M1404.753,2292.026c-.06-4.249-2.753-5.126-2.753-5.126l-8.875,3.49s-14.62,29.559-12.426,30.217l15.8.419c4.547.1,3.371-7.12,5.126-10.97l-.08,11.07h1.974l.917-15.418a8.123,8.123,0,0,0,.3-1.356C1404.972,2302.557,1404.813,2297.69,1404.753,2292.026Z" transform="translate(-1380.475 -2283.308)" fill="#92372b"/>
            <path id="Path_33965" data-name="Path 33965" d="M1418.9,2271.667c-.778,2.174-4.089,10.571-4.946,13.224-.618,1.954-2.015,6.223-2.972,9.234a2.639,2.639,0,0,0,2.413,3.45l6.761.24,7.021-23.475c.08-.7.14-4.248-1.356-5.146S1419.654,2269.493,1418.9,2271.667Z" transform="translate(-1404.79 -2268.893)" fill="#f2ae83"/>
          </g>
        </g>
        <g id="Group_28507" data-name="Group 28507" transform="translate(46.397 156.94)">
          <path id="Path_33966" data-name="Path 33966" d="M1590.2,1774.681c0-2.792.518-8.915,9.753-9.234,6.243-.219,8.736,2.234,9.155,7.978,0,0,2.533,11.03,5.944,26.168,3.191,14.081-11.847,44.338-9.175,72.66l-7.759-.339c-.4-6.183-1.675-36.22-2.713-47.329C1592.952,1798.355,1590.2,1774.681,1590.2,1774.681Z" transform="translate(-1590.2 -1713.712)" fill="#f2ae83"/>
          <g id="Group_28506" data-name="Group 28506" transform="translate(5.467 149.096)">
            <path id="Path_33967" data-name="Path 33967" d="M1629.017,2285.7s5.385,20.843,6.143,24.253c.758,3.431-.479,8.058-1.655,9.354-1.177,1.276-12.685.957-15.118.239s1.635-32.59,1.635-32.59Z" transform="translate(-1617.611 -2279.307)" fill="#92372b"/>
            <path id="Path_33968" data-name="Path 33968" d="M1628.142,2256.63c0,2.333-.319,11.388-.219,14.26.12,3.451.439,13.543.439,13.543s8.855.618,9.932-.439c3.091-2.992,1.715-9.294,1.715-9.294l-2.633-15.2c-.16-.738-1.376-4.587-3.191-5.545C1632.37,2253.02,1628.142,2254.3,1628.142,2256.63Z" transform="translate(-1625.85 -2253.647)" fill="#f2ae83"/>
          </g>
          <path id="Path_33969" data-name="Path 33969" d="M1590.819,1570.853l-.519-63.086s11.927-.937,17.99-1.6c19.227-2.134-2.134,56.325-1.915,61.75C1606.655,1574.7,1592.115,1578.631,1590.819,1570.853Z" transform="translate(-1590.28 -1506.114)" fill="#f8c8b8"/>
        </g>
        <path id="Path_33970" data-name="Path 33970" d="M1478.807,1022.89c-2.134-2.234-7.619-25.39-7.619-25.39h-36.5s-5.485,23.156-7.619,25.39c-7.6,7.958,1.057,23.675,3.949,28.222,4.009,13.1,2.932,18.968,2.992,31.074a97.5,97.5,0,0,0,37.856,0c.08-12.107-1-17.97,2.992-31.074C1477.77,1046.565,1486.406,1030.848,1478.807,1022.89Z" transform="translate(-1410.77 -942.004)" fill="#fff" stroke="#000" stroke-width="1"/>
        <path id="Path_33971" data-name="Path 33971" d="M1468.342,1455.735c2.453-22.039.08-63.744-.738-71.264-.838-7.519-8.3-18.11-12.067-25.829-14.281.02-22.957-1.2-36.679,2.713-3.65,6.263-9.554,12.924-11.847,20.982-2.294,8.038-1.117,49.045-3.311,72.44C1420.534,1457.829,1463.136,1459.006,1468.342,1455.735Z" transform="translate(-1394.501 -1230.985)" fill="#fff" stroke="#000" stroke-width="1"/>
        <g id="Group_28510" data-name="Group 28510" transform="translate(27.908 39.74)">
          <g id="Group_28509" data-name="Group 28509" transform="translate(2.513)">
            <g id="Group_28508" data-name="Group 28508">
              <rect id="Rectangle_5374" data-name="Rectangle 5374" width="21.521" height="25.609" fill="#ffbe9d"/>
              <path id="Path_33972" data-name="Path 33972" d="M1531.721,918.5v7.878c-5.345,4.328-12.585,7.26-21.521,7.878V918.5Z" transform="translate(-1510.18 -918.5)" fill="rgba(0,0,0,0.1)"/>
            </g>
          </g>
          <path id="Path_33973" data-name="Path 33973" d="M1500.492,1007.9s-2.952,4.149-2.992,6.6c-.02,1.755,12.166,17.731,14.221,17.731,2.034,0,14.42-17.352,14.7-18.469a4.275,4.275,0,0,0-1.8-4.288,12.452,12.452,0,0,0-4.527-1.875Z" transform="translate(-1497.5 -989.829)" fill="#ffbe9d"/>
        </g>
        <g id="Group_28511" data-name="Group 28511" transform="translate(10.516 53.681)">
          <path id="Path_33974" data-name="Path 33974" d="M1423.364,991.9s-6.123,24.114-7.559,25.629c-3.451,3.61-4.169,9.035-2.134,16.115a54.688,54.688,0,0,0,5.944,12.944s1.476,12.286-.5,19.028-8.816,21.7-8.816,21.7,19.426.618,19.925.7c.718-28.92,1.676-68.77,0-97.212Z" transform="translate(-1410.3 -990.321)" fill="#a7cf45"/>
          <path id="Path_33975" data-name="Path 33975" d="M1624.175,1015.605c-1.436-1.516-6.582-25.39-6.582-25.39l-10.312-1.815c-1.635,29.219-5.146,68.032,0,96.514.878-.14,21-.558,21.88-.7,0,0-7.778-16.973-9.274-20.883a33.87,33.87,0,0,1,.479-18.708,53.12,53.12,0,0,0,5.944-12.944C1628.343,1024.64,1627.625,1019.215,1624.175,1015.605Z" transform="translate(-1565.835 -988.4)" fill="#a7cf45"/>
        </g>
        <path id="Path_33976" data-name="Path 33976" d="M1376.73,1159.93c-1.5-1.1-4.388-5.126-4.847-7.659-.439-2.553,4.248-32.271,4.248-32.271s13.4,1.217,15.019,6.462c0,0-6.283,29.8-7.26,30.7C1382.913,1158.075,1378.306,1161.107,1376.73,1159.93Z" transform="translate(-1369.007 -1040.071)" fill="#f2ae83"/>
        <path id="Path_33977" data-name="Path 33977" d="M1382.028,997.995c-2.374,1.276-5.545,4.587-5.8,6.4s-4.248,23.755-5.724,34.345a26.937,26.937,0,0,0,19.007,9.115c3.351-8.177,2.493-20.344,3.451-29.12l-.319-22.638C1392.659,996.1,1384.94,996.4,1382.028,997.995Z" transform="translate(-1367.922 -940.883)" fill="#a7cf45"/>
        <g id="Group_28514" data-name="Group 28514" transform="translate(19.279 0)">
          <g id="Group_28513" data-name="Group 28513" transform="translate(0.781 5.308)">
            <g id="Group_28512" data-name="Group 28512" transform="translate(0.283 24.565)">
              <path id="Path_33978" data-name="Path 33978" d="M1614,880.216a4.011,4.011,0,0,0,2.792-.359,8.994,8.994,0,0,0,2.254-1.715c1.8-1.735,3.451-3.909,3.331-6.343a3.017,3.017,0,0,0-.957-2.194,2.912,2.912,0,0,0-2.852-.359,4.812,4.812,0,0,0-2.214,1.915Z" transform="translate(-1583.199 -869.034)" fill="#f2ae83"/>
              <path id="Path_33979" data-name="Path 33979" d="M1467.952,880.216a4.011,4.011,0,0,1-2.792-.359,8.993,8.993,0,0,1-2.254-1.715c-1.8-1.735-3.451-3.909-3.331-6.343a3.017,3.017,0,0,1,.957-2.194,2.912,2.912,0,0,1,2.852-.359,4.812,4.812,0,0,1,2.214,1.915Z" transform="translate(-1459.569 -869.034)" fill="#f2ae83"/>
            </g>
            <path id="Path_33980" data-name="Path 33980" d="M1492.906,781.256c.718-7.32,2.693-11.568,3.929-15.8.878-3.171,1.775-8.576-2.074-13.343-3.789-4.946-13.323-7.759-22.039-5.405-8.776,2.373-15.517,8.816-14.46,14.42.539,3.351,2.912,6.482,3.49,9.933.479,2.872-.419,5.764.678,8.556,2.074,4.827,10.052,13.283,16.355,13.283C1483.91,792.9,1492.407,784.448,1492.906,781.256Z" transform="translate(-1458.152 -745.867)" fill="#ffbe9d"/>
          </g>
          <path id="Path_33981" data-name="Path 33981" d="M1491.447,739.287a1.939,1.939,0,0,0-.12-.8c-.5-.618-.878,7.16-.878,7.16-8.217-.818-29.419.379-29.419.379l-.917-7.619c-1.416,1.675-.618,18.309-.618,18.309-2.094-5.724-4.847-15.8-5.245-21.7a5.865,5.865,0,0,1,4.587-6c1.3-5.485,5.884-7.439,11.448-9.055a20.345,20.345,0,0,1,18.828,4.627c4.986,4.488,7.7,9.474,6.422,15.976-1.336,6.781-.8,12.246-4.428,17.851C1491.127,758.374,1491.686,743.017,1491.447,739.287Z" transform="translate(-1454.236 -719.253)"/>
        </g>
        <g id="Group_28515" data-name="Group 28515" transform="translate(2.139 72.31)">
          <path id="Path_33982" data-name="Path 33982" d="M1407.273,1084.652l-3.53-2.752-35.442,31.174,6.841-.538S1389.641,1110.681,1407.273,1084.652Z" transform="translate(-1368.3 -1081.88)" fill="#856861"/>
          <path id="Path_33983" data-name="Path 33983" d="M1421.493,1269.7l-7.38-.04L1368.3,1235l7.5-.8Z" transform="translate(-1368.3 -1203.804)" fill="#856861"/>
          <path id="Path_33984" data-name="Path 33984" d="M1404.64,1254.964l-16.953-13.164-4.687.5,18.589,14.081Z" transform="translate(-1380.068 -1209.888)" fill="#fff"/>
          <path id="Path_33985" data-name="Path 33985" d="M1403.7,1112.256s16.255-18.27,32.291-30.456l38.773,43.64-24.931,22.258Z" transform="translate(-1396.639 -1081.8)" fill="#b28b81"/>
        </g>
        <g id="Group_28524" data-name="Group 28524" transform="translate(21.669 112.707)">
          <g id="Group_28523" data-name="Group 28523">
            <g id="Group_28522" data-name="Group 28522" transform="translate(0 2.566)">
              <g id="Group_28517" data-name="Group 28517" transform="translate(7.196)">
                <g id="Group_28516" data-name="Group 28516">
                  <path id="Path_33986" data-name="Path 33986" d="M1504.792,1297.922c-2.593.8-.878,2.593-2.493,12.346-.06.379,9.274,1.6,13.822-2.134C1521.147,1304.045,1515.722,1294.532,1504.792,1297.922Z" transform="translate(-1502.299 -1297.205)" fill="#ffbe9d"/>
                </g>
              </g>
              <g id="Group_28521" data-name="Group 28521" transform="translate(0 1.934)">
                <g id="Group_28518" data-name="Group 28518">
                  <path id="Path_33987" data-name="Path 33987" d="M1476.167,1310.77l-6.642,3.451a2.383,2.383,0,0,1-3.052-.558h0a1.864,1.864,0,0,1,.957-2.633l8.2-4.069C1476.726,1306.382,1477.264,1310.192,1476.167,1310.77Z" transform="translate(-1466.218 -1306.901)" fill="#ffbe9d"/>
                  <path id="Path_33988" data-name="Path 33988" d="M1466.3,1324.252a1.251,1.251,0,0,0,.14.439,2.021,2.021,0,0,0,2.353.917,27.481,27.481,0,0,0,4.428-2.134c1.4-.7,2.693-1.516,4.049-2.274a2.378,2.378,0,0,1-1.017,1.017l-6.642,3.451a2.383,2.383,0,0,1-3.052-.558h0A1.54,1.54,0,0,1,1466.3,1324.252Z" transform="translate(-1466.284 -1318.348)" fill="#c2713e"/>
                </g>
                <g id="Group_28519" data-name="Group 28519" transform="translate(1.855 3.52)">
                  <path id="Path_33989" data-name="Path 33989" d="M1485.467,1328.05l-6.642,3.45a2.383,2.383,0,0,1-3.052-.558h0a1.864,1.864,0,0,1,.957-2.633l6.642-3.451a2.383,2.383,0,0,1,3.052.558h0A1.85,1.85,0,0,1,1485.467,1328.05Z" transform="translate(-1475.518 -1324.549)" fill="#ffbe9d"/>
                  <path id="Path_33990" data-name="Path 33990" d="M1475.6,1343.929a1.251,1.251,0,0,0,.14.439,1.938,1.938,0,0,0,2.354.917,44.369,44.369,0,0,0,4.388-2.174,14.287,14.287,0,0,1,3.052-1.217l-6.642,3.45a2.383,2.383,0,0,1-3.052-.558h0A1.638,1.638,0,0,1,1475.6,1343.929Z" transform="translate(-1475.584 -1338.395)" fill="#c2713e"/>
                </g>
                <g id="Group_28520" data-name="Group 28520" transform="translate(4.321 6.524)">
                  <path id="Path_33991" data-name="Path 33991" d="M1497.82,1342.762l-6.662,3.211a2.514,2.514,0,0,1-3.031-.459h0c-.558-.778-.12-1.855.977-2.393l6.662-3.211a2.514,2.514,0,0,1,3.032.459h0C1499.375,1341.146,1498.937,1342.223,1497.82,1342.762Z" transform="translate(-1487.884 -1339.613)" fill="#ffbe9d"/>
                  <path id="Path_33992" data-name="Path 33992" d="M1487.9,1357.138a1.063,1.063,0,0,0,.14.4,2.063,2.063,0,0,0,2.333.8c1.316-.319,2.872-1.436,4.468-2.154a10.8,10.8,0,0,1,3.012-1l-6.661,3.211a2.514,2.514,0,0,1-3.032-.459h0A1.232,1.232,0,0,1,1487.9,1357.138Z" transform="translate(-1487.897 -1352.035)" fill="#c2713e"/>
                </g>
                <path id="Path_33993" data-name="Path 33993" d="M1514.618,1353.415l-5.166,2.752a1.84,1.84,0,0,1-2.393-.479h0a1.517,1.517,0,0,1,.718-2.134l5.166-2.752c.858-.459,5.9-1.057,6.362-.339C1519.305,1350.443,1519.724,1350.9,1514.618,1353.415Z" transform="translate(-1498.746 -1341.508)" fill="#ffbe9d"/>
              </g>
            </g>
            <path id="Path_33994" data-name="Path 33994" d="M1498.915,1288.3a16.27,16.27,0,0,0-3.65-3.012c-1.456-.638-7.2-.538-9.454-.917s-1.5,2.713.977,3.411a4.394,4.394,0,0,1,2.872,3.431Z" transform="translate(-1480.828 -1284.339)" fill="#ffbe9d"/>
          </g>
        </g>
        <path id="Path_33995" data-name="Path 33995" d="M1589.456,1239.178c-.539-1.077-9.494-3.032-14.081-2.473-4.568.558-34.824,13.642-34.824,13.642s-.9,5.784,1.536,8.137c0,0,41.785-5.146,45.375-7.34C1594.682,1246.758,1590.014,1240.255,1589.456,1239.178Z" transform="translate(-1503.927 -1133.421)" fill="#ffbe9d"/>
      </g>
      <g id="character_1_" transform="translate(1137.14 610.026)">
        <path id="Path_33996" data-name="Path 33996" d="M2133.7,1140.416c-1.057-1.516-2.473-6.2-2.074-8.736s14.361-28.88,14.361-28.88,12.166,5.445,12.007,10.89c0,0-13.842,26.706-15.059,27.245C2141.735,1141.453,2134.814,1142.032,2133.7,1140.416Z" transform="translate(-2131.554 -1027.663)" fill="#f0b297"/>
        <path id="Path_33997" data-name="Path 33997" d="M2511.381,1152.893c1.2-1.4,3.112-5.924,2.972-8.477s-11.269-30.217-11.269-30.217-12.665,4.149-13.083,9.574c0,0,10.97,28.023,12.126,28.661S2510.124,1154.369,2511.381,1152.893Z" transform="translate(-2418.508 -1036.789)" fill="#ffbe9d"/>
        <path id="Union_14" data-name="Union 14" d="M18931.891,15023.077s.8-6-2.436-9.93c-4.4-5.388,2.236-17.854-.158-25.71a71.136,71.136,0,0,1-5.389-8.75,83.206,83.206,0,0,1-4.941,9.17c-6.307-2.236-14.4-4.41-16.719-10.675,4.768-9.434,17.4-32.727,18.234-34.343s4.324-2.394,6.861-3.213a11.954,11.954,0,0,1,3.141-.411c.006-.043.01-.065.01-.065h37.266a16.323,16.323,0,0,1,2.576,0h.484s0,.019.008.056a5.961,5.961,0,0,1,1.527.4c2.455,1.077,6.445,3.213,7.1,4.93.658,1.692,12.285,26.863,16.055,36.755-2.975,5.983-12.742,6.622-19.25,8.181,0,0-.346-.952-.914-2.522a52.784,52.784,0,0,1-2.994,5.331c-2.15,7.084,3.074,16.118.063,20.084-2.99,3.933-3.033,10.712-3.033,10.712a132.227,132.227,0,0,1-18.75,1.836A129.453,129.453,0,0,1,18931.891,15023.077Z" transform="translate(-18899.648 -14882.721)" fill="#fff" stroke="#221e26" stroke-width="1"/>
        <path id="Path_34001" data-name="Path 34001" d="M2283.9,821.753l35.781-.6,3.211-25.849s-3.171-15.258-17.791-15.777-18.749,10.651-19.167,15.777C2285.516,800.412,2283.9,821.753,2283.9,821.753Z" transform="translate(-2253.515 -768.855)"/>
        <g id="Group_28527" data-name="Group 28527" transform="translate(7.502 284.021)">
          <path id="Path_34002" data-name="Path 34002" d="M2237.5,2150.1c.18,13.921.339,27.9.259,31.194l7.659.339c1.436-9.474,3.291-20.743,5.186-31.533Z" transform="translate(-2223.871 -2150.1)" fill="#f0b59c"/>
          <g id="Group_28526" data-name="Group 28526" transform="translate(0 23.173)">
            <path id="Path_34003" data-name="Path 34003" d="M2193.227,2289.286c-.04-4.209-2.732-5.086-2.732-5.086l-8.8,3.45s-14.5,29.3-12.306,29.957l15.657.419c4.508.1,3.351-7.061,5.086-10.87l-.08,10.97h1.955l.917-15.278a11.516,11.516,0,0,0,.3-1.336C2193.446,2299.737,2193.287,2294.91,2193.227,2289.286Z" transform="translate(-2169.167 -2280.627)" fill="#5d2a46"/>
            <path id="Path_34004" data-name="Path 34004" d="M2206.572,2269.042c-.778,2.154-4.049,10.471-4.906,13.1-.658,2.054-2.134,6.642-3.111,9.634a2.219,2.219,0,0,0,2.054,2.912l9.274.2,4.887-23.216c.08-.678.139-4.208-1.336-5.106C2211.957,2265.711,2207.33,2266.887,2206.572,2269.042Z" transform="translate(-2192.604 -2266.286)" fill="#f0b59c"/>
          </g>
        </g>
        <g id="Group_28529" data-name="Group 28529" transform="translate(54.427 289.027)">
          <path id="Path_34005" data-name="Path 34005" d="M2420.552,2175.2H2410.2c.559,10.73,1.057,21.421,1.276,24.832l7.7.339A98.5,98.5,0,0,1,2420.552,2175.2Z" transform="translate(-2409.051 -2175.2)" fill="#f0b59c"/>
          <g id="Group_28528" data-name="Group 28528" transform="translate(0 15.776)">
            <path id="Path_34006" data-name="Path 34006" d="M2415.74,2286.2s5.345,20.643,6.1,24.054-.479,8.217-1.655,9.494h-14.979c-2.413-.718,1.616-32.311,1.616-32.311Z" transform="translate(-2404.438 -2279.837)" fill="#5d2a46"/>
            <path id="Path_34007" data-name="Path 34007" d="M2414.942,2257.271c0,2.314-.319,11.289-.219,14.141.12,3.431.439,13.423.439,13.423s8.776.618,9.853-.439c3.071-2.972,1.7-9.214,1.7-9.214l-2.593-15.079c-.16-.738-1.376-4.548-3.171-5.5C2419.13,2253.681,2414.942,2254.958,2414.942,2257.271Z" transform="translate(-2412.656 -2254.299)" fill="#f0b59c"/>
          </g>
        </g>
        <g id="Group_28531" data-name="Group 28531" transform="translate(39.381 40.812)">
          <g id="Group_28530" data-name="Group 28530">
            <rect id="Rectangle_5375" data-name="Rectangle 5375" width="21.341" height="25.39" transform="translate(0 0.02)" fill="#ffbe9d"/>
            <path id="Path_34008" data-name="Path 34008" d="M2350.341,930.72v7.8c-5.305,4.288-12.486,7.2-21.341,7.8V930.7h21.341Z" transform="translate(-2329 -930.7)" fill="rgba(0,0,0,0.1)"/>
          </g>
        </g>
        <g id="Group_28532" data-name="Group 28532" transform="translate(37.031 52.719)">
          <path id="Path_34009" data-name="Path 34009" d="M2382.4,1003.883l9.614-7.28,1.2-6.2s2.114,2.693,2.194,4.248,0,16.495,0,16.495-5.844-5.485-6.981-6.422C2387.247,1003.8,2382.4,1003.883,2382.4,1003.883Z" transform="translate(-2369.4 -990.4)" fill="#a7cf45"/>
          <path id="Path_34010" data-name="Path 34010" d="M2330.262,1003.883l-9.614-7.28-1.2-6.2s-2.114,2.693-2.194,4.248,0,16.495,0,16.495,5.844-5.485,6.98-6.422C2325.4,1003.8,2330.262,1003.883,2330.262,1003.883Z" transform="translate(-2317.222 -990.4)" fill="#a7cf45"/>
        </g>
        <path id="Path_34011" data-name="Path 34011" d="M2232.106,1380.1s-11.608,30.955-11.508,36.958c.1,6.023-.7,53.752-.7,53.752s17.173,14.26,23.874,4.308c3.61-5.365,3.65-50.68,3.65-50.68l10.611-4.807-2.074-38.155Z" transform="translate(-2202.28 -1249.655)" fill="#908e92"/>
        <path id="Path_34012" data-name="Path 34012" d="M2211.326,1868.7s16.176,5.186,17.412,0c1.217-5.186,3.77-53.991,5.226-64.7,1.476-10.691,3.989-24.353,3.131-29.259s-24.233-3.79-24.792,2.872c-.559,6.682-2.693,18.31-2.613,24.792C2209.771,1808.9,2211.326,1868.7,2211.326,1868.7Z" transform="translate(-2194.104 -1563.155)" fill="#908e92"/>
        <path id="Path_34013" data-name="Path 34013" d="M2387.424,1380.4s8.6,35.4,7.858,41.406c-.738,6.024-5.165,49.3-5.165,49.3s-18.669,14.261-24.333,4.308c-3.051-5.365,2.034-57.5,2.034-57.5l-8.217.06,3.79-36.2Z" transform="translate(-2314.116 -1249.895)" fill="#908e92"/>
        <path id="Path_34014" data-name="Path 34014" d="M2399.953,1869s-16.714,5.186-17.412,0c-.678-5.186,1.895-53.991,1.556-64.7-.359-10.691-1.436-24.353-.06-29.259s24.632-3.79,24.492,2.892.778,18.31,0,24.792C2407.771,1809.207,2399.953,1869,2399.953,1869Z" transform="translate(-2332.39 -1563.401)" fill="#908e92"/>
        <g id="Group_28533" data-name="Group 28533" transform="translate(0.227 104.852)">
          <path id="Path_34015" data-name="Path 34015" d="M2142.089,1252.065c1.037-.14,6.083,5.206,7.9,8.776,1.795,3.59,5.425,31.912,5.425,31.912s-1.077,4.168-3.131,5.345c0,0-19.765-37.257-19.586-43.959C2132.8,1250.489,2141.052,1252.2,2142.089,1252.065Z" transform="translate(-2132.694 -1251.782)" fill="#ffbe9d"/>
          <path id="Path_34016" data-name="Path 34016" d="M2224.015,1423.464l4.089,3.75s1.915.538,4.607,1.077.9,3.63-4.348,2.613l1.276,2.912s-2.732,8.617-5.325,7.958c0,0-4.029-7.719-4.807-12.127C2218.73,1425.259,2222.819,1422.367,2224.015,1423.464Z" transform="translate(-2202.115 -1389.035)" fill="#ffbe9d"/>
        </g>
        <g id="Group_28534" data-name="Group 28534" transform="translate(64.806 105.132)">
          <path id="Path_34017" data-name="Path 34017" d="M2515.6,1253.189c-1.037-.14-5.106,5.026-6.9,8.616s-6.4,32.091-6.4,32.091,1.077,4.169,3.131,5.345c0,0,19.426-29.439,18.509-41.107C2523.621,1254.485,2516.64,1253.328,2515.6,1253.189Z" transform="translate(-2493.16 -1253.186)" fill="#ffbe9d"/>
          <path id="Path_34018" data-name="Path 34018" d="M2466.414,1423.464l-4.089,3.75s-1.915.538-4.607,1.077-.9,3.63,4.348,2.613l-1.037,3.47s5.8,8.018,8.4,7.36c0,0,.7-7.679,1.476-12.087C2471.7,1425.259,2467.611,1422.367,2466.414,1423.464Z" transform="translate(-2456.477 -1389.315)" fill="#ffbe9d"/>
        </g>
        <path id="Path_34019" data-name="Path 34019" d="M2315.352,1376.8s-28.781,2.014-45.016,0l-1.536,5.764a87.853,87.853,0,0,0,47.709,0Z" transform="translate(-2241.427 -1247.013)" fill="#908e92"/>
        <path id="Path_34020" data-name="Path 34020" d="M2370.9,1386.214h-5.964a2.23,2.23,0,0,1-2.234-2.234v-4.947a2.23,2.23,0,0,1,2.234-2.234h5.964a2.23,2.23,0,0,1,2.234,2.234V1384A2.226,2.226,0,0,1,2370.9,1386.214Z" transform="translate(-2316.598 -1247.013)" fill="#221e26"/>
        <path id="Path_34021" data-name="Path 34021" d="M2479.309,807.258a38.5,38.5,0,0,0,.04,4.547,21.045,21.045,0,0,0,.3,2.214,7.458,7.458,0,0,0,.519,1.875,9.412,9.412,0,0,0,2.054,2.393,6.139,6.139,0,0,1,.977,1.177,5.306,5.306,0,0,1,.5,1.655,8.863,8.863,0,0,1-.219,3.829,10.378,10.378,0,0,1-1.795,3.451,7.04,7.04,0,0,0-1.735,3.351,7.75,7.75,0,0,0,.9,4.149,11.538,11.538,0,0,1,1.476,4.308,3.082,3.082,0,0,1-1.6,2.972c-.479.219-.06.9.4.7a3.479,3.479,0,0,0,1.895-2.553,6.337,6.337,0,0,0-.539-3.73,26.52,26.52,0,0,1-1.655-4.049,4.532,4.532,0,0,1,0-2.194,5.473,5.473,0,0,1,.917-1.715,16.944,16.944,0,0,0,2.114-3.311,9.919,9.919,0,0,0,.738-3.889,6.89,6.89,0,0,0-.837-3.57,22.421,22.421,0,0,0-2.194-2.373,3.851,3.851,0,0,1-.858-1.456,18.021,18.021,0,0,1-.479-2.513,35.183,35.183,0,0,1-.119-5.226.4.4,0,1,0-.8-.04Z" transform="translate(-2409.911 -790.76)"/>
        <g id="Group_28537" data-name="Group 28537" transform="translate(21.61 0)">
          <g id="Group_28536" data-name="Group 28536" transform="translate(8.481 2.432)">
            <g id="Group_28535" data-name="Group 28535" transform="translate(0.288 24.032)">
              <path id="Path_34022" data-name="Path 34022" d="M2441.8,870.2a4.177,4.177,0,0,0,2.852-.359,9.452,9.452,0,0,0,2.313-1.755c1.835-1.775,3.53-3.989,3.411-6.482a3.093,3.093,0,0,0-.977-2.254,2.925,2.925,0,0,0-2.912-.359,5.044,5.044,0,0,0-2.274,1.955Z" transform="translate(-2410.301 -858.762)" fill="#f0b297"/>
              <path id="Path_34023" data-name="Path 34023" d="M2292.452,870.2a4.176,4.176,0,0,1-2.852-.359,9.459,9.459,0,0,1-2.314-1.755c-1.835-1.775-3.53-3.989-3.41-6.482a3.092,3.092,0,0,1,.977-2.254,2.926,2.926,0,0,1,2.912-.359,5.042,5.042,0,0,1,2.274,1.955Z" transform="translate(-2283.87 -858.762)" fill="#f0b297"/>
            </g>
            <path id="Path_34024" data-name="Path 34024" d="M2317.961,774.937c.718-7.8,2.753-12.346,4.009-16.854.9-3.371,1.815-8.058-2.114-13.144-3.889-5.285-13.623-8.277-22.538-5.764-8.975,2.533-15.876,8.317-14.779,14.281.558,3.57,2.972,6.9,3.57,10.591.5,3.072-.439,6.143.7,9.135,2.114,5.146,10.272,14.161,16.714,14.161C2308.787,787.382,2317.463,778.347,2317.961,774.937Z" transform="translate(-2282.425 -738.272)" fill="#ffbe9d"/>
          </g>
          <path id="Path_34025" data-name="Path 34025" d="M2288.646,778.119a2.252,2.252,0,0,0,.06.9c-2.952-.02-5.924.1-8.9.339,0-.04.02-.1.02-.14a6.082,6.082,0,0,1,1.376-2.074,5.375,5.375,0,0,0,1.1-3.79c-.179-1.635-1.157-3.151-.857-4.807.458-2.633,3.53-4.587,2.992-7.14-.279-1.356-1.656-2.214-1.915-3.57-.4-2.134,1.635-3.909,2.234-6.083a4.542,4.542,0,0,0-.7-3.61c-2.114.02-6.642.259-6.622-.06.219-2.214.1-5.764-.8-7.739-.937,2.234-1.416,7.739-1.735,7.938a.935.935,0,0,1-.519.1c-5.864.04-14.44.06-20.284.1a3.8,3.8,0,0,0-.1.459c-.279,1.735.419,3.391.917,5.006.5,1.635.778,3.53-.219,5.046a25.014,25.014,0,0,1-2.014,2.114,4.932,4.932,0,0,0-.279,6.123c.618.778,1.536,1.4,1.715,2.393.219,1.276-.9,2.473-1.436,3.71a4.324,4.324,0,0,0,.419,4.208,4.72,4.72,0,0,1,.9,1.356,1.373,1.373,0,0,1,.06.5H2239.9a4.359,4.359,0,0,1,.558-1.237c.678-1.077,1.5-2.393.918-3.431-.24-.419-.658-.678-.937-1.077-.9-1.257.06-3.111,1.157-4.348,1.1-1.257,2.453-2.613,2.334-4.188-.1-1.3-1.157-2.234-1.835-3.291a6.569,6.569,0,0,1,.419-7.28c1.2-1.615,3.112-2.812,3.71-4.707,2.334-7.26.778-12.765,8.257-17.572,8.137-5.246,13.183-8.517,22-4.168,5.6,2.772,13.7,8,13.284,14.061a31.979,31.979,0,0,0,.479,7.44c.459,2.952,3.65,5.126,3.151,8.157-.459,2.792-3.85,4.488-4.667,7.24-.977,3.331,2.234,6.522,1.257,9.853-.279,1-.937,1.895-1.217,2.892A.764.764,0,0,0,2288.646,778.119Z" transform="translate(-2239.9 -726.078)"/>
        </g>
      </g>
      <g id="character_4_" transform="translate(1051.005 581.112)">
        <g id="Group_28539" data-name="Group 28539" transform="translate(44.659 50.179)">
          <g id="Group_28538" data-name="Group 28538">
            <rect id="Rectangle_5376" data-name="Rectangle 5376" width="21.74" height="25.849" transform="translate(0.02)" fill="#ffbe9d"/>
            <path id="Path_34026" data-name="Path 34026" d="M1945.34,832.7v7.958c-5.405,4.368-12.7,7.32-21.74,7.958v-15.9h21.74Z" transform="translate(-1923.6 -832.7)" fill="rgba(0,0,0,0.1)"/>
          </g>
        </g>
        <g id="Group_28542" data-name="Group 28542" transform="translate(34.738 9.255)">
          <g id="Group_28541" data-name="Group 28541">
            <g id="Group_28540" data-name="Group 28540" transform="translate(0 25.72)">
              <path id="Path_34027" data-name="Path 34027" d="M2035.6,768.2a4.115,4.115,0,0,0,2.912-.379,8.988,8.988,0,0,0,2.354-1.795c1.875-1.815,3.63-4.089,3.49-6.642a3.247,3.247,0,0,0-1-2.314,3.03,3.03,0,0,0-2.992-.379,5.2,5.2,0,0,0-2.333,2.014Z" transform="translate(-2003.341 -756.468)" fill="#f0b297"/>
              <path id="Path_34028" data-name="Path 34028" d="M1882.625,768.2a4.114,4.114,0,0,1-2.912-.379,8.988,8.988,0,0,1-2.354-1.795c-1.875-1.815-3.63-4.089-3.49-6.642a3.246,3.246,0,0,1,1-2.314,3.03,3.03,0,0,1,2.992-.379,5.2,5.2,0,0,1,2.333,2.014Z" transform="translate(-1873.861 -756.468)" fill="#f0b297"/>
            </g>
            <path id="Path_34029" data-name="Path 34029" d="M1916.435,666.205c.738-8,2.832-12.665,4.109-17.272.917-3.47,1.855-9.374-2.174-14.58-3.969-5.425-13.961-8.5-23.1-5.9-9.195,2.593-14.3,7.978-13.184,14.1.558,3.67,1.1,8.736,1.7,12.525.5,3.151-.439,6.3.718,9.354,2.174,5.265,10.531,14.52,17.133,14.52C1907.021,678.93,1915.917,669.7,1916.435,666.205Z" transform="translate(-1880.327 -627.515)" fill="#ffbe9d"/>
          </g>
        </g>
        <path id="Path_34030" data-name="Path 34030" d="M2114.372,962.895c2.374,1.855,6.462,5.664,6.7,7.7s8.018,56.3,8.5,59.815c.978,7.041-21.48-.179-22.338-4.787-.857-4.587-10.232-38.055-10.232-38.055L2106.055,961C2106.055,961.02,2111.859,960.94,2114.372,962.895Z" transform="translate(-2017.757 -885.231)" fill="#fff" stroke="#221e26" stroke-width="1"/>
        <path id="Path_34031" data-name="Path 34031" d="M1965.212,1370.7c5.7,34.964.758,99.426-.718,108.9-1.5,9.593-21.3-6.243-21.939-15.916-.239-3.47.678-6.941.7-10.411,0-3.072-1.336-6.043-1.4-9.115-.439-26.966-5.764-30.735-9.613-47.369L1926,1370.72h39.212Z" transform="translate(-1880.863 -1213.217)" fill="#908e92"/>
        <g id="Group_28543" data-name="Group 28543" transform="translate(0 329.025)">
          <path id="Path_34032" data-name="Path 34032" d="M1753.588,2260.475c4.208-2.014,7.938-4.149,8.975-6.3l.459-19.147c.16-1.416.479-3.171-.917-3.351l-6.323-.877a2.469,2.469,0,0,0-2.732,1.834c-.7,2.633-3.191,11.369-3.191,11.369q-6.163,6.1-12.346,12.187c-1.257,1.237-2.593,2.493-2.713,4.308C1734.8,2260.535,1753.588,2260.475,1753.588,2260.475Z" transform="translate(-1727.797 -2230.771)" fill="#b3b3b3"/>
          <path id="Path_34033" data-name="Path 34033" d="M1734.8,2277.4c-.4-.06,1.037,10.232-3.67,11.01a6.8,6.8,0,0,1-.917.08l-.379-4.348s-6.662-3.072-11.668-2.693l-1.157,2.374-14.2,7.818c-1.177,1.157-2.952,2.912-3.111,5.325a1.917,1.917,0,0,0,.4,1.137h35.9C1736.012,2298.082,1735.195,2277.459,1734.8,2277.4Z" transform="translate(-1699.691 -2268.099)" fill="#1a1a1a"/>
        </g>
        <g id="Group_28544" data-name="Group 28544" transform="translate(69.69 329.648)">
          <path id="Path_34034" data-name="Path 34034" d="M2094.355,2262.9a17.4,17.4,0,0,0-1.815-4.288l-9.374-12.286s-1.177-7.958-1.5-10.352A2.247,2.247,0,0,0,2079.5,2234l-5.6-.1a2.239,2.239,0,0,0-2.254,2.254l-.638,17.312a93.019,93.019,0,0,0,3.79,9.374Z" transform="translate(-2066.632 -2233.899)" fill="#b3b3b3"/>
          <path id="Path_34035" data-name="Path 34035" d="M2075.946,2294.7l-6.343-8.317-.877-2.633c-4.308-1.017-10.431.758-10.431.758l-.8,3.75a3.7,3.7,0,0,1-.778-.2c-3.989-1.3-2.713-8.157-3.072-8.157s-4.547,20.184-4.547,20.184h28.94c.02-.1.02-.219.04-.319C2078.18,2297.631,2076.824,2295.876,2075.946,2294.7Z" transform="translate(-2049.1 -2270.725)" fill="#1a1a1a"/>
        </g>
        <path id="Path_34036" data-name="Path 34036" d="M1822.669,1360.7c-5.824,34.964-2.952,99.426-1.436,108.9,1.536,9.593,21.76-6.243,22.418-15.916.24-3.47-.7-6.941-.7-10.411a40.547,40.547,0,0,1,1.416-9.115c3.929-16.634,12.247-33.248,16.2-49.882V1360.7Z" transform="translate(-1795.342 -1205.211)" fill="#908e92"/>
        <path id="Path_34037" data-name="Path 34037" d="M1810.885,1869.816c-.239-13.782-.02-27.544.219-41.326q.179-10.381.359-20.763c.16-9.753.738-19.626,4.328-28.821,1.077-2.752,18.329-9.833,20.444-6.941,0,0,1.436,13.563,2.333,19.706.6,4.049-.219,8.138-1.017,12.147-4.348,21.82-6.622,44.178-10.99,66Z" transform="translate(-1788.624 -1533.904)" fill="#908e92"/>
        <path id="Path_34038" data-name="Path 34038" d="M2027.719,1878.838c.239-13.782-.339-26.666-.558-40.448q-.179-10.381-.339-20.763c-.16-9.753-.718-19.626-4.228-28.821-1.057-2.752-17.931-9.833-20-6.941,0,0-1.4,13.563-2.294,19.706-.578,4.049.2,8.138,1,12.146,4.268,21.82,6.283,43.36,10.551,65.16Z" transform="translate(-1940.179 -1541.83)" fill="#908e92"/>
        <path id="Path_34039" data-name="Path 34039" d="M1818.317,1020.276h-1.257c-3.231-.04-12.865-2.832-14.261-5.026,3.59-18.549,1.4-29.718-.7-40.528-1.2-6.083-2.533-19.267-2.533-19.267-1.3-2.433-2.792-20.623-1.7-28.142l23.834-10.012,11.03,3.311h2.234L1846,917.3l23.834,10.012c1.1,7.5-.4,25.709-1.7,28.142,0,0-1.675,13.5-3.191,19.626-2.573,10.391-5.226,21.122-1.635,39.491l.02.08c-.718,1.077-6.083,3.849-8.7,4.268C1846.26,1020.256,1819.453,1020.276,1818.317,1020.276Z" transform="translate(-1777.986 -850.247)" fill="#fff" stroke="#000" stroke-width="1"/>
        <g id="Group_28549" data-name="Group 28549" transform="translate(37.12 61.588)">
          <path id="Path_34040" data-name="Path 34040" d="M1940.919,939.529l4.169-4.049-2.473-6.761-5.884-.519-5.884.519-2.473,6.761,4.169,4.049L1926,1002.994l10.73,12.525,10.711-12.525Z" transform="translate(-1917.982 -920.561)" fill="#23c2f2"/>
          <g id="Group_28546" data-name="Group 28546" transform="translate(18.748)">
            <g id="Group_28545" data-name="Group 28545">
              <path id="Path_34041" data-name="Path 34041" d="M1991.249,889.9l-11.448,7.639,4.188.858,3.371,17.392,11.169-17.591Z" transform="translate(-1979.8 -889.9)" fill="#fff" stroke="#000" stroke-width="1"/>
            </g>
          </g>
          <g id="Group_28548" data-name="Group 28548">
            <g id="Group_28547" data-name="Group 28547">
              <path id="Path_34042" data-name="Path 34042" d="M1893.08,889.9l11.468,7.639-4.188.858-3.371,17.392L1885.8,898.2Z" transform="translate(-1885.8 -889.9)" fill="#fff" stroke="#000" stroke-width="1"/>
            </g>
          </g>
        </g>
        <path id="Path_34043" data-name="Path 34043" d="M2056.159,930.056l-21.88-8.856-6.721,51.877-.858,64.5c8.4,5.724,23.874,3.75,25.57,1.6s-1.077-16.594-1.436-19.367c-3.81-29.359,1.795-60.693,1.795-60.693S2057.455,937.156,2056.159,930.056Z" transform="translate(-1961.478 -853.369)" fill="#fff" stroke="#221e26" stroke-width="1"/>
        <path id="Path_34044" data-name="Path 34044" d="M1815.969,972.638,1808.39,921.2l-21.281,8.4c-1.3,7.12,2.932,29.519,2.932,29.519s7.4,30.815,2.653,59.735c-.2,2.533-3.151,18.29-1.934,20.045s19.506,5.784,26.946.858Z" transform="translate(-1769.475 -853.369)" fill="#fff" stroke="#221e26" stroke-width="1"/>
        <g id="Group_28551" data-name="Group 28551" transform="translate(32.909 0)">
          <g id="Group_28550" data-name="Group 28550">
            <path id="Path_34045" data-name="Path 34045" d="M1901.368,610.03a7.044,7.044,0,0,1-2.334-.578c-1.915-.878-4.029-1.456-5.106-3.151-1.416-2.254-.04-5.385-2.094-6-3.251-.977-9.693,2.054-12.585.379a4.735,4.735,0,0,1-1.5-1.376,13.4,13.4,0,0,1-2.693,2.613c-1.775,1.4-3.73,2.992-3.849,5.086-.08,1.3.578,2.513.937,3.77.678,2.373-1.237,9.514-1.237,9.514a36.55,36.55,0,0,1-3.211-6.123c-.6-1.775-.3-3.69-.738-5.5-.479-1.955-1.755-3.69-2.154-5.644a6.906,6.906,0,0,1,2.134-6.283,13.8,13.8,0,0,1-.06-3.271,8.5,8.5,0,0,1,3.411-6.083,6.992,6.992,0,0,1,6.522-.778c3.59-3.092,7.818-5.924,12.665-5.425,4.348.439,7.739,3.47,11.748,5.046,2.354.917,4.906,1.356,7.28,2.214,2.373.878,4.667,2.354,5.465,4.527a4.126,4.126,0,0,1-.319,3.391,3.491,3.491,0,0,1,1.4,1.955c.419,1.675-.359,3.411-1.256,4.927-.917,1.516-4.847,3.55-5.146,5.245-.339,1.915-3.75,11.807-3.75,11.807l-2.314-10.312A6.215,6.215,0,0,1,1901.368,610.03Z" transform="translate(-1864.687 -581.112)"/>
          </g>
        </g>
        <g id="Group_28553" data-name="Group 28553" transform="translate(26.21 119.967)">
          <g id="Group_28552" data-name="Group 28552" transform="translate(7.253 4.049)">
            <path id="Path_34046" data-name="Path 34046" d="M1939.773,1227.791c.219-1.436-4.587-15.3-10.292-17.272s-59.975-7.619-59.975-7.619-2.812,4.707-1.835,8.357c0,0,40.069,13.543,45.375,15.178C1918.332,1228.071,1939.554,1229.227,1939.773,1227.791Z" transform="translate(-1867.466 -1202.9)" fill="#ffbe9d"/>
          </g>
          <path id="Path_34047" data-name="Path 34047" d="M1842.728,1187.367s-10.93-4.408-11.628-4.767v15.9l10.072-3.391Z" transform="translate(-1831.1 -1182.6)" fill="#ffbe9d"/>
          <path id="Path_34048" data-name="Path 34048" d="M1906.87,1192.2l-3.47,16.076s36.22,11.209,51.1,14.321,21.162-2.473,19.885-7.559a20.323,20.323,0,0,0-14.779-14.859C1950.391,1197.924,1906.87,1192.2,1906.87,1192.2Z" transform="translate(-1888.98 -1190.285)" fill="#fff" stroke="#221e26" stroke-width="1"/>
        </g>
        <g id="Group_28558" data-name="Group 28558" transform="translate(9.456 127.755)">
          <g id="Group_28554" data-name="Group 28554" transform="translate(0 2.942)">
            <path id="Path_34049" data-name="Path 34049" d="M1747.1,1255.186c.06-1.456,4.707-17.851,10.69-18.728,5.964-.878,66.876,8.118,66.876,8.118s-2.713,8.377-4.946,9.274c0,0-30.536,1.157-41.386,2.493C1772.829,1257.021,1747.04,1256.642,1747.1,1255.186Z" transform="translate(-1747.099 -1236.398)" fill="#ffbe9d"/>
          </g>
          <g id="Group_28557" data-name="Group 28557" transform="translate(66.67)">
            <g id="Group_28556" data-name="Group 28556">
              <g id="Group_28555" data-name="Group 28555">
                <path id="Path_34050" data-name="Path 34050" d="M2082.691,1252.824c3.311,1.795,7.08,2.254,10.631,3.251,1.456.419,3.192.738,4.208-.259a4.334,4.334,0,0,0,.938-2.234c.538-2.613-1.735-6.382-1.2-9.813.379-2.413.5-7.519-.718-7.38-3.251.379-8.556,5.625-11.967,7.34a2.93,2.93,0,0,0-1.2,1.117C2082.252,1246.72,2079.879,1251.308,2082.691,1252.824Z" transform="translate(-2081.368 -1233.446)" fill="#ffbe9d"/>
                <path id="Path_34051" data-name="Path 34051" d="M2149.615,1253.537a31.422,31.422,0,0,0,8.517-.718c1.715-.4,3.59-1.895,8.736-4.966,1.915-1.137-.678-2.553-2.712-1.635a33.822,33.822,0,0,1-6.223,2.513c-3.052,1-5.864-.279-8.875.18C2147.023,1249.229,2147.561,1253.5,2149.615,1253.537Z" transform="translate(-2134.531 -1241.081)" fill="#ffbe9d"/>
                <path id="Path_34052" data-name="Path 34052" d="M2145.134,1276.775c4.846-.339,6.522.179,9.614-.618,2.353-.618,3.49-1.576,7.28-3.012,2.593-.977,1-3.829-1.576-2.852-3.869,1.476-5.226,2.034-5.226,2.034-3.949,1.1-8.058.14-12.067.758C2140.447,1273.484,2142.382,1276.975,2145.134,1276.775Z" transform="translate(-2129.79 -1260.43)" fill="#ffbe9d"/>
                <path id="Path_34053" data-name="Path 34053" d="M2145.14,1299.337c4.128.778,8.038,1.117,9.992.8.9-.159,4.707-1.7,5.764-2.054a9.5,9.5,0,0,0,2.892-1.735c.718-.818-.22-2.174-1.336-1.895-1.316.3-5.525,1.815-8.377,2.294-4.049.678-6.4-1.5-10.431-1.3C2140.931,1295.567,2142.427,1298.818,2145.14,1299.337Z" transform="translate(-2130.075 -1279.9)" fill="#ffbe9d"/>
                <path id="Path_34054" data-name="Path 34054" d="M2141.431,1319.752a34.193,34.193,0,0,0,6.522.4c.738.02,3.431-.458,5.106-.519a33.952,33.952,0,0,0,3.391-.5,1.019,1.019,0,0,0-.8-1.715c-1.077.04-3.091.2-5.405.14-3.291-.08-6.362-1.615-9.593-2.134C2138.459,1315.085,2139.237,1319.393,2141.431,1319.752Z" transform="translate(-2127.782 -1296.705)" fill="#ffbe9d"/>
                <path id="Path_34055" data-name="Path 34055" d="M2123.761,1233.105c1.5-2.972,2.373-4.986,3.77-5.5a30.745,30.745,0,0,0,4.428-1.875,4.521,4.521,0,0,0,1.895-2.932c.2-2.154-3.77-.718-6.741-.16a8.325,8.325,0,0,0-4.647,2.294c-1.276,1.237-5.664,5.625-5.664,5.625Z" transform="translate(-2109.733 -1221.646)" fill="#ffbe9d"/>
              </g>
            </g>
          </g>
        </g>
        <path id="Union_15" data-name="Union 15" d="M18988.412,15034.67c1.354-11.852,6.578-55.033,6.816-57.066s6.652-7,9.025-8.861c2.492-1.956,5.975-.713,5.994,48.856,0,0,.1,1.3.219,3.324,13.885,1.567,54.293,5.986,54.293,5.986l-3.492,16.612s-38.941,1.514-55.512,1.229c-.613.051-1.264.077-1.941.077C18997.09,15044.827,18987.859,15042.211,18988.412,15034.67Z" transform="translate(-18986.672 -14892.563)" fill="#fff" stroke="#221e26" stroke-width="1"/>
      </g>
    </g>
  </g>
</svg>
