<svg xmlns="http://www.w3.org/2000/svg" xmlns:xlink="http://www.w3.org/1999/xlink" width="536" height="430" viewBox="0 0 536 430">
  <defs>
    <clipPath id="clip-path">
      <rect id="Rectangle_2768" data-name="Rectangle 2768" width="536" height="430" transform="translate(1217.467 84.034)" fill="#fff" stroke="#707070" stroke-width="1"/>
    </clipPath>
  </defs>
  <g id="Mask_Group_31" data-name="Mask Group 31" transform="translate(-1217.467 -84.034)" clip-path="url(#clip-path)">
    <circle id="Ellipse_1293" data-name="Ellipse 1293" cx="266.5" cy="266.5" r="266.5" transform="translate(1219.467 109.034)" fill="rgba(255,255,255,0.5)"/>
    <g id="fabric_1_" data-name="fabric (1)" transform="matrix(0.966, 0.259, -0.259, 0.966, 1284.149, 234.632)">
      <path id="Path_33471" data-name="Path 33471" d="M154.872,14.372H144V2.45A2.45,2.45,0,0,1,146.45,0h5.972a2.45,2.45,0,0,1,2.45,2.45Z" transform="translate(-52.819)" fill="#908e92"/>
      <path id="Path_33472" data-name="Path 33472" d="M297.655,205.339H224V64h73.655a2.45,2.45,0,0,1,2.45,2.45V80.308l-3.5,5.891,3.5,4.981v21.744l-3.5,6.391,3.5,4.481v21.744l-3.5,5.828,3.5,5.044v21.744l-3.5,5.531,3.5,5.341v13.858A2.45,2.45,0,0,1,297.655,205.339Z" transform="translate(-105.639 -42.256)" fill="#fff" stroke="#221e26" stroke-width="1"/>
      <g id="Group_28203" data-name="Group 28203" transform="translate(129.233 38.053)">
        <path id="Path_33474" data-name="Path 33474" d="M256,112h65.233v10.872H256Z" transform="translate(-256 -112)" fill="#e8e8e8"/>
        <path id="Path_33475" data-name="Path 33475" d="M256,208h65.233v10.872H256Z" transform="translate(-256 -175.383)" fill="#e8e8e8"/>
        <path id="Path_33476" data-name="Path 33476" d="M256,304h65.233v10.872H256Z" transform="translate(-256 -238.767)" fill="#e8e8e8"/>
        <path id="Path_33477" data-name="Path 33477" d="M256,400h65.233v10.872H256Z" transform="translate(-256 -302.15)" fill="#e8e8e8"/>
      </g>
      <path id="Path_33482" data-name="Path 33482" d="M129.233,173.339H64V157.03l1.75-2.2L64,151.572v-28.28l1.75-2.062L64,118.956V93.127l1.75-3.748L64,86.339V59.18l1.75-2.7L64,53.723V42.456A10.456,10.456,0,0,1,74.456,32h44.322a10.456,10.456,0,0,1,10.456,10.456v7.767l-3.5,4.688,3.5,4.27V82.839l-3.5,4.576,3.5,4.382v23.659l-3.5,4.022,3.5,4.936v23.659l-3.5,3.522,3.5,5.436v16.308Z" transform="translate(0 -21.128)" fill="#fff" stroke="#221e26" stroke-width="1"/>
      <g id="Group_28204" data-name="Group 28204" transform="translate(64 21.744)">
        <path id="Path_33484" data-name="Path 33484" d="M129.233,85.744a10.872,10.872,0,0,0-10.872-10.872H74.872A10.872,10.872,0,0,0,64,85.744V74.85A10.85,10.85,0,0,1,74.85,64h43.532c5.993,0,10.85,1.358,10.85,7.35Z" transform="translate(-64 -64)" fill="#e8e8e8"/>
        <path id="Path_33485" data-name="Path 33485" d="M129.233,181.744a10.872,10.872,0,0,0-10.872-10.872H74.872A10.872,10.872,0,0,0,64,181.744V170.85A10.85,10.85,0,0,1,74.85,160h43.532c5.993,0,10.85,1.358,10.85,7.35Z" transform="translate(-64 -127.383)" fill="#e8e8e8"/>
        <path id="Path_33486" data-name="Path 33486" d="M129.233,277.744a10.872,10.872,0,0,0-10.872-10.872H74.872A10.872,10.872,0,0,0,64,277.744V266.85A10.85,10.85,0,0,1,74.85,256h43.532c5.993,0,10.85,1.358,10.85,7.35Z" transform="translate(-64 -190.767)" fill="#e8e8e8"/>
        <path id="Path_33487" data-name="Path 33487" d="M129.233,373.744a10.872,10.872,0,0,0-10.872-10.872H74.872A10.872,10.872,0,0,0,64,373.744V362.85A10.85,10.85,0,0,1,74.85,352h43.532c5.993,0,10.85,1.358,10.85,7.35Z" transform="translate(-64 -254.15)" fill="#e8e8e8"/>
      </g>
      <path id="Path_33491" data-name="Path 33491" d="M118.361,416H74.872a10.872,10.872,0,1,0,0,21.744h43.489a10.872,10.872,0,1,0,0-21.744Z" transform="translate(0 -274.661)" fill="#c7c6c8"/>
      <path id="Path_33492" data-name="Path 33492" d="M152.423,469.744h-5.972a2.45,2.45,0,0,1-2.45-2.45V448h10.872v19.294A2.451,2.451,0,0,1,152.423,469.744Z" transform="translate(-52.82 -295.789)" fill="#908e92"/>
    </g>
    <g id="washing-machine" transform="translate(1478.467 222.006)">
      <g id="Group_28199" data-name="Group 28199" transform="translate(16.452 273.812)">
        <path id="Path_33450" data-name="Path 33450" d="M104.529,490.346a7.933,7.933,0,1,0,15.865,0V480.063H104.528C104.529,482.327,104.529,488.08,104.529,490.346Z" transform="translate(-104.528 -480.062)" fill="#606c7c"/>
        <path id="Path_33451" data-name="Path 33451" d="M379.691,480.062v10.283a7.933,7.933,0,1,0,15.865,0V480.062Z" transform="translate(-222.747 -480.062)" fill="#606c7c"/>
      </g>
      <path id="Path_33452" data-name="Path 33452" d="M263.79,0H93.54A17.868,17.868,0,0,0,75.725,17.815v251.3a7.072,7.072,0,0,0,7.051,7.051H274.34a7.072,7.072,0,0,0,7.051-7.051V17.6A17.654,17.654,0,0,0,263.79,0Z" transform="translate(-75.701 0)" fill="#fff" stroke="#221e26" stroke-width="1"/>
      <circle id="Ellipse_1398" data-name="Ellipse 1398" cx="58.6" cy="58.6" r="58.6" transform="translate(44.257 102.478)" fill="#fff"/>
      <path id="Path_33455" data-name="Path 33455" d="M75.725,455.369v9.384a7.072,7.072,0,0,0,7.051,7.051H274.34a7.072,7.072,0,0,0,7.051-7.051v-9.384Z" transform="translate(-75.701 -195.641)" fill="#908e92"/>
      <path id="Path_33456" data-name="Path 33456" d="M98.891,471.8a7.073,7.073,0,0,1-7.051-7.051v-9.384H75.707v4.113c.4,3.174-1.376,8.072,3.116,11.113a6.75,6.75,0,0,0,2.019.935C81.453,471.7,82.2,471.708,98.891,471.8Z" transform="translate(-75.683 -195.641)" fill="#34b3d1"/>
      <rect id="Rectangle_2953" data-name="Rectangle 2953" width="205.669" height="16.435" transform="translate(0.025 50.152)" fill="#c7c6c8"/>
      <path id="Path_33457" data-name="Path 33457" d="M258.257,249.241a7,7,0,0,1-3.882-1.176,58.645,58.645,0,1,1,0-43.394,7,7,0,0,1,3.882-1.176h12.55a74.511,74.511,0,1,0,0,45.746Z" transform="translate(-97.035 -65.243)" fill="#c7c6c8"/>
      <path id="Path_33459" data-name="Path 33459" d="M286.144,230.19a4.4,4.4,0,0,1-3.639-1.916A36.125,36.125,0,0,0,252.7,212.551a4.407,4.407,0,1,1,0-8.814,44.938,44.938,0,0,1,37.077,19.554,4.408,4.408,0,0,1-3.632,6.9Z" transform="translate(-149.841 -87.532)" fill="#e9e9e9"/>
      <path id="Path_33460" data-name="Path 33460" d="M212.126,345.033a58.739,58.739,0,0,0,54.482-36.948c.148.1.3.19.456.277a7.066,7.066,0,0,1-3.626-6.153V291.562c-12.754.061-12.79,11.75-25.611,11.75-12.854,0-12.854-11.752-25.709-11.752s-12.854,11.752-25.708,11.752-12.854-11.752-25.707-11.752A15.583,15.583,0,0,0,153.855,293,58.728,58.728,0,0,0,212.126,345.033Z" transform="translate(-109.268 -125.263)" fill="#5fbbe0"/>
      <path id="Path_33461" data-name="Path 33461" d="M212.126,345.033a58.739,58.739,0,0,0,54.482-36.948c.148.1.3.19.456.277a7.066,7.066,0,0,1-3.626-6.153V291.562c-12.754.061-12.79,11.75-25.611,11.75-12.854,0-12.854-11.752-25.709-11.752s-12.854,11.752-25.708,11.752-12.854-11.752-25.707-11.752A15.583,15.583,0,0,0,153.855,293,58.728,58.728,0,0,0,212.126,345.033Z" transform="translate(-109.268 -125.263)" fill="#23c2f2"/>
      <path id="Path_33463" data-name="Path 33463" d="M376.313,152.944H357.772a4.407,4.407,0,1,1,0-8.814h18.541a4.407,4.407,0,0,1,0,8.814Z" transform="translate(-194.984 -61.923)" fill="#fff" stroke="#221e26" stroke-width="1"/>
      <circle id="Ellipse_1399" data-name="Ellipse 1399" cx="8.217" cy="8.217" r="8.217" transform="translate(20.132 16.754)" fill="#ccc"/>
      <path id="Path_33465" data-name="Path 33465" d="M365.818,36.054H276.64a4.407,4.407,0,0,0,0,8.814h89.178V36.054Z" transform="translate(-160.127 -15.49)" fill="#ccc"/>
      <path id="SVGCleanerId_0" d="M367.92,288.137H353.034a7.072,7.072,0,0,1-7.052-7.051V249.442a7.072,7.072,0,0,1,7.052-7.051H367.92a7.072,7.072,0,0,1,7.052,7.051v31.643A7.073,7.073,0,0,1,367.92,288.137Z" transform="translate(-191.812 -104.139)" fill="#ccc"/>
      <g id="Group_28201" data-name="Group 28201" transform="translate(154.17 138.252)">
        <path id="SVGCleanerId_0_1_" d="M367.92,288.137H353.034a7.072,7.072,0,0,1-7.052-7.051V249.442a7.072,7.072,0,0,1,7.052-7.051H367.92a7.072,7.072,0,0,1,7.052,7.051v31.643A7.073,7.073,0,0,1,367.92,288.137Z" transform="translate(-345.982 -242.391)" fill="#ccc"/>
      </g>
      <g id="Group_28202" data-name="Group 28202" transform="translate(164.26 149.372)">
        <path id="Path_33467" data-name="Path 33467" d="M368.083,270.7a4.407,4.407,0,1,1-.006-8.814h.006a4.407,4.407,0,0,1,0,8.814Z" transform="translate(-363.673 -261.887)" fill="#fff"/>
        <path id="Path_33468" data-name="Path 33468" d="M368.083,296.458a4.407,4.407,0,1,1-.006-8.814h.006a4.407,4.407,0,0,1,0,8.814Z" transform="translate(-363.673 -272.953)" fill="#fff"/>
      </g>
      <circle id="Ellipse_1400" data-name="Ellipse 1400" cx="8.217" cy="8.217" r="8.217" transform="translate(51.605 16.754)" fill="#ccc"/>
      <circle id="Ellipse_1401" data-name="Ellipse 1401" cx="8.217" cy="8.217" r="8.217" transform="translate(83.078 16.754)" fill="#ccc"/>
    </g>
    <g id="salad_1_" data-name="salad (1)" transform="translate(1386.468 358.094)">
      <g id="Group_28190" data-name="Group 28190" transform="translate(0 0)">
        <g id="Group_28187" data-name="Group 28187" transform="translate(0 0.253)">
          <path id="Path_33405" data-name="Path 33405" d="M326.591,98.245a11.96,11.96,0,0,1,22.238,6.116,12.111,12.111,0,0,1-.085,1.407,16.082,16.082,0,0,1,4.341-.615,12.926,12.926,0,0,1,3.761.538c.029-.44.049-.882.049-1.329A20.027,20.027,0,0,0,320.78,92.435Z" transform="translate(-236.845 -58.902)" fill="#fcd770"/>
          <path id="Path_33406" data-name="Path 33406" d="M65.038,182.385l.414-.075-.2-.37a17.1,17.1,0,0,1-.888-1.918,11.959,11.959,0,1,1,10.449-19.986,10.783,10.783,0,0,1,2.875-5.3,10.448,10.448,0,0,1,1.78-1.427A20.027,20.027,0,1,0,57.521,186.3,13.109,13.109,0,0,1,65.038,182.385Z" transform="translate(-45.778 -103.286)" fill="#fcd770"/>
          <g id="Group_28167" data-name="Group 28167" transform="translate(62.677 20.199)">
            <path id="Path_33407" data-name="Path 33407" d="M261.778,105.663a6.623,6.623,0,0,1,2.876-.624,11.521,11.521,0,0,1,5.608,1.7l.4.228.056-.456c.978-7.948,5.183-13.717,10-13.717,3.489,0,6.7,2.976,8.6,7.961l.188.495.333-.412a22.283,22.283,0,0,1,1.509-1.685L259.8,67.608a1.575,1.575,0,0,0-2.3.082,26.2,26.2,0,0,0-4.6,27.141C256.865,95.236,260.329,99.536,261.778,105.663Z" transform="translate(-250.984 -67.15)" fill="#ff9595"/>
            <g id="Group_28166" data-name="Group 28166" transform="translate(7.92 15.447)">
              <g id="Group_28164" data-name="Group 28164" transform="translate(4.356 8.702)">
                <path id="Path_33409" data-name="Path 33409" d="M293.572,153.534a2.284,2.284,0,0,1-1.615-3.9l2.529-2.529a2.284,2.284,0,0,1,3.23,3.23l-2.529,2.529A2.277,2.277,0,0,1,293.572,153.534Z" transform="translate(-291.288 -146.437)" fill="#d25c5c"/>
              </g>
              <g id="Group_28165" data-name="Group 28165">
                <path id="Path_33410" data-name="Path 33410" d="M282.847,122.436h-3.576a2.284,2.284,0,1,1,0-4.569h3.576a2.284,2.284,0,1,1,0,4.569Z" transform="translate(-276.987 -117.867)" fill="#d25c5c"/>
              </g>
            </g>
          </g>
          <g id="Group_28174" data-name="Group 28174" transform="translate(19.967)">
            <g id="Group_28168" data-name="Group 28168" transform="translate(0)">
              <path id="Path_33411" data-name="Path 33411" d="M143.108,33.184a23.367,23.367,0,0,0,1.148-31.811,1.572,1.572,0,0,0-2.3-.082L111.215,32.034a1.572,1.572,0,0,0,.082,2.3A23.367,23.367,0,0,0,143.108,33.184Z" transform="translate(-110.756 -0.832)" fill="#ff9595"/>
            </g>
            <g id="Group_28173" data-name="Group 28173" transform="translate(13.454 14.091)">
              <g id="Group_28170" data-name="Group 28170" transform="translate(7.761 7.575)">
                <path id="Path_33413" data-name="Path 33413" d="M184.95,78.792a2.276,2.276,0,0,1-1.615-.669l-2.255-2.255a2.284,2.284,0,0,1,3.23-3.23l2.255,2.255a2.284,2.284,0,0,1-1.615,3.9Z" transform="translate(-180.41 -71.968)" fill="#d25c5c"/>
              </g>
              <g id="Group_28171" data-name="Group 28171" transform="translate(0 10.525)">
                <path id="Path_33414" data-name="Path 33414" d="M157.211,89.414a2.284,2.284,0,0,1-2.284-2.284V83.94a2.284,2.284,0,1,1,4.569,0V87.13A2.284,2.284,0,0,1,157.211,89.414Z" transform="translate(-154.927 -81.656)" fill="#d25c5c"/>
              </g>
              <g id="Group_28172" data-name="Group 28172" transform="translate(11.163)">
                <path id="Path_33415" data-name="Path 33415" d="M197.053,51.667h-3.189a2.284,2.284,0,1,1,0-4.569h3.189a2.284,2.284,0,1,1,0,4.569Z" transform="translate(-191.579 -47.098)" fill="#d25c5c"/>
              </g>
            </g>
          </g>
          <path id="Path_33416" data-name="Path 33416" d="M103.078,238.04a19.688,19.688,0,0,1,.478-4.3c-5.49-1.741-9.138-5.179-9.138-9.009,0-3.488,2.975-6.7,7.958-8.6l.494-.188-.41-.333a22.163,22.163,0,0,1-1.7-1.529A19.742,19.742,0,0,1,95,202.995a9.634,9.634,0,0,0-8.018,1.517c-4.206,3.2-4.76,9.749-1.639,15.519-5.276.951-9.346,4.312-9.957,8.8-.5,3.686,1.454,7.267,4.849,9.718H103.09C103.086,238.376,103.078,238.209,103.078,238.04Z" transform="translate(-66.135 -141.232)" fill="#80d261"/>
          <g id="Group_28178" data-name="Group 28178" transform="translate(27.977 47.541)">
            <g id="Group_28175" data-name="Group 28175">
              <path id="Path_33417" data-name="Path 33417" d="M215.413,291.183c.026-.032.056-.064.082-.1,0-.136.01-.271.01-.408a12.265,12.265,0,0,0-24.53,0c0,.169.009.336.016.5Z" transform="translate(-174.553 -241.411)" fill="#017b4e"/>
              <path id="Path_33418" data-name="Path 33418" d="M165.742,186.468a19.718,19.718,0,0,1,16.463,8.879,26.033,26.033,0,0,1,.354-5.91c-.23-.361-.456-.728-.673-1.1A24.126,24.126,0,0,1,178.4,176.22c.063-3.748,1.384-6.555,3.72-7.9a6.087,6.087,0,0,1,.711-.35c-1.546-6.47-5.338-11.044-9.771-11.044-3.74,0-7.021,3.256-8.885,8.158a22.352,22.352,0,0,0-1.572-1.751c-6.778-6.778-16.553-7.993-21.832-2.714s-4.064,15.054,2.714,21.832a22.342,22.342,0,0,0,1.724,1.55c-4.9,1.864-8.154,5.145-8.154,8.883,0,4.041,3.8,7.547,9.374,9.307A19.756,19.756,0,0,1,165.742,186.468Z" transform="translate(-137.055 -156.923)" fill="#017b4e"/>
            </g>
            <g id="Group_28176" data-name="Group 28176" transform="translate(0 0.412)">
              <path id="Path_33419" data-name="Path 33419" d="M197.455,304.652a23.615,23.615,0,0,1-4.525-1.364,11.929,11.929,0,0,0-.954,4.885l0,0h6.1a12.6,12.6,0,0,1,.5-1.429A1.53,1.53,0,0,0,197.455,304.652Z" transform="translate(-175.248 -259.121)" fill="#026841"/>
            </g>
            <g id="Group_28177" data-name="Group 28177" transform="translate(17.009 16.986)">
              <path id="Path_33421" data-name="Path 33421" d="M202.359,225.38a19.512,19.512,0,0,1,6.9.436L196.8,213.361a2.284,2.284,0,0,0-3.23,3.23Z" transform="translate(-192.902 -212.692)" fill="#026841"/>
            </g>
          </g>
          <g id="Group_28180" data-name="Group 28180" transform="translate(69.015 45.538)">
            <path id="Path_33422" data-name="Path 33422" d="M323.033,177.422a22.469,22.469,0,0,0,1.724-1.55c6.778-6.778,7.993-16.553,2.714-21.832s-15.054-4.064-21.832,2.714a22.411,22.411,0,0,0-1.572,1.751c-1.864-4.9-5.145-8.158-8.885-8.158-5.079,0-9.317,6-10.3,13.984-3.3-1.9-6.647-2.335-9.217-.851-5.029,2.9-5.183,12.052-.344,20.433.276.478.566.938.861,1.39a25.56,25.56,0,0,1,6-12.853,1.38,1.38,0,0,1,1.039-.473,1.359,1.359,0,0,1,.967.4l29.743,29.743h4.984a12.012,12.012,0,0,0-1.745-5.513c8-.974,14.018-5.217,14.018-10.3,0-3.739-3.255-7.019-8.154-8.883Z" transform="translate(-271.793 -150.348)" fill="#68ca44"/>
            <g id="Group_28179" data-name="Group 28179" transform="translate(23.467 16.985)">
              <path id="Path_33423" data-name="Path 33423" d="M367.093,206.785a2.284,2.284,0,0,0-3.23,0L348.844,221.8l3.23,3.23,15.019-15.019A2.284,2.284,0,0,0,367.093,206.785Z" transform="translate(-348.844 -206.116)" fill="#80d261"/>
            </g>
          </g>
          <g id="Group_28181" data-name="Group 28181" transform="translate(72.758 66.864)">
            <path id="Path_33424" data-name="Path 33424" d="M287.714,250.311c0,.045,0,.09,0,.134l-.011.37h35.209l-29.959-29.959a1.678,1.678,0,0,0-2.451.087,26.017,26.017,0,0,0-6.4,18.009,19.608,19.608,0,0,1,3.614,11.359Z" transform="translate(-284.085 -220.366)" fill="#fff"/>
            <path id="Path_33425" data-name="Path 33425" d="M332.962,268.993h10.582a13.742,13.742,0,0,0,4.46-2.985l-19.5-19.5a13.793,13.793,0,0,0,4.46,22.487Z" transform="translate(-312.165 -238.545)" fill="#fcd770"/>
          </g>
          <g id="Group_28182" data-name="Group 28182" transform="translate(36.638 76.781)">
            <path id="Path_33427" data-name="Path 33427" d="M173.569,273.459c-.007-.167-.013-.335-.013-.5a11.96,11.96,0,1,1,23.92,0c0,.169-.006.337-.013.5h8.067c0-.168.013-.335.013-.5a20.027,20.027,0,1,0-40.054,0c0,.169.009.336.013.5Z" transform="translate(-165.489 -252.928)" fill="#fcd770"/>
          </g>
          <g id="Group_28183" data-name="Group 28183" transform="translate(0 97.007)">
            <path id="Path_33428" data-name="Path 33428" d="M85.917,378.017h44.57a4.644,4.644,0,0,0,1.774-.345A63.117,63.117,0,0,0,171.2,322.61a3.13,3.13,0,0,0-3.135-3.273H48.336A3.13,3.13,0,0,0,45.2,322.61a63.117,63.117,0,0,0,38.943,55.062A4.644,4.644,0,0,0,85.917,378.017Z" transform="translate(-45.197 -319.337)" fill="#fff" stroke="#221e26" stroke-width="1"/>
          </g>
        </g>
        <g id="Group_28188" data-name="Group 28188" transform="translate(85.194)">
          <path id="Path_33432" data-name="Path 33432" d="M342.337,14.393a1.569,1.569,0,0,0,1.152-1.718A14.737,14.737,0,0,0,330.827.013a1.569,1.569,0,0,0-1.718,1.152L324.971,16.61a1.569,1.569,0,0,0,1.921,1.921Z" transform="translate(-324.916 0.001)" fill="#fcd770"/>
        </g>
      </g>
    </g>
    <g id="Flat" transform="translate(1296.956 436.064)">
      <g id="Group_28198" data-name="Group 28198" transform="translate(0.393 0)">
        <g id="Group_28195" data-name="Group 28195" transform="translate(17.195)">
          <g id="Group_28194" data-name="Group 28194" transform="translate(17.482)">
            <path id="Path_33434" data-name="Path 33434" d="M269.99,142.724h-1.681V136H238.724v6.724h-1.681A5.043,5.043,0,0,0,232,147.767v40.679a6.724,6.724,0,0,0,6.724,6.724h29.585a6.724,6.724,0,0,0,6.724-6.724V147.767A5.043,5.043,0,0,0,269.99,142.724Z" transform="translate(-232 -117.173)" fill="#fff" stroke="#221e26" stroke-width="1"/>
            <path id="Path_33435" data-name="Path 33435" d="M232,248h43.033v32.274H232Z" transform="translate(-232 -210.347)" fill="#c7c6c8"/>
            <g id="Group_28192" data-name="Group 28192" transform="translate(2.69)">
              <path id="Path_33437" data-name="Path 33437" d="M251.362,24h30.93a3.362,3.362,0,0,1,3.362,3.362V41.146a1.681,1.681,0,0,1-1.681,1.681H249.681A1.681,1.681,0,0,1,248,41.146V27.362A3.362,3.362,0,0,1,251.362,24Z" transform="translate(-248 -24)" fill="#c7c6c8"/>
              <g id="Group_28191" data-name="Group 28191" transform="translate(4.034 4.034)">
                <path id="Path_33438" data-name="Path 33438" d="M272,48h2.69V58.758H272Z" transform="translate(-272 -48)" fill="#fff"/>
                <path id="Path_33439" data-name="Path 33439" d="M304,48h2.69V58.758H304Z" transform="translate(-298.621 -48)" fill="#fff"/>
                <path id="Path_33440" data-name="Path 33440" d="M336,48h2.69V58.758H336Z" transform="translate(-325.242 -48)" fill="#fff"/>
                <path id="Path_33441" data-name="Path 33441" d="M368,48h2.69V58.758H368Z" transform="translate(-351.863 -48)" fill="#fff"/>
                <path id="Path_33442" data-name="Path 33442" d="M400,48h2.69V58.758H400Z" transform="translate(-378.484 -48)" fill="#fff"/>
                <path id="Path_33443" data-name="Path 33443" d="M432,48h2.69V58.758H432Z" transform="translate(-405.105 -48)" fill="#fff"/>
              </g>
            </g>
          </g>
        </g>
        <g id="Group_28196" data-name="Group 28196" transform="translate(17.497 34.994)">
          <rect id="Rectangle_2952" data-name="Rectangle 2952" width="24.058" height="43.013" rx="12.029" transform="translate(0 0)" fill="#23c2f2"/>
          <path id="Path_33447" data-name="Path 33447" d="M184,352h14.792v5.379h-12.1Z" transform="translate(-174.888 -331.858)" fill="#fff9f8"/>
        </g>
        <g id="Group_28197" data-name="Group 28197" transform="translate(0 48.117)">
          <ellipse id="Ellipse_1397" data-name="Ellipse 1397" cx="14.581" cy="14.945" rx="14.581" ry="14.945" transform="translate(0 0)" fill="#a7cf45"/>
          <path id="Path_33449" data-name="Path 33449" d="M39.493,331.3l20.573,20.573a14.875,14.875,0,0,0,3.8-3.8L43.3,327.492a14.876,14.876,0,0,0-3.8,3.8Z" transform="translate(-37.175 -324.593)" fill="#fff"/>
        </g>
      </g>
    </g>
  </g>
</svg>
