<svg xmlns="http://www.w3.org/2000/svg" xmlns:xlink="http://www.w3.org/1999/xlink" width="536" height="430" viewBox="0 0 536 430">
  <defs>
    <clipPath id="clip-path">
      <rect id="Rectangle_2768" data-name="Rectangle 2768" width="536" height="430" transform="translate(1217.467 84.034)" fill="#fff" stroke="#707070" stroke-width="1"/>
    </clipPath>
  </defs>
  <g id="Mask_Group_31" data-name="Mask Group 31" transform="translate(-1217.467 -84.034)" clip-path="url(#clip-path)">
    <circle id="Ellipse_1293" data-name="Ellipse 1293" cx="266.5" cy="266.5" r="266.5" transform="translate(1219.467 109.034)" fill="rgba(255,255,255,0.5)"/>
    <g id="_42127_Converted_" data-name="42127 [Converted]" transform="translate(1196.007 168.691)">
      <g id="Group_26533" data-name="Group 26533" transform="translate(180.046 22.015)">
        <g id="Group_26527" data-name="Group 26527" transform="translate(0.339)">
          <g id="Group_26525" data-name="Group 26525" transform="translate(16.87)">
            <g id="Group_26524" data-name="Group 26524" transform="translate(1.701)">
              <path id="Path_32247" data-name="Path 32247" d="M203.631,49.277a22.819,22.819,0,1,1-17.944-26.823A22.821,22.821,0,0,1,203.631,49.277Z" transform="translate(-158.425 -22.015)" fill="#221e26"/>
            </g>
            <path id="Path_32249" data-name="Path 32249" d="M206.242,45a3.317,3.317,0,0,1-3.906,2.609l-42.417-8.417a3.317,3.317,0,0,1-2.609-3.906h0a3.317,3.317,0,0,1,3.906-2.609L203.633,41.1A3.339,3.339,0,0,1,206.242,45Z" transform="translate(-157.245 -17.337)" fill="#ff9595"/>
          </g>
          <path id="Path_32250" data-name="Path 32250" d="M163.648,158.279l-12.208-2.421L162.927,73.43,184.5,77.711Z" transform="translate(-142.937 0.674)" fill="#221e26"/>
          <path id="Path_32251" data-name="Path 32251" d="M209.461,86.012a9.09,9.09,0,0,1-10.68,7.149l-45.92-9.123a9.09,9.09,0,0,1-7.149-10.68l3.243-16.315a9.1,9.1,0,0,1,10.68-7.149l45.92,9.123A9.1,9.1,0,0,1,212.7,69.7Z" transform="translate(-145.54 -9.789)" fill="#ff9595"/>
          <g id="Group_26526" data-name="Group 26526" transform="translate(4.728 47.859)">
            <path id="Path_32252" data-name="Path 32252" d="M163.122,73.694a1.514,1.514,0,0,1-1.787,1.2h0a1.514,1.514,0,0,1-1.2-1.787l2.868-14.427a1.514,1.514,0,0,1,1.787-1.2h0a1.525,1.525,0,0,1,1.2,1.787Z" transform="translate(-143.839 -54.238)" fill="#fff"/>
            <path id="Path_32253" data-name="Path 32253" d="M181.807,61.123a1.524,1.524,0,0,0-2.1.476l-6.025,10-1.758-11.545a1.528,1.528,0,0,0-3.012.519l2.364,15.508a1.62,1.62,0,0,0,2.9.577l8.1-13.433A1.531,1.531,0,0,0,181.807,61.123Z" transform="translate(-139.967 -53.644)" fill="#fff"/>
            <path id="Path_32254" data-name="Path 32254" d="M190.923,73.275a1.528,1.528,0,0,0,.591-3l-9.585-1.9.836-4.223,9.585,1.9a1.521,1.521,0,1,0,.591-2.983l-11.084-2.205a1.355,1.355,0,0,0-.418,0,1.5,1.5,0,0,0-1.369,1.2L177.2,76.489h0a1.735,1.735,0,0,0,0,.274,1.487,1.487,0,0,0,.922,1.412,1.562,1.562,0,0,0,.274.115L189.482,80.5a1.521,1.521,0,0,0,.591-2.983l-9.585-1.9.836-4.223Z" transform="translate(-136.299 -52.737)" fill="#fff"/>
            <path id="Path_32255" data-name="Path 32255" d="M161.719,71.867l-9.585-1.9L154.7,57.036a1.521,1.521,0,0,0-2.984-.591l-2.868,14.427a1.525,1.525,0,0,0,1.2,1.787h0l11.084,2.205a1.528,1.528,0,0,0,.591-3Z" transform="translate(-148.821 -55.221)" fill="#fff"/>
          </g>
        </g>
        <g id="Group_26532" data-name="Group 26532" transform="translate(0 82.406)">
          <g id="Group_26530" data-name="Group 26530">
            <g id="Group_26529" data-name="Group 26529">
              <g id="Group_26528" data-name="Group 26528">
                <path id="Path_32256" data-name="Path 32256" d="M149.477,108.232a5.083,5.083,0,1,1,4.367-9.181l.735.346a.133.133,0,0,0,.173-.058.142.142,0,0,0-.058-.187,5.08,5.08,0,1,1,4.382-9.167l22.744,10.882a.158.158,0,0,0,.115,0,.148.148,0,0,0,.072-.086,52.608,52.608,0,0,0,1.7-9.138,23.608,23.608,0,0,1,2-8.1,7.518,7.518,0,0,1,10.19-3.6,2.352,2.352,0,0,1,1.355,1.3c.317.908-.086,1.917-1.023,3.848l-.259.519c-1.8,3.762-1.009,9.686-.259,15.407.577,4.4,6.1,37.113,6.1,37.113l-19.2,3.286a.158.158,0,0,0-.187.058,5.073,5.073,0,0,1-6.774,2.393l-27.457-13.116a5.09,5.09,0,0,1-2.393-6.774c1.283-2.666,3.819-3.733,6.2-2.609a.148.148,0,0,0,.187-.072.139.139,0,0,0-.058-.173l-3.286-1.629a5.093,5.093,0,0,1-2.421-6.788c1.312-2.753,3.7-3.791,6.1-2.652a.139.139,0,0,0,.173-.058.122.122,0,0,0-.058-.173Z" transform="translate(-145.305 -79.19)" fill="#ffbe9d"/>
              </g>
              <path id="Path_32257" data-name="Path 32257" d="M245.893,272.281l-55.475-157.4a24.281,24.281,0,0,0-30.988-14.831l63.561,180.306Z" transform="translate(-139.072 -70.601)" fill="#ffbe9d"/>
            </g>
            <path id="Path_32258" data-name="Path 32258" d="M224.44,303.937h40.313L199.737,119.48a2.109,2.109,0,0,0-2.7-1.283L165.16,129.439a2.109,2.109,0,0,0-1.283,2.7Z" transform="translate(-137.163 -62.03)" fill="#fff" stroke="#221e26" stroke-width="1"/>
          </g>
          <g id="Group_26531" data-name="Group 26531" transform="translate(32.867 72.609)">
            <path id="Path_32259" data-name="Path 32259" d="M171.195,130.637a1.586,1.586,0,1,1-2.018-.98A1.581,1.581,0,0,1,171.195,130.637Z" transform="translate(-168.109 -129.568)" fill="#a7cf45"/>
            <path id="Path_32260" data-name="Path 32260" d="M172.885,135.447a1.586,1.586,0,1,1-2.018-.98A1.581,1.581,0,0,1,172.885,135.447Z" transform="translate(-167.363 -127.445)" fill="#a7cf45"/>
            <path id="Path_32261" data-name="Path 32261" d="M174.585,140.257a1.586,1.586,0,1,1-2.018-.98A1.581,1.581,0,0,1,174.585,140.257Z" transform="translate(-166.613 -125.322)" fill="#a7cf45"/>
          </g>
        </g>
      </g>
      <g id="Group_26545" data-name="Group 26545" transform="translate(181.513 197.481)">
        <g id="Group_26541" data-name="Group 26541" transform="translate(1.028)">
          <path id="Path_32262" data-name="Path 32262" d="M172.753,174.792a3.925,3.925,0,0,1-2.782,4.8l-8.821,2.349a3.925,3.925,0,0,1-4.8-2.782l-7.48-28.12a3.925,3.925,0,0,1,2.782-4.8l8.821-2.349a3.925,3.925,0,0,1,4.8,2.782Z" transform="translate(-146.286 -143.757)" fill="#22353d"/>
          <path id="Path_32263" data-name="Path 32263" d="M181.964,190.779a5.7,5.7,0,0,1-4.05,6.976l-12.828,3.416a5.7,5.7,0,0,1-6.976-4.036l-10.882-40.9a5.7,5.7,0,0,1,4.05-6.976l12.828-3.416a5.7,5.7,0,0,1,6.976,4.05Z" transform="translate(-147.036 -142.923)" fill="#b8c7d8"/>
          <rect id="Rectangle_2898" data-name="Rectangle 2898" width="16.272" height="18.852" transform="translate(4.068 11.499) rotate(-14.898)" fill="#fff"/>
          <g id="Group_26536" data-name="Group 26536" transform="translate(11.787 30.783)">
            <path id="Path_32264" data-name="Path 32264" d="M169.882,170.98a7.211,7.211,0,1,1-8.821-5.117A7.211,7.211,0,0,1,169.882,170.98Z" transform="translate(-155 -164.89)" fill="#fff"/>
            <path id="Path_32265" data-name="Path 32265" d="M159.42,165.875l3.7,13.937a7.211,7.211,0,0,0-3.7-13.937Z" transform="translate(-153.359 -164.887)" fill="#b8c7d8"/>
            <g id="Group_26535" data-name="Group 26535">
              <path id="Path_32266" data-name="Path 32266" d="M170.63,170.369a7.948,7.948,0,0,0-8.864-5.131l-.014-.029-.649.173-.649.173.014.029a7.939,7.939,0,0,0-5.131,8.85l-.029.014.173.649.173.649.029-.014a7.939,7.939,0,0,0,8.85,5.131l.014.043.649-.173.649-.173-.014-.029a7.939,7.939,0,0,0,5.131-8.85l.029-.014-.173-.649-.173-.649Zm-1.312.346-5.693,1.513-1.513-5.693A6.61,6.61,0,0,1,169.318,170.715Zm-8.5-3.834,1.513,5.693-5.693,1.513A6.629,6.629,0,0,1,160.815,166.881Zm-3.834,8.518,5.693-1.513,1.513,5.693A6.629,6.629,0,0,1,156.981,175.4Zm8.518,3.834-1.513-5.693,5.693-1.513A6.629,6.629,0,0,1,165.5,179.233Z" transform="translate(-155.215 -165.115)" fill="#22353d"/>
              <g id="Group_26534" data-name="Group 26534" transform="translate(4.474 4.489)">
                <path id="Path_32267" data-name="Path 32267" d="M159.863,172.148a1.987,1.987,0,0,1,1.412-2.421l-.389-1.427a3.461,3.461,0,1,0,1.787,6.688l-.375-1.427A1.984,1.984,0,0,1,159.863,172.148Z" transform="translate(-158.319 -168.198)" fill="#b8c7d8"/>
                <path id="Path_32268" data-name="Path 32268" d="M159.41,171.711a1.987,1.987,0,0,0,2.421,1.412l-1.023-3.834A1.99,1.99,0,0,0,159.41,171.711Z" transform="translate(-157.866 -167.761)" fill="#fff"/>
                <path id="Path_32269" data-name="Path 32269" d="M164.337,170.8a3.465,3.465,0,0,0-4.237-2.45l.389,1.427a1.984,1.984,0,0,1,1.023,3.834l.375,1.427A3.46,3.46,0,0,0,164.337,170.8Z" transform="translate(-157.533 -168.229)" fill="#fff"/>
                <path id="Path_32270" data-name="Path 32270" d="M162.791,170.719a1.972,1.972,0,0,0-2.421-1.4l1.023,3.834A1.994,1.994,0,0,0,162.791,170.719Z" transform="translate(-157.414 -167.778)" fill="#b8c7d8"/>
              </g>
            </g>
          </g>
          <g id="Group_26540" data-name="Group 26540" transform="translate(13.604 45.586)">
            <path id="Path_32271" data-name="Path 32271" d="M171.947,175.45a1.956,1.956,0,0,1,2.393,1.384l.591,2.191a1.969,1.969,0,0,1-1.384,2.393l-14.024,3.733a1.962,1.962,0,0,1-2.393-1.384l-.591-2.191a1.962,1.962,0,0,1,1.384-2.393Z" transform="translate(-156.475 -175.385)" fill="#b8c7d8"/>
            <g id="Group_26537" data-name="Group 26537" transform="translate(0.564 0.578)">
              <path id="Path_32272" data-name="Path 32272" d="M157.895,179.553a1.387,1.387,0,0,0-.98,1.7l.577,2.191a1.378,1.378,0,0,0,1.686.98l14.024-3.733a1.378,1.378,0,0,0,.98-1.686l-.591-2.191a1.387,1.387,0,0,0-1.7-.98Z" transform="translate(-156.866 -175.786)" fill="#fff"/>
            </g>
            <g id="Group_26539" data-name="Group 26539" transform="translate(1.645 1.504)">
              <path id="Path_32273" data-name="Path 32273" d="M160.418,180a1.425,1.425,0,1,1-1.744-1.009A1.421,1.421,0,0,1,160.418,180Z" transform="translate(-157.616 -175.318)" fill="#cc330a"/>
              <path id="Path_32274" data-name="Path 32274" d="M160.28,178.46l.735,2.767,2.335-2.1Z" transform="translate(-156.441 -175.532)" fill="#cc330a"/>
              <rect id="Rectangle_2899" data-name="Rectangle 2899" width="2.854" height="2.854" transform="translate(7.958 1.826) rotate(-14.91)" fill="#cc330a"/>
              <g id="Group_26538" data-name="Group 26538" transform="translate(12.15 0)">
                <rect id="Rectangle_2900" data-name="Rectangle 2900" width="0.706" height="2.854" transform="translate(0 0.74) rotate(-14.725)" fill="#cc330a"/>
                <rect id="Rectangle_2901" data-name="Rectangle 2901" width="0.706" height="2.854" transform="matrix(0.966, -0.258, 0.258, 0.966, 1.974, 0.182)" fill="#cc330a"/>
              </g>
            </g>
          </g>
        </g>
        <g id="Group_26544" data-name="Group 26544" transform="translate(0 25.141)">
          <g id="Group_26543" data-name="Group 26543">
            <g id="Group_26542" data-name="Group 26542">
              <path id="Path_32275" data-name="Path 32275" d="M150.945,203.776a5.088,5.088,0,1,1,.937-10.132l.807.072a.131.131,0,0,0,.144-.115.122.122,0,0,0-.115-.144,5.082,5.082,0,0,1,.966-10.118l25.093,2.393a.23.23,0,0,0,.115-.043.122.122,0,0,0,.029-.1,52.19,52.19,0,0,0-1.542-9.167,23.549,23.549,0,0,1-.908-8.3,7.517,7.517,0,0,1,8.331-6.889,2.4,2.4,0,0,1,1.73.749c.605.749.577,1.83.36,3.964l-.058.577c-.389,4.151,2.378,9.44,5.059,14.557,2.061,3.935,18.492,32.761,18.492,32.761l-16.892,9.7a.122.122,0,0,0-.144.115,5.087,5.087,0,0,1-5.535,4.583l-30.282-2.883a5.081,5.081,0,0,1-4.569-5.549c.288-2.955,2.306-4.828,4.915-4.583a.142.142,0,0,0,.144-.13.129.129,0,0,0-.115-.144l-3.646-.4a5.092,5.092,0,0,1-4.6-5.549c.288-3.027,2.176-4.828,4.814-4.583a.14.14,0,0,0,.144-.115.131.131,0,0,0-.115-.144Z" transform="translate(-146.323 -161.2)" fill="#ffbe9d"/>
            </g>
            <path id="Path_32276" data-name="Path 32276" d="M262.92,275.157l-68.548-83.033a24.29,24.29,0,0,0-34.2-3.272l71.243,86.3Z" transform="translate(-140.212 -151.451)" fill="#ffbe9d"/>
          </g>
          <path id="Path_32277" data-name="Path 32277" d="M215.718,270.088h49.307L203.5,195.544a2.12,2.12,0,0,0-2.969-.288l-26.073,21.519a2.119,2.119,0,0,0-.288,2.969Z" transform="translate(-134.246 -146.381)" fill="#fff" stroke="#221e26" stroke-width="1"/>
          <path id="Path_32278" data-name="Path 32278" d="M181.549,213.728a1.593,1.593,0,1,1-.346-2.234A1.587,1.587,0,0,1,181.549,213.728Z" transform="translate(-132.045 -139.14)" fill="#a7cf45"/>
        </g>
      </g>
      <g id="Group_26557" data-name="Group 26557" transform="translate(66.581 150.422)">
        <g id="Group_26552" data-name="Group 26552" transform="translate(0 0)">
          <g id="Group_26551" data-name="Group 26551">
            <g id="Group_26550" data-name="Group 26550">
              <g id="Group_26546" data-name="Group 26546">
                <path id="Path_32279" data-name="Path 32279" d="M113.94,127.96a24.258,24.258,0,1,1-30.512-15.681A24.259,24.259,0,0,1,113.94,127.96Z" transform="translate(-66.581 -111.107)" fill="#221e26"/>
              </g>
              <path id="Path_32281" data-name="Path 32281" d="M133.351,252.406l-12.6,4.05L88.93,173.9,111.2,166.75Z" transform="translate(-56.719 -86.551)" fill="#221e26"/>
              <path id="Path_32282" data-name="Path 32282" d="M131.713,176.37a9.66,9.66,0,0,1-6.241,12.15l-29.921,9.613a9.66,9.66,0,0,1-12.15-6.241l-9.6-29.921a9.66,9.66,0,0,1,6.241-12.15l29.921-9.6a9.66,9.66,0,0,1,12.15,6.241Z" transform="translate(-63.6 -98.463)" fill="#23c2f2"/>
              <g id="Group_26549" data-name="Group 26549" transform="translate(16.297 53.085)">
                <g id="Group_26547" data-name="Group 26547" transform="translate(0 6.53)">
                  <path id="Path_32283" data-name="Path 32283" d="M93.546,175.222a2.134,2.134,0,0,1-1.369,2.681h0a2.119,2.119,0,0,1-2.681-1.384l-6.284-19.587a2.119,2.119,0,0,1,1.384-2.681h0a2.121,2.121,0,0,1,2.666,1.384Z" transform="translate(-75.586 -151.727)" fill="#fff"/>
                  <path id="Path_32284" data-name="Path 32284" d="M80.658,161.45a2.118,2.118,0,0,1-2.666-1.369h0a2.134,2.134,0,0,1,1.369-2.681l15.047-4.828a2.121,2.121,0,0,1,2.666,1.384h0a2.134,2.134,0,0,1-1.369,2.681Z" transform="translate(-77.889 -152.469)" fill="#fff"/>
                </g>
                <g id="Group_26548" data-name="Group 26548" transform="translate(20.46)">
                  <path id="Path_32285" data-name="Path 32285" d="M109.273,169.376a2.129,2.129,0,0,1-.317,3h0a2.132,2.132,0,0,1-3-.317L92.554,154.7a2.142,2.142,0,0,1,.317-3h0a2.13,2.13,0,0,1,3,.317Z" transform="translate(-92.084 -146.485)" fill="#fff"/>
                  <path id="Path_32286" data-name="Path 32286" d="M101.741,171.881a2.12,2.12,0,0,0,2,2.248h0a2.138,2.138,0,0,0,2.248-2l.793-21.922a2.13,2.13,0,0,0-1.989-2.263h0a2.12,2.12,0,0,0-2.248,2Z" transform="translate(-87.824 -147.938)" fill="#fff"/>
                </g>
              </g>
            </g>
          </g>
        </g>
        <g id="Group_26555" data-name="Group 26555" transform="translate(37.08 88.973)">
          <g id="Group_26554" data-name="Group 26554">
            <g id="Group_26553" data-name="Group 26553">
              <path id="Path_32287" data-name="Path 32287" d="M99.258,222.839A5.085,5.085,0,1,1,97.5,212.822l.807-.144a.133.133,0,0,0-.058-.259,5.083,5.083,0,0,1-1.73-10.017l24.848-4.281a.183.183,0,0,0,.1-.058.281.281,0,0,0,.014-.115,54.778,54.778,0,0,0-3.891-8.446,23.858,23.858,0,0,1-3.056-7.769,7.513,7.513,0,0,1,6.241-8.835,2.381,2.381,0,0,1,1.859.274c.793.562,1.038,1.614,1.384,3.733l.086.577c.706,4.108,4.771,8.489,8.705,12.712,3.012,3.257,26.433,26.765,26.433,26.765L145.48,230.738a.143.143,0,0,0-.115.159,5.08,5.08,0,0,1-4.137,5.866l-29.979,5.174a5.087,5.087,0,0,1-5.866-4.151c-.5-2.926.966-5.261,3.546-5.708a.133.133,0,0,0,.1-.159.119.119,0,0,0-.144-.1l-3.618.562a5.1,5.1,0,0,1-5.895-4.137c-.519-3.012.836-5.232,3.445-5.693a.119.119,0,0,0,.1-.144.137.137,0,0,0-.144-.115Z" transform="translate(-92.308 -172.838)" fill="#ffbe9d"/>
            </g>
            <path id="Path_32288" data-name="Path 32288" d="M241.874,270.371,140.306,198.594a24.283,24.283,0,0,0-33.856,5.823l93.338,65.968h42.086Z" transform="translate(-86.068 -163.438)" fill="#ffbe9d"/>
          </g>
          <path id="Path_32289" data-name="Path 32289" d="M244.152,267.826l-95.558-67.539a2.119,2.119,0,0,0-2.94.5l-19.515,27.615a2.106,2.106,0,0,0,.5,2.94l51.627,36.494h65.882Z" transform="translate(-77.551 -160.894)" fill="#fff" stroke="#221e26" stroke-width="1"/>
        </g>
        <g id="Group_26556" data-name="Group 26556" transform="translate(93.259 156.704)">
          <path id="Path_32290" data-name="Path 32290" d="M133.8,220.132a1.586,1.586,0,0,1-1.845,2.58,1.586,1.586,0,1,1,1.845-2.58Z" transform="translate(-131.286 -219.831)" fill="#a7cf45"/>
          <path id="Path_32291" data-name="Path 32291" d="M137.96,223.07a1.586,1.586,0,0,1-1.845,2.58,1.586,1.586,0,1,1,1.845-2.58Z" transform="translate(-129.45 -218.532)" fill="#a7cf45"/>
          <path id="Path_32292" data-name="Path 32292" d="M142.13,226.022a1.586,1.586,0,0,1-1.845,2.58,1.586,1.586,0,1,1,1.845-2.58Z" transform="translate(-127.61 -217.232)" fill="#a7cf45"/>
        </g>
      </g>
      <g id="Group_26568" data-name="Group 26568" transform="translate(306.022 114.524)">
        <g id="Group_26563" data-name="Group 26563" transform="translate(75.019)">
          <rect id="Rectangle_2902" data-name="Rectangle 2902" width="9.181" height="3.834" transform="translate(35.009 40.659)" fill="#908e92"/>
          <g id="Group_26559" data-name="Group 26559" transform="translate(0 43.152)">
            <path id="Path_32293" data-name="Path 32293" d="M343.565,122.511c-1.528,0-2.71-1.3-3.358-2.681a6.326,6.326,0,0,0-5.751-3.675L313.3,116.14a6.338,6.338,0,0,0-5.751,3.661c-.649,1.384-1.83,2.681-3.373,2.681h-9.657a9.746,9.746,0,0,0-9.743,9.729l-.014,42.936a9.737,9.737,0,0,0,9.729,9.743l59.569.014a9.737,9.737,0,0,0,9.743-9.729l.014-42.936a9.737,9.737,0,0,0-9.729-9.743Z" transform="translate(-284.76 -116.14)" fill="#221e26"/>
            <path id="Path_32296" data-name="Path 32296" d="M324.281,169.282a20.726,20.726,0,1,1,20.726-20.726A20.711,20.711,0,0,1,324.281,169.282Z" transform="translate(-276.459 -110.981)" fill="#908e92"/>
            <path id="Path_32297" data-name="Path 32297" d="M317.365,120.423a1.372,1.372,0,0,1-1.384,1.369h-6.068a1.381,1.381,0,0,1-1.384-1.369v-.533a1.372,1.372,0,0,1,1.384-1.369h6.068a1.381,1.381,0,0,1,1.384,1.369Z" transform="translate(-274.27 -115.09)" fill="#fff"/>
            <g id="Group_26558" data-name="Group 26558" transform="translate(29.475 19.169)">
              <path id="Path_32298" data-name="Path 32298" d="M323.7,166.438a18.5,18.5,0,1,1,18.506-18.492A18.515,18.515,0,0,1,323.7,166.438Z" transform="translate(-305.21 -129.44)" fill="#23c2f2"/>
            </g>
            <path id="Path_32299" data-name="Path 32299" d="M323.716,129.44a18.5,18.5,0,1,0,18.492,18.506A18.524,18.524,0,0,0,323.716,129.44Zm-.014,32.5a14,14,0,1,1,14.009-13.995A14.012,14.012,0,0,1,323.7,161.941Z" transform="translate(-275.736 -110.271)" fill="#fff"/>
            <path id="Path_32300" data-name="Path 32300" d="M314.909,139.26a12.747,12.747,0,0,1,12.64-3.2,11.267,11.267,0,0,0-16.085,14.932A12.758,12.758,0,0,1,314.909,139.26Z" transform="translate(-273.63 -108.2)" fill="#fff"/>
          </g>
          <g id="Group_26562" data-name="Group 26562" transform="translate(27.543)">
            <g id="Group_26560" data-name="Group 26560" transform="translate(0 0.029)">
              <path id="Path_32301" data-name="Path 32301" d="M328.055,123.1a4.318,4.318,0,0,1-4.324,4.324H308.194a4.318,4.318,0,0,1-4.324-4.324l.014-32.559a4.318,4.318,0,0,1,4.324-4.324h15.537a4.318,4.318,0,0,1,4.324,4.324Z" transform="translate(-303.87 -86.22)" fill="#221e26"/>
            </g>
            <path id="Path_32303" data-name="Path 32303" d="M328.055,98.163a4.318,4.318,0,0,1-4.324,4.324l-15.537-.014a4.318,4.318,0,0,1-4.324-4.324V90.524a4.318,4.318,0,0,1,4.324-4.324h15.537a4.318,4.318,0,0,1,4.324,4.324Z" transform="translate(-303.87 -86.2)" fill="#908e92"/>
            <g id="Group_26561" data-name="Group 26561" transform="translate(2.782 2.782)">
              <rect id="Rectangle_2903" data-name="Rectangle 2903" width="5.621" height="10.723" transform="translate(3.43)" fill="#fff"/>
              <rect id="Rectangle_2904" data-name="Rectangle 2904" width="5.621" height="10.723" transform="translate(9.585)" fill="#fff"/>
              <path id="Path_32304" data-name="Path 32304" d="M318.07,88.14h-1.34V98.863h1.34a1.559,1.559,0,0,0,1.557-1.557V89.682A1.566,1.566,0,0,0,318.07,88.14Z" transform="translate(-300.977 -88.126)" fill="#fff"/>
              <path id="Path_32305" data-name="Path 32305" d="M308.7,88.13h-1.34a1.559,1.559,0,0,0-1.557,1.557v7.624a1.559,1.559,0,0,0,1.557,1.557h1.34Z" transform="translate(-305.8 -88.13)" fill="#fff"/>
            </g>
          </g>
        </g>
        <g id="Group_26567" data-name="Group 26567" transform="translate(0 42.56)">
          <g id="Group_26565" data-name="Group 26565" transform="translate(6.399)">
            <g id="Group_26564" data-name="Group 26564" transform="translate(41.783)">
              <path id="Path_32306" data-name="Path 32306" d="M317.465,160.6a5.082,5.082,0,1,0-.2-10.161l-.807.014a.142.142,0,0,1-.144-.13.133.133,0,0,1,.13-.144,5.082,5.082,0,0,0-.231-10.161L291,140.578a.156.156,0,0,1-.1-.043.137.137,0,0,1-.029-.1,52.816,52.816,0,0,1,2.205-9.023,23.794,23.794,0,0,0,1.5-8.215,7.514,7.514,0,0,0-7.812-7.466,2.4,2.4,0,0,0-1.773.62c-.663.706-.706,1.787-.649,3.935l.014.577c.086,4.165-3.056,9.253-6.1,14.154-2.335,3.776-12.121,14.5-12.121,14.5l7.466,27.731a.153.153,0,0,1,.144.13,5.085,5.085,0,0,0,5.189,4.972l30.411-.677a5.076,5.076,0,0,0,4.958-5.2c-.072-2.969-1.946-4.987-4.583-4.915a.154.154,0,0,1-.144-.144.129.129,0,0,1,.13-.13l3.661-.144a5.082,5.082,0,0,0,4.987-5.2c-.072-3.041-1.816-4.987-4.468-4.915a.129.129,0,0,1-.13-.13.142.142,0,0,1,.13-.144Z" transform="translate(-266.14 -115.729)" fill="#ffbe9d"/>
            </g>
            <path id="Path_32307" data-name="Path 32307" d="M266.48,295.954l40.933-157.476c-12.986-3.358-28.494-4.8-31.838,8.187L237.15,295.954Z" transform="translate(-237.15 -106.71)" fill="#ffbe9d"/>
          </g>
          <path id="Path_32308" data-name="Path 32308" d="M271.971,286.617l30.5-118.215a2.11,2.11,0,0,0-1.513-2.566l-32.732-8.446a2.11,2.11,0,0,0-2.565,1.513L232.71,286.617h39.261Z" transform="translate(-232.71 -97.373)" fill="#fff" stroke="#221e26" stroke-width="1"/>
          <g id="Group_26566" data-name="Group 26566" transform="translate(57.142 74.194)">
            <path id="Path_32309" data-name="Path 32309" d="M274.965,168.408a1.584,1.584,0,1,0,1.917-1.153A1.579,1.579,0,0,0,274.965,168.408Z" transform="translate(-271.226 -167.206)" fill="#a7cf45"/>
            <path id="Path_32310" data-name="Path 32310" d="M273.685,173.348a1.57,1.57,0,0,0,1.153,1.917,1.584,1.584,0,1,0-1.153-1.917Z" transform="translate(-271.791 -165.026)" fill="#a7cf45"/>
            <path id="Path_32311" data-name="Path 32311" d="M272.405,178.287a1.577,1.577,0,0,0,1.153,1.917,1.584,1.584,0,1,0-1.153-1.917Z" transform="translate(-272.356 -162.845)" fill="#a7cf45"/>
          </g>
        </g>
      </g>
      <g id="Group_26579" data-name="Group 26579" transform="translate(261.431 92.314)">
        <g id="Group_26571" data-name="Group 26571" transform="translate(0 12.237)">
          <g id="Group_26570" data-name="Group 26570">
            <g id="Group_26569" data-name="Group 26569">
              <path id="Path_32312" data-name="Path 32312" d="M253.829,85.261a5.57,5.57,0,1,0-11.112-.793l-.058.894a.13.13,0,0,1-.159.13.157.157,0,0,1-.144-.159,5.569,5.569,0,0,0-11.112-.764l-1.874,27.586a.109.109,0,0,1-.058.1c-.029.029-.072.029-.13.014a57.9,57.9,0,0,1-9.642-3.286,25.807,25.807,0,0,0-8.821-2.45,8.255,8.255,0,0,0-8.936,7.783,2.648,2.648,0,0,0,.5,2c.706.793,1.888.951,4.237,1.1l.634.043c4.555.317,9.8,4.252,14.845,8.057,3.891,2.926,8.158,5.967,11.833,7.307.058.029,0,.086-.014.144l-.3,4.569,33.856,2.292.3-5.03a.157.157,0,0,1,.159-.144,5.567,5.567,0,0,0,5.938-5.174l2.277-33.294a5.589,5.589,0,0,0-5.189-5.938c-3.243-.216-5.635,1.629-5.823,4.511a.147.147,0,0,1-.158.13.142.142,0,0,1-.13-.144l.2-4.021a5.578,5.578,0,0,0-5.189-5.967c-3.329-.231-5.621,1.485-5.808,4.4a.147.147,0,0,1-.159.13.168.168,0,0,1-.144-.144Z" transform="translate(-201.772 -79.28)" fill="#ffbe9d"/>
            </g>
            <path id="Path_32313" data-name="Path 32313" d="M248.813,303.283l17.195-179.34a1.936,1.936,0,0,0-1.8-2.061l-34.4-2.32a1.913,1.913,0,0,0-2.047,1.8L210.33,303.3h38.483Z" transform="translate(-197.996 -61.507)" fill="#fff" stroke="#221e26" stroke-width="1"/>
          </g>
          <path id="Path_32314" data-name="Path 32314" d="M246.1,125.675a1.562,1.562,0,0,1,.994,2,1.586,1.586,0,1,1-.994-2Z" transform="translate(-183.135 -58.842)" fill="#a7cf45"/>
        </g>
        <g id="Group_26578" data-name="Group 26578" transform="translate(6.922)">
          <g id="Group_26572" data-name="Group 26572" transform="translate(15.307)">
            <path id="Path_32315" data-name="Path 32315" d="M228.271,71.626l1.8,3.546-4.843,1.24a2.811,2.811,0,0,1-3.546,1.8l-2.551-.836a2.823,2.823,0,0,1-1.8-3.546l4.843-1.24,3.546-1.8Z" transform="translate(-217.195 -70.79)" fill="#221e26"/>
            <path id="Path_32316" data-name="Path 32316" d="M234.891,73.8l1.8,3.546-4.843,1.24a2.823,2.823,0,0,1-3.546,1.8l-2.551-.836a2.822,2.822,0,0,1-1.8-3.546l4.843-1.24,3.546-1.8Z" transform="translate(-214.274 -69.832)" fill="#221e26"/>
            <path id="Path_32317" data-name="Path 32317" d="M241.5,75.952l1.8,3.546-4.843,1.254a2.829,2.829,0,0,1-3.546,1.8l-2.551-.836a2.822,2.822,0,0,1-1.8-3.546l4.843-1.24,3.546-1.8Z" transform="translate(-211.357 -68.875)" fill="#221e26"/>
          </g>
          <g id="Group_26577" data-name="Group 26577" transform="translate(0 0.67)">
            <path id="Path_32318" data-name="Path 32318" d="M276.528,89.062a5.614,5.614,0,0,1,3.589,7.091l-9.037,27.615a5.614,5.614,0,0,1-7.091,3.589l-53.544-17.526a5.614,5.614,0,0,1-3.589-7.091l9.037-27.615a5.614,5.614,0,0,1,7.091-3.589Z" transform="translate(-206.575 -71.255)" fill="#221e26"/>
            <path id="Path_32319" data-name="Path 32319" d="M244.739,80.145a5.614,5.614,0,0,1,3.589,7.091l-7.87,24.041a5.614,5.614,0,0,1-7.091,3.589l-21.432-7.019a5.614,5.614,0,0,1-3.589-7.091l7.869-24.041a5.614,5.614,0,0,1,7.091-3.589Z" transform="translate(-205.917 -70.553)" fill="#908e92"/>
            <g id="Group_26576" data-name="Group 26576" transform="translate(36.335 13.318)">
              <path id="Path_32320" data-name="Path 32320" d="M263.313,86.066a5.614,5.614,0,0,1,3.589,7.091l-8,24.416a5.614,5.614,0,0,1-7.091,3.589l-16.157-5.29a5.614,5.614,0,0,1-3.589-7.091l8-24.416a5.614,5.614,0,0,1,7.091-3.589Z" transform="translate(-231.785 -80.495)" fill="#908e92"/>
              <g id="Group_26574" data-name="Group 26574" transform="translate(10.955 10.177)">
                <path id="Path_32321" data-name="Path 32321" d="M249.423,87.807a5.007,5.007,0,0,1,3.2,6.313l-3.474,10.594a5.007,5.007,0,0,1-6.313,3.2h0a5.007,5.007,0,0,1-3.2-6.313l3.474-10.594a5.007,5.007,0,0,1,6.313-3.2Z" transform="translate(-239.386 -87.556)" fill="#c7c6c8"/>
                <g id="Group_26573" data-name="Group 26573" transform="translate(2.032 2.052)">
                  <path id="Path_32323" data-name="Path 32323" d="M247.108,89.125a2.981,2.981,0,1,1-3.762,1.9A2.976,2.976,0,0,1,247.108,89.125Z" transform="translate(-239.736 -88.979)" fill="#fff"/>
                  <path id="Path_32324" data-name="Path 32324" d="M244.708,96.435a2.981,2.981,0,1,1-3.762,1.9A2.97,2.97,0,0,1,244.708,96.435Z" transform="translate(-240.795 -85.753)" fill="#fff"/>
                </g>
              </g>
              <g id="Group_26575" data-name="Group 26575" transform="translate(1.959 1.919)">
                <path id="Path_32325" data-name="Path 32325" d="M254.426,118.96a1.438,1.438,0,0,1-.231-.029L233.643,112.2a.722.722,0,0,1-.461-.908l9.484-28.97a.691.691,0,0,1,.36-.418.722.722,0,0,1,.548-.043l20.567,6.731a.691.691,0,0,1,.418.36.727.727,0,0,1,.043.548l-9.484,28.97a.691.691,0,0,1-.36.418A.916.916,0,0,1,254.426,118.96Zm-19.645-7.913,19.184,6.284L263,89.73l-19.2-6.284Z" transform="translate(-233.144 -81.826)" fill="#c7c6c8"/>
              </g>
            </g>
            <path id="Path_32326" data-name="Path 32326" d="M220.155,75.435a1.3,1.3,0,1,1,.836,1.643A1.309,1.309,0,0,1,220.155,75.435Zm4.655,1.528a1.3,1.3,0,0,1,2.479.807,1.29,1.29,0,0,1-1.643.822A1.277,1.277,0,0,1,224.81,76.962Zm4.655,1.528a1.3,1.3,0,0,1,2.479.807,1.29,1.29,0,0,1-1.643.822A1.277,1.277,0,0,1,229.466,78.49ZM234.107,80a1.3,1.3,0,1,1,2.479.807A1.3,1.3,0,0,1,234.107,80Zm-17.368-2.018a1.3,1.3,0,1,1,.836,1.643A1.309,1.309,0,0,1,216.739,77.986Zm4.655,1.528a1.3,1.3,0,1,1,.836,1.643A1.309,1.309,0,0,1,221.394,79.514Zm4.655,1.513a1.3,1.3,0,1,1,.836,1.643A1.292,1.292,0,0,1,226.05,81.027Zm4.655,1.528a1.29,1.29,0,0,1,1.643-.822,1.315,1.315,0,0,1,.836,1.643,1.3,1.3,0,0,1-1.643.836A1.319,1.319,0,0,1,230.705,82.555Zm-12.828-.173a1.3,1.3,0,1,1,.822,1.629A1.3,1.3,0,0,1,217.878,82.382Zm4.655,1.528a1.3,1.3,0,1,1,.822,1.629A1.3,1.3,0,0,1,222.533,83.91Zm4.655,1.513a1.3,1.3,0,1,1,.85,1.643A1.283,1.283,0,0,1,227.188,85.423Zm4.655,1.528a1.3,1.3,0,1,1,.836,1.643A1.309,1.309,0,0,1,231.844,86.951Zm-17.411-1.917a1.3,1.3,0,1,1,.836,1.643A1.309,1.309,0,0,1,214.433,85.034Zm4.655,1.528a1.3,1.3,0,1,1,.822,1.643A1.313,1.313,0,0,1,219.088,86.561Zm4.655,1.528a1.3,1.3,0,1,1,.836,1.629A1.277,1.277,0,0,1,223.744,88.089Zm4.641,1.528a1.3,1.3,0,1,1,.836,1.643A1.309,1.309,0,0,1,228.385,89.617Zm-12.77-.288a1.29,1.29,0,0,1,1.643-.822,1.3,1.3,0,1,1-1.643.822Zm4.641,1.528a1.3,1.3,0,0,1,2.479.807,1.3,1.3,0,0,1-2.479-.807Zm4.655,1.513a1.3,1.3,0,1,1,.836,1.643A1.309,1.309,0,0,1,224.911,92.37Zm4.655,1.528a1.29,1.29,0,0,1,1.643-.822,1.3,1.3,0,1,1-1.643.822Zm-17.44-1.8a1.29,1.29,0,0,1,1.643-.822,1.3,1.3,0,1,1-1.643.822Zm4.655,1.528a1.3,1.3,0,1,1,.836,1.643A1.309,1.309,0,0,1,216.782,93.624Zm4.641,1.513a1.3,1.3,0,0,1,2.479.807,1.3,1.3,0,1,1-2.479-.807Zm4.655,1.528a1.3,1.3,0,0,1,1.643-.822,1.3,1.3,0,0,1-.807,2.479A1.343,1.343,0,0,1,226.079,96.665Zm-12.741-.389a1.309,1.309,0,0,1,1.643-.836,1.3,1.3,0,1,1-.822,2.465A1.28,1.28,0,0,1,213.338,96.276Zm4.655,1.528a1.3,1.3,0,1,1,2.479.807,1.3,1.3,0,0,1-1.643.822A1.277,1.277,0,0,1,217.993,97.8Zm4.641,1.513a1.315,1.315,0,0,1,1.643-.836,1.3,1.3,0,0,1-.807,2.479A1.315,1.315,0,0,1,222.634,99.317Zm4.655,1.528a1.309,1.309,0,0,1,1.643-.836,1.3,1.3,0,1,1-1.643.836Zm-17.468-1.7a1.3,1.3,0,1,1,.836,1.643A1.292,1.292,0,0,1,209.821,99.144Zm4.655,1.528a1.3,1.3,0,1,1,.836,1.643A1.309,1.309,0,0,1,214.476,100.672Zm4.641,1.528a1.3,1.3,0,1,1,.836,1.643A1.315,1.315,0,0,1,219.117,102.2Zm4.655,1.513a1.3,1.3,0,1,1,.836,1.643A1.292,1.292,0,0,1,223.773,103.713Zm-12.712-.49a1.3,1.3,0,1,1,2.479.807,1.3,1.3,0,0,1-2.479-.807Zm4.655,1.513a1.3,1.3,0,1,1,2.479.807,1.29,1.29,0,0,1-1.643.822A1.271,1.271,0,0,1,215.716,104.736Zm4.641,1.528a1.3,1.3,0,0,1,2.479.807,1.3,1.3,0,0,1-2.479-.807Zm4.655,1.528a1.3,1.3,0,1,1,2.479.807,1.3,1.3,0,0,1-2.479-.807Z" transform="translate(-205.172 -69.806)" fill="#c7c6c8"/>
            <path id="Path_32327" data-name="Path 32327" d="M226.653,77.565a1.3,1.3,0,1,1,2.479.807,1.3,1.3,0,0,1-2.479-.807Zm4.655,1.528a1.3,1.3,0,1,1,2.479.807,1.3,1.3,0,0,1-2.479-.807Zm4.655,1.528a1.309,1.309,0,0,1,1.643-.836,1.3,1.3,0,0,1-.807,2.479A1.309,1.309,0,0,1,235.964,80.62Zm4.655,1.513a1.3,1.3,0,1,1,.836,1.643A1.3,1.3,0,0,1,240.619,82.134Zm-17.368-2.018a1.3,1.3,0,1,1,.836,1.643A1.3,1.3,0,0,1,223.251,80.116Zm4.655,1.528a1.3,1.3,0,1,1,.836,1.643A1.309,1.309,0,0,1,227.907,81.644Zm4.641,1.513a1.29,1.29,0,0,1,1.643-.822,1.3,1.3,0,1,1-.807,2.479A1.331,1.331,0,0,1,232.548,83.157Zm4.655,1.528a1.3,1.3,0,1,1,.836,1.643A1.315,1.315,0,0,1,237.2,84.685Zm-12.813-.173a1.3,1.3,0,1,1,2.479.807,1.29,1.29,0,0,1-1.643.822A1.277,1.277,0,0,1,224.39,84.512Zm4.655,1.528a1.28,1.28,0,0,1,1.629-.822,1.3,1.3,0,0,1,.836,1.629,1.315,1.315,0,0,1-1.643.836A1.3,1.3,0,0,1,229.045,86.04Zm4.641,1.513a1.3,1.3,0,1,1,2.479.807,1.3,1.3,0,0,1-2.479-.807Zm4.655,1.528a1.3,1.3,0,1,1,.836,1.643A1.309,1.309,0,0,1,238.342,89.081Zm-17.4-1.917a1.3,1.3,0,1,1,.836,1.643A1.286,1.286,0,0,1,220.945,87.164Zm4.641,1.528a1.3,1.3,0,1,1,.836,1.643A1.309,1.309,0,0,1,225.586,88.691Zm4.655,1.528a1.3,1.3,0,1,1,2.479.807,1.3,1.3,0,0,1-2.479-.807Zm4.655,1.513a1.3,1.3,0,1,1,.836,1.643A1.286,1.286,0,0,1,234.9,91.733Zm-12.784-.274a1.28,1.28,0,0,1,1.629-.822,1.3,1.3,0,1,1-1.629.822Zm4.655,1.528a1.3,1.3,0,0,1,1.629-.836,1.315,1.315,0,0,1,.836,1.643,1.3,1.3,0,0,1-1.643.822A1.28,1.28,0,0,1,226.768,92.987Zm4.655,1.513a1.29,1.29,0,0,1,1.643-.822,1.3,1.3,0,1,1-1.643.822Zm4.641,1.528a1.29,1.29,0,0,1,1.643-.822,1.3,1.3,0,1,1-.807,2.479A1.331,1.331,0,0,1,236.064,96.028Zm-17.44-1.8a1.3,1.3,0,1,1,.836,1.643A1.309,1.309,0,0,1,218.625,94.226Zm4.655,1.528a1.28,1.28,0,0,1,1.629-.822,1.3,1.3,0,0,1,.836,1.629,1.3,1.3,0,1,1-2.465-.807Zm4.655,1.513a1.29,1.29,0,0,1,1.643-.822,1.3,1.3,0,1,1-1.643.822Zm4.655,1.528a1.29,1.29,0,0,1,1.643-.822,1.3,1.3,0,1,1-1.643.822Zm-12.755-.389a1.315,1.315,0,0,1,1.643-.836,1.3,1.3,0,0,1,.822,1.643,1.28,1.28,0,0,1-1.629.822A1.3,1.3,0,0,1,219.836,98.406Zm4.655,1.528a1.3,1.3,0,0,1,2.479.807,1.29,1.29,0,0,1-1.643.822A1.277,1.277,0,0,1,224.491,99.934Zm4.655,1.513a1.3,1.3,0,1,1,2.479.807,1.3,1.3,0,0,1-1.643.822A1.277,1.277,0,0,1,229.146,101.447Zm4.655,1.528a1.309,1.309,0,0,1,1.643-.836,1.3,1.3,0,0,1-.807,2.465A1.277,1.277,0,0,1,233.8,102.975Zm-17.483-1.7a1.3,1.3,0,1,1,.836,1.643A1.309,1.309,0,0,1,216.319,101.274Zm4.655,1.528a1.3,1.3,0,1,1,.836,1.643A1.309,1.309,0,0,1,220.974,102.8Zm4.655,1.513a1.3,1.3,0,1,1,.836,1.643A1.286,1.286,0,0,1,225.63,104.315Zm4.641,1.528a1.3,1.3,0,1,1,.836,1.643A1.309,1.309,0,0,1,230.27,105.843Zm-12.712-.49a1.3,1.3,0,0,1,2.479.807,1.3,1.3,0,0,1-2.479-.807Zm4.655,1.513a1.3,1.3,0,0,1,2.479.807,1.3,1.3,0,0,1-2.479-.807Zm4.655,1.528a1.3,1.3,0,1,1,2.479.807,1.3,1.3,0,0,1-1.643.822A1.277,1.277,0,0,1,226.869,108.394Zm4.655,1.528a1.3,1.3,0,0,1,1.643-.836,1.3,1.3,0,1,1-1.643.836Z" transform="translate(-202.302 -68.866)" fill="#c7c6c8"/>
          </g>
        </g>
      </g>
      <g id="Group_26590" data-name="Group 26590" transform="translate(338.883 226.574)">
        <g id="Group_26582" data-name="Group 26582" transform="translate(0 9.452)">
          <g id="Group_26581" data-name="Group 26581">
            <g id="Group_26580" data-name="Group 26580" transform="translate(98.521)">
              <path id="Path_32328" data-name="Path 32328" d="M380.9,193.085a5.57,5.57,0,1,0-6.572-8.994l-.721.519a.131.131,0,0,1-.2-.029.139.139,0,0,1,.029-.2,5.566,5.566,0,0,0-6.6-8.965l-22.254,16.416a.109.109,0,0,1-.115.014c-.043,0-.072-.043-.1-.086a59.561,59.561,0,0,1-3.733-9.484,25.7,25.7,0,0,0-3.834-8.316,8.234,8.234,0,0,0-11.718-1.773,2.592,2.592,0,0,0-1.2,1.686c-.144,1.052.49,2.047,1.9,3.935l.389.5c2.71,3.675,3.084,10.219,3.459,16.532.274,4.857.721,10.089,2.075,13.75.029.058-.058.043-.115.086l-3.69,2.71,20.149,27.3,4.036-3.027a.146.146,0,0,1,.216.029,5.568,5.568,0,0,0,7.783,1.182l26.851-19.789a5.585,5.585,0,0,0,1.167-7.8c-1.931-2.609-4.886-3.243-7.221-1.528a.144.144,0,0,1-.2-.043.137.137,0,0,1,.029-.187l3.2-2.45a5.581,5.581,0,0,0,1.2-7.812c-1.989-2.681-4.771-3.315-7.106-1.6a.157.157,0,0,1-.2-.029.141.141,0,0,1,.029-.2Z" transform="translate(-323.866 -170.501)" fill="#ffbe9d"/>
            </g>
            <path id="Path_32329" data-name="Path 32329" d="M322.444,268.548,378.323,229.5a1.934,1.934,0,0,0,.4-2.71l-20.481-27.745a1.93,1.93,0,0,0-2.7-.4l-100.04,69.9Z" transform="translate(-255.51 -158.247)" fill="#fff" stroke="#221e26" stroke-width="1"/>
          </g>
          <path id="Path_32330" data-name="Path 32330" d="M339.353,220.379a1.577,1.577,0,0,1-2.22-.346,1.587,1.587,0,1,1,2.22.346Z" transform="translate(-219.625 -149.757)" fill="#a7cf45"/>
          <path id="Path_32331" data-name="Path 32331" d="M335.265,223.429a1.593,1.593,0,1,1,.332-2.234A1.59,1.59,0,0,1,335.265,223.429Z" transform="translate(-221.431 -148.411)" fill="#a7cf45"/>
        </g>
        <g id="Group_26589" data-name="Group 26589" transform="translate(114.053)">
          <g id="Group_26583" data-name="Group 26583" transform="translate(39.046 15.913)">
            <path id="Path_32332" data-name="Path 32332" d="M370.65,179.23a2.8,2.8,0,0,1-1.542,3.661l-2.493,1.009a2.8,2.8,0,0,1-3.661-1.542l-1.009-2.493a2.8,2.8,0,0,1,1.542-3.661l2.493-1.009a2.8,2.8,0,0,1,3.661,1.542Z" transform="translate(-361.733 -174.983)" fill="#221e26"/>
            <path id="Path_32333" data-name="Path 32333" d="M373.28,185.67a2.8,2.8,0,0,1-1.542,3.661l-2.493,1.009a2.8,2.8,0,0,1-3.661-1.542l-1.009-2.493a2.8,2.8,0,0,1,1.542-3.661l2.493-1.009a2.8,2.8,0,0,1,3.661,1.542Z" transform="translate(-360.573 -172.142)" fill="#221e26"/>
            <path id="Path_32334" data-name="Path 32334" d="M375.91,192.12a2.8,2.8,0,0,1-1.542,3.661l-2.493,1.009a2.8,2.8,0,0,1-3.661-1.542l-1.009-2.493a2.8,2.8,0,0,1,1.542-3.661l2.493-1.009a2.8,2.8,0,0,1,3.661,1.542Z" transform="translate(-359.412 -169.295)" fill="#221e26"/>
          </g>
          <g id="Group_26588" data-name="Group 26588">
            <path id="Path_32335" data-name="Path 32335" d="M393.631,219.616a5.626,5.626,0,0,1-3.084,7.322l-26.909,10.968a5.621,5.621,0,0,1-7.322-3.084l-21.259-52.175a5.626,5.626,0,0,1,3.084-7.322l26.909-10.968a5.621,5.621,0,0,1,7.322,3.084Z" transform="translate(-334.642 -163.942)" fill="#221e26"/>
            <path id="Path_32336" data-name="Path 32336" d="M375.329,180.767a5.642,5.642,0,0,1-3.084,7.336l-23.435,9.541a5.621,5.621,0,0,1-7.322-3.084l-4.8-11.775a5.63,5.63,0,0,1,3.084-7.336l23.435-9.541a5.642,5.642,0,0,1,7.336,3.084Z" transform="translate(-333.924 -163.258)" fill="#908e92"/>
            <g id="Group_26587" data-name="Group 26587" transform="translate(16.013 27.947)">
              <path id="Path_32337" data-name="Path 32337" d="M363.2,224.377a5.642,5.642,0,0,1-7.336-3.084l-9.7-23.8a5.642,5.642,0,0,1,3.084-7.336L365,183.747a5.642,5.642,0,0,1,7.336,3.084l9.7,23.8a5.626,5.626,0,0,1-3.084,7.322Z" transform="translate(-345.752 -183.332)" fill="#908e92"/>
              <g id="Group_26585" data-name="Group 26585" transform="translate(11.244 10.553)">
                <path id="Path_32338" data-name="Path 32338" d="M364.661,210.625a5.015,5.015,0,0,1-6.529-2.753l-4.209-10.32a5.015,5.015,0,0,1,2.753-6.529h0a5.015,5.015,0,0,1,6.529,2.753l4.209,10.32a5.01,5.01,0,0,1-2.753,6.529Z" transform="translate(-353.554 -190.654)" fill="#fff"/>
                <g id="Group_26584" data-name="Group 26584" transform="translate(2.051 2.08)">
                  <path id="Path_32340" data-name="Path 32340" d="M361.974,204.948a2.98,2.98,0,1,1,1.629-3.891A2.977,2.977,0,0,1,361.974,204.948Z" transform="translate(-353.698 -188.96)" fill="#c7c6c8"/>
                  <path id="Path_32341" data-name="Path 32341" d="M359.075,197.823a2.974,2.974,0,1,1,1.629-3.877A2.977,2.977,0,0,1,359.075,197.823Z" transform="translate(-354.977 -192.097)" fill="#c7c6c8"/>
                </g>
              </g>
              <g id="Group_26586" data-name="Group 26586" transform="translate(1.874 1.819)">
                <path id="Path_32342" data-name="Path 32342" d="M359.271,222.422a.719.719,0,0,1-.663-.447l-11.5-28.235a.721.721,0,0,1,0-.548.734.734,0,0,1,.389-.389l20.034-8.158a.728.728,0,0,1,.937.389l11.5,28.235a.721.721,0,0,1,0,.548.734.734,0,0,1-.389.389l-20.034,8.158A.624.624,0,0,1,359.271,222.422ZM348.706,193.87l10.954,26.895,18.708-7.624-10.954-26.895Z" transform="translate(-347.053 -184.595)" fill="#fff"/>
              </g>
            </g>
            <path id="Path_32343" data-name="Path 32343" d="M365.874,168.341a1.289,1.289,0,0,1,1.686.706,1.3,1.3,0,0,1-.706,1.7,1.279,1.279,0,0,1-1.686-.721A1.293,1.293,0,0,1,365.874,168.341Zm1.845,4.54a1.29,1.29,0,1,1-.721,1.672A1.309,1.309,0,0,1,367.719,172.881Zm1.859,4.526a1.3,1.3,0,1,1-.706,1.7A1.279,1.279,0,0,1,369.578,177.407Zm1.845,4.54a1.3,1.3,0,0,1,1.7.721,1.3,1.3,0,0,1-2.407.98A1.3,1.3,0,0,1,371.423,181.947Zm-9.686-14.557a1.3,1.3,0,1,1-.721,1.686A1.3,1.3,0,0,1,361.737,167.39Zm1.845,4.54a1.284,1.284,0,0,1,1.686.706,1.317,1.317,0,0,1-.706,1.7,1.3,1.3,0,1,1-.98-2.407Zm1.845,4.526a1.306,1.306,0,1,1-.706,1.7A1.3,1.3,0,0,1,365.427,176.455Zm1.845,4.526a1.3,1.3,0,1,1-.706,1.7A1.3,1.3,0,0,1,367.272,180.981Zm-8.158-9.887a1.3,1.3,0,1,1-.721,1.686A1.313,1.313,0,0,1,359.114,171.094Zm1.845,4.54a1.293,1.293,0,1,1-.706,1.672A1.284,1.284,0,0,1,360.959,175.634Zm1.845,4.54a1.293,1.293,0,1,1-.706,1.686A1.284,1.284,0,0,1,362.8,180.174Zm1.845,4.526a1.293,1.293,0,1,1-.706,1.686A1.289,1.289,0,0,1,364.649,184.7Zm-9.786-14.514a1.284,1.284,0,0,1,1.686.706,1.3,1.3,0,0,1-.721,1.7,1.279,1.279,0,0,1-1.686-.721A1.3,1.3,0,0,1,354.862,170.186Zm1.845,4.54a1.284,1.284,0,0,1,1.686.706,1.3,1.3,0,1,1-1.686-.706Zm1.845,4.526a1.306,1.306,0,1,1-.706,1.7A1.3,1.3,0,0,1,358.552,179.251Zm1.845,4.54a1.3,1.3,0,1,1-.706,1.686A1.279,1.279,0,0,1,360.4,183.792Zm-8.057-9.931a1.293,1.293,0,1,1-.706,1.686A1.289,1.289,0,0,1,352.34,173.861Zm1.845,4.54a1.293,1.293,0,1,1-.706,1.672A1.284,1.284,0,0,1,354.185,178.4Zm1.845,4.526a1.3,1.3,0,1,1-.706,1.7A1.3,1.3,0,0,1,356.03,182.927Zm1.859,4.526a1.3,1.3,0,1,1-.706,1.686A1.284,1.284,0,0,1,357.889,187.452ZM347.987,173a1.3,1.3,0,1,1-.706,1.686A1.29,1.29,0,0,1,347.987,173Zm1.845,4.526a1.289,1.289,0,0,1,1.686.706,1.3,1.3,0,1,1-1.686-.706Zm1.845,4.54a1.29,1.29,0,0,1,1.686.721,1.3,1.3,0,1,1-1.686-.721Zm1.845,4.526a1.284,1.284,0,0,1,1.686.706,1.3,1.3,0,0,1-.706,1.7,1.279,1.279,0,0,1-1.686-.721A1.293,1.293,0,0,1,353.522,186.588Zm-7.942-9.974a1.29,1.29,0,1,1-.721,1.672A1.284,1.284,0,0,1,345.58,176.614Zm1.845,4.54a1.29,1.29,0,1,1-.721,1.672A1.3,1.3,0,0,1,347.425,181.154Zm1.845,4.526a1.3,1.3,0,0,1,1.7.706,1.3,1.3,0,1,1-1.7-.706Zm1.845,4.54a1.3,1.3,0,1,1-.706,1.7A1.3,1.3,0,0,1,351.115,190.22Zm-10-14.427a1.3,1.3,0,1,1,.98,2.407,1.3,1.3,0,0,1-.98-2.407Zm1.845,4.54a1.284,1.284,0,0,1,1.686.706,1.3,1.3,0,1,1-2.407.98A1.3,1.3,0,0,1,342.957,180.332Zm1.845,4.526a1.279,1.279,0,0,1,1.686.721,1.306,1.306,0,0,1-2.421.98A1.338,1.338,0,0,1,344.8,184.858Zm1.845,4.526a1.3,1.3,0,1,1-.706,1.7A1.3,1.3,0,0,1,346.647,189.384Zm-7.841-10.017a1.3,1.3,0,1,1-.706,1.686A1.294,1.294,0,0,1,338.806,179.367Zm1.845,4.54a1.293,1.293,0,1,1-.706,1.686A1.284,1.284,0,0,1,340.651,183.907Zm1.845,4.526a1.3,1.3,0,1,1-.721,1.7A1.324,1.324,0,0,1,342.5,188.432Zm1.859,4.54a1.3,1.3,0,1,1-.721,1.7A1.294,1.294,0,0,1,344.355,192.973Z" transform="translate(-333.16 -162.464)" fill="#c7c6c8"/>
          </g>
        </g>
      </g>
    </g>
  </g>
</svg>
