<svg xmlns="http://www.w3.org/2000/svg" xmlns:xlink="http://www.w3.org/1999/xlink" width="536" height="430" viewBox="0 0 536 430">
  <defs>
    <clipPath id="clip-path">
      <rect id="Rectangle_2768" data-name="Rectangle 2768" width="536" height="430" transform="translate(1217.467 84.034)" fill="#fff" stroke="#707070" stroke-width="1"/>
    </clipPath>
    <linearGradient id="linear-gradient" x1="2.75" y1="2.758" x2="2.797" y2="0.853" gradientUnits="objectBoundingBox">
      <stop offset="0" stop-color="#d8dee8"/>
      <stop offset="1" stop-color="#fff"/>
    </linearGradient>
  </defs>
  <g id="Mask_Group_31" data-name="Mask Group 31" transform="translate(-1217.467 -84.034)" clip-path="url(#clip-path)">
    <circle id="Ellipse_1293" data-name="Ellipse 1293" cx="266.5" cy="266.5" r="266.5" transform="translate(1219.467 109.034)" fill="rgba(255,255,255,0.5)"/>
    <g id="Illustration" transform="translate(1317.467 167.068)">
      <g id="Group_26429" data-name="Group 26429" transform="translate(0 40.181)">
        <path id="Union_6" data-name="Union 6" d="M206.567,241.133h22.184l-7.325-12.254c-5.477-9.157-20.686-16.6-45.372-16.6l-12-.217c-46.48,0-92.679-14.027-102.989-31.265s19.124-31.263,65.6-31.263h121c24.687,0,40.317-7.448,34.841-16.6l-1.767-2.961c-5.477-9.157-30.015-16.605-54.7-16.605h-121c-46.48,0-92.683-14.024-102.989-31.266s19.124-31.263,65.6-31.263h121c24.687,0,71.26-7.448,65.788-16.6L238.36,7.332C235.944,3.284,242.831,0,253.743,0s21.725,3.284,24.146,7.332l16.08,26.895c10.307,17.239-50.066,31.263-96.547,31.263h-121c-24.685,0-40.317,7.452-34.84,16.6S71.6,98.7,96.282,98.7h121c46.48,0,92.679,14.029,102.985,31.267l1.771,2.961c10.306,17.238-19.121,31.263-65.6,31.263h-121c-24.685,0-40.313,7.447-34.84,16.6s30.011,16.6,54.7,16.6l12,.217c46.48,0,83.354,14.028,93.66,31.266l7.327,12.254h22.185l-30.632,18.927Z" transform="translate(0)" fill="#fff" stroke="#221e26" stroke-width="1"/>
      </g>
      <g id="Group_26523" data-name="Group 26523" transform="translate(0.754 0)">
        <g id="Group_26431" data-name="Group 26431" transform="translate(269.793 218.167)">
          <g id="Group_26430" data-name="Group 26430">
            <path id="Path_32149" data-name="Path 32149" d="M2758.627,2456.858c0,14.063-19.7,39.724-28.617,50.616a5.548,5.548,0,0,1-8.584,0c-8.916-10.892-28.616-36.553-28.616-50.616a32.909,32.909,0,0,1,65.817,0Z" transform="translate(-2692.81 -2423.949)" fill="#fff" stroke="#221e26" stroke-width="1"/>
            <circle id="Ellipse_1316" data-name="Ellipse 1316" cx="18.353" cy="18.353" r="18.353" transform="translate(6.948 32.908) rotate(-45)" fill="#a7cf45"/>
          </g>
        </g>
        <g id="Group_26444" data-name="Group 26444" transform="translate(169.346 0)">
          <g id="Group_26440" data-name="Group 26440" transform="translate(14.979)">
            <g id="Group_26434" data-name="Group 26434" transform="translate(70.381)">
              <rect id="Rectangle_2772" data-name="Rectangle 2772" width="8.126" height="1.596" transform="translate(21.218 10.788)" fill="#97a6b7" opacity="0.5"/>
              <rect id="Rectangle_2773" data-name="Rectangle 2773" width="8.126" height="1.596" transform="translate(21.218 30.625)" fill="#97a6b7" opacity="0.5"/>
              <rect id="Rectangle_2774" data-name="Rectangle 2774" width="8.126" height="1.596" transform="translate(21.218 50.461)" fill="#97a6b7" opacity="0.5"/>
              <g id="Group_26433" data-name="Group 26433">
                <path id="Path_32150" data-name="Path 32150" d="M2586.906,705.45v95.991l-12.935-2.91V714.563Z" transform="translate(-2573.97 -705.45)" fill="#e9e8eb"/>
                <rect id="Rectangle_2775" data-name="Rectangle 2775" width="40.463" height="95.762" transform="translate(12.935 0.227)" fill="#fff"/>
                <g id="Group_26432" data-name="Group 26432" transform="translate(20.232 11.628)">
                  <rect id="Rectangle_2776" data-name="Rectangle 2776" width="7.96" height="15.049" fill="#e9e8eb"/>
                  <rect id="Rectangle_2777" data-name="Rectangle 2777" width="8.126" height="15.049" transform="translate(10.945)" fill="#e9e8eb"/>
                  <rect id="Rectangle_2778" data-name="Rectangle 2778" width="7.96" height="15.049" transform="translate(22.055)" fill="#e9e8eb"/>
                  <rect id="Rectangle_2779" data-name="Rectangle 2779" width="7.96" height="15.049" transform="translate(0 19.836)" fill="#e9e8eb"/>
                  <rect id="Rectangle_2780" data-name="Rectangle 2780" width="8.126" height="15.049" transform="translate(10.945 19.836)" fill="#e9e8eb"/>
                  <rect id="Rectangle_2781" data-name="Rectangle 2781" width="7.96" height="15.049" transform="translate(22.055 19.836)" fill="#e9e8eb"/>
                  <rect id="Rectangle_2782" data-name="Rectangle 2782" width="7.96" height="15.049" transform="translate(0 39.674)" fill="#e9e8eb"/>
                  <rect id="Rectangle_2783" data-name="Rectangle 2783" width="8.126" height="15.049" transform="translate(10.945 39.674)" fill="#e9e8eb"/>
                  <rect id="Rectangle_2784" data-name="Rectangle 2784" width="7.96" height="15.049" transform="translate(22.055 39.674)" fill="#e9e8eb"/>
                  <rect id="Rectangle_2785" data-name="Rectangle 2785" width="7.96" height="15.049" transform="translate(0 59.51)" fill="#e9e8eb"/>
                  <rect id="Rectangle_2786" data-name="Rectangle 2786" width="8.126" height="15.049" transform="translate(10.945 59.51)" fill="#e9e8eb"/>
                  <rect id="Rectangle_2787" data-name="Rectangle 2787" width="7.96" height="15.049" transform="translate(22.055 59.51)" fill="#e9e8eb"/>
                </g>
              </g>
            </g>
            <g id="Group_26435" data-name="Group 26435" transform="translate(34.462 8.939)">
              <path id="Path_32151" data-name="Path 32151" d="M2302.316,776.41v70.545l-11.276-2.136V783.109l10.255-6.092.891-.531Z" transform="translate(-2291.04 -776.34)" fill="#e9e8eb"/>
              <rect id="Rectangle_2792" data-name="Rectangle 2792" width="31.343" height="70.615" transform="translate(11.276)" fill="#fff"/>
              <rect id="Rectangle_2793" data-name="Rectangle 2793" width="3.98" height="58.178" transform="translate(17.246 7.8)" fill="#e9e8eb"/>
              <rect id="Rectangle_2794" data-name="Rectangle 2794" width="4.146" height="58.178" transform="translate(25.538 7.8)" fill="#e9e8eb"/>
              <rect id="Rectangle_2795" data-name="Rectangle 2795" width="4.146" height="58.178" transform="translate(33.83 7.8)" fill="#e9e8eb"/>
            </g>
            <g id="Group_26439" data-name="Group 26439" transform="translate(0 65.205)">
              <g id="Group_26438" data-name="Group 26438">
                <g id="Group_26436" data-name="Group 26436" transform="translate(10.892)">
                  <rect id="Rectangle_2799" data-name="Rectangle 2799" width="67.07" height="30.686" fill="#fff"/>
                </g>
                <g id="Group_26437" data-name="Group 26437" transform="translate(0 0.109)">
                  <path id="Path_32152" data-name="Path 32152" d="M2030.91,1250.366l-11.33-3.086v-23.55l11.051-3.8Z" transform="translate(-2019.58 -1219.93)" fill="#e9e8eb"/>
                </g>
              </g>
              <rect id="Rectangle_2800" data-name="Rectangle 2800" width="13.801" height="12.507" transform="translate(56.599 18.159)" fill="#e9e8eb"/>
              <rect id="Rectangle_2802" data-name="Rectangle 2802" width="13.801" height="12.507" transform="translate(30.929 18.159)" fill="#e9e8eb"/>
            </g>
          </g>
          <g id="Group_26443" data-name="Group 26443" transform="translate(0 9.448)">
            <g id="Group_26442" data-name="Group 26442">
              <g id="Group_26441" data-name="Group 26441">
                <path id="Path_32153" data-name="Path 32153" d="M1940.786,799.468c0,8.375-11.733,23.656-17.042,30.143a3.3,3.3,0,0,1-5.112,0c-5.309-6.487-17.042-21.768-17.042-30.143a19.6,19.6,0,0,1,39.2,0Z" transform="translate(-1901.59 -779.87)" fill="#fff" stroke="#221e26" stroke-width="1"/>
                <circle id="Ellipse_1317" data-name="Ellipse 1317" cx="10.931" cy="10.931" r="10.931" transform="translate(6.455 27.742) rotate(-76.714)" fill="#a7cf45"/>
              </g>
            </g>
          </g>
        </g>
        <g id="Group_26493" data-name="Group 26493" transform="translate(24.456 52.052)">
          <g id="Group_26447" data-name="Group 26447" transform="translate(76.324 4.259)">
            <path id="Path_32154" data-name="Path 32154" d="M1421.289,1230.072l-59.119-10.4,3.259-32.9h46.395Z" transform="translate(-1362.084 -1181.985)" fill="#fff" stroke="#221e26" stroke-width="1"/>
            <g id="Group_26446" data-name="Group 26446">
              <g id="Group_26445" data-name="Group 26445">
                <rect id="Rectangle_2804" data-name="Rectangle 2804" width="0.945" height="5.036" transform="translate(28.056 0.776)" fill="#c7c6c8"/>
                <rect id="Rectangle_2805" data-name="Rectangle 2805" width="0.945" height="5.036" transform="translate(31.564 0.776)" fill="#c7c6c8"/>
                <rect id="Rectangle_2806" data-name="Rectangle 2806" width="0.945" height="5.036" transform="translate(35.07 0.776)" fill="#c7c6c8"/>
                <rect id="Rectangle_2807" data-name="Rectangle 2807" width="0.945" height="5.036" transform="translate(38.578 0.776)" fill="#c7c6c8"/>
                <rect id="Rectangle_2808" data-name="Rectangle 2808" width="0.945" height="5.036" transform="translate(45.592 0.776)" fill="#c7c6c8"/>
                <rect id="Rectangle_2809" data-name="Rectangle 2809" width="0.945" height="5.036" transform="translate(42.085 0.776)" fill="#c7c6c8"/>
                <rect id="Rectangle_2810" data-name="Rectangle 2810" width="0.945" height="5.036" transform="translate(49.1 0.776)" fill="#c7c6c8"/>
                <rect id="Rectangle_2811" data-name="Rectangle 2811" width="0.945" height="5.036" transform="translate(52.606 0.776)" fill="#c7c6c8"/>
                <rect id="Rectangle_2812" data-name="Rectangle 2812" width="53.551" height="1.087" fill="#c7c6c8"/>
                <rect id="Rectangle_2813" data-name="Rectangle 2813" width="0.945" height="5.036" transform="translate(0 0.776)" fill="#c7c6c8"/>
                <rect id="Rectangle_2814" data-name="Rectangle 2814" width="0.945" height="5.036" transform="translate(3.508 0.776)" fill="#c7c6c8"/>
                <rect id="Rectangle_2815" data-name="Rectangle 2815" width="0.945" height="5.036" transform="translate(7.014 0.776)" fill="#c7c6c8"/>
                <rect id="Rectangle_2816" data-name="Rectangle 2816" width="0.945" height="5.036" transform="translate(10.522 0.776)" fill="#c7c6c8"/>
                <rect id="Rectangle_2817" data-name="Rectangle 2817" width="0.945" height="5.036" transform="translate(14.028 0.776)" fill="#c7c6c8"/>
                <rect id="Rectangle_2818" data-name="Rectangle 2818" width="0.945" height="5.036" transform="translate(17.536 0.776)" fill="#c7c6c8"/>
                <rect id="Rectangle_2819" data-name="Rectangle 2819" width="0.945" height="5.036" transform="translate(21.042 0.776)" fill="#c7c6c8"/>
                <rect id="Rectangle_2820" data-name="Rectangle 2820" width="0.945" height="5.036" transform="translate(24.55 0.776)" fill="#c7c6c8"/>
              </g>
              <rect id="Rectangle_2821" data-name="Rectangle 2821" width="53.551" height="4.795" transform="translate(0 3.414)" fill="#fff" stroke="#221e26" stroke-width="1"/>
            </g>
          </g>
          <g id="Group_26469" data-name="Group 26469" transform="translate(37.64 23.39)">
            <g id="Group_26457" data-name="Group 26457" transform="translate(24.198)">
              <rect id="Rectangle_2822" data-name="Rectangle 2822" width="48.364" height="23.525" fill="#c7c6c8"/>
              <g id="Group_26456" data-name="Group 26456" transform="translate(4.841 1.408)">
                <g id="Group_26448" data-name="Group 26448">
                  <rect id="Rectangle_2824" data-name="Rectangle 2824" width="2.049" height="20.343" fill="#fff" opacity="0.6"/>
                  <rect id="Rectangle_2825" data-name="Rectangle 2825" width="1.366" height="20.343" transform="translate(0.763)" fill="#fff"/>
                </g>
                <g id="Group_26449" data-name="Group 26449" transform="translate(5.222)">
                  <rect id="Rectangle_2826" data-name="Rectangle 2826" width="2.049" height="20.343" fill="#fff" opacity="0.6"/>
                  <rect id="Rectangle_2827" data-name="Rectangle 2827" width="1.366" height="20.343" transform="translate(0.764)" fill="#fff"/>
                </g>
                <g id="Group_26450" data-name="Group 26450" transform="translate(10.444)">
                  <rect id="Rectangle_2828" data-name="Rectangle 2828" width="2.049" height="20.343" fill="#fff" opacity="0.6"/>
                  <rect id="Rectangle_2829" data-name="Rectangle 2829" width="1.366" height="20.343" transform="translate(0.763)" fill="#fff"/>
                </g>
                <g id="Group_26451" data-name="Group 26451" transform="translate(16.429)">
                  <rect id="Rectangle_2831" data-name="Rectangle 2831" width="1.366" height="20.343" transform="translate(0)" fill="#fff"/>
                </g>
                <g id="Group_26452" data-name="Group 26452" transform="translate(21.652)">
                  <rect id="Rectangle_2833" data-name="Rectangle 2833" width="1.366" height="20.343" transform="translate(0)" fill="#fff"/>
                </g>
                <g id="Group_26453" data-name="Group 26453" transform="translate(26.873)">
                  <rect id="Rectangle_2835" data-name="Rectangle 2835" width="1.366" height="20.343" transform="translate(0)" fill="#fff"/>
                </g>
                <g id="Group_26454" data-name="Group 26454" transform="translate(32.096)">
                  <rect id="Rectangle_2837" data-name="Rectangle 2837" width="1.366" height="20.343" transform="translate(0)" fill="#fff"/>
                </g>
                <g id="Group_26455" data-name="Group 26455" transform="translate(37.318)">
                  <rect id="Rectangle_2839" data-name="Rectangle 2839" width="1.366" height="20.343" transform="translate(0)" fill="#fff"/>
                </g>
              </g>
            </g>
            <g id="Group_26468" data-name="Group 26468">
              <rect id="Rectangle_2840" data-name="Rectangle 2840" width="24.198" height="23.525" fill="#fff" stroke="#221e26" stroke-width="0.5"/>
              <rect id="Rectangle_2841" data-name="Rectangle 2841" width="22.046" height="22.718" transform="translate(23.459 0.74) rotate(90)" fill="#fff" stroke="#221e26" stroke-width="0.5"/>
              <g id="Group_26462" data-name="Group 26462" transform="translate(1.061 1.186)">
                <g id="Group_26460" data-name="Group 26460">
                  <g id="Group_26458" data-name="Group 26458">
                    <rect id="Rectangle_2842" data-name="Rectangle 2842" width="10.873" height="21.155" transform="translate(11.202)" fill="#fff" stroke="#221e26" stroke-width="0.5"/>
                    <rect id="Rectangle_2843" data-name="Rectangle 2843" width="10.873" height="21.155" fill="#fff" stroke="#221e26" stroke-width="0.5"/>
                  </g>
                  <g id="Group_26459" data-name="Group 26459" transform="translate(0 6.028)">
                    <rect id="Rectangle_2844" data-name="Rectangle 2844" width="10.873" height="1.85" fill="#fff" stroke="#221e26" stroke-width="0.5" opacity="0.3"/>
                    <rect id="Rectangle_2845" data-name="Rectangle 2845" width="10.873" height="1.85" transform="translate(0 7.249)" fill="#fff" stroke="#221e26" stroke-width="0.5" opacity="0.3"/>
                  </g>
                </g>
                <g id="Group_26461" data-name="Group 26461" transform="translate(11.202 6.028)">
                  <rect id="Rectangle_2846" data-name="Rectangle 2846" width="10.873" height="1.85" fill="#fff" stroke="#221e26" stroke-width="0.5" opacity="0.3"/>
                  <rect id="Rectangle_2847" data-name="Rectangle 2847" width="10.873" height="1.85" transform="translate(0 7.249)" fill="#fff" stroke="#221e26" stroke-width="0.5" opacity="0.3"/>
                </g>
              </g>
              <g id="Group_26467" data-name="Group 26467" transform="translate(5.698 0.137)">
                <g id="Group_26463" data-name="Group 26463">
                  <rect id="Rectangle_2848" data-name="Rectangle 2848" width="0.571" height="22.044" transform="translate(0.217 0.493)" fill="#fff" stroke="#221e26" stroke-width="0.5"/>
                  <path id="Path_32156" data-name="Path 32156" d="M1103.37,1326.7V1304.66h.286Z" transform="translate(-1103.153 -1304.167)" fill="#fff" stroke="#221e26" stroke-width="0.5"/>
                  <rect id="Rectangle_2849" data-name="Rectangle 2849" width="1.004" height="1.159" fill="#fff" stroke="#221e26" stroke-width="0.5"/>
                  <rect id="Rectangle_2850" data-name="Rectangle 2850" width="1.004" height="1.159" transform="translate(0 21.956)" fill="#fff" stroke="#221e26" stroke-width="0.5"/>
                </g>
                <g id="Group_26464" data-name="Group 26464" transform="translate(7.866)">
                  <rect id="Rectangle_2851" data-name="Rectangle 2851" width="0.571" height="22.044" transform="translate(0.217 0.493)" fill="#fff" stroke="#221e26" stroke-width="0.5"/>
                  <path id="Path_32157" data-name="Path 32157" d="M1165.33,1326.7V1304.66h.286Z" transform="translate(-1165.113 -1304.167)" fill="#fff" stroke="#221e26" stroke-width="0.5"/>
                  <rect id="Rectangle_2852" data-name="Rectangle 2852" width="1.004" height="1.159" fill="#fff" stroke="#221e26" stroke-width="0.5"/>
                  <rect id="Rectangle_2853" data-name="Rectangle 2853" width="1.004" height="1.159" transform="translate(0 21.956)" fill="#fff" stroke="#221e26" stroke-width="0.5"/>
                </g>
                <g id="Group_26465" data-name="Group 26465" transform="translate(11.799)">
                  <rect id="Rectangle_2854" data-name="Rectangle 2854" width="0.571" height="22.044" transform="translate(0.216 0.493)" fill="#fff" stroke="#221e26" stroke-width="0.5"/>
                  <path id="Path_32158" data-name="Path 32158" d="M1196.3,1326.7V1304.66h.287Z" transform="translate(-1196.084 -1304.167)" fill="#fff" stroke="#221e26" stroke-width="0.5"/>
                  <rect id="Rectangle_2855" data-name="Rectangle 2855" width="1.004" height="1.159" fill="#fff" stroke="#221e26" stroke-width="0.5"/>
                  <rect id="Rectangle_2856" data-name="Rectangle 2856" width="1.004" height="1.159" transform="translate(0 21.956)" fill="#fff" stroke="#221e26" stroke-width="0.5"/>
                </g>
                <g id="Group_26466" data-name="Group 26466" transform="translate(3.933)">
                  <rect id="Rectangle_2857" data-name="Rectangle 2857" width="0.571" height="22.044" transform="translate(0.217 0.493)" fill="#fff" stroke="#221e26" stroke-width="0.5"/>
                  <path id="Path_32159" data-name="Path 32159" d="M1134.35,1326.7V1304.66h.286Z" transform="translate(-1134.133 -1304.167)" fill="#fff" stroke="#221e26" stroke-width="0.5"/>
                  <rect id="Rectangle_2858" data-name="Rectangle 2858" width="1.004" height="1.159" fill="#fff" stroke="#221e26" stroke-width="0.5"/>
                  <rect id="Rectangle_2859" data-name="Rectangle 2859" width="1.004" height="1.159" transform="translate(0 21.956)" fill="#fff" stroke="#221e26" stroke-width="0.5"/>
                </g>
              </g>
            </g>
          </g>
          <g id="Group_26491" data-name="Group 26491" transform="translate(53.817)">
            <g id="Group_26479" data-name="Group 26479">
              <rect id="Rectangle_2860" data-name="Rectangle 2860" width="48.364" height="23.525" fill="#c7c6c8"/>
              <g id="Group_26478" data-name="Group 26478" transform="translate(5.604 1.409)">
                <g id="Group_26470" data-name="Group 26470" transform="translate(0)">
                  <rect id="Rectangle_2863" data-name="Rectangle 2863" width="1.366" height="20.343" fill="#fff"/>
                </g>
                <g id="Group_26471" data-name="Group 26471" transform="translate(5.222)">
                  <rect id="Rectangle_2865" data-name="Rectangle 2865" width="1.366" height="20.343" transform="translate(0)" fill="#fff"/>
                </g>
                <g id="Group_26472" data-name="Group 26472" transform="translate(10.444)">
                  <rect id="Rectangle_2867" data-name="Rectangle 2867" width="1.366" height="20.343" transform="translate(0)" fill="#fff"/>
                </g>
                <g id="Group_26473" data-name="Group 26473" transform="translate(15.666)">
                  <rect id="Rectangle_2869" data-name="Rectangle 2869" width="1.366" height="20.343" transform="translate(0)" fill="#fff"/>
                </g>
                <g id="Group_26474" data-name="Group 26474" transform="translate(20.889)">
                  <rect id="Rectangle_2871" data-name="Rectangle 2871" width="1.366" height="20.343" transform="translate(0)" fill="#fff"/>
                </g>
                <g id="Group_26475" data-name="Group 26475" transform="translate(26.11)">
                  <rect id="Rectangle_2873" data-name="Rectangle 2873" width="1.366" height="20.343" transform="translate(0)" fill="#fff"/>
                </g>
                <g id="Group_26476" data-name="Group 26476" transform="translate(31.332)">
                  <rect id="Rectangle_2875" data-name="Rectangle 2875" width="1.366" height="20.343" transform="translate(0)" fill="#fff"/>
                </g>
                <g id="Group_26477" data-name="Group 26477" transform="translate(36.555)">
                  <rect id="Rectangle_2877" data-name="Rectangle 2877" width="1.366" height="20.343" transform="translate(0)" fill="#fff"/>
                </g>
              </g>
            </g>
          </g>
          <g id="Group_26492" data-name="Group 26492" transform="translate(0 15.416)">
            <path id="Path_32164" data-name="Path 32164" d="M764.625,1239.5l-4.085,10.569a3.659,3.659,0,0,0,.677,3.753c5.022,5.651,21.087,24.454,22.264,35.046H891.011a14.37,14.37,0,0,1,3.569-6.052c2.483-2.172,4.344-7.667,2.172-11.172l-36.31-8.3-5.187-10.057a4.442,4.442,0,0,0-3.736-2.4l-4.549-.217a4.8,4.8,0,0,1-3.965-2.459l-5.261-9.449a3.648,3.648,0,0,0-3.188-1.874h-66.12A4.089,4.089,0,0,0,764.625,1239.5Z" transform="translate(-760.292 -1236.89)" fill="#fff" stroke="#221e26" stroke-width="1"/>
            <path id="Path_32165" data-name="Path 32165" d="M769.823,1312.68c-3.689.492-7.117,2.759-9.531,4.789a3.648,3.648,0,0,0,.923,2.525c5.022,5.651,21.151,26.185,22.264,39.529l11.848,2.2c-.029-6.35-.316-22.94-1.609-28.253C791.081,1322.625,769.823,1312.68,769.823,1312.68Z" transform="translate(-760.29 -1303.058)" fill="#1eabd5"/>
            <path id="Path_32166" data-name="Path 32166" d="M962.307,1334.962,926,1326.66l-12.478-1.149a10.728,10.728,0,0,1-8.041-4.883l-3.406-5.3a12.206,12.206,0,0,0-10.093-5.6c-15.026-.212-51.1-.635-56.6.1,0,0,21.258,9.945,23.9,20.792,1.292,5.314,1.563,21.91,1.592,28.26h95.7s1.087-10.57,3.568-12.742S964.48,1338.467,962.307,1334.962Z" transform="translate(-825.847 -1300.203)" fill="#23c2f2"/>
            <path id="Path_32167" data-name="Path 32167" d="M1186.17,1468.6l2.793-5.586h4.965l-3.259,5.586Z" transform="translate(-1132.104 -1434.303)" fill="#fff"/>
            <path id="Path_32168" data-name="Path 32168" d="M917.318,1468.6l-2.793-5.586H909.56l3.259,5.586Z" transform="translate(-890.61 -1434.303)" fill="#fff"/>
          </g>
        </g>
        <g id="Group_26501" data-name="Group 26501" transform="translate(182.082 113.17)">
          <path id="Path_32170" data-name="Path 32170" d="M2052.1,2009.21v7.573a1.373,1.373,0,0,0,1.234,1.366l77.536,7.348,10.437,6.906,14.412-19.17Z" transform="translate(-2045.728 -1956.865)" fill="#c7c6c8"/>
          <path id="Path_32171" data-name="Path 32171" d="M2520.24,2083.239v6.778a1.157,1.157,0,0,0,.973,1.143l18.615,2.99-.541-10.927-17.816-1.139A1.157,1.157,0,0,0,2520.24,2083.239Z" transform="translate(-2454.437 -2020.485)" fill="#c7c6c8"/>
          <g id="Group_26494" data-name="Group 26494" transform="translate(10.273 55.839)">
            <path id="Path_32172" data-name="Path 32172" d="M2094.842,2036.73a1.774,1.774,0,0,0-.188.011l-.984-.011.006.433a5.523,5.523,0,0,0-1.616,4.27,5.368,5.368,0,0,0,1.731,4.353l0,.349h1.047c1.536,0,2.782-2.105,2.782-4.7S2096.378,2036.73,2094.842,2036.73Z" transform="translate(-2090.888 -2036.73)" fill="#221e26"/>
            <ellipse id="Ellipse_1318" data-name="Ellipse 1318" cx="2.782" cy="4.702" rx="2.782" ry="4.702" fill="#221e26"/>
            <ellipse id="Ellipse_1320" data-name="Ellipse 1320" cx="1.327" cy="2.453" rx="1.327" ry="2.453" transform="translate(1.3 2.25)" fill="#fff"/>
          </g>
          <g id="Group_26495" data-name="Group 26495" transform="translate(16.468 56.368)">
            <path id="Path_32173" data-name="Path 32173" d="M2144.788,2040.9a1.84,1.84,0,0,0-.206.013l-1.08-.013.006.475a6.055,6.055,0,0,0-1.769,4.677c0,2.156.783,4,1.9,4.769l.005.382h1.147c1.683,0,3.048-2.307,3.048-5.151S2146.471,2040.9,2144.788,2040.9Z" transform="translate(-2140.457 -2040.9)" fill="#221e26"/>
            <ellipse id="Ellipse_1321" data-name="Ellipse 1321" cx="3.048" cy="5.152" rx="3.048" ry="5.152" fill="#221e26"/>
            <ellipse id="Ellipse_1323" data-name="Ellipse 1323" cx="1.454" cy="2.688" rx="1.454" ry="2.688" transform="translate(1.424 2.464)" fill="#fff"/>
          </g>
          <g id="Group_26496" data-name="Group 26496" transform="translate(23.087 56.368)">
            <path id="Path_32174" data-name="Path 32174" d="M2198.129,2040.9c-.075,0-.15.006-.224.014l-1.178-.014.006.518a6.607,6.607,0,0,0-1.932,5.107c0,2.353.856,4.368,2.07,5.207l0,.418h1.253c1.839,0,3.328-2.519,3.328-5.625S2199.967,2040.9,2198.129,2040.9Z" transform="translate(-2193.4 -2040.9)" fill="#221e26"/>
            <ellipse id="Ellipse_1324" data-name="Ellipse 1324" cx="3.327" cy="5.625" rx="3.327" ry="5.625" fill="#221e26"/>
            <path id="Path_32175" data-name="Path 32175" d="M2199.194,2065.034c0,1.62-.711,2.934-1.587,2.934s-1.587-1.314-1.587-2.934.711-2.934,1.587-2.934S2199.194,2063.414,2199.194,2065.034Z" transform="translate(-2194.465 -2059.408)" fill="#fff"/>
          </g>
          <g id="Group_26497" data-name="Group 26497" transform="translate(54.132 59.302)">
            <path id="Path_32176" data-name="Path 32176" d="M2446.649,2064.01a2.672,2.672,0,0,0-.287.018l-1.5-.018.009.661c-1.456,1.139-2.468,3.628-2.468,6.519,0,3.005,1.092,5.577,2.642,6.648l.007.534h1.6c2.346,0,4.249-3.216,4.249-7.182S2448.995,2064.01,2446.649,2064.01Z" transform="translate(-2440.611 -2064.01)" fill="#221e26"/>
            <ellipse id="Ellipse_1326" data-name="Ellipse 1326" cx="4.248" cy="7.182" rx="4.248" ry="7.182" fill="#221e26"/>
            <ellipse id="Ellipse_1328" data-name="Ellipse 1328" cx="2.026" cy="3.745" rx="2.026" ry="3.745" transform="translate(1.986 3.437)" fill="#fff"/>
          </g>
          <g id="Group_26498" data-name="Group 26498" transform="translate(80.726 60.437)">
            <path id="Path_32177" data-name="Path 32177" d="M2661.227,2072.95a3.181,3.181,0,0,0-.365.023l-1.921-.023.011.845c-1.861,1.455-3.152,4.636-3.152,8.329,0,3.839,1.4,7.125,3.375,8.493l.008.68h2.043c3,0,5.427-4.107,5.427-9.174S2664.225,2072.95,2661.227,2072.95Z" transform="translate(-2653.514 -2072.95)" fill="#221e26"/>
            <ellipse id="Ellipse_1329" data-name="Ellipse 1329" cx="5.427" cy="9.174" rx="5.427" ry="9.174" transform="translate(0 0.001)" fill="#221e26"/>
            <ellipse id="Ellipse_1331" data-name="Ellipse 1331" cx="2.587" cy="4.785" rx="2.587" ry="4.785" transform="translate(2.539 4.39)" fill="#fff"/>
          </g>
          <path id="Path_32178" data-name="Path 32178" d="M2003.669,1608.934a2.1,2.1,0,0,0-1.76,2.077V1649.4a2.1,2.1,0,0,0,1.988,2.1l72.153,4.026V1596.9Z" transform="translate(-2001.91 -1596.899)" fill="#23c2f2"/>
          <path id="Path_32179" data-name="Path 32179" d="M2626.6,1598.258l-40.688-1.369v58.625h42.877v-54.993A2.266,2.266,0,0,0,2626.6,1598.258Z" transform="translate(-2511.77 -1596.89)" fill="#1eabd5"/>
          <path id="Path_32180" data-name="Path 32180" d="M2679.125,1727.9l-3.008-7.562-.089-6.252,3.038-.608a.526.526,0,0,0,.408-.642c-.46-1.843-2.14-7.934-4.756-9.947-1.843-1.418-36.8-1.842-36.8-1.842l-16.826,1.094a2.513,2.513,0,0,0-2.35,2.507v37.285a1.885,1.885,0,0,0,1.723,1.879l11.55,1,2.286,2.312s32.735,2.621,45.8.239a1.42,1.42,0,0,0,1.169-1.4v-16.4A1.548,1.548,0,0,0,2679.125,1727.9Z" transform="translate(-2540.432 -1687.826)" fill="#fff" stroke="#221e26" stroke-width="1"/>
          <path id="Path_32181" data-name="Path 32181" d="M2799.656,2058.808l-1.3-.453v-2.624a1.281,1.281,0,0,0-1.281-1.281H2756.54a1.771,1.771,0,0,0-1.77,1.771V2071.9a1.521,1.521,0,0,0,1.579,1.52l43.408-1.669a1.522,1.522,0,0,0,1.463-1.52v-9.218A2.337,2.337,0,0,0,2799.656,2058.808Z" transform="translate(-2659.193 -1996.362)" fill="#fff" stroke="#221e26" stroke-width="1"/>
          <path id="Path_32182" data-name="Path 32182" d="M2894.526,1982.67H2870.49a1.4,1.4,0,0,0-1.393,1.493l1.324,18.873a1.766,1.766,0,0,0,1.822,1.641l20.651-.7a1.766,1.766,0,0,0,1.7-1.637l1.324-18.173A1.4,1.4,0,0,0,2894.526,1982.67Z" transform="translate(-2759.002 -1933.694)" fill="#e9e8eb"/>
          <path id="Path_32184" data-name="Path 32184" d="M2787.414,2116.834l-4.508.225a5.192,5.192,0,0,1-5.435-4.758l-.181-2.191h9.025a1.1,1.1,0,0,1,1.1,1.1Z" transform="translate(-2678.854 -2044.956)" fill="#fff" stroke="#221e26" stroke-width="1"/>
          <path id="Path_32185" data-name="Path 32185" d="M3081.15,2108.776l-.72,4.9s4.753-.166,4.634-6.157l-2.949.324A1.1,1.1,0,0,0,3081.15,2108.776Z" transform="translate(-2943.51 -2042.694)" fill="#fff" stroke="#221e26" stroke-width="1"/>
          <path id="Path_32186" data-name="Path 32186" d="M2789.17,1816.924a3.345,3.345,0,0,1-1.967-.643l-1.855-1.358a2.674,2.674,0,0,1-1.089-2.148v-10.8a1.645,1.645,0,0,1,1.925-1.622l1.818.313h32.61l.018.076,3.1,13.835,0,.02-.342,1.715h-.079l-34.078.605A.373.373,0,0,1,2789.17,1816.924Zm-3.265-16.4a1.45,1.45,0,0,0-1.449,1.45v10.8a2.472,2.472,0,0,0,1.01,1.989l1.854,1.358a3.153,3.153,0,0,0,1.851.606h.055l34-.6.307-1.54-3.075-13.718h-32.47l-1.834-.315A1.262,1.262,0,0,0,2785.905,1800.528Z" transform="translate(-2684.939 -1774.504)" fill="gray"/>
          <path id="Path_32187" data-name="Path 32187" d="M2821.207,1801.437h-32.55l-1.818-.314a1.548,1.548,0,0,0-1.811,1.525v10.8a2.562,2.562,0,0,0,1.049,2.068l1.854,1.358a3.229,3.229,0,0,0,1.965.623l34.077-.605.328-1.638Z" transform="translate(-2685.611 -1775.176)" fill="#e9e8eb"/>
          <g id="Group_26500" data-name="Group 26500" transform="translate(111.836 22.51)">
            <path id="Path_32188" data-name="Path 32188" d="M2886.368,1774.2H2883.6a.759.759,0,0,0-.759.759v1.162a.759.759,0,0,0,.759.759h2.769a.76.76,0,0,0,.759-.759v-1.162A.76.76,0,0,0,2886.368,1774.2Z" transform="translate(-2882.84 -1774.2)" fill="#c7c6c8"/>
            <path id="Path_32189" data-name="Path 32189" d="M3014.427,1774.2h-2.769a.76.76,0,0,0-.759.759v1.162a.759.759,0,0,0,.759.759h2.769a.76.76,0,0,0,.76-.759v-1.162A.76.76,0,0,0,3014.427,1774.2Z" transform="translate(-2994.642 -1774.2)" fill="#c7c6c8"/>
          </g>
        </g>
        <g id="Group_26522" data-name="Group 26522" transform="translate(0 183.149)">
          <g id="Group_26512" data-name="Group 26512">
            <path id="Path_32190" data-name="Path 32190" d="M580.219,2166.047l-.159,42.135,105.9,1.793L706.7,2148.11l-102.082,4.4.4,1.786Z" transform="translate(-578.485 -2148.11)" fill="#fff"/>
            <path id="Path_32191" data-name="Path 32191" d="M581.31,2166.047l24.6-14.4,101.884-3.535-22.638,14.571Z" transform="translate(-579.576 -2148.11)" fill="#e9e8eb"/>
            <path id="Path_32192" data-name="Path 32192" d="M567.669,2262.3l107.425-4.429v-3.547l-107.445,4.489Z" transform="translate(-567.65 -2240.836)" fill="#e9e8eb"/>
            <g id="Group_26507" data-name="Group 26507" transform="translate(107.445)">
              <path id="Path_32193" data-name="Path 32193" d="M1434.953,2148.11l18.371,17.825.32,39.262-39.434,4.778,0-48.382Z" transform="translate(-1414.182 -2148.11)" fill="#fff"/>
              <path id="Path_32194" data-name="Path 32194" d="M1413.99,2165.643,1434.865,2151l18.609,17.591-.017-2.56-18.678-17.865-20.789,13.476Z" transform="translate(-1413.99 -2148.162)" fill="url(#linear-gradient)"/>
              <g id="Group_26506" data-name="Group 26506" transform="translate(7.442 17.366)">
                <g id="Group_26503" data-name="Group 26503" transform="translate(18.871 1.833)">
                  <path id="Path_32195" data-name="Path 32195" d="M1630.9,2330.558l-.224-30.328-9.417-.89.174,32.006Z" transform="translate(-1621.26 -2299.34)" fill="#fff"/>
                  <path id="Path_32196" data-name="Path 32196" d="M1626.565,2338.266l8.161-.55-.206-28.251-8.12-.746Z" transform="translate(-1625.747 -2307.529)" fill="#e9e8eb"/>
                  <path id="Path_32197" data-name="Path 32197" d="M1655.434,2333.534l-.2-31.093-.811-.082.2,31.231Z" transform="translate(-1650.21 -2301.977)" fill="#fff"/>
                  <g id="Group_26502" data-name="Group 26502" transform="translate(0.052 9.573)">
                    <path id="Path_32198" data-name="Path 32198" d="M1622.166,2464.583l9.453-.271-.009-1.1-9.45.208Z" transform="translate(-1622.098 -2451.98)" fill="#fff"/>
                    <path id="Path_32199" data-name="Path 32199" d="M1621.676,2375.908l9.434.33-.007-1.1-9.433-.39Z" transform="translate(-1621.67 -2374.75)" fill="#fff"/>
                  </g>
                </g>
                <g id="Group_26505" data-name="Group 26505">
                  <path id="Path_32200" data-name="Path 32200" d="M1484.371,2319.284l-.132-33.256-11.629-1.127.052,35.28Z" transform="translate(-1472.61 -2284.9)" fill="#fff"/>
                  <path id="Path_32201" data-name="Path 32201" d="M1481.416,2328.351l9.783-.686-.117-30.992-9.722-.883Z" transform="translate(-1480.249 -2294.407)" fill="#e9e8eb"/>
                  <path id="Path_32202" data-name="Path 32202" d="M1517.444,2323.43l-.1-34.157-.956-.092.091,34.323Z" transform="translate(-1510.832 -2288.637)" fill="#fff"/>
                  <g id="Group_26504" data-name="Group 26504" transform="translate(0.015 10.547)">
                    <path id="Path_32203" data-name="Path 32203" d="M1472.882,2467.23l11.683-.272-.005-1.208-11.681.2Z" transform="translate(-1472.861 -2453.337)" fill="#fff"/>
                    <path id="Path_32204" data-name="Path 32204" d="M1472.732,2369.257l11.656.452-.005-1.2-11.653-.526Z" transform="translate(-1472.73 -2367.98)" fill="#fff"/>
                  </g>
                </g>
              </g>
            </g>
            <g id="Group_26509" data-name="Group 26509" transform="translate(51.753 27.001)">
              <path id="Path_32205" data-name="Path 32205" d="M985.592,2376.011l-.152,31.182,35.19.44.334-32.313Z" transform="translate(-984.154 -2373.476)" fill="#fff"/>
              <path id="Path_32206" data-name="Path 32206" d="M991.811,2384.659l-.151,30.155,33.383.418.317-31.193Z" transform="translate(-989.584 -2381.09)" fill="#e9e8eb"/>
              <path id="Path_32207" data-name="Path 32207" d="M975.31,2365.633l38.15-.655.044-4.178-38.176.814Z" transform="translate(-975.31 -2360.8)" fill="#e9e8eb"/>
              <path id="Path_32208" data-name="Path 32208" d="M978.93,2397.737l37.142-.511.037-3.445-37.163.638Z" transform="translate(-978.47 -2389.593)" fill="#fff"/>
              <g id="Group_26508" data-name="Group 26508" transform="translate(0.465 4.73)" opacity="0.5">
                <path id="Path_32209" data-name="Path 32209" d="M979.02,2399.2l37.156-.6.005-.545-37.159.619Z" transform="translate(-979.014 -2398.06)" fill="#d8dee8"/>
                <path id="Path_32210" data-name="Path 32210" d="M978.97,2409.156l37.149-.552.006-.544-37.153.572Z" transform="translate(-978.97 -2406.791)" fill="#d8dee8"/>
              </g>
            </g>
            <g id="Group_26511" data-name="Group 26511" transform="translate(6.919 28.028)">
              <path id="Path_32211" data-name="Path 32211" d="M632.41,2383.367l.062,29.742,31.973.4.089-30.77Z" transform="translate(-631.107 -2380.981)" fill="#fff"/>
              <path id="Path_32212" data-name="Path 32212" d="M638.12,2391.575l.056,28.764,30.486.382.081-29.71Z" transform="translate(-636.093 -2388.202)" fill="#e9e8eb"/>
              <path id="Path_32213" data-name="Path 32213" d="M622.159,2373.466l34.8-.6.013-3.979-34.826.743Z" transform="translate(-622.15 -2368.89)" fill="#e9e8eb"/>
              <path id="Path_32214" data-name="Path 32214" d="M626.768,2404.054l33.59-.464.01-3.281-33.608.577Z" transform="translate(-626.175 -2396.321)" fill="#fff"/>
              <g id="Group_26510" data-name="Group 26510" transform="translate(0.694 4.5)" opacity="0.5">
                <path id="Path_32215" data-name="Path 32215" d="M627.621,2405.4l33.545-.537.027-.521-33.573.558Z" transform="translate(-627.62 -2404.34)" fill="#d8dee8"/>
                <path id="Path_32216" data-name="Path 32216" d="M627.641,2414.874l33.538-.494.028-.521-33.567.515Z" transform="translate(-627.637 -2412.651)" fill="#d8dee8"/>
              </g>
            </g>
          </g>
          <g id="Group_26516" data-name="Group 26516" transform="translate(5.041 52.125)">
            <g id="Group_26513" data-name="Group 26513" transform="translate(20.505)">
              <path id="Path_32217" data-name="Path 32217" d="M768.88,2593.663l36.471,1.763V2558.7l-36.471,1.763Z" transform="translate(-768.88 -2558.7)" fill="#c7c6c8"/>
              <path id="Path_32218" data-name="Path 32218" d="M1056.16,2595.427l13.078-2.514v-31.869l-13.078-2.344Z" transform="translate(-1019.689 -2558.7)" fill="#bbb"/>
              <path id="Path_32219" data-name="Path 32219" d="M896.924,2563.62v5.742l-9.764.427v-5.578Z" transform="translate(-872.144 -2562.995)" fill="#fff"/>
              <path id="Path_32220" data-name="Path 32220" d="M1099.458,2566.463l-5.478-.983v5.656l5.478.594Z" transform="translate(-1052.708 -2564.619)" fill="#fff"/>
            </g>
            <g id="Group_26514" data-name="Group 26514" transform="translate(0 12.135)">
              <path id="Path_32221" data-name="Path 32221" d="M607.36,2678.985l25.76,1.245v-25.94l-25.76,1.245Z" transform="translate(-607.36 -2654.29)" fill="#c7c6c8"/>
              <path id="Path_32222" data-name="Path 32222" d="M810.27,2680.229l9.237-1.775v-22.509l-9.237-1.656Z" transform="translate(-784.51 -2654.29)" fill="#bbb"/>
              <path id="Path_32223" data-name="Path 32223" d="M697.8,2657.76v4.056l-6.895.3v-3.939Z" transform="translate(-680.303 -2657.319)" fill="#fff"/>
              <path id="Path_32224" data-name="Path 32224" d="M840.849,2659.773l-3.869-.693v3.994l3.869.42Z" transform="translate(-807.829 -2658.472)" fill="#fff"/>
            </g>
            <g id="Group_26515" data-name="Group 26515" transform="translate(31.103 23.032)">
              <path id="Path_32225" data-name="Path 32225" d="M852.36,2757.831l18.474.894v-18.6l-18.474.894Z" transform="translate(-852.36 -2740.12)" fill="#c7c6c8"/>
              <path id="Path_32226" data-name="Path 32226" d="M997.88,2758.725l6.624-1.273v-16.143l-6.624-1.189Z" transform="translate(-979.406 -2740.12)" fill="#bbb"/>
              <path id="Path_32227" data-name="Path 32227" d="M917.216,2742.61v2.909l-4.946.217v-2.826Z" transform="translate(-904.664 -2742.293)" fill="#fff"/>
              <path id="Path_32228" data-name="Path 32228" d="M1019.814,2744.057l-2.774-.5v2.864l2.774.3Z" transform="translate(-996.134 -2743.124)" fill="#fff"/>
            </g>
          </g>
          <g id="Group_26521" data-name="Group 26521" transform="translate(85.102 59.287)">
            <path id="Path_32229" data-name="Path 32229" d="M1694.063,2983.828l16.937-.694-4.69-10.985-10.91.643-2.92,4.775Z" transform="translate(-1634.783 -2926.823)" fill="#c7c6c8"/>
            <g id="Group_26517" data-name="Group 26517" transform="translate(36.326 39.543)">
              <path id="Path_32230" data-name="Path 32230" d="M1545.613,2926.59a3.176,3.176,0,0,0-.335.019l-1.76-.019.01.689c-1.7,1.187-2.888,3.783-2.888,6.8,0,3.132,1.278,5.814,3.093,6.932l.009.556h1.873c2.746,0,4.973-3.351,4.973-7.486S1548.359,2926.59,1545.613,2926.59Z" transform="translate(-1538.545 -2926.59)" fill="#221e26"/>
              <ellipse id="Ellipse_1332" data-name="Ellipse 1332" cx="4.973" cy="7.486" rx="4.973" ry="7.486" fill="#221e26"/>
            </g>
            <g id="Group_26518" data-name="Group 26518" transform="translate(83.33 45.228)">
              <path id="Path_32231" data-name="Path 32231" d="M1920.7,2971.37c-.138,0-.274.009-.41.021l-2.156-.021.013.773c-2.088,1.33-3.538,4.238-3.538,7.615,0,3.509,1.567,6.514,3.788,7.764l.01.622h2.294c3.364,0,6.092-3.755,6.092-8.388S1924.066,2971.37,1920.7,2971.37Z" transform="translate(-1912.043 -2971.37)" fill="#221e26"/>
              <ellipse id="Ellipse_1333" data-name="Ellipse 1333" cx="6.092" cy="8.388" rx="6.092" ry="8.388" fill="#221e26"/>
            </g>
            <g id="Group_26519" data-name="Group 26519" transform="translate(60.297 49.123)">
              <path id="Path_32232" data-name="Path 32232" d="M1738.857,3002.05c-.136,0-.27.008-.4.021l-2.122-.021.012.792c-2.056,1.364-3.484,4.345-3.484,7.807,0,3.6,1.543,6.677,3.73,7.959l.01.639h2.258c3.312,0,6-3.849,6-8.6S1742.169,3002.05,1738.857,3002.05Z" transform="translate(-1730.333 -3002.05)" fill="#221e26"/>
              <ellipse id="Ellipse_1334" data-name="Ellipse 1334" cx="5.997" cy="8.598" rx="5.997" ry="8.598" fill="#221e26"/>
              <ellipse id="Ellipse_1336" data-name="Ellipse 1336" cx="2.86" cy="4.485" rx="2.86" ry="4.485" transform="translate(2.803 4.113)" fill="#fff"/>
            </g>
            <path id="Path_32233" data-name="Path 32233" d="M1308.94,2926.59v8.95a3.89,3.89,0,0,0,4.365,3.861l21.763-2.673V2926.59Z" transform="translate(-1299.934 -2887.047)" fill="#c7c6c8"/>
            <path id="Path_32234" data-name="Path 32234" d="M1386.12,2916.8l5.974,9.285a5.3,5.3,0,0,0,3.823,2.393l19.765,2.375,1.512-9.995Z" transform="translate(-1367.316 -2878.5)" fill="#c7c6c8"/>
            <g id="Group_26520" data-name="Group 26520" transform="translate(13.113 42.823)">
              <path id="Path_32235" data-name="Path 32235" d="M1362.773,2952.43c-.113,0-.225.008-.335.019l-1.76-.019.01.689c-1.7,1.187-2.888,3.783-2.888,6.8,0,3.132,1.278,5.814,3.093,6.932l.009.556h1.873c2.746,0,4.973-3.352,4.973-7.486S1365.519,2952.43,1362.773,2952.43Z" transform="translate(-1355.704 -2952.43)" fill="#221e26"/>
              <ellipse id="Ellipse_1337" data-name="Ellipse 1337" cx="4.973" cy="7.486" rx="4.973" ry="7.486" fill="#221e26"/>
              <ellipse id="Ellipse_1339" data-name="Ellipse 1339" cx="2.371" cy="3.905" rx="2.371" ry="3.905" transform="translate(2.326 3.581)" fill="#fff"/>
            </g>
            <path id="Path_32236" data-name="Path 32236" d="M1279.763,2660.437l-40.6-5.623a1.352,1.352,0,0,1-1.166-1.338v-35.769a1.351,1.351,0,0,1,1.309-1.35l40.454-1.247Z" transform="translate(-1238 -2615.11)" fill="#23c2f2"/>
            <path id="Path_32237" data-name="Path 32237" d="M1598.837,2657.942l-31.867,2.5V2615.12l30.284,1.6a1.671,1.671,0,0,1,1.583,1.668Z" transform="translate(-1525.207 -2615.119)" fill="#1eabd5"/>
            <path id="Path_32238" data-name="Path 32238" d="M1600.976,2743.136c-1.1,4.935-3.664,19.171-.8,34.47a2.748,2.748,0,0,0,2.271,2.2l9.888,1.579s.1-9.361,4.849-9.976,9.2,3.839,9.5,11.559c0,0,10.292,1.385,25.83-2.177a4.458,4.458,0,0,0,2.969-2.8l-.7-10.767a3.3,3.3,0,0,0-1.137-2.286l-9.146-7.9s-8.313-11.777-11.084-14.054c0,0-1.484-2.375-13.459-2.672a109.506,109.506,0,0,0-16.663.7A2.737,2.737,0,0,0,1600.976,2743.136Z" transform="translate(-1553.053 -2724.38)" fill="#fff" stroke="#221e26" stroke-width="1"/>
            <path id="Path_32240" data-name="Path 32240" d="M1725.728,2783.154a1.762,1.762,0,0,0,1.721.833l21.093-2.586-.055-.047s-6.9-9.773-10.222-13.233l-19.45,1.17a.891.891,0,0,0-.707,1.353Z" transform="translate(-1657.932 -2748.695)" fill="#e9e8eb"/>
            <path id="Path_32242" data-name="Path 32242" d="M1921.387,2949.115a.374.374,0,0,0-.375-.335,95.486,95.486,0,0,0-14.054,1.545.733.733,0,0,0-.589.885,10.415,10.415,0,0,0,1.66,3.778,2.056,2.056,0,0,0,1.5.842,30.6,30.6,0,0,0,7.1-.073,16.735,16.735,0,0,0,3.91-1.573,1.742,1.742,0,0,0,.891-1.255A16.667,16.667,0,0,0,1921.387,2949.115Z" transform="translate(-1821.502 -2906.42)" fill="#c7c6c8"/>
            <path id="Path_32243" data-name="Path 32243" d="M1821.807,2947.782a.562.562,0,0,1,.307-.777,4.023,4.023,0,0,1,1.47-.326c.485.057,4.582,1.121,6.457,1.612a1.251,1.251,0,0,1,.939,1.285c-.084,1.276-.566,3.3-2.756,3.523C1825.182,2953.414,1823.261,2950.73,1821.807,2947.782Z" transform="translate(-1747.641 -2904.58)" fill="#fff" stroke="#221e26" stroke-width="1"/>
            <path id="Path_32244" data-name="Path 32244" d="M1817.468,2986.272c-7.974,1.113-9.591-1.622-9.591-1.622a21.963,21.963,0,0,1-6.089-.354,1.461,1.461,0,0,0-1.465.666,2.1,2.1,0,0,1-1.485.876,13.793,13.793,0,0,1-4.628-.553,15.51,15.51,0,0,1,2.846,8.819s10.466,1.4,26-2.166a4.456,4.456,0,0,0,2.969-2.8l-.458-7.022C1824.756,2983.366,1822.626,2985.551,1817.468,2986.272Z" transform="translate(-1723.598 -2935.527)" fill="#c7c6c8"/>
            <path id="Path_32246" data-name="Path 32246" d="M1628.949,2785.184l2.864.693a3.9,3.9,0,0,1,2.3,1.587l7.092,10.344a.948.948,0,0,1-.979,1.464l-12.288-2.6a1.106,1.106,0,0,1-.879-1.034,45.142,45.142,0,0,1,.536-9.578A1.114,1.114,0,0,1,1628.949,2785.184Z" transform="translate(-1577.625 -2763.565)" fill="#e9e8eb"/>
          </g>
        </g>
      </g>
    </g>
  </g>
</svg>
