<svg version="1.2" xmlns="http://www.w3.org/2000/svg" viewBox="0 0 867 660" width="867" height="660"><defs><clipPath clipPathUnits="userSpaceOnUse" id="cp1"><path d="m-1286-698h3600v5400h-3600z"/></clipPath><linearGradient id="P" gradientUnits="userSpaceOnUse"/><linearGradient id="g1" x1="577.7" y1="187.7" x2="652.7" y2="57.8" href="#P"><stop stop-color="#ff2e17"/><stop offset="1" stop-color="#ffc734"/></linearGradient><linearGradient id="g2" x1="436.6" y1="130.4" x2="511.6" y2=".5" href="#P"><stop stop-color="#ff2e17"/><stop offset="1" stop-color="#ffc734"/></linearGradient></defs><style>.a{fill:#fff}.b{fill:#ff7d24}.c{fill:url(#g1)}.d{fill:url(#g2)}.e{fill:#0d144d}</style><g clip-path="url(#cp1)"><path fill-rule="evenodd" class="a" d="m37.6 482.1q0 11 11 11h33q18 0 26.4 8.3 8.5 8.3 8.5 26v9q0 17.7-8.5 26-8.4 8.3-26.4 8.3-5.5 0-11.6 0-6.2 0-12.5 0-6.3 0-12.7 0-6.3 0-12 0-13.4 0-26.6-2.4v-23.4q13.4 0 26.1 0 10.8 0 22.4 0 11.5 0 19.6 0 4.2 0 6.7-2.3 2.5-2.4 2.5-6.4v-15.6h-42.2q-19.3 0-28-8.7-8.7-8.7-8.7-28v-5.5q0-19.3 8.7-28 8.7-8.7 28-8.7h64.4v25.7h-57.1q-11 0-11 11zm131.2-9.2h22.9v24.8h-22.9v42.2q0 2.7 1.8 4.6 1.8 1.8 4.6 1.8h23.8v23.9q-5.3 0.7-11.2 0.7-4.9 0.8-11.1 0.8-6.3 0-12.5 0-12.5 0-20-7.5-7.5-7.5-7.5-19.9v-46.6h-11v-24.8h11l3.6-22h28.5zm62.3 99.1q-12.4 0-20-7.5-7.5-7.6-7.5-20v-8.3q0-12.5 7.5-20 7.6-7.5 20-7.5h37.7v-7.1q0-2.7-1.9-4.4-1.8-1.8-4.6-1.8-7.3 0-15.8 0-8.6 0-16.1 0.8-8.8 1.2-17.6 1.2v-22.7q10.1-1.4 20.5-1.4 9-1.7 19.7-1.7 10.6 0 20.3 0 12.5 0 20 7.5 7.6 7.5 7.6 19.9v71.1h-28.5l-1.8-9.1q-4.8 3.1-10.3 5.5-4.8 2-10.6 3.7-5.9 1.8-12.1 1.8zm15.6-25.7q3.4 0 7.3-0.6 3.8-0.5 7.2-1.2 3.8-0.8 7.5-1.9v-11h-26.6q-2.8 0-4.6 1.9-1.9 1.8-1.9 4.5v1.9q0 2.7 1.9 4.6 1.8 1.8 4.6 1.8zm99-73.4l1.9 11.9q4.2-3.6 9.3-6.8 4.4-2.5 10.4-4.7 6-2.2 13.3-2.2h8.3v28.4h-15.6q-4.8 0-9.1 0.9-4.3 0.9-7.6 1.9-3.9 1.3-7.2 2.7v65.1h-32.1v-97.2z"/><path fill-rule="evenodd" class="b" d="m436.6 570.1h-33v-128.4h101.8v25.7h-68.8v30.3h54.1v25.6h-54.1zm79.8-128.4h32.1v98.2q0 2.7 1.9 4.6 1.8 1.8 4.5 1.8h11.1v23.8q-3.7 0.6-7.6 1-3.3 0.3-7.1 0.6-3.9 0.3-7.4 0.3-12.4 0-20-7.5-7.5-7.6-7.5-20zm60.6 58.5q0-13.7 7.8-21.4 7.8-7.8 21.5-7.8h36.7q13.8 0 21.6 7.8 7.8 7.8 7.8 21.6v33.9h-63.3v7q0 2.6 1.8 4.4 1.8 1.7 4.6 1.7 7.9 0 17.1 0 9.3 0 17.4 0 9.3-1 18.7-2.1v23q-10.6 1.4-21.8 1.4-9.6 1.7-20.8 1.7-11.2 0-21.6 0-12.5 0-20-7.5-7.5-7.5-7.5-19.9zm39.4-6.3q-7.3 0-7.3 7.4v10.1h31.2v-10.1q0-7.4-7.4-7.4zm70.7 6.3q0-13.7 7.7-21.4 7.8-7.8 21.6-7.8h36.7q13.8 0 21.6 7.8 7.7 7.8 7.7 21.6v33.9h-63.2v7q0 2.6 1.8 4.4 1.8 1.7 4.6 1.7 7.9 0 17.1 0 9.3 0 17.4 0 9.3-1 18.7-2.1v22.9q-10.7 1.5-21.9 1.5-9.5 1.7-20.7 1.7-11.2 0-21.6 0-12.5-0.1-20-7.5-7.5-7.5-7.5-19.9zm39.4-6.3q-7.3 0-7.3 7.4v10h31.1v-10q0-7.4-7.3-7.4zm110.1-21.1h22.9v24.8h-22.9v42.2q0 2.7 1.8 4.6 1.9 1.8 4.6 1.8h23.9v23.9q-5.4 0.7-11.2 0.7-5 0.8-11.2 0.8-6.3 0-12.5 0-12.5 0-20-7.5-7.5-7.5-7.5-19.9v-46.6h-11v-24.8h11l3.6-22h28.5z"/><path fill-rule="evenodd" class="c" d="m502.7 57.8c40.6 0 78.2 13.3 108.5 35.9l-6.3 6.2-10.6-1.6-16 16.2 11.6 3.1c4.4 1.1 7.1 3.5 10.3 6.6 3.1 3.2 5.4 5.9 6.6 10.3l3.1 11.6 16.1-16-1.6-10.6 7.7-7.6c32.4 32.8 52.4 77.9 52.4 127.7 0 26.4-5.6 51.4-15.7 74-8.7 1.7-17.5 2.6-26.3 2.8 0.9-13.5 1.5-26.8 2.4-33.3-11 1.4-31.8-7.8-40.9-11.7-10.9-4.7-26.7-12.7-36.9-15.7l-85.4-20.1c-0.3 18.4 3.6 30.4 16.5 41.3 3.1 2.5 5.7 8 7.5 13.8-14-3.4-28.2-6.4-42.4-8.3l-19.5-60.3 132.2-96.2-163.8-0.4-11.8-36.2c29.1-19.9 64.4-31.5 102.3-31.5zm102.2 180.9l0.5 14.8c3.2 0.7 10.1-0.3 14.2-0.2l0.1 8.1c-4.3 2.5-4.4 2.8-13.7 3.3v3.6l29.7 10.1 0.1-30.1-3.9-2.1-0.2-28.2h-7.2v24.2l-7.9-4.3-0.1-26.4-7.3 0.2v22.8c-10.7 0-6.5 0.3-16.2-2.3l-14.7-3.9v6.2l-15.5-0.1 0.1 16.4 3.9 1.5v-13.8zm-7.4 9.5h5.5v-7.7h-5.5zm-7.3 0h5.6v-7.6h-5.6zm-7.2 0h5.5v-7.6h-5.5zm-7.3 0h5.5v-7.6h-5.5zm-7.2 0h5.5v-7.7h-5.5z"/><path class="a" d="m330.1 336.8c17.1-19.3 34.8-31.8 53-39.4l25.4 18.5c-24.4 2.3-50.4 8.6-78.4 20.9zm135.6-47c71.9 10.4 148.4 50.8 224.1 25.5-71.9 47.4-136.2 13.4-215.1 2.4zm-91 117.7c71.3-80.4 157.7 13.8 242.6-14.6-74.7 49.4-137.1-31.9-242.6 14.6zm-32.8-30c28.8-32.5 59.5-43.2 91.5-43.6l36.9 26.8c-37.9-5.3-79.7-4.7-128.4 16.8zm139.8-37.9c57.7 12.3 118.2 38.9 178.1 18.8-57.4 37.9-109.3 17-170.3 5.5z"/><path class="a" d="m676 56.3c-1.1 3.4-3.3 5-6.2 7.9l-16 16c-0.1 0.3 1.8 9.8 2 11.1 0.8 3.9 1.4 7.5 2.1 11.3l4.3 22.7-4.5 4.3c-1.6-2.4-11.2-21.7-13.5-26.1l-4.8-8.9-20.5 20.5c-2.2 2.3-1.9 1.7-1.6 4.2l1.3 8.4-5 5c-1.4-5.1-3.8-8.6-8.5-13.4-4.8-4.7-8.4-7.1-13.4-8.5l5-5 8.4 1.2c2.5 0.4 1.9 0.7 4.2-1.5l20.5-20.5-8.9-4.8c-4.4-2.3-23.7-12-26.1-13.5l4.3-4.5 22.6 4.3c3.9 0.7 7.5 1.3 11.4 2.1 1.3 0.2 10.7 2.1 11.1 2l16-16c2.9-2.9 4.5-5.1 7.9-6.2 1.9-0.6 6-1.5 7.8 0.1 1.6 1.8 0.7 5.9 0.1 7.8z"/><path class="a" d="m365.6 0.5l43.8 134.5 141.6 0.3-108.8 79.1-117.5-89zm73.7 226l40.9 126.8-106.4-77.2z"/><path class="d" d="m361.8 270.3l-114.8 83 43.6-134.5-114.5-83.5 141.4-0.1 0.1-0.3 111.4 84.5z"/><path class="a" d="m0.7 586.9h864.5v72.4h-864.5z"/><path fill-rule="evenodd" class="e" d="m48.9 610.7v2.2h-11.1v-1.2q0-5.3-0.9-6.9-0.8-1.7-2.9-1.7-2.1 0-2.9 1.7-0.9 1.6-0.8 6.9v22.8q-0.1 5.1 0.8 6.8 0.9 1.7 3 1.7 0.6 0 1.5-0.1 0.9-0.1 2.2-0.5v-12.3h-3.1v-8.5h14.2v27.1q-4.2 1.5-7.7 2.1-3.5 0.7-6.9 0.7-8.6 0-12-4.1-3.4-4.2-3.4-15.5v-17.7q0-11.2 3.4-15.4 3.4-4.2 12.1-4.1 8 0 11.2 3.6 3.3 3.6 3.3 12.4zm10.7-15.2h11.4v46.6h13v8.5h-24.4zm61.9 18.7v17.7q0 11.2-3.4 15.4-3.3 4.2-12 4.2-8.6 0-12-4.1-3.4-4.2-3.4-15.5v-17.7q0-11.2 3.4-15.4 3.4-4.1 12-4.1 8.7 0 12.1 4.1 3.3 4.2 3.3 15.4zm-11.3-2.5q0-5.4-0.9-7-0.9-1.5-3.2-1.5-2.2 0-3.1 1.6-0.9 1.6-0.9 6.9v22.8q0 5.3 0.8 6.9 0.9 1.5 3.2 1.5 2.3 0.1 3.2-1.6 0.9-1.6 0.9-6.8zm22.2-16.2h13.8q8.1 0 11.7 3 3.5 3 3.5 9.8v2.3q0 4.7-2.1 7.6-2.1 2.8-6.3 3.7 4.5 0.8 6.9 3.6 2.4 2.9 2.4 7.4v4.9q0 6.8-3.6 9.8-3.5 3-11.6 3h-14.7zm10.7 8.2v14.4h1q3.3 0 4.6-1.3 1.3-1.2 1.3-4.5v-2.8q0-3.3-1.3-4.6-1.3-1.2-4.6-1.2zm0 22.3v16.7h1.2q3.8 0 5.2-1.5 1.5-1.4 1.5-5.3v-3.2q0-3.8-1.5-5.2-1.4-1.5-5.2-1.5zm35.8-30.5h14.6l9.2 55.1h-11.1l-1.4-11.5h-9.6l-1.9 11.5h-10zm6.8 9.5l-3.7 25.6h7l-3-25.6zm24.7-9.5h11.4v46.7h13v8.4h-24.4zm65 0h11.4v46.7h13v8.5h-24.4zm61.9 18.6v17.8q0 11.2-3.4 15.4-3.3 4.2-12 4.2-8.6 0-12-4.2-3.4-4.1-3.4-15.4v-17.8q0-11.1 3.4-15.3 3.4-4.2 12-4.2 8.7 0 12.1 4.2 3.3 4.2 3.3 15.3zm-11.3-2.5q0-5.3-0.9-6.9-0.9-1.6-3.2-1.6-2.3 0-3.2 1.7-0.8 1.6-0.8 6.8v22.8q0 5.3 0.8 6.9 0.9 1.6 3.2 1.6 2.3 0 3.2-1.6 0.9-1.6 0.9-6.9zm52-0.9v2.1h-11.1v-1.2q0-5.2-0.8-6.9-0.8-1.6-2.9-1.6-2.2 0-3 1.6-0.8 1.7-0.8 6.9v22.8q0 5.2 0.8 6.9 0.9 1.7 3 1.7 0.6 0 1.5-0.1 0.9-0.2 2.3-0.5v-12.3h-3.2v-8.5h14.2v27.1q-4.1 1.4-7.7 2.1-3.5 0.7-6.8 0.7-8.7 0-12.1-4.2-3.3-4.1-3.3-15.4v-17.8q0-11.2 3.3-15.3 3.4-4.2 12.1-4.2 8 0 11.2 3.6 3.3 3.7 3.3 12.5zm11-15.2h11.4v55.1h-11.4zm50.6 12.2v4.2h-11.1v-4.9q0-2.2-0.6-3.1-0.7-0.9-2.2-0.9-1.6 0-2.2 0.9-0.6 0.8-0.6 3.1v3.6q0 2.1 1.1 3.7 1 1.6 3.9 3.8l4.7 3.5q0.3 0.3 1.1 0.8 3.4 2.5 4.6 4.5 0.9 1.6 1.3 3.5 0.5 1.8 0.5 4.5v3.4q0 6.4-4 9.8-3.9 3.4-11.3 3.4-7.4 0-10.7-3.2-3.3-3.2-3.3-10.6v-4.1h11.4v4.7q0 2.5 0.8 3.6 0.7 1 2.5 1 1.8 0 2.5-1 0.7-0.9 0.7-3.6v-2.2q0-2.3-1-4-1-1.7-4.8-4.5l-4.6-3.5q-3.4-2.5-4.9-5.4-1.4-2.9-1.4-6.8v-4.8q0-5.6 4-9 4-3.5 10.7-3.5 6.4 0 9.7 3.3 3.2 3.4 3.2 9.8zm7.6-12.2h28.7v8.5h-8.5v46.6h-11.7v-46.6h-8.5zm37.2 0h11.4v55.1h-11.4zm52.4 15.3v2.1h-11v-1.2q0-5.3-0.9-6.9-0.8-1.6-2.9-1.6-2.1 0-2.9 1.6-0.9 1.6-0.9 6.9v22.8q0 5.2 0.9 6.9 0.9 1.6 3 1.6 2 0 2.9-1.5 0.8-1.6 0.8-6.1v-3h11v3q0 9-3.2 12.6-3.2 3.6-11.3 3.6-8.7 0-12-4.2-3.4-4.2-3.4-15.5v-17.7q0-11.2 3.4-15.4 3.4-4.1 12.1-4.1 7.9 0 11.2 3.6 3.2 3.5 3.2 12.5zm37.8-3v4.1h-11v-4.9q-0.1-2.2-0.7-3.1-0.6-0.9-2.2-0.9-1.5 0-2.1 0.9-0.6 0.9-0.6 3.1v3.6q0 2.1 1 3.7 1 1.7 4 3.8l4.6 3.5q0.4 0.3 1.1 0.9 3.4 2.4 4.6 4.5 1 1.5 1.4 3.4 0.4 1.9 0.4 4.5v3.4q0 6.4-3.9 9.8-4 3.5-11.3 3.5-7.5 0-10.8-3.3-3.2-3.2-3.2-10.6v-4.1h11.4v4.7q0 2.5 0.7 3.6 0.8 1.1 2.6 1.1 1.7 0 2.5-1 0.7-1 0.7-3.7v-2.1q0-2.4-1-4.1-1.1-1.7-4.8-4.4l-4.7-3.6q-3.3-2.5-4.8-5.3-1.5-2.9-1.5-6.9v-4.8q0-5.6 4.1-9 4-3.4 10.7-3.4 6.3 0 9.6 3.3 3.2 3.3 3.2 9.8zm44.2-12.3h11.9q9.1 0 12.8 3.5 3.8 3.4 3.8 11.5v3.6q0 7.8-3.6 11.4-3.6 3.7-11.1 3.6h-3.2v21.5h-10.6zm10.6 8.3v17.2h1.1q3 0 4.2-1.5 1.2-1.5 1.2-5.5v-3.3q0-3.9-1.2-5.4-1.2-1.5-4.2-1.5zm23.4-8.3h11.2l4.9 41h0.7l4.8-41h9.6l-9.2 55.1h-12zm36 0h28.7v8.6h-8.5v46.6h-11.7v-46.6h-8.5zm70.6 0h11.4v46.6h13.1v8.5h-24.5zm24.3 0h28.7v8.5h-8.5v46.6h-11.7v-46.6h-8.5zm36.9 0h11q6.4 0 9.6 1 3.3 1.1 5.5 3.5 2.1 2.3 3 5.9 0.9 3.7 0.8 10.3v13.8q0.1 6.5-0.8 10.2-0.9 3.7-3 6-2.2 2.4-5.5 3.4-3.3 1-9.6 1h-11zm11.5 8.5v38.2h1.1q3.4 0 4.7-1.3 1.3-1.3 1.3-4.6v-26.5q0-3.2-1.3-4.5-1.3-1.3-4.7-1.3z"/></g></svg>